<svg width="1186" height="500" viewBox="0 0 1186 500" fill="none" xmlns="http://www.w3.org/2000/svg">
<path d="M271.604 75H157.933L193.063 184.471H306.73L214.768 249.758L249.909 359.854C309.106 316.732 328.446 251.47 306.743 184.476L271.602 75H271.604ZM9.13733 184.471H122.806L157.933 75H44.2764L9.13733 184.471C-12.5764 251.466 6.77713 316.73 65.9716 359.849L101.101 249.756L9.13733 184.471ZM65.9716 359.849L157.936 425L249.9 359.849L157.936 293.621L65.9716 359.849ZM923.808 181.785C896.904 181.785 879.814 194.002 871.711 213.809H869.674V123.682H829.31V359.287H870.57V257.066C870.57 231.758 886.297 217.171 908.418 217.171C930.072 217.171 942.847 230.962 942.847 254.55V359.29H984.104V247.669C984.104 205.382 960.171 181.785 923.811 181.785H923.808ZM1095.64 123.294C1039.8 123.294 1006.2 166.985 1006.06 242.925C1006.06 319.081 1039.55 363.353 1095.64 363.353C1151.74 363.353 1185.23 319.203 1185.23 242.925C1185.2 167.108 1151.49 123.294 1095.64 123.294ZM1048.66 242.967C1048.77 187.579 1066.82 158.403 1095.64 158.403C1115.34 158.403 1129.99 171.932 1137.38 198.033L1049.41 261.953C1048.88 255.638 1048.63 249.303 1048.66 242.967ZM1095.64 327.864C1075.29 327.864 1060.27 313.472 1053.2 285.508L1141.66 221.202C1142.39 228.42 1142.76 235.67 1142.76 242.925C1142.75 298.771 1124.7 327.823 1095.65 327.823V327.867L1095.64 327.864ZM643.621 285.721C643.621 312.391 624.587 325.615 606.353 325.615C586.523 325.615 573.29 311.588 573.29 289.365V184.268H532.033V295.747C532.033 337.812 555.963 361.631 590.392 361.631C616.606 361.631 635.071 347.84 643.052 328.232H644.885V359.352H684.892V184.258H643.621V285.721ZM438.764 181.613C401.954 181.613 373.697 198.021 364.575 229.937L403.095 235.403C407.167 223.44 418.822 213.18 438.988 213.18C458.136 213.18 468.622 222.984 468.622 240.197V240.931C468.622 252.778 456.204 253.349 425.318 256.658C391.407 260.273 358.832 270.391 358.832 309.816C358.832 344.235 384.019 362.467 417.406 362.467C444.893 362.467 461.283 349.59 468.805 334.889H470.18V358.933H509.829V241.787C509.87 195.52 472.153 181.613 438.764 181.613ZM468.775 296.145C468.775 315.628 453.048 332.161 428.208 332.161C410.992 332.161 398.687 324.294 398.687 309.135C398.687 293.294 412.48 286.691 430.936 284.062C441.767 282.586 463.421 279.848 468.775 275.521V296.145ZM772.967 140.53H731.71V184.365H706.666V217.144H731.707V314.064C731.483 347.005 755.416 363.191 786.424 362.286C793.518 362.15 800.567 361.123 807.405 359.232V326.555C804.281 326.971 796.969 327.908 791.656 328.031C781.294 328.265 772.967 324.375 772.967 307.743V217.141H807.506V184.362H772.967V140.53Z" fill="#272626"/>
</svg>
