<svg width="837" height="500" viewBox="0 0 837 500" fill="none" xmlns="http://www.w3.org/2000/svg">
<path d="M236.503 181.589C236.503 191.88 237.619 200.222 239.564 206.34C242.034 213.224 245.007 219.915 248.461 226.362C249.852 228.586 250.406 230.81 250.406 232.759C250.406 235.537 248.74 238.319 245.125 241.101L227.606 252.78C225.103 254.45 222.6 255.283 220.373 255.283C217.594 255.283 214.812 253.892 212.03 251.389C208.284 247.362 204.932 242.986 202.021 238.319C199.239 233.595 196.458 228.307 193.4 221.913C171.709 247.495 144.454 260.289 111.642 260.289C88.2845 260.289 69.6509 253.613 56.0235 240.268C42.3994 226.916 35.4479 209.119 35.4479 186.874C35.4479 163.237 43.7903 144.049 60.7541 129.588C77.7145 115.128 100.242 107.897 128.885 107.897C138.339 107.897 148.073 108.731 158.36 110.122C168.652 111.513 179.218 113.737 190.343 116.24V95.9398C190.343 74.8032 185.891 60.067 177.27 51.4457C168.373 42.8244 153.354 38.6515 131.942 38.6515C122.209 38.6515 112.2 39.7669 101.909 42.2699C91.6208 44.7697 81.6086 47.8305 71.8752 51.7245C67.4267 53.6699 64.0904 54.782 62.1418 55.3397C60.1964 55.8974 58.8054 56.1729 57.6933 56.1729C53.7993 56.1729 51.8539 53.391 51.8539 47.5516V33.9242C51.8539 29.4758 52.4116 26.1395 53.7993 24.1941C55.1903 22.2454 57.6933 20.3001 61.5873 18.3547C71.3207 13.3486 82.9995 9.17571 96.6237 5.83939C110.254 2.22422 124.715 0.557694 140.009 0.557694C173.103 0.557694 197.297 8.0636 212.87 23.082C228.164 38.0971 235.952 60.9002 235.952 91.4914V181.589H236.51H236.503ZM123.6 223.858C132.779 223.858 142.233 222.192 152.242 218.852C162.254 215.516 171.155 209.398 178.66 201.055C183.112 195.774 186.449 189.934 188.115 183.258C189.785 176.586 190.897 168.519 190.897 159.064V147.385C182.464 145.333 173.922 143.755 165.312 142.658C156.642 141.557 147.912 140.999 139.172 140.988C120.539 140.988 106.915 144.604 97.7391 152.113C88.5601 159.622 84.1116 170.189 84.1116 184.092C84.1116 197.161 87.448 206.895 94.3994 213.571C101.075 220.522 110.809 223.858 123.6 223.858ZM346.904 253.892C341.898 253.892 338.561 253.059 336.337 251.11C334.113 249.444 332.164 245.55 330.498 240.268L265.149 25.3062C263.476 19.7424 262.643 16.1272 262.643 14.1818C262.643 9.73341 264.867 7.22706 269.319 7.22706H296.57C301.852 7.22706 305.47 8.0636 307.416 10.009C309.64 11.6788 311.31 15.5728 312.976 20.8545L359.695 204.949L403.077 20.8545C404.468 15.2939 406.137 11.6788 408.358 10.009C410.586 8.34245 414.48 7.23034 419.486 7.23034H441.731C447.013 7.23034 450.632 8.0636 452.853 10.009C455.08 11.6788 457.025 15.5728 458.138 20.8545L502.077 207.174L550.183 20.8545C551.85 15.2939 553.799 11.6788 555.744 10.009C557.968 8.34245 561.583 7.23034 566.589 7.23034H592.45C596.902 7.23034 599.405 9.45456 599.405 14.1818C599.405 15.5728 599.126 16.9637 598.847 18.6303C598.568 20.3001 598.014 22.5243 596.902 25.585L529.88 240.543C528.213 246.107 526.268 249.722 524.041 251.389C521.816 253.059 518.201 254.171 513.477 254.171H489.562C484.277 254.171 480.662 253.338 478.434 251.389C476.21 249.444 474.265 245.828 473.153 240.268L430.046 60.9002L387.222 239.986C385.834 245.55 384.164 249.165 381.94 251.11C379.716 253.059 375.822 253.892 370.819 253.892H346.9H346.904ZM704.245 261.401C689.784 261.401 675.323 259.731 661.42 256.395C647.514 253.059 636.672 249.44 629.442 245.274C624.99 242.768 621.929 239.989 620.82 237.486C619.737 235.031 619.169 232.381 619.15 229.698V215.516C619.15 209.677 621.375 206.895 625.548 206.895C627.25 206.901 628.941 207.184 630.554 207.731C632.22 208.289 634.723 209.398 637.505 210.51C647.327 214.83 657.581 218.093 668.093 220.243C678.986 222.454 690.072 223.572 701.187 223.58C718.705 223.58 732.333 220.522 741.787 214.404C751.242 208.286 756.248 199.389 756.248 187.986C756.248 180.201 753.745 173.804 748.739 168.519C743.733 163.237 734.278 158.51 720.654 154.058L680.33 141.546C660.029 135.149 645.014 125.694 635.835 113.179C626.66 100.943 621.932 87.3185 621.932 72.8578C621.932 61.1791 624.435 50.888 629.442 41.9878C634.444 33.091 641.12 25.3062 649.463 19.188C657.805 12.7909 667.26 8.0636 678.384 4.72728C689.505 1.39096 701.184 0 713.42 0C719.539 0 725.936 0.278847 732.054 1.11211C738.451 1.94537 744.29 3.05748 750.13 4.16958C755.69 5.56054 760.975 6.9515 765.982 8.6213C770.988 10.2878 774.878 11.9576 777.66 13.6241C781.554 15.8516 784.333 18.0759 786.003 20.5789C787.673 22.8031 788.506 25.8606 788.506 29.7546V42.8244C788.506 48.6637 786.282 51.7245 782.109 51.7245C779.885 51.7245 776.269 50.6091 771.545 48.3849C755.69 41.1546 737.893 37.5394 718.151 37.5394C702.299 37.5394 689.784 40.0425 681.163 45.3274C672.545 50.6091 668.093 58.676 668.093 70.0759C668.093 77.864 670.875 84.5366 676.435 89.8216C681.999 95.1033 692.287 100.388 707.027 105.116L746.515 117.631C766.536 124.028 780.997 132.925 789.618 144.325C798.239 155.728 802.412 168.798 802.412 183.258C802.412 195.216 799.906 206.061 795.178 215.516C790.176 224.971 783.5 233.313 774.878 239.989C766.257 246.94 755.969 251.947 744.012 255.562C731.496 259.456 718.427 261.401 704.245 261.401Z" fill="#272626"/>
<path d="M756.802 396.551C665.314 464.127 532.386 500 418.094 500C257.915 500 113.59 440.766 4.58045 342.323C-4.04084 334.539 3.74391 323.972 14.0317 330.087C131.941 398.5 277.382 439.933 427.828 439.933C529.328 439.933 640.841 418.8 743.457 375.418C758.75 368.463 771.82 385.43 756.802 396.551ZM794.902 353.169C783.223 338.154 717.593 345.939 687.838 349.554C678.938 350.669 677.547 342.881 685.614 337.042C737.893 300.332 823.824 310.902 833.833 323.136C843.845 335.651 831.051 421.578 782.108 462.736C774.602 469.133 767.372 465.797 770.708 457.455C781.829 429.921 806.581 367.909 794.902 353.169Z" fill="#ADACAC"/>
</svg>
