<svg width="1500" height="400" viewBox="0 0 1500 400" fill="none" xmlns="http://www.w3.org/2000/svg">
<path d="M744.475 117.581V293.845L725.265 309.32V162.689H689.104L744.475 117.581ZM1410.75 90.6802C1426.84 90.6802 1441.78 93.106 1455.57 97.9575C1468.83 102.54 1480.27 107.693 1489.9 113.412L1491.57 114.428L1471.66 152.347C1469.84 150.862 1467.27 149.16 1463.96 147.247L1462.08 146.18L1460.04 145.073L1457.87 143.921C1451.74 140.602 1444.46 137.792 1436.03 135.496C1427.59 132.939 1418.81 131.647 1409.99 131.664C1385.99 131.664 1373.98 138.431 1373.98 151.966C1373.98 159.879 1378.32 165.499 1387 168.818L1388.99 169.536L1391.09 170.265L1393.31 171.006L1395.67 171.756L1398.15 172.521L1400.75 173.297C1401.19 173.429 1401.64 173.561 1402.1 173.69L1404.89 174.481L1407.8 175.29L1410.84 176.104L1414.01 176.933L1417.3 177.774L1422.47 179.057L1426.08 179.927C1441.14 183.756 1454.17 188.098 1465.15 192.95C1475.91 197.599 1484.22 203.772 1490.06 211.471L1490.81 212.485C1496.94 220.401 1500 230.869 1500 243.891C1500 259.723 1495.91 272.491 1487.74 282.197C1479.83 291.642 1469.36 298.539 1456.34 302.88C1443.31 306.964 1429.27 309.006 1414.2 309.006C1396.84 309.006 1379.6 306.581 1362.49 301.729C1346.2 297.109 1331.64 290.869 1318.82 283.005L1316.91 281.813L1337.6 241.594C1340.92 244.914 1346.41 248.617 1354.07 252.701C1361.98 256.788 1371.18 260.236 1381.64 263.042C1392.11 265.855 1403.22 267.258 1414.97 267.258C1438.46 267.258 1450.21 261 1450.21 248.488C1450.21 240.062 1444.72 234.062 1433.74 230.488L1431.1 229.559L1428.32 228.619L1425.42 227.664L1422.38 226.691L1419.21 225.707L1415.91 224.705L1414.21 224.201L1410.71 223.178L1407.08 222.141L1403.31 221.089L1399.41 220.023L1393.32 218.397L1391.22 217.846C1369.26 212.23 1352.92 205.079 1342.19 196.398C1331.72 187.459 1326.49 174.689 1326.49 158.092C1326.49 143.283 1330.19 130.899 1337.59 120.941C1345.26 110.98 1355.47 103.448 1368.24 98.3413C1381.26 93.2349 1395.43 90.6802 1410.75 90.6802ZM1055.54 91.061C1071.75 91.061 1086.54 94.0142 1099.92 99.9175L1101.51 100.638C1115.3 106.767 1127.05 115.067 1136.75 125.535C1146.71 135.75 1154.36 147.37 1159.73 160.392C1165.09 173.415 1167.78 186.692 1167.78 200.227C1167.78 214.272 1164.97 227.804 1159.35 240.83C1153.73 253.597 1145.81 265.087 1135.59 275.3C1125.64 285.261 1113.77 293.174 1099.98 299.048C1086.19 304.922 1071.13 307.858 1054.78 307.858C1037.93 307.858 1022.61 304.922 1008.82 299.048C995.03 292.919 983.15 284.751 973.189 274.536C963.231 264.065 955.57 252.32 950.209 239.297C944.854 226.272 942.164 212.866 942.164 199.079C942.164 185.034 944.977 171.499 950.593 158.476C955.9 146.13 963.492 134.898 972.97 125.371L974.347 124.002C984.562 113.79 996.554 105.745 1010.34 99.8735C1024.13 93.9995 1039.2 91.064 1055.54 91.064V91.061ZM131.379 92.2153L224.455 306.329H175.43L153.979 256.149H70.8604L49.4121 306.326H0L93.457 92.2124L131.379 92.2153ZM405.539 92.2153L464.531 168.053L523.515 92.2124H573.691L489.041 200.611L571.011 306.326H520.834L464.525 233.552L408.606 306.326H357.662L440.016 200.611L354.981 92.2124H405.542L405.539 92.2153ZM779.607 91.231V234.507H816.782L760.43 280.75V104.579L779.602 91.231H779.607ZM1054.79 132.431C1040.74 132.431 1028.73 135.75 1018.78 142.389C1009.07 149.028 1001.67 157.454 996.56 167.669C991.45 177.882 988.898 188.482 988.898 199.462C988.898 210.953 991.588 221.933 996.949 232.401C1002.3 242.617 1009.84 250.917 1019.54 257.297C1029.5 263.684 1041.37 266.875 1055.16 266.875C1069.21 266.875 1081.08 263.555 1090.78 256.914C1100.5 250.02 1107.89 241.465 1113 231.25C1118.11 220.782 1120.67 210.059 1120.67 199.079C1120.67 187.588 1117.99 176.734 1112.63 166.521C1107.26 156.305 1099.6 148.134 1089.64 142.005C1079.93 135.622 1068.32 132.431 1054.79 132.431ZM112.611 148.512L81.2021 215.933H142.872L112.608 148.521L112.611 148.512Z" fill="#272626"/>
</svg>
