<svg width="629" height="500" viewBox="0 0 629 500" fill="none" xmlns="http://www.w3.org/2000/svg">
<path d="M131.339 0C95.5257 0 69.0243 31.3462 70.2109 65.3404C71.351 97.9983 69.8701 140.299 59.222 174.794C48.5419 209.388 30.4771 231.303 0.972168 234.117V265.883C30.4771 268.697 48.5419 290.612 59.222 325.209C69.8701 359.703 71.351 401.999 70.2109 434.66C69.0243 468.649 95.5257 500 131.344 500H498.312C534.128 500 560.622 468.654 559.435 434.66C558.298 402.002 559.776 359.703 570.424 325.209C581.112 290.614 599.127 268.695 628.632 265.883V234.117C599.127 231.303 581.112 209.388 570.427 174.794C559.776 140.304 558.298 98.0008 559.435 65.3404C560.622 31.3511 534.128 0 498.312 0H131.334H131.339ZM426.506 307.781C426.506 354.591 391.593 382.978 333.652 382.978H235.016C232.195 382.977 229.49 381.856 227.495 379.861C225.5 377.866 224.38 375.161 224.38 372.34V127.66C224.38 126.263 224.655 124.879 225.189 123.588C225.724 122.297 226.507 121.124 227.495 120.136C228.483 119.148 229.656 118.364 230.947 117.829C232.238 117.295 233.621 117.019 235.018 117.019H333.088C381.4 117.019 413.107 143.192 413.107 183.372C413.107 211.575 391.776 236.824 364.603 241.245V242.718C401.598 246.776 426.506 272.395 426.506 307.781ZM322.893 150.744H266.656V230.182H314.025C350.64 230.182 370.833 215.437 370.833 189.08C370.833 164.383 353.467 150.744 322.893 150.744ZM266.656 261.702V349.244H324.965C363.086 349.244 383.283 333.947 383.283 305.197C383.283 276.443 362.524 261.698 322.513 261.698H266.656V261.702Z" fill="#272626"/>
</svg>
