<svg width="1684" height="500" viewBox="0 0 1684 500" fill="none" xmlns="http://www.w3.org/2000/svg">
<path d="M250 0C111.5 0 0 111.5 0 250C0 388.5 111.5 500 250 500C388.5 500 500 388.5 500 250C500 111.5 388.5 0 250 0ZM308.333 90.2708C311.042 90.1875 313.5 93.1042 311.896 96.0625L248.479 212.312C248.158 212.905 247.997 213.571 248.01 214.245C248.024 214.919 248.212 215.577 248.556 216.157C248.901 216.736 249.389 217.216 249.975 217.55C250.56 217.884 251.222 218.061 251.896 218.062H361.479C365.021 218.062 366.729 222.375 364.146 224.792L172.062 404.063C168.625 407.271 163.521 402.75 166.271 398.938L257.188 273.5C257.604 272.919 257.853 272.235 257.907 271.522C257.961 270.809 257.817 270.096 257.492 269.459C257.168 268.822 256.674 268.287 256.065 267.912C255.457 267.537 254.756 267.337 254.042 267.333H138.062C137.291 267.331 136.537 267.1 135.897 266.67C135.257 266.239 134.759 265.628 134.467 264.913C134.174 264.199 134.1 263.414 134.255 262.658C134.409 261.902 134.785 261.209 135.333 260.667L305.75 91.4375C306.433 90.7243 307.346 90.3058 308.333 90.2708Z" fill="#272626"/>
<path d="M636.392 380.729C617.334 380.729 600.969 376.544 587.298 368.175C573.709 359.807 563.227 348.248 555.852 333.499C548.561 318.667 544.915 301.598 544.915 282.291C544.915 262.902 548.643 245.791 556.101 230.96C563.558 216.045 574.081 204.444 587.67 196.158C601.342 187.79 617.5 183.605 636.143 183.605C651.638 183.605 665.352 186.464 677.283 192.181C689.298 197.816 698.868 205.812 705.994 216.169C713.12 226.444 717.18 238.458 718.175 252.213H675.17C673.43 243.016 669.287 235.351 662.741 229.219C656.278 223.005 647.62 219.898 636.765 219.898C627.567 219.898 619.489 222.384 612.528 227.355C605.568 232.244 600.141 239.287 596.246 248.484C592.435 257.682 590.529 268.702 590.529 281.545C590.529 294.554 592.435 305.741 596.246 315.104C600.058 324.384 605.402 331.551 612.28 336.606C619.24 341.577 627.402 344.063 636.765 344.063C643.394 344.063 649.318 342.82 654.538 340.335C659.841 337.766 664.274 334.079 667.837 329.273C671.4 324.467 673.845 318.625 675.17 311.748H718.175C717.098 325.254 713.12 337.227 706.243 347.668C699.366 358.025 690.002 366.145 678.153 372.028C666.304 377.829 652.384 380.729 636.392 380.729ZM800.113 265.139V377H755.12V122.455H799.118V218.531H801.356C805.83 207.759 812.749 199.266 822.112 193.051C831.558 186.754 843.573 183.605 858.156 183.605C871.414 183.605 882.973 186.381 892.833 191.933C902.693 197.484 910.316 205.604 915.702 216.293C921.171 226.982 923.905 240.033 923.905 255.445V377H878.912V262.405C878.912 249.562 875.598 239.577 868.969 232.451C862.423 225.242 853.226 221.638 841.377 221.638C833.422 221.638 826.296 223.378 819.999 226.858C813.785 230.255 808.896 235.185 805.333 241.648C801.853 248.112 800.113 255.942 800.113 265.139ZM1024.7 380.853C1012.61 380.853 1001.71 378.699 992.016 374.39C982.404 369.998 974.781 363.535 969.147 355.001C963.595 346.466 960.819 335.943 960.819 323.431C960.819 312.659 962.808 303.752 966.785 296.709C970.763 289.666 976.19 284.031 983.067 279.805C989.945 275.58 997.692 272.389 1006.31 270.235C1015.01 267.998 1024 266.382 1033.28 265.388C1044.47 264.228 1053.54 263.192 1060.5 262.281C1067.46 261.286 1072.51 259.795 1075.66 257.806C1078.89 255.735 1080.51 252.544 1080.51 248.236V247.49C1080.51 238.127 1077.73 230.877 1072.18 225.739C1066.63 220.602 1058.64 218.033 1048.2 218.033C1037.17 218.033 1028.43 220.436 1021.97 225.242C1015.59 230.048 1011.28 235.724 1009.04 242.27L967.034 236.304C970.348 224.704 975.817 215.009 983.44 207.22C991.063 199.348 1000.39 193.465 1011.41 189.571C1022.43 185.594 1034.61 183.605 1047.95 183.605C1057.14 183.605 1066.3 184.682 1075.41 186.837C1084.53 188.991 1092.86 192.554 1100.4 197.526C1107.94 202.414 1113.99 209.085 1118.54 217.536C1123.18 225.988 1125.5 236.553 1125.5 249.23V377H1082.25V350.775H1080.76C1078.02 356.078 1074.17 361.049 1069.2 365.69C1064.31 370.247 1058.14 373.934 1050.68 376.751C1043.31 379.486 1034.65 380.853 1024.7 380.853ZM1036.39 347.792C1045.42 347.792 1053.25 346.01 1059.88 342.447C1066.51 338.802 1071.6 333.996 1075.17 328.03C1078.81 322.064 1080.63 315.559 1080.63 308.516V286.02C1079.23 287.18 1076.82 288.257 1073.43 289.251C1070.11 290.246 1066.38 291.116 1062.24 291.862C1058.1 292.607 1054 293.27 1049.94 293.85C1045.88 294.43 1042.35 294.927 1039.37 295.342C1032.66 296.253 1026.65 297.745 1021.35 299.816C1016.05 301.888 1011.86 304.788 1008.8 308.516C1005.73 312.162 1004.2 316.885 1004.2 322.685C1004.2 330.971 1007.22 337.227 1013.27 341.453C1019.32 345.679 1027.02 347.792 1036.39 347.792ZM1211.76 317.092L1211.64 262.778H1218.84L1287.45 186.091H1340.03L1255.63 280.054H1246.31L1211.76 317.092ZM1170.74 377V122.455H1215.74V377H1170.74ZM1290.56 377L1228.42 290.121L1258.74 258.428L1344.38 377H1290.56ZM1370.01 377V186.091H1413.64V217.909H1415.63C1419.11 206.889 1425.07 198.396 1433.52 192.43C1442.06 186.381 1451.8 183.357 1462.73 183.357C1465.22 183.357 1467.99 183.481 1471.06 183.729C1474.21 183.895 1476.82 184.185 1478.89 184.599V225.988C1476.98 225.325 1473.96 224.745 1469.82 224.248C1465.76 223.668 1461.82 223.378 1458.01 223.378C1449.81 223.378 1442.43 225.159 1435.89 228.722C1429.42 232.202 1424.33 237.05 1420.6 243.264C1416.87 249.479 1415.01 256.646 1415.01 264.766V377H1370.01ZM1560.3 380.853C1548.2 380.853 1537.31 378.699 1527.61 374.39C1518 369.998 1510.38 363.535 1504.74 355.001C1499.19 346.466 1496.42 335.943 1496.42 323.431C1496.42 312.659 1498.4 303.752 1502.38 296.709C1506.36 289.666 1511.79 284.031 1518.66 279.805C1525.54 275.58 1533.29 272.389 1541.91 270.235C1550.61 267.998 1559.6 266.382 1568.88 265.388C1580.06 264.228 1589.14 263.192 1596.1 262.281C1603.06 261.286 1608.11 259.795 1611.26 257.806C1614.49 255.735 1616.11 252.544 1616.11 248.236V247.49C1616.11 238.127 1613.33 230.877 1607.78 225.739C1602.23 220.602 1594.23 218.033 1583.79 218.033C1572.77 218.033 1564.03 220.436 1557.57 225.242C1551.19 230.048 1546.88 235.724 1544.64 242.27L1502.63 236.304C1505.94 224.704 1511.41 215.009 1519.04 207.22C1526.66 199.348 1535.98 193.465 1547 189.571C1558.02 185.594 1570.2 183.605 1583.54 183.605C1592.74 183.605 1601.9 184.682 1611.01 186.837C1620.12 188.991 1628.45 192.554 1635.99 197.526C1643.53 202.414 1649.58 209.085 1654.14 217.536C1658.78 225.988 1661.1 236.553 1661.1 249.23V377H1617.85V350.775H1616.35C1613.62 356.078 1609.77 361.049 1604.8 365.69C1599.91 370.247 1593.73 373.934 1586.28 376.751C1578.9 379.486 1570.24 380.853 1560.3 380.853ZM1571.98 347.792C1581.02 347.792 1588.85 346.01 1595.47 342.447C1602.1 338.802 1607.2 333.996 1610.76 328.03C1614.41 322.064 1616.23 315.559 1616.23 308.516V286.02C1614.82 287.18 1612.42 288.257 1609.02 289.251C1605.71 290.246 1601.98 291.116 1597.84 291.862C1593.69 292.607 1589.59 293.27 1585.53 293.85C1581.47 294.43 1577.95 294.927 1574.97 295.342C1568.25 296.253 1562.25 297.745 1556.94 299.816C1551.64 301.888 1547.46 304.788 1544.39 308.516C1541.33 312.162 1539.79 316.885 1539.79 322.685C1539.79 330.971 1542.82 337.227 1548.87 341.453C1554.91 345.679 1562.62 347.792 1571.98 347.792Z" fill="#272626"/>
</svg>
