<svg width="442" height="500" viewBox="0 0 442 500" fill="none" xmlns="http://www.w3.org/2000/svg">
<path d="M40.729 450.018L0.621826 0H441.479L401.318 449.946L220.783 500L40.729 450.018Z" fill="#272626"/>
<path d="M221.046 461.751L366.939 421.304L401.26 36.8042H221.046V461.751Z" fill="#505050"/>
<path d="M221.046 199.84H294.082L299.117 143.322H221.046V88.126H359.439L358.117 102.93L344.564 255.037H221.046V199.84Z" fill="#E7E7E7"/>
<path d="M221.39 343.181L221.14 343.252L159.675 326.645L155.747 282.627H100.336L108.068 369.288L221.122 400.681L221.39 400.61V343.181Z" fill="#CCCCCC"/>
<path d="M289.382 252.694L282.739 326.605L221.186 343.212V400.641L334.328 369.284L335.168 359.962L344.757 252.694H289.382Z" fill="#E7E7E7"/>
<path d="M221.235 88.126V143.322H87.9135L86.8063 130.912L84.2885 102.93L82.967 88.126H221.235ZM221.038 199.84V255.037H160.342L159.235 242.626L156.735 214.644L155.413 199.84H221.038Z" fill="#CCCCCC"/>
</svg>
