<svg width="1967" height="500" viewBox="0 0 1967 500" fill="none" xmlns="http://www.w3.org/2000/svg">
<path d="M540.088 98.7807L555.038 109.606C581.044 130.58 595.995 154.262 599.245 181.324C627.198 175.912 662.95 179.972 678.554 190.797L692.855 199.594L690.255 205.01C685.703 215.155 684.404 217.863 683.755 219.215C658.402 269.96 608.345 270.636 584.943 269.96C525.786 418.133 399.674 500 229.348 500C150.692 500 90.8861 474.966 50.5786 425.574C-2.72421 360.628 -2.7242 276.048 1.82397 248.986L3.1262 243.57H473.129C497.829 243.57 516.686 236.809 525.786 231.392C516.033 216.507 512.783 199.594 512.134 190.121C510.183 163.058 516.686 134.64 529.689 114.342L540.088 98.7807ZM947.326 130.199C952.574 130.199 957.011 131.955 960.648 135.473C964.282 138.988 966.103 143.425 966.103 148.792V316.133C966.103 344.021 956.327 367.623 936.778 386.929C916.995 406.478 893.394 416.251 865.982 416.251C838.332 416.251 814.73 406.478 795.185 386.929C775.637 367.384 765.864 343.783 765.864 316.133C765.864 288.479 775.637 264.881 795.185 245.337C814.73 225.784 838.332 216.015 865.982 216.015C889.702 216.015 910.618 223.345 928.734 238.003V148.792C928.734 143.429 930.494 138.988 934.008 135.473C937.523 131.955 941.964 130.199 947.326 130.199ZM1087.5 216.015C1114.91 216.015 1138.51 225.788 1158.29 245.333C1168.07 255.109 1175.37 265.896 1180.2 277.692C1185.03 289.493 1187.5 302.308 1187.62 316.133C1187.62 344.021 1177.84 367.623 1158.3 386.929C1138.52 406.478 1114.91 416.251 1087.5 416.251C1059.85 416.251 1036.25 406.478 1016.71 386.929C997.153 367.384 987.38 343.783 987.38 316.133C987.38 288.479 997.157 264.881 1016.7 245.337C1036.25 225.784 1059.85 216.015 1087.5 216.015ZM1308.66 216.015C1333.81 216.015 1355.56 224.121 1373.92 240.331C1378.21 244.142 1380.35 248.851 1380.35 254.452C1380.35 259.815 1378.59 264.286 1375.08 267.859C1371.56 271.435 1367.12 273.225 1361.76 273.225C1357.33 273.26 1353.03 271.742 1349.6 268.934C1343.53 263.81 1337.15 259.934 1330.47 257.314C1323.8 254.69 1316.53 253.38 1308.66 253.38C1299.96 253.38 1291.8 255.017 1284.17 258.297C1276.71 261.462 1269.91 266.011 1264.14 271.704C1258.39 277.41 1253.81 284.181 1250.64 291.64C1247.37 299.266 1245.73 307.428 1245.73 316.133C1245.73 324.834 1247.37 332.997 1250.64 340.626C1253.81 348.085 1258.39 354.856 1264.14 360.562C1269.91 366.255 1276.71 370.804 1284.17 373.969C1291.8 377.245 1299.96 378.886 1308.66 378.886C1316.53 378.886 1323.8 377.603 1330.47 375.044C1337.15 372.478 1343.46 368.633 1349.42 363.509C1352.76 361.008 1356.69 359.694 1361.22 359.575C1366.58 359.575 1371.03 361.334 1374.54 364.849C1378.06 368.368 1379.81 372.805 1379.81 378.171C1379.81 383.414 1377.85 388.005 1373.92 391.935C1355.44 408.145 1333.69 416.251 1308.66 416.251C1281.01 416.251 1257.41 406.478 1237.86 386.929C1218.32 367.384 1208.54 343.783 1208.54 316.133C1208.54 288.479 1218.32 264.881 1237.86 245.337C1257.41 225.784 1281.01 216.015 1308.66 216.015ZM1420.23 130.199C1425.35 130.199 1429.73 132.016 1433.37 135.654C1437 139.288 1438.82 143.725 1438.82 148.972V288.421L1545.73 218.873C1548.71 216.968 1552.05 216.015 1555.75 216.015C1558.37 216.015 1560.81 216.492 1563.07 217.444C1565.34 218.397 1567.31 219.738 1568.97 221.466C1570.64 223.195 1571.98 225.192 1573 227.459C1574.01 229.705 1574.53 232.141 1574.52 234.604C1574.52 241.28 1572.14 246.228 1567.37 249.447L1492.46 298.079L1569.33 384.605C1572.79 388.42 1574.52 392.768 1574.52 397.658C1574.52 400.159 1574.01 402.544 1573 404.807C1572.02 407.024 1570.66 409.053 1568.97 410.8C1567.31 412.528 1565.34 413.865 1563.07 414.818C1560.75 415.783 1558.26 416.271 1555.75 416.251C1550.74 416.251 1546.56 414.641 1543.23 411.422L1460.63 318.634L1438.82 332.939V397.478C1438.82 402.602 1437 407.012 1433.37 410.707C1429.73 414.403 1425.35 416.251 1420.23 416.251C1414.98 416.251 1410.55 414.403 1406.91 410.707C1403.27 407.012 1401.45 402.602 1401.45 397.478V148.972C1401.45 143.725 1403.27 139.288 1406.91 135.65C1410.55 132.016 1414.98 130.199 1420.23 130.199ZM1694.85 216.015C1722.26 216.015 1745.86 225.788 1765.64 245.333C1775.41 254.99 1782.75 265.746 1787.63 277.604C1792.52 289.462 1794.96 302.304 1794.96 316.133C1794.96 321.495 1793.15 325.936 1789.51 329.451C1785.87 332.966 1781.43 334.725 1776.19 334.725H1634.6C1636.57 341.166 1639.59 347.236 1643.54 352.691C1647.39 358.038 1652.07 362.743 1657.39 366.635C1662.73 370.529 1668.64 373.576 1674.91 375.666C1681.29 377.81 1687.93 378.886 1694.85 378.886C1702.71 378.886 1709.92 377.695 1716.48 375.309C1723.03 372.928 1729.11 369.351 1734.71 364.58C1738.16 361.649 1742.52 360.006 1747.05 359.932C1752.41 359.932 1756.85 361.692 1760.37 365.206C1763.89 368.725 1765.64 373.162 1765.64 378.528C1765.64 383.772 1763.86 388.239 1760.28 391.935C1741.8 408.145 1719.99 416.251 1694.85 416.251C1667.19 416.251 1643.59 406.478 1624.05 386.929C1604.5 367.384 1594.73 343.783 1594.73 316.133C1594.73 288.479 1604.5 264.881 1624.05 245.337C1643.59 225.784 1667.19 216.015 1694.85 216.015ZM1915.65 216.015C1920.89 216.015 1926.52 216.373 1932.54 217.087C1938.56 217.802 1944.1 219.085 1949.17 220.929C1954.23 222.776 1958.44 225.308 1961.77 228.527C1965.11 231.746 1966.78 235.918 1966.78 241.042C1966.78 243.666 1966.27 246.113 1965.26 248.375C1964.28 250.591 1962.92 252.618 1961.24 254.364C1959.57 256.092 1957.6 257.433 1955.34 258.386C1953.01 259.35 1950.52 259.836 1948.01 259.815C1945.74 259.815 1943.12 259.162 1940.14 257.848C1932.63 254.871 1924.47 253.38 1915.65 253.38C1906.95 253.38 1898.78 255.017 1891.15 258.297C1883.53 261.574 1876.88 266.042 1871.22 271.704C1865.56 277.366 1861.09 284.011 1857.81 291.64C1854.53 299.266 1852.89 307.428 1852.89 316.133V397.658C1852.89 402.783 1851.08 407.162 1847.44 410.796C1843.81 414.434 1839.43 416.251 1834.3 416.251C1829.06 416.251 1824.62 414.434 1820.98 410.796C1817.35 407.162 1815.53 402.783 1815.53 397.658V234.608C1815.53 229.483 1817.35 225.1 1820.98 221.47C1824.62 217.832 1829.06 216.015 1834.3 216.015C1839.43 216.015 1843.81 217.832 1847.44 221.47C1851.08 225.1 1852.89 229.483 1852.89 234.608V238.18C1861.64 231.138 1871.49 225.583 1882.03 221.735C1892.52 217.921 1903.73 216.015 1915.65 216.015ZM865.982 253.377C857.162 253.377 848.938 255.044 841.309 258.382C833.683 261.72 827.069 266.218 821.464 271.88C815.863 277.543 811.423 284.184 808.146 291.817C804.869 299.442 803.229 307.547 803.229 316.129C803.229 324.711 804.869 332.816 808.146 340.445C811.423 348.07 815.863 354.716 821.464 360.378C827.069 366.036 833.68 370.538 841.309 373.876C848.938 377.211 857.162 378.882 865.982 378.882C874.682 378.882 882.845 377.211 890.474 373.876C897.926 370.659 904.693 366.046 910.411 360.286C916.089 354.54 920.636 347.778 923.817 340.353C927.094 332.785 928.734 324.711 928.734 316.129C928.734 307.547 927.094 299.473 923.817 291.902C920.636 284.476 916.089 277.715 910.411 271.969C904.693 266.21 897.926 261.598 890.474 258.382C882.845 255.044 874.686 253.377 865.982 253.377ZM1087.5 253.377C1078.68 253.377 1070.46 255.044 1062.83 258.382C1055.2 261.72 1048.58 266.218 1042.98 271.88C1037.38 277.543 1032.94 284.184 1029.66 291.817C1026.39 299.442 1024.75 307.547 1024.75 316.129C1024.75 324.711 1026.39 332.816 1029.66 340.445C1032.94 348.07 1037.38 354.716 1042.98 360.378C1048.58 366.036 1055.2 370.538 1062.83 373.876C1070.46 377.211 1078.68 378.882 1087.5 378.882C1096.2 378.882 1104.37 377.211 1111.99 373.876C1119.45 370.659 1126.21 366.046 1131.93 360.286C1137.61 354.54 1142.16 347.778 1145.34 340.353C1148.61 332.785 1150.25 324.711 1150.25 316.129C1150.25 307.547 1148.61 299.473 1145.34 291.902C1142.16 284.476 1137.61 277.715 1131.93 271.969C1126.21 266.21 1119.45 261.598 1111.99 258.382C1104.37 255.044 1096.2 253.377 1087.5 253.377ZM1694.85 253.377C1688.05 253.377 1681.44 254.448 1675 256.592C1668.67 258.68 1662.7 261.725 1657.3 265.619C1651.94 269.494 1647.23 274.203 1643.36 279.567C1639.42 285.003 1636.45 291.082 1634.6 297.533H1755.09C1753.12 291.079 1750.07 285.004 1746.07 279.567C1742.16 274.231 1737.46 269.528 1732.12 265.623C1726.78 261.73 1720.87 258.686 1714.6 256.596C1708.24 254.452 1701.56 253.364 1694.85 253.377ZM125.339 162.375V230.036H53.8322V162.382H125.339V162.375ZM209.849 162.375V230.036H138.342V162.382H209.849V162.375ZM294.359 162.375V230.036H222.849V162.382H294.363L294.359 162.375ZM378.87 162.375V230.036H307.359V162.382H378.873L378.87 162.375ZM463.38 162.375V230.036H391.869V162.382H463.38V162.375ZM378.87 81.1873V148.845H307.359V81.1911H378.873L378.87 81.1873ZM294.359 81.1873V148.845H222.849V81.1911H294.363L294.359 81.1873ZM209.849 81.1873V148.845H138.342V81.1911L209.849 81.1873ZM378.87 0V67.658H307.359V0H378.87Z" fill="#272626"/>
</svg>
