<svg width="1886" height="500" viewBox="0 0 1886 500" fill="none" xmlns="http://www.w3.org/2000/svg">
<path d="M595.168 201.241V183.046C595.168 123.23 645.51 78.9834 704.674 78.9834C716.538 78.9834 728.401 80.7882 733.694 82.593L720.066 136.015C715.256 134.21 709.967 133.558 704.674 133.558C673.893 133.558 653.208 156.501 653.208 183.212V201.403H724.232V246.14H653.208V473.61H595.171V245.978H560.862V201.241H595.168ZM735.941 337.418C735.941 258.755 791.576 198.284 865.006 198.284C902.843 198.284 936.037 218.936 955.591 249.742V201.4H1013.47V473.606H955.436V425.26C935.23 456.07 902.203 476.715 864.847 476.715C791.576 476.552 735.941 415.425 735.941 337.418ZM793.982 337.418C793.982 390.026 830.055 431.157 874.468 431.157C912.302 431.157 955.591 399.039 955.591 337.418C955.591 285.47 920.645 243.68 874.468 243.68C830.055 243.68 793.982 285.963 793.982 337.418ZM1050.83 359.197V201.385H1108.22V362.969C1108.22 398.041 1134.2 428.357 1170.91 428.357C1217.73 428.357 1243.07 387.878 1243.07 359.363V201.547H1300.46V473.75H1243.06V436.88C1224.79 460.475 1195.77 476.866 1161.94 476.866C1092.2 476.538 1050.83 422.622 1050.83 359.197ZM1332.53 473.444V201.241H1389.93V238.111C1407.72 214.516 1436.75 198.125 1471.06 198.125C1540.32 198.125 1582.32 252.041 1582.32 315.462V473.282H1524.94V311.694C1524.94 274.825 1497.19 246.306 1461.59 246.306C1414.3 246.306 1389.93 288.589 1389.93 315.3V473.116H1332.53V473.448V473.444ZM1608.31 337.422C1608.31 258.755 1663.93 198.284 1737.36 198.284C1775.21 198.284 1808.4 218.936 1827.95 249.742V201.4H1886V473.606H1827.95V425.26C1807.76 456.07 1774.72 476.715 1737.36 476.715C1663.93 476.552 1608.3 415.425 1608.3 337.418L1608.31 337.422ZM1666.34 337.422C1666.34 390.026 1702.41 431.16 1746.83 431.16C1784.67 431.16 1827.95 399.039 1827.95 337.422C1827.95 285.47 1793 243.683 1746.83 243.683C1702.41 243.683 1666.34 285.959 1666.34 337.422ZM342.969 104.884C312.667 115.208 298.074 133.724 288.136 162.567C285.569 170.269 279.156 178.792 271.941 184.53L296.792 211.731L217.908 155.359L0.18042 0C0.18042 0 15.8931 104.228 21.3443 142.578C25.1933 169.613 31.7679 181.742 52.6077 194.033L60.9465 198.622L96.8581 217.959L75.5359 206.652L173.978 261.551L173.337 263.024L67.3627 212.884C72.976 232.552 83.8784 270.405 88.5266 287.12C93.499 305.149 99.1086 311.702 116.261 318.096L147.849 329.893L167.407 322.026L142.56 338.906L18.2983 500C100.869 421.665 170.773 393.805 221.919 371.028C287.175 342.188 326.453 323.669 352.107 257.131C370.387 210.427 384.652 150.611 402.773 127.503L441.411 77.0276C441.411 77.0276 361.407 98.6556 342.969 104.884Z" fill="#272626"/>
</svg>
