<svg width="335" height="500" viewBox="0 0 335 500" fill="none" xmlns="http://www.w3.org/2000/svg">
<path opacity="0.6" d="M167.513 0H84.1586C62.055 0 40.8567 8.78062 25.2271 24.4102C9.59752 40.0398 0.816895 61.2381 0.816895 83.3417C0.816895 105.445 9.59752 126.644 25.2271 142.273C40.8567 157.903 62.055 166.683 84.1586 166.683H167.513V0Z" fill="#272626"/>
<path opacity="0.4" d="M167.513 166.658H84.1586C62.055 166.658 40.8567 175.439 25.2271 191.068C9.59752 206.698 0.816895 227.896 0.816895 250C0.816895 272.103 9.59752 293.302 25.2271 308.931C40.8567 324.561 62.055 333.342 84.1586 333.342H167.513V166.658Z" fill="#272626"/>
<path d="M334.171 250.012C334.171 272.116 325.391 293.314 309.761 308.944C294.132 324.573 272.933 333.354 250.83 333.354C228.726 333.354 207.528 324.573 191.898 308.944C176.269 293.314 167.488 272.116 167.488 250.012C167.488 227.908 176.269 206.71 191.898 191.081C207.528 175.451 228.726 166.67 250.83 166.67C272.933 166.67 294.132 175.451 309.761 191.081C325.391 206.71 334.171 227.908 334.171 250.012Z" fill="#272626"/>
<path opacity="0.2" d="M84.1586 333.367H167.513V416.696C167.508 433.175 162.617 449.282 153.459 462.982C144.301 476.681 131.286 487.358 116.061 493.662C100.835 499.966 84.0827 501.614 67.9207 498.398C51.7588 495.182 36.9132 487.246 25.261 475.594C13.6087 463.941 5.67284 449.096 2.45677 432.934C-0.759299 416.772 0.888794 400.019 7.19268 384.794C13.4966 369.568 24.1732 356.554 37.8728 347.396C51.5724 338.237 67.6798 333.372 84.1586 333.367Z" fill="#272626"/>
<path opacity="0.8" d="M167.488 0H250.817C272.921 0 294.119 8.78062 309.749 24.4102C325.378 40.0398 334.159 61.2381 334.159 83.3417C334.159 105.445 325.378 126.644 309.749 142.273C294.119 157.903 272.921 166.683 250.817 166.683H167.488V0Z" fill="#272626"/>
</svg>
