<svg width="1738" height="500" viewBox="0 0 1738 500" fill="none" xmlns="http://www.w3.org/2000/svg">
<path d="M0.950317 403.583L3.97792 399.344L147.164 127.653L147.466 124.776L84.3485 6.21473C79.0577 -3.71662 64.1693 -1.20526 62.4351 9.9126L0.950317 403.583Z" fill="#505050"/>
<path d="M2.73706 400.351L5.02595 395.886L146.713 127.041L83.7509 7.9975C78.5185 -1.82974 65.2301 0.67591 63.5131 11.6768L2.73706 400.351Z" fill="#FFA712"/>
<g filter="url(#filter0_i_1381_397)">
<path d="M2.73706 400.351L5.02595 395.886L146.713 127.041L83.7509 7.9975C78.5185 -1.82974 65.2301 0.67591 63.5131 11.6768L2.73706 400.351Z" fill="#323232"/>
</g>
<path d="M193.481 214.457L240.478 166.326L193.466 76.5818C189.004 68.0865 176.544 68.0608 172.129 76.5818L147.011 124.48V128.559L193.479 214.457H193.481Z" fill="#505050"/>
<path d="M192.642 212.452L238.333 165.659L192.642 78.6568C188.304 70.3982 177.763 69.5326 173.471 77.8154L148.222 126.458L147.466 128.945L192.642 212.452Z" fill="#FFA50E"/>
<g filter="url(#filter1_i_1381_397)">
<path d="M192.642 212.452L238.333 165.659L192.642 78.6568C188.304 70.3982 177.763 69.5326 173.471 77.8154L148.222 126.458L147.466 128.945L192.642 212.452Z" fill="#323232"/>
</g>
<path d="M0.950317 403.583L2.32222 402.202L7.30786 400.177L190.529 217.637L192.85 211.318L147.144 124.22L0.950317 403.583Z" fill="#272626"/>
<path d="M199.351 495.642L365.17 403.163L317.818 111.533C316.336 102.409 305.143 98.8025 298.611 105.344L0.950317 403.583L165.819 495.634C170.943 498.495 176.715 499.998 182.584 499.999C188.453 500.001 194.225 498.5 199.351 495.642Z" fill="#7A7979"/>
<path d="M363.684 402.388L316.691 112.973C315.223 103.917 305.913 100.17 299.431 106.663L2.79004 403.015L165.849 494.154C170.934 496.994 176.661 498.485 182.486 498.487C188.31 498.488 194.038 497 199.125 494.163L363.686 402.386L363.684 402.388Z" fill="#393939"/>
<path d="M199.349 492.917C194.223 495.776 188.452 497.276 182.583 497.274C176.714 497.273 170.943 495.771 165.819 492.91L2.27793 402.181L0.95166 403.583L165.819 495.635C170.943 498.496 176.714 499.999 182.584 500C188.453 500.001 194.225 498.501 199.35 495.642L365.17 403.164L364.764 400.666L199.35 492.918L199.349 492.917Z" fill="#7A7979"/>
<path d="M458.656 121.172V370H407.387V121.172H458.656ZM557.778 227.471V267.461H444.643V227.471H557.778ZM569.74 121.172V161.333H444.643V121.172H569.74ZM648.354 185.088V370H598.964V185.088H648.354ZM595.888 136.895C595.888 129.717 598.394 123.792 603.407 119.121C608.42 114.45 615.142 112.114 623.573 112.114C631.891 112.114 638.556 114.45 643.569 119.121C648.696 123.792 651.259 129.717 651.259 136.895C651.259 144.072 648.696 149.997 643.569 154.668C638.556 159.339 631.891 161.675 623.573 161.675C615.142 161.675 608.42 159.339 603.407 154.668C598.394 149.997 595.888 144.072 595.888 136.895ZM738.246 225.42V370H689.028V185.088H735.341L738.246 225.42ZM793.959 183.892L793.105 229.521C790.712 229.18 787.807 228.895 784.389 228.667C781.085 228.325 778.066 228.154 775.331 228.154C768.381 228.154 762.343 229.066 757.216 230.889C752.203 232.598 747.988 235.161 744.57 238.579C741.266 241.997 738.759 246.156 737.05 251.055C735.455 255.954 734.544 261.536 734.316 267.803L724.404 264.727C724.404 252.764 725.6 241.769 727.992 231.743C730.385 221.603 733.86 212.773 738.417 205.254C743.088 197.734 748.785 191.924 755.507 187.822C762.229 183.721 769.92 181.67 778.578 181.67C781.313 181.67 784.104 181.898 786.952 182.354C789.801 182.695 792.136 183.208 793.959 183.892ZM898.891 373.418C884.535 373.418 871.661 371.139 860.268 366.582C848.875 361.911 839.19 355.474 831.215 347.271C823.354 339.067 817.315 329.554 813.1 318.73C808.884 307.793 806.777 296.172 806.777 283.867V277.031C806.777 263.018 808.77 250.2 812.758 238.579C816.746 226.958 822.442 216.875 829.848 208.33C837.367 199.785 846.482 193.234 857.192 188.677C867.901 184.006 879.978 181.67 893.422 181.67C906.524 181.67 918.145 183.835 928.285 188.164C938.425 192.493 946.913 198.646 953.749 206.621C960.699 214.596 965.94 224.167 969.472 235.332C973.004 246.383 974.77 258.688 974.77 272.246V292.754H827.797V259.941H926.406V256.182C926.406 249.346 925.152 243.25 922.646 237.896C920.253 232.427 916.607 228.097 911.708 224.907C906.809 221.717 900.543 220.122 892.909 220.122C886.415 220.122 880.833 221.546 876.161 224.395C871.49 227.243 867.673 231.23 864.711 236.357C861.863 241.484 859.698 247.523 858.217 254.473C856.85 261.309 856.166 268.828 856.166 277.031V283.867C856.166 291.273 857.192 298.109 859.242 304.375C861.407 310.641 864.426 316.053 868.3 320.61C872.288 325.168 877.073 328.7 882.656 331.206C888.352 333.713 894.789 334.966 901.967 334.966C910.854 334.966 919.114 333.257 926.747 329.839C934.495 326.307 941.16 321.009 946.742 313.945L970.668 339.922C966.795 345.505 961.497 350.859 954.775 355.986C948.167 361.113 940.191 365.329 930.849 368.633C921.506 371.823 910.854 373.418 898.891 373.418ZM1002.8 107.5H1052.02V327.617L1047.06 370H1002.8V107.5ZM1169.08 275.664V279.253C1169.08 293.039 1167.6 305.685 1164.64 317.192C1161.79 328.7 1157.35 338.669 1151.31 347.1C1145.27 355.417 1137.75 361.911 1128.75 366.582C1119.86 371.139 1109.38 373.418 1097.3 373.418C1086.02 373.418 1076.23 371.139 1067.91 366.582C1059.71 362.025 1052.81 355.588 1047.23 347.271C1041.65 338.953 1037.15 329.212 1033.73 318.047C1030.31 306.882 1027.75 294.691 1026.04 281.475V273.613C1027.75 260.397 1030.31 248.206 1033.73 237.041C1037.15 225.876 1041.65 216.134 1047.23 207.817C1052.81 199.5 1059.71 193.063 1067.91 188.506C1076.11 183.949 1085.8 181.67 1096.96 181.67C1109.15 181.67 1119.75 184.006 1128.75 188.677C1137.86 193.234 1145.38 199.728 1151.31 208.159C1157.35 216.476 1161.79 226.388 1164.64 237.896C1167.6 249.289 1169.08 261.878 1169.08 275.664ZM1119.86 279.253V275.664C1119.86 268.145 1119.29 261.081 1118.15 254.473C1117.13 247.751 1115.31 241.883 1112.68 236.87C1110.06 231.743 1106.48 227.699 1101.92 224.736C1097.47 221.774 1091.72 220.293 1084.66 220.293C1077.94 220.293 1072.24 221.432 1067.57 223.711C1062.9 225.99 1059.02 229.18 1055.95 233.281C1052.98 237.383 1050.76 242.282 1049.28 247.979C1047.8 253.561 1046.89 259.714 1046.55 266.436V288.823C1046.89 297.824 1048.37 305.799 1050.99 312.749C1053.72 319.585 1057.83 324.997 1063.3 328.984C1068.88 332.858 1076.11 334.795 1085 334.795C1091.95 334.795 1097.7 333.428 1102.26 330.693C1106.82 327.959 1110.35 324.085 1112.86 319.072C1115.48 314.059 1117.3 308.192 1118.32 301.47C1119.35 294.634 1119.86 287.228 1119.86 279.253ZM1299.48 328.301V245.928C1299.48 240.003 1298.51 234.933 1296.57 230.718C1294.63 226.388 1291.62 223.027 1287.51 220.635C1283.53 218.242 1278.34 217.046 1271.96 217.046C1266.49 217.046 1261.77 218.014 1257.78 219.951C1253.79 221.774 1250.71 224.451 1248.55 227.983C1246.38 231.401 1245.3 235.446 1245.3 240.117H1196.08C1196.08 232.256 1197.91 224.793 1201.55 217.729C1205.2 210.666 1210.5 204.456 1217.45 199.102C1224.4 193.633 1232.66 189.36 1242.23 186.284C1251.91 183.208 1262.73 181.67 1274.7 181.67C1289.05 181.67 1301.81 184.062 1312.98 188.848C1324.14 193.633 1332.92 200.811 1339.3 210.381C1345.79 219.951 1349.04 231.914 1349.04 246.27V325.396C1349.04 335.535 1349.66 343.853 1350.92 350.347C1352.17 356.727 1353.99 362.31 1356.39 367.095V370H1306.65C1304.26 364.987 1302.44 358.721 1301.19 351.201C1300.05 343.568 1299.48 335.934 1299.48 328.301ZM1305.97 257.378L1306.31 285.234H1278.8C1272.3 285.234 1266.66 285.975 1261.88 287.456C1257.09 288.937 1253.16 291.045 1250.09 293.779C1247.01 296.4 1244.73 299.476 1243.25 303.008C1241.88 306.54 1241.2 310.413 1241.2 314.629C1241.2 318.844 1242.17 322.661 1244.11 326.079C1246.04 329.383 1248.83 332.004 1252.48 333.94C1256.13 335.763 1260.4 336.675 1265.3 336.675C1272.7 336.675 1279.14 335.194 1284.61 332.231C1290.08 329.269 1294.29 325.623 1297.26 321.294C1300.33 316.965 1301.93 312.863 1302.04 308.989L1315.03 329.839C1313.21 334.51 1310.7 339.352 1307.51 344.365C1304.43 349.378 1300.5 354.106 1295.72 358.55C1290.93 362.879 1285.18 366.468 1278.46 369.316C1271.73 372.051 1263.76 373.418 1254.53 373.418C1242.8 373.418 1232.14 371.082 1222.57 366.411C1213.12 361.626 1205.6 355.075 1200.01 346.758C1194.55 338.327 1191.81 328.757 1191.81 318.047C1191.81 308.363 1193.63 299.761 1197.28 292.241C1200.93 284.722 1206.28 278.398 1213.34 273.271C1220.52 268.031 1229.47 264.1 1240.18 261.479C1250.88 258.745 1263.3 257.378 1277.43 257.378H1305.97ZM1486.95 318.901C1486.95 315.369 1485.93 312.179 1483.88 309.331C1481.83 306.483 1478.01 303.862 1472.43 301.47C1466.96 298.963 1459.04 296.685 1448.67 294.634C1439.33 292.583 1430.61 290.02 1422.52 286.943C1414.55 283.753 1407.6 279.937 1401.67 275.493C1395.86 271.05 1391.31 265.809 1388 259.771C1384.7 253.618 1383.05 246.611 1383.05 238.75C1383.05 231.003 1384.7 223.711 1388 216.875C1391.42 210.039 1396.26 204.001 1402.53 198.76C1408.91 193.405 1416.66 189.246 1425.77 186.284C1435 183.208 1445.37 181.67 1456.87 181.67C1472.94 181.67 1486.72 184.233 1498.23 189.36C1509.85 194.487 1518.74 201.551 1524.89 210.552C1531.16 219.438 1534.29 229.578 1534.29 240.972H1485.07C1485.07 236.187 1484.05 231.914 1482 228.154C1480.06 224.281 1476.98 221.261 1472.77 219.097C1468.67 216.818 1463.31 215.679 1456.7 215.679C1451.23 215.679 1446.51 216.647 1442.52 218.584C1438.53 220.407 1435.45 222.913 1433.29 226.104C1431.24 229.18 1430.21 232.598 1430.21 236.357C1430.21 239.206 1430.78 241.769 1431.92 244.048C1433.18 246.213 1435.17 248.206 1437.9 250.029C1440.64 251.852 1444.17 253.561 1448.5 255.156C1452.94 256.637 1458.41 258.005 1464.91 259.258C1478.24 261.992 1490.14 265.581 1500.62 270.024C1511.11 274.354 1519.42 280.278 1525.58 287.798C1531.73 295.203 1534.8 304.945 1534.8 317.021C1534.8 325.225 1532.98 332.744 1529.34 339.58C1525.69 346.416 1520.45 352.397 1513.61 357.524C1506.78 362.537 1498.57 366.468 1489 369.316C1479.55 372.051 1468.89 373.418 1457.05 373.418C1439.84 373.418 1425.26 370.342 1413.3 364.189C1401.45 358.037 1392.45 350.233 1386.29 340.776C1380.25 331.206 1377.24 321.408 1377.24 311.382H1423.89C1424.12 318.104 1425.83 323.516 1429.02 327.617C1432.32 331.719 1436.48 334.681 1441.49 336.504C1446.62 338.327 1452.15 339.238 1458.07 339.238C1464.45 339.238 1469.75 338.384 1473.96 336.675C1478.18 334.852 1481.37 332.459 1483.53 329.497C1485.81 326.421 1486.95 322.889 1486.95 318.901ZM1651.87 373.418C1637.51 373.418 1624.64 371.139 1613.25 366.582C1601.85 361.911 1592.17 355.474 1584.19 347.271C1576.33 339.067 1570.29 329.554 1566.08 318.73C1561.86 307.793 1559.76 296.172 1559.76 283.867V277.031C1559.76 263.018 1561.75 250.2 1565.74 238.579C1569.72 226.958 1575.42 216.875 1582.83 208.33C1590.35 199.785 1599.46 193.234 1610.17 188.677C1620.88 184.006 1632.96 181.67 1646.4 181.67C1659.5 181.67 1671.12 183.835 1681.26 188.164C1691.4 192.493 1699.89 198.646 1706.73 206.621C1713.68 214.596 1718.92 224.167 1722.45 235.332C1725.98 246.383 1727.75 258.688 1727.75 272.246V292.754H1580.78V259.941H1679.38V256.182C1679.38 249.346 1678.13 243.25 1675.62 237.896C1673.23 232.427 1669.59 228.097 1664.69 224.907C1659.79 221.717 1653.52 220.122 1645.89 220.122C1639.39 220.122 1633.81 221.546 1629.14 224.395C1624.47 227.243 1620.65 231.23 1617.69 236.357C1614.84 241.484 1612.68 247.523 1611.2 254.473C1609.83 261.309 1609.14 268.828 1609.14 277.031V283.867C1609.14 291.273 1610.17 298.109 1612.22 304.375C1614.39 310.641 1617.4 316.053 1621.28 320.61C1625.27 325.168 1630.05 328.7 1635.63 331.206C1641.33 333.713 1647.77 334.966 1654.95 334.966C1663.83 334.966 1672.09 333.257 1679.73 329.839C1687.47 326.307 1694.14 321.009 1699.72 313.945L1723.65 339.922C1719.77 345.505 1714.48 350.859 1707.75 355.986C1701.15 361.113 1693.17 365.329 1683.83 368.633C1674.48 371.823 1663.83 373.418 1651.87 373.418Z" fill="#272626"/>
<defs>
<filter id="filter0_i_1381_397" x="2.73706" y="1.85596" width="143.976" height="398.496" filterUnits="userSpaceOnUse" color-interpolation-filters="sRGB">
<feFlood flood-opacity="0" result="BackgroundImageFix"/>
<feBlend mode="normal" in="SourceGraphic" in2="BackgroundImageFix" result="shape"/>
<feColorMatrix in="SourceAlpha" type="matrix" values="0 0 0 0 0 0 0 0 0 0 0 0 0 0 0 0 0 0 127 0" result="hardAlpha"/>
<feOffset/>
<feGaussianBlur stdDeviation="17.5"/>
<feComposite in2="hardAlpha" operator="arithmetic" k2="-1" k3="1"/>
<feColorMatrix type="matrix" values="0 0 0 0 0 0 0 0 0 0 0 0 0 0 0 0 0 0 0.06 0"/>
<feBlend mode="normal" in2="shape" result="effect1_innerShadow_1381_397"/>
</filter>
<filter id="filter1_i_1381_397" x="147.466" y="65.0166" width="91.8667" height="147.436" filterUnits="userSpaceOnUse" color-interpolation-filters="sRGB">
<feFlood flood-opacity="0" result="BackgroundImageFix"/>
<feBlend mode="normal" in="SourceGraphic" in2="BackgroundImageFix" result="shape"/>
<feColorMatrix in="SourceAlpha" type="matrix" values="0 0 0 0 0 0 0 0 0 0 0 0 0 0 0 0 0 0 127 0" result="hardAlpha"/>
<feOffset dx="1" dy="-9"/>
<feGaussianBlur stdDeviation="3.5"/>
<feComposite in2="hardAlpha" operator="arithmetic" k2="-1" k3="1"/>
<feColorMatrix type="matrix" values="0 0 0 0 0 0 0 0 0 0 0 0 0 0 0 0 0 0 0.09 0"/>
<feBlend mode="normal" in2="shape" result="effect1_innerShadow_1381_397"/>
</filter>
</defs>
</svg>
