<svg width="500" height="500" viewBox="0 0 500 500" fill="none" xmlns="http://www.w3.org/2000/svg">
<path d="M490.548 227.718L272.226 9.43329C269.237 6.44267 265.688 4.07029 261.781 2.45169C257.875 0.833096 253.688 0 249.46 0C245.231 0 241.044 0.833096 237.138 2.45169C233.231 4.07029 229.682 6.44267 226.693 9.43329L181.378 54.7466L238.881 112.248C245.663 109.932 252.959 109.57 259.936 111.202C266.914 112.834 273.292 116.395 278.343 121.479C283.394 126.562 286.914 132.963 288.501 139.951C290.089 146.939 289.68 154.232 287.321 160.998L342.729 216.437C350.927 213.551 359.863 213.542 368.066 216.412C376.27 219.282 383.251 224.86 387.861 232.228C392.47 239.595 394.434 248.313 393.428 256.945C392.421 265.577 388.505 273.61 382.325 279.719C376.068 286.014 367.819 289.942 358.988 290.831C350.157 291.72 341.291 289.516 333.904 284.594C326.518 279.673 321.069 272.339 318.49 263.847C315.91 255.354 316.359 246.229 319.759 238.031L268.101 186.343V322.376C275.953 326.263 282.236 332.723 285.902 340.681C289.569 348.638 290.397 357.611 288.249 366.105C286.101 374.599 281.107 382.1 274.099 387.359C267.091 392.617 258.492 395.314 249.736 395.002C240.98 394.689 232.596 391.385 225.981 385.64C219.366 379.895 214.92 372.057 213.383 363.432C211.847 354.806 213.313 345.915 217.538 338.239C221.763 330.564 228.49 324.568 236.6 321.251V183.968C231.921 182.051 227.668 179.226 224.086 175.658C220.504 172.089 217.664 167.847 215.729 163.176C213.794 158.505 212.803 153.497 212.813 148.441C212.823 143.385 213.833 138.38 215.786 133.717L159.128 77.0282L9.43354 226.718C6.44283 229.708 4.0704 233.257 2.45176 237.163C0.833118 241.069 0 245.256 0 249.484C0 253.713 0.833118 257.9 2.45176 261.806C4.0704 265.712 6.44283 269.261 9.43354 272.25L227.755 490.567C230.745 493.557 234.294 495.93 238.2 497.548C242.107 499.167 246.294 500 250.522 500C254.751 500 258.938 499.167 262.844 497.548C266.75 495.93 270.3 493.557 273.289 490.567L490.579 273.282C496.612 267.241 500 259.053 500 250.516C500 241.979 496.612 233.791 490.579 227.75" fill="#272626"/>
</svg>
