<svg width="443" height="500" viewBox="0 0 443 500" fill="none" xmlns="http://www.w3.org/2000/svg">
<path d="M221.585 0C198.033 0 174.712 4.63889 152.953 13.6518C131.194 22.6647 111.423 35.8752 94.7694 52.5289C61.1358 86.1625 42.2406 131.78 42.2406 179.345C42.2406 258.615 93.7125 325.869 164.912 349.722C173.88 351.157 176.749 345.597 176.749 340.755V310.446C127.071 321.206 116.489 286.413 116.489 286.413C108.239 265.609 96.582 260.05 96.582 260.05C80.2617 248.93 97.8374 249.289 97.8374 249.289C115.772 250.545 125.277 267.762 125.277 267.762C140.88 295.022 167.244 286.952 177.466 282.647C179.081 270.99 183.744 263.099 188.765 258.615C148.951 254.131 107.163 238.708 107.163 170.377C107.163 150.47 113.978 134.509 125.636 121.775C123.842 117.291 117.565 98.6396 127.429 74.4281C127.429 74.4281 142.494 69.5857 176.749 92.7212C190.917 88.7756 206.341 86.8028 221.585 86.8028C236.83 86.8028 252.253 88.7756 266.421 92.7212C300.676 69.5857 315.741 74.4281 315.741 74.4281C325.605 98.6396 319.328 117.291 317.535 121.775C329.192 134.509 336.007 150.47 336.007 170.377C336.007 238.887 294.041 253.952 254.047 258.436C260.503 263.995 266.421 274.935 266.421 291.615V340.755C266.421 345.597 269.291 351.336 278.438 349.722C349.637 325.69 400.93 258.615 400.93 179.345C400.93 155.793 396.291 132.472 387.278 110.712C378.265 88.9534 365.055 69.1825 348.401 52.5289C331.747 35.8752 311.977 22.6647 290.218 13.6518C268.458 4.63889 245.137 0 221.585 0Z" fill="#272626"/>
<path d="M85.5445 431.295H48.305C47.8433 431.295 47.4006 431.479 47.0742 431.805C46.7478 432.132 46.5643 432.575 46.5641 433.036V451.244C46.5641 452.204 47.3442 452.986 48.3041 452.986H62.8324V475.608C62.8324 475.608 59.5702 476.72 50.5518 476.72C39.9118 476.72 25.0481 472.831 25.0481 440.148C25.0481 407.457 40.5259 403.157 55.0558 403.157C67.633 403.157 73.052 405.371 76.4992 406.438C77.5829 406.77 78.5852 405.691 78.5852 404.73L82.739 387.137C82.739 386.688 82.5868 386.146 82.0739 385.779C80.6738 384.78 72.1319 380 50.551 380C25.6915 380 0.189453 390.577 0.189453 441.423C0.189453 492.27 29.386 499.847 53.9904 499.847C74.3614 499.847 86.7189 491.142 86.7189 491.142C87.2292 490.861 87.2836 490.149 87.2836 489.822V433.036C87.2836 432.076 86.5044 431.295 85.5445 431.295ZM277.363 386.364C277.363 385.396 276.595 384.614 275.634 384.614H254.666C254.437 384.615 254.21 384.661 253.999 384.749C253.788 384.838 253.596 384.967 253.435 385.129C253.274 385.292 253.146 385.485 253.059 385.697C252.973 385.908 252.928 386.135 252.929 386.364L252.934 426.887H220.251V386.365C220.251 385.397 219.479 384.615 218.52 384.615H197.552C197.09 384.617 196.648 384.803 196.323 385.131C195.998 385.46 195.817 385.903 195.819 386.365V496.088C195.819 497.056 196.598 497.843 197.552 497.843H218.519C219.479 497.843 220.249 497.056 220.249 496.088V449.155H252.934L252.876 496.087C252.876 497.055 253.655 497.842 254.613 497.842H275.632C276.592 497.842 277.36 497.055 277.361 496.087V386.365L277.363 386.364ZM125.045 401.034C125.045 393.484 118.991 387.382 111.523 387.382C104.062 387.382 98.004 393.484 98.004 401.034C98.004 408.576 104.062 414.694 111.523 414.694C118.991 414.694 125.045 408.576 125.045 401.034ZM123.381 472.998V422.351C123.382 421.889 123.2 421.445 122.875 421.118C122.55 420.79 122.108 420.605 121.646 420.603H100.744C99.7847 420.603 98.9277 421.592 98.9277 422.554V495.117C98.9277 497.25 100.256 497.884 101.976 497.884H120.808C122.875 497.884 123.381 496.869 123.381 495.083V472.998ZM357.503 420.604H336.696C335.741 420.604 334.964 421.39 334.964 422.358V476.158C334.964 476.158 329.678 480.026 322.175 480.026C314.673 480.026 312.682 476.621 312.682 469.275V422.358C312.682 421.39 311.906 420.603 310.951 420.603H289.833C288.88 420.603 288.099 421.39 288.099 422.358V472.828C288.099 494.648 300.261 499.986 316.991 499.986C330.716 499.986 341.782 492.404 341.782 492.404C341.782 492.404 342.309 496.4 342.547 496.874C342.786 497.347 343.407 497.823 344.078 497.823L357.513 497.764C358.466 497.764 359.247 496.977 359.247 496.013L359.24 422.358C359.242 421.895 359.06 421.45 358.734 421.121C358.409 420.793 357.966 420.606 357.503 420.604ZM405.445 480.067C398.228 479.848 393.332 476.573 393.332 476.573V441.825C393.332 441.825 398.162 438.864 404.087 438.335C411.58 437.664 418.801 439.927 418.801 457.802C418.801 476.651 415.542 480.372 405.445 480.067ZM413.652 418.247C401.834 418.247 393.796 423.52 393.796 423.52V386.364C393.797 386.136 393.754 385.909 393.668 385.697C393.582 385.486 393.455 385.293 393.294 385.13C393.133 384.968 392.942 384.838 392.732 384.75C392.521 384.661 392.295 384.615 392.066 384.614H371.038C370.809 384.615 370.583 384.661 370.372 384.75C370.161 384.838 369.969 384.967 369.809 385.13C369.648 385.292 369.52 385.485 369.434 385.697C369.347 385.909 369.304 386.136 369.305 386.364V496.087C369.305 497.055 370.081 497.842 371.04 497.842H385.63C386.287 497.842 386.785 497.505 387.152 496.911C387.515 496.321 388.038 491.852 388.038 491.852C388.038 491.852 396.636 500 412.913 500C432.022 500 442.981 490.307 442.981 456.486C442.981 422.665 425.479 418.247 413.652 418.247ZM183.731 420.413H168.002L167.978 399.634C167.978 398.848 167.573 398.455 166.664 398.455H145.23C144.396 398.455 143.949 398.821 143.949 399.622V421.096C143.949 421.096 133.208 423.688 132.481 423.898C132.119 424.003 131.801 424.223 131.574 424.524C131.348 424.826 131.225 425.193 131.226 425.57V439.064C131.226 440.035 132 440.817 132.96 440.817H143.949V473.279C143.949 497.391 160.861 499.76 172.275 499.76C177.489 499.76 183.727 498.084 184.757 497.705C185.38 497.476 185.742 496.831 185.742 496.131L185.759 481.287C185.759 480.319 184.942 479.536 184.021 479.536C183.104 479.536 180.76 479.908 178.346 479.908C170.62 479.908 168.002 476.316 168.002 471.667L168.001 440.818H183.731C183.96 440.817 184.187 440.771 184.398 440.682C184.609 440.594 184.801 440.464 184.962 440.301C185.124 440.138 185.251 439.945 185.337 439.733C185.424 439.521 185.467 439.293 185.466 439.064V422.163C185.466 421.194 184.69 420.413 183.731 420.413Z" fill="#272626"/>
</svg>
