<svg width="2088" height="500" viewBox="0 0 2088 500" fill="none" xmlns="http://www.w3.org/2000/svg">
<path d="M202.518 309.425L201.295 313.043L265.78 422.417L269.43 425L336.81 308.489L269.431 191.51L202.518 309.425ZM66.8232 75L0.847168 191.511L69.3967 309.425L134.671 191.51L134.495 186.746L69.8311 77.3701L66.8232 75Z" fill="#272626"/>
<path d="M66.8232 75L134.672 191.511H269.43L201.114 75H66.8232ZM69.3968 309.425L135.841 425H269.43L202.518 309.425H69.3968Z" fill="#505050"/>
<path d="M528.675 227.756V259.396H416.468V227.756H528.675ZM427.455 139.719V353H387.172V139.719H427.455ZM558.558 139.719V353H518.275V139.719H558.558ZM657.494 139.719V353H617.211V139.719H657.494ZM797.738 257.932H743.246L742.953 229.514H789.681C797.689 229.514 804.379 228.391 809.75 226.145C815.121 223.898 819.173 220.627 821.908 216.33C824.74 212.033 826.156 206.809 826.156 200.656C826.156 193.82 824.838 188.254 822.201 183.957C819.662 179.66 815.658 176.535 810.189 174.582C804.72 172.531 797.787 171.506 789.388 171.506H756.283V353H716V139.719H789.388C801.498 139.719 812.289 140.891 821.761 143.234C831.332 145.48 839.437 148.996 846.078 153.781C852.718 158.566 857.748 164.572 861.166 171.799C864.681 179.025 866.439 187.619 866.439 197.58C866.439 206.369 864.388 214.475 860.287 221.896C856.283 229.221 850.082 235.178 841.683 239.768C833.382 244.357 822.836 246.994 810.043 247.678L797.738 257.932ZM795.98 353H731.38L748.226 321.359H795.98C803.988 321.359 810.58 320.041 815.755 317.404C821.029 314.768 824.935 311.154 827.474 306.564C830.111 301.877 831.429 296.506 831.429 290.451C831.429 283.811 830.257 278.049 827.914 273.166C825.668 268.283 822.054 264.523 817.074 261.887C812.191 259.25 805.746 257.932 797.738 257.932H755.843L756.136 229.514H809.457L818.685 240.5C830.99 240.598 841 243.039 848.714 247.824C856.527 252.609 862.289 258.762 866 266.281C869.711 273.801 871.566 281.906 871.566 290.598C871.566 304.27 868.588 315.744 862.63 325.021C856.771 334.299 848.177 341.281 836.849 345.969C825.619 350.656 811.996 353 795.98 353ZM1062.79 321.359V353H949.408V321.359H1062.79ZM961.713 139.719V353H921.429V139.719H961.713ZM1047.99 227.756V258.664H949.408V227.756H1047.99ZM1062.35 139.719V171.506H949.408V139.719H1062.35ZM1105.77 139.719H1183.26C1199.47 139.719 1213.38 142.16 1225 147.043C1236.62 151.926 1245.56 159.152 1251.81 168.723C1258.06 178.293 1261.19 190.061 1261.19 204.025C1261.19 215.061 1259.23 224.631 1255.33 232.736C1251.42 240.842 1245.9 247.629 1238.77 253.098C1231.74 258.566 1223.44 262.863 1213.87 265.988L1201.27 272.434H1132.86L1132.57 240.646H1183.69C1192 240.646 1198.88 239.182 1204.35 236.252C1209.82 233.322 1213.92 229.27 1216.65 224.094C1219.49 218.918 1220.9 213.01 1220.9 206.369C1220.9 199.24 1219.53 193.088 1216.8 187.912C1214.07 182.639 1209.92 178.586 1204.35 175.754C1198.78 172.922 1191.75 171.506 1183.26 171.506H1146.05V353H1105.77V139.719ZM1226.18 353L1176.81 257.492L1219.44 257.346L1269.39 350.949V353H1226.18Z" fill="#272626"/>
<path d="M1482.87 139.719V353H1442.44L1351.77 205.051V353H1311.49V139.719H1351.77L1442.74 287.814V139.719H1482.87ZM1626.34 172.092L1565.55 353H1522.92L1602.61 139.719H1629.86L1626.34 172.092ZM1677.17 353L1616.09 172.092L1612.43 139.719H1639.82L1719.94 353H1677.17ZM1674.39 273.752V305.539H1559.98V273.752H1674.39ZM1830.01 139.719V353H1789.88V139.719H1830.01ZM1896.22 139.719V171.506H1724.4V139.719H1896.22ZM2079.39 321.359V353H1966.01V321.359H2079.39ZM1978.31 139.719V353H1938.03V139.719H1978.31ZM2064.59 227.756V258.664H1966.01V227.756H2064.59ZM2078.95 139.719V171.506H1966.01V139.719H2078.95Z" fill="#505050"/>
</svg>
