<svg width="441" height="500" viewBox="0 0 441 500" fill="none" xmlns="http://www.w3.org/2000/svg">
<path d="M40.1633 450.018L0.0383301 0H440.931L400.753 449.946L220.217 500L40.1633 450.018Z" fill="#272626"/>
<path d="M220.48 461.751L366.373 421.304L400.694 36.8042H220.48V461.751Z" fill="#4B4B4B"/>
<path d="M220.48 203.694H147.444L142.408 147.176H220.48V91.98H82.0869L83.4083 106.801L96.9619 258.891H220.48V203.694ZM220.48 347.034L220.23 347.105L158.765 330.516L154.837 286.498H99.4262L107.158 373.141L220.23 404.534L220.48 404.462V347.034Z" fill="#CCCCCC"/>
<path d="M220.288 203.694V258.891H288.252L281.86 330.48L220.288 347.087V404.516L333.449 373.141L334.27 363.819L347.234 218.516L348.592 203.694H220.288ZM220.288 91.98V147.176H353.609L354.717 134.784L357.235 106.801L358.556 91.98H220.288Z" fill="#E7E7E7"/>
</svg>
