<svg width="269" height="500" viewBox="0 0 269 500" fill="none" xmlns="http://www.w3.org/2000/svg">
<path d="M88.8747 265.22C88.8747 265.22 75.778 272.841 98.2107 275.417C125.385 278.52 139.275 278.073 169.218 272.414C169.218 272.414 177.11 277.347 188.101 281.622C120.958 310.388 36.141 279.955 88.8747 265.22ZM80.6634 227.672C80.6634 227.672 65.9715 238.556 88.4201 240.877C117.453 243.872 140.372 244.119 180.061 236.478C180.061 236.478 185.537 242.045 194.163 245.08C112.998 268.825 22.5937 246.951 80.6634 227.672Z" fill="#505050"/>
<path d="M149.828 163.979C166.382 183.034 145.489 200.167 145.489 200.167C145.489 200.167 187.495 178.484 168.205 151.321C150.183 126.001 136.372 113.427 211.16 70.0532C211.16 70.0532 93.7602 99.3653 149.828 163.979Z" fill="#272626"/>
<path d="M238.628 292.992C238.628 292.992 248.327 300.988 227.948 307.169C189.2 318.906 66.6558 322.448 32.6179 307.636C20.3906 302.312 43.3338 294.926 50.5481 293.375C58.0736 291.744 62.3727 292.043 62.3727 292.043C48.7655 282.46 -25.5834 310.862 24.61 319.01C161.495 341.195 274.129 309.016 238.628 292.992ZM95.1782 188.769C95.1782 188.769 32.8492 203.576 73.1084 208.96C90.1134 211.233 123.988 210.711 155.565 208.063C181.364 205.897 207.254 201.267 207.254 201.267C207.254 201.267 198.165 205.167 191.581 209.658C128.275 226.308 6.00582 218.551 41.2082 201.53C70.9709 187.13 95.1782 188.769 95.1782 188.769ZM206.995 251.261C271.342 217.833 241.587 185.706 220.821 190.033C215.744 191.094 213.463 192.011 213.463 192.011C213.463 192.011 215.358 189.044 218.959 187.772C260.043 173.335 291.633 230.368 205.71 252.956C205.71 252.956 206.696 252.063 206.995 251.261Z" fill="#505050"/>
<path d="M168.209 0C168.209 0 203.842 35.649 134.406 90.4565C78.7254 134.433 121.708 159.501 134.382 188.155C101.88 158.827 78.0394 133.009 94.0314 108.985C117.517 73.7228 182.582 56.6181 168.209 0Z" fill="#272626"/>
<path d="M101.507 341.879C163.258 345.827 258.113 339.681 260.358 310.461C260.358 310.461 256.043 321.536 209.315 330.325C156.602 340.248 91.5768 339.095 53.0205 332.73C53.0205 332.73 60.9168 339.27 101.507 341.879Z" fill="#505050"/>
<path d="M257.507 394.289H255.625V393.236H260.69V394.289H258.815V399.541H257.503L257.507 394.289ZM267.617 394.552H267.593L265.727 399.541H264.865L263.011 394.552H262.991V399.541H261.747V393.236H263.569L265.288 397.699L267.011 393.236H268.821V399.541H267.617V394.552ZM91.3857 453.535C85.5632 458.584 79.4057 461.424 73.8743 461.424C66.0019 461.424 61.7308 456.694 61.7308 449.121C61.7308 440.925 66.301 434.923 84.6141 434.923H91.3818L91.3857 453.535ZM107.462 471.673V415.533C107.462 401.18 99.2741 391.713 79.5572 391.713C68.0478 391.713 57.9581 394.56 49.7547 398.181L52.1156 408.124C58.5762 405.751 66.9311 403.549 75.1305 403.549C86.4964 403.549 91.3818 408.124 91.3818 417.591V424.686H85.7028C58.1016 424.686 45.647 435.394 45.647 451.497C45.647 465.372 53.8544 473.256 69.308 473.256C79.2382 473.256 86.6599 469.156 93.5872 463.154L94.8474 471.677L107.462 471.673ZM161.109 471.673H141.061L116.929 393.152H134.441L149.42 441.404L152.75 455.9C160.311 434.931 165.671 413.643 168.351 393.156H185.384C180.825 419.003 172.61 447.386 161.109 471.673ZM238.03 453.535C232.187 458.584 226.026 461.424 220.514 461.424C212.634 461.424 208.367 456.694 208.367 449.121C208.367 440.925 212.949 434.923 231.242 434.923H238.026L238.03 453.535ZM254.113 471.673V415.533C254.113 401.18 245.902 391.713 226.201 391.713C214.68 391.713 204.594 394.56 196.391 398.181L198.756 408.124C205.216 405.751 213.583 403.549 221.782 403.549C233.132 403.549 238.03 408.124 238.03 417.591V424.686H232.351C204.742 424.686 192.291 435.394 192.291 451.497C192.291 465.372 200.49 473.256 215.94 473.256C225.874 473.256 233.284 469.156 240.231 463.154L241.499 471.677L254.113 471.673ZM28.0199 485.017C23.4456 491.713 16.0359 497.013 7.9322 500L0 490.648C6.16949 487.481 11.4536 482.373 13.9142 477.611C16.0359 473.372 16.9172 467.92 16.9172 454.875V365.216H34.002V453.643C34.002 471.091 32.6141 478.145 28.0199 485.017Z" fill="#272626"/>
</svg>
