<svg width="454" height="500" viewBox="0 0 454 500" fill="none" xmlns="http://www.w3.org/2000/svg">
<path d="M424.665 246.179C424.665 220.477 403.828 199.64 378.126 199.64C376.471 199.64 374.841 199.728 373.233 199.898L437.155 11.3667H165.508L229.341 199.733C228.399 199.674 227.456 199.643 226.512 199.641C200.81 199.641 179.973 220.475 179.973 246.181C179.973 266.956 193.589 284.546 212.38 290.53C202.456 307.722 189.966 323.207 175.787 336.586C156.505 354.775 134.438 368.568 110.571 377.067C82.155 362.469 68.737 330.005 80.844 301.541C82.2117 298.325 83.6077 295.067 84.9417 291.824C105.527 287.019 120.869 268.565 120.869 246.514C120.869 220.81 100.032 199.974 74.3282 199.974C48.6243 199.974 27.7888 220.81 27.7888 246.514C27.7888 262.276 35.6298 276.198 47.618 284.617C36.0992 310.843 19.1665 338.292 13.8907 370.104C7.56795 408.229 13.8695 448.699 46.8439 471.554C123.638 524.779 206.998 438.558 294.89 416.883C326.743 409.03 361.708 410.294 389.772 394.042C410.847 381.836 424.741 361.606 428.683 338.896C432.581 316.461 426.901 294.123 413.841 276.011C420.847 267.651 424.68 257.087 424.665 246.179Z" fill="#272626"/>
<path d="M417.485 336.951C414.063 356.669 401.885 373.89 384.077 384.206C367.476 393.82 347.582 396.69 326.518 399.727C315.235 401.353 303.568 403.038 292.169 405.848C262.031 413.279 232.839 427.78 204.611 441.802C148.115 469.864 99.3257 494.095 53.3213 462.21C19.6224 438.856 21.1778 395.643 25.1036 371.964C28.7424 350.025 38.58 329.82 48.0916 310.282C49.7121 306.961 51.3195 303.634 52.9139 300.3C57.7086 302.217 62.7396 303.479 67.8713 304.053C58.1879 336.01 73.4164 370.758 105.377 387.177L109.753 389.425L114.384 387.776C139.652 378.776 162.936 364.338 183.587 344.852C196.936 332.258 208.414 318.324 217.848 303.436C220.716 303.869 223.612 304.086 226.513 304.086C255.848 304.086 280.14 282.156 283.9 253.832C295.907 253.393 308.661 253.389 320.738 253.828C324.494 282.156 348.789 304.088 378.125 304.088C390.391 304.088 401.768 300.244 411.141 293.714C417.648 307.034 420.077 322.022 417.485 336.951ZM74.3305 211.341C93.7258 211.341 109.503 227.12 109.503 246.515C109.509 253.229 107.581 259.802 103.95 265.448C98.1033 274.566 88.1648 280.817 76.7469 281.596C75.948 281.649 75.1419 281.688 74.3305 281.688C70.0078 281.688 65.8677 280.9 62.0393 279.468C54.3291 276.569 47.8724 271.07 43.7832 263.919C40.7467 258.622 39.1512 252.621 39.1558 246.515C39.1558 227.12 54.9352 211.341 74.3305 211.341ZM191.342 246.18C191.342 228.559 204.368 213.927 221.294 211.397C222.998 211.14 224.741 211.008 226.515 211.008C237.791 211.008 247.83 216.349 254.268 224.626C255.881 226.689 257.258 228.927 258.375 231.296C260.561 235.953 261.692 241.036 261.687 246.18C261.687 248.992 261.347 251.725 260.722 254.347C257.294 268.697 245.058 279.667 230.063 281.176C228.897 281.293 227.714 281.353 226.515 281.353C219.749 281.359 213.127 279.401 207.452 275.718C197.769 269.445 191.342 258.551 191.342 246.18ZM338.144 204.353C330.489 211.659 324.981 220.921 322.215 231.134C308.958 230.646 295.687 230.646 282.429 231.134C279.453 220.094 273.284 210.354 264.984 202.956L301.381 129.361L338.144 204.353ZM181.362 22.7365H421.3L364.629 189.876C362.191 190.46 359.793 191.203 357.452 192.099L301.47 77.8981L245.329 191.417C242.881 190.577 240.38 189.903 237.842 189.4L181.362 22.7365ZM413.297 246.182C413.297 249.708 412.771 253.113 411.802 256.328C409.503 263.898 404.729 270.477 398.244 275.009C392.351 279.145 385.324 281.362 378.125 281.355C361.884 281.355 348.185 270.288 344.156 255.301C343.356 252.327 342.951 249.261 342.952 246.182C342.952 241.374 343.922 236.789 345.676 232.612C346.581 230.475 347.696 228.432 349.003 226.514C355.333 217.171 366.014 211.009 378.125 211.009C379.235 211.009 380.33 211.066 381.416 211.169C399.274 212.832 413.297 227.896 413.297 246.182ZM436.032 246.182C436.032 217.911 415.663 194.323 388.834 189.284L453.011 0H149.655L213.931 189.667C188.034 195.43 168.609 218.572 168.609 246.18C168.609 266.911 179.564 285.12 195.983 295.352C188.085 307.119 178.721 318.192 167.989 328.318C150.967 344.374 132.006 356.552 111.564 364.564C90.9727 351.63 82.269 327.237 91.3075 305.989L92.0162 304.324L93.3449 301.199C115.961 293.31 132.236 271.785 132.236 246.515C132.236 214.584 106.26 188.608 74.3305 188.608C42.3996 188.608 16.4229 214.584 16.4229 246.515C16.4229 262.631 23.0486 277.226 33.71 287.735C31.7215 291.948 29.7031 296.146 27.6547 300.331C17.9057 320.351 6.85812 343.043 2.67897 368.244C-5.61911 418.291 7.76694 458.299 40.3729 480.895C60.1579 494.607 80.2511 500 100.47 500C138.541 500 177.056 480.872 214.725 462.161C241.853 448.688 269.906 434.754 297.615 427.92C307.926 425.378 318.534 423.847 329.766 422.228C352.04 419.014 375.07 415.692 395.472 403.878C419.121 390.18 435.308 367.202 439.885 340.841C443.815 318.209 439.086 295.542 427.553 276.317C433.111 267.248 436.046 256.817 436.034 246.18L436.032 246.182Z" fill="#8E8D8D"/>
</svg>
