<svg width="1695" height="500" viewBox="0 0 1695 500" fill="none" xmlns="http://www.w3.org/2000/svg">
<path d="M1296.31 257.542C1317.64 257.542 1334.96 266.65 1348.25 284.867V260.989H1364.75V391.706H1348.25V369.306C1333.32 387.192 1316.25 396.138 1297.05 396.138C1277.85 396.138 1261.6 389.328 1248.31 375.705C1235.18 361.92 1228.61 345.591 1228.61 326.719C1228.61 307.681 1235.26 291.435 1248.55 277.974C1261.85 264.355 1277.76 257.542 1296.31 257.542ZM998.598 257.542C1019.93 257.542 1037.25 266.65 1050.54 284.867V260.989H1067.03V391.706H1050.54V369.306C1035.6 387.192 1018.54 396.138 999.334 396.138C980.133 396.138 963.887 389.328 950.592 375.705C937.463 361.92 930.898 345.591 930.898 326.719C930.898 307.681 937.546 291.435 950.837 277.974C964.132 264.355 980.05 257.542 998.598 257.542ZM1439.02 214.957C1464.13 214.957 1482.51 216.845 1494.16 220.621C1505.98 224.231 1516.16 230.057 1524.69 238.099C1533.22 245.976 1539.79 255.66 1544.38 267.147C1548.98 278.636 1551.27 292.094 1551.27 307.522C1551.27 322.781 1547.66 337.225 1540.44 350.844C1533.39 364.305 1523.7 374.48 1511.4 381.372C1499.25 388.261 1481.69 391.709 1458.71 391.709H1402.34V214.957H1439.02ZM1196.83 260.993V391.709H1179.84V260.989H1196.83V260.993ZM734.055 214.954L805.935 359.949L877.325 214.957H880.034L905.392 391.709H887.913L870.68 265.179L808.151 391.709H803.719L740.454 264.192L723.221 391.709H706.236L731.346 214.957L734.055 214.954ZM1140.57 257.542C1145.98 257.542 1151.4 259.019 1156.82 261.973L1147.95 276.252C1145.49 274.775 1142.95 274.036 1140.32 274.036C1135.23 274.036 1130.39 276.662 1125.8 281.915C1121.37 287.165 1118.08 293.978 1115.95 302.348C1113.82 310.552 1112.75 325.566 1112.75 347.393V391.709H1095.52V260.986H1112.75V279.941C1117.34 272.227 1121.78 266.567 1126.04 262.957C1130.47 259.347 1135.32 257.538 1140.57 257.538V257.542ZM1623.09 214.957C1641.64 214.957 1655.67 218.733 1665.19 226.285C1674.87 233.668 1679.71 244.336 1679.71 258.283C1679.76 265.832 1677.71 273.245 1673.8 279.703C1670.03 286.102 1664.45 291.272 1657.06 295.21C1669.21 299.152 1678.4 305.057 1684.63 312.934C1691.03 320.813 1694.24 330.167 1694.24 340.997C1694.24 355.604 1688.9 367.749 1678.23 377.431C1667.57 386.95 1653.78 391.709 1636.88 391.709H1588.13V214.957H1623.09ZM1297.3 273.791C1282.86 273.791 1270.63 279.123 1260.61 289.792C1250.61 300.295 1245.6 312.768 1245.6 327.209C1245.6 341.65 1250.69 354.206 1260.86 364.874C1271.04 375.377 1283.18 380.63 1297.3 380.63C1311.57 380.63 1323.8 375.543 1333.97 365.368C1344.15 355.193 1349.24 342.392 1349.24 326.964C1349.24 312.029 1344.23 299.473 1334.22 289.298C1324.21 278.961 1311.9 273.791 1297.3 273.791ZM999.582 273.791C985.141 273.791 972.913 279.123 962.903 289.792C952.891 300.295 947.886 312.768 947.886 327.209C947.886 341.65 952.974 354.206 963.149 364.874C973.323 375.377 985.469 380.63 999.582 380.63C1013.86 380.63 1026.09 375.543 1036.26 365.368C1046.44 355.193 1051.53 342.392 1051.53 326.964C1051.53 312.029 1046.52 299.473 1036.51 289.298C1026.5 278.961 1014.19 273.791 999.582 273.791ZM1431.88 232.187H1419.33V374.967H1439.76C1461.09 374.967 1476.52 373.9 1486.04 371.767C1495.72 369.634 1504.17 365.447 1511.39 359.214C1518.58 352.857 1524.22 344.941 1527.89 336.072C1531.66 327.047 1533.55 316.706 1533.55 305.054C1533.55 293.402 1531.33 282.654 1526.9 272.807C1522.64 262.96 1516.48 254.836 1508.44 248.433C1500.4 242.034 1490.88 237.768 1479.88 235.635C1469.05 233.336 1453.05 232.187 1431.88 232.187ZM1615.46 306.531H1605.61V374.476H1627.52C1640.16 374.476 1649.43 373.244 1655.34 370.783C1661.41 368.157 1666.33 364.219 1670.11 358.966C1673.89 353.55 1675.77 348.052 1675.77 342.471C1675.77 336.894 1674.7 331.972 1672.57 327.702C1670.44 323.436 1667.24 319.661 1662.97 316.378C1658.87 313.099 1653.86 310.635 1647.96 308.992C1642.21 307.353 1631.38 306.531 1615.46 306.531ZM1626.05 232.187H1605.61V288.808H1615.7C1631.13 288.808 1642.62 286.344 1650.17 281.422C1657.72 276.497 1661.49 268.786 1661.49 258.28C1661.49 240.885 1649.68 232.187 1626.05 232.187ZM1188.21 210.526C1192.16 210.526 1195.44 211.917 1198.06 214.709C1200.85 217.336 1202.25 220.618 1202.25 224.556C1202.25 228.332 1200.85 231.611 1198.06 234.403C1195.44 237.029 1192.15 238.344 1188.21 238.344C1184.44 238.344 1181.16 236.947 1178.37 234.158C1175.74 231.366 1174.43 228.166 1174.43 224.553C1174.43 220.78 1175.74 217.498 1178.37 214.709C1181.16 211.92 1184.44 210.526 1188.21 210.526Z" fill="#272626"/>
<path d="M736.42 0.0131072C724.784 0.384066 728.467 3.73926 703.322 9.92632C677.931 16.173 646.916 14.2586 619.574 25.7252C537.953 59.9561 521.575 176.951 447.376 218.859C391.911 250.188 335.956 252.686 285.645 268.452C252.583 278.819 216.415 300.082 186.46 325.894C163.209 345.939 162.603 363.563 138.308 388.702C112.321 415.593 35.0291 389.156 0 430.312C11.2844 441.722 16.2295 444.919 38.4704 441.958C33.8666 450.685 6.72694 458.038 12.0396 470.873C17.6272 484.386 83.2405 493.541 142.889 457.528C170.664 440.759 192.789 416.587 236.052 410.817C292.034 403.355 356.528 415.603 421.333 424.947C411.728 453.6 392.431 472.654 376.977 495.475C372.191 500.629 386.592 501.205 403.017 498.092C432.565 490.785 453.858 484.903 476.162 471.923C503.56 455.975 507.71 415.086 541.325 406.236C560.055 435.022 610.993 441.822 642.604 418.796C614.868 410.946 607.2 351.911 616.564 325.894C625.433 301.268 634.194 261.877 643.127 229.329C652.716 194.369 656.253 150.304 667.859 132.498C685.313 105.707 704.607 96.5055 721.356 81.3988C738.106 66.2922 753.434 51.5863 752.931 17.0143C752.772 5.88221 747.012 -0.32473 736.423 0.0131072H736.42Z" fill="#272626"/>
<path d="M713.589 20.5552C716.388 30.0908 720.763 34.4661 739.679 36.2149C736.917 60.1981 720.916 73.3175 702.981 85.9036C687.195 96.976 669.899 107.634 658.787 124.93C647.403 142.644 640.173 203.276 622.522 263.152C607.263 314.888 584.221 366.044 543.982 388.457C539.779 377.878 544.518 358.35 536.158 351.931C530.746 367.359 524.632 382.081 517.465 395.764C493.856 440.895 458.896 474.685 400.477 485.002C428.196 447.493 454.7 408.757 455.273 344.108C435.764 348.327 436.178 394.409 416.137 406.727C403.286 408.124 390.269 408.118 377.166 407.33C323.361 404.107 268.164 387.934 217.829 404.084C183.559 415.083 155.528 441.034 126.507 453.62C92.3988 468.412 66.5675 474.496 24.096 468.412C18.6973 461.148 55.1804 451.772 52.9977 435.999C36.3741 434.161 26.7226 438.189 12.2717 431.624C13.8682 428.686 16.2132 426.235 19.1643 424.195C45.6481 405.866 120.877 419.866 141.008 400.099C153.435 387.907 161.589 375.142 170.029 362.738C178.216 350.699 186.679 338.994 199.573 328.448C204.332 324.553 209.509 320.704 215.001 316.948C236.97 301.911 264.15 288.275 290.898 278.875C327.332 266.067 364.255 265.01 403.094 250.172C427.087 241.001 453.173 229.677 474.443 213.828C479.45 210.114 484.208 206.076 488.686 201.739C549.414 142.541 561.453 38.1161 656.197 28.3851C667.653 27.2093 677.03 27.5901 685.569 27.3285C695.406 27.037 704.117 25.8943 713.589 20.5552ZM598.089 354.773C599.221 372.87 609.724 408.774 619.002 417.501C600.838 421.919 569.545 414.62 561.519 401.808C565.643 383.307 587.106 366.395 598.089 354.773Z" fill="#A3A2A2"/>
<path d="M718.203 40.4907C714.635 47.9761 707.806 57.6211 707.806 76.6691C707.776 79.9382 705.322 82.1772 705.282 77.1361C705.464 58.522 710.393 50.4735 715.629 39.8978C718.06 35.5622 719.527 37.3475 718.203 40.4907ZM714.609 37.6754C710.403 44.813 700.267 57.833 698.595 76.8116C698.283 80.0641 695.637 82.0779 696.041 77.05C697.863 58.5253 705.964 46.9295 712.112 36.8507C714.9 32.7536 716.209 34.6647 714.609 37.6721V37.6754ZM711.337 33.9393C706.541 40.6961 690.944 56.336 687.681 75.1091C687.095 78.3186 684.29 80.1104 685.114 75.1323C688.493 56.8195 701.937 42.4283 708.909 32.9125C712.032 29.0572 713.175 31.071 711.337 33.9393ZM708.412 29.7726L706.835 31.4486C699.863 38.9274 683.66 57.164 678.262 73.8538C677.222 76.954 674.194 78.3351 675.715 73.5193C681.627 55.8656 697.912 36.854 706.153 28.408C709.79 25.0297 710.638 27.1892 708.412 29.7726ZM624.698 67.5641C628.311 52.0434 640.384 44.972 661.224 46.6976C666.252 69.8627 638.109 79.2095 624.698 67.5641Z" fill="#272626"/>
</svg>
