<svg width="579" height="500" viewBox="0 0 579 500" fill="none" xmlns="http://www.w3.org/2000/svg">
<path d="M488.108 341.406C490.552 340.003 492.584 337.982 493.999 335.545C495.415 333.109 496.165 330.342 496.174 327.525L496.463 234.545C496.472 231.727 497.222 228.961 498.637 226.524C500.053 224.087 502.085 222.065 504.529 220.662L554.931 191.71C557.374 190.307 560.142 189.571 562.959 189.576C565.776 189.58 568.543 190.325 570.981 191.736C573.419 193.147 575.443 195.174 576.851 197.615C578.258 200.055 578.999 202.822 579 205.639V374.68C579 377.506 578.254 380.282 576.838 382.728C575.422 385.174 573.385 387.203 570.934 388.611L380.719 497.866C378.289 499.262 375.536 499.997 372.734 500C369.932 500.003 367.178 499.273 364.745 497.882L215.47 412.501C213.011 411.097 210.966 409.067 209.544 406.619C208.121 404.17 207.371 401.388 207.37 398.556V313.32C207.37 313.225 207.483 313.162 207.58 313.207C207.659 313.257 207.772 313.207 207.772 313.094V312.999C207.772 312.936 207.804 312.87 207.869 312.839L330.814 242.209C330.927 242.144 330.878 241.967 330.749 241.967C330.715 241.967 330.682 241.954 330.658 241.93C330.634 241.906 330.62 241.873 330.62 241.839L330.862 158.274C330.873 155.448 330.139 152.669 328.734 150.218C327.328 147.766 325.301 145.729 322.857 144.311C320.412 142.893 317.637 142.145 314.811 142.142C311.985 142.14 309.208 142.882 306.761 144.296L215.389 196.95C212.95 198.354 210.185 199.093 207.371 199.093C204.557 199.093 201.793 198.354 199.354 196.95L107.692 144.171C105.25 142.765 102.481 142.026 99.6632 142.027C96.8451 142.029 94.0772 142.772 91.6371 144.182C89.1969 145.591 87.1705 147.618 85.7611 150.058C84.3517 152.498 83.6089 155.266 83.6073 158.084V309.113C83.6094 311.928 82.8719 314.694 81.4686 317.134C80.0653 319.575 78.0455 321.603 75.6115 323.017C73.1775 324.431 70.4147 325.181 67.5998 325.191C64.7848 325.202 62.0166 324.472 59.5723 323.076L8.703 293.989C6.23976 292.582 4.19297 290.548 2.77069 288.093C1.34842 285.639 0.601368 282.852 0.605486 280.015L1.05736 16.0322C1.06456 13.2189 1.81037 10.4568 3.22018 8.02222C4.62998 5.58765 6.65435 3.56595 9.09078 2.15935C11.5272 0.752762 14.2903 0.0105959 17.1036 0.00709878C19.9169 0.00360166 22.6818 0.738896 25.1217 2.13943L199.37 102.215C201.805 103.614 204.563 104.349 207.371 104.349C210.179 104.349 212.938 103.614 215.373 102.215L389.569 2.13491C392.013 0.731074 394.783 -0.00518904 397.601 2.75285e-05C400.42 0.0052441 403.187 0.751756 405.626 2.16463C408.064 3.5775 410.088 5.60701 411.495 8.04944C412.901 10.4919 413.64 13.2613 413.638 16.0796V280.123C413.639 282.948 412.896 285.723 411.483 288.169C410.07 290.615 408.038 292.645 405.59 294.055L314.362 346.594C311.911 348.006 309.877 350.04 308.465 352.491C307.052 354.941 306.312 357.721 306.318 360.55C306.325 363.378 307.078 366.155 308.501 368.599C309.925 371.043 311.968 373.068 314.425 374.469L364.748 403.118C367.179 404.502 369.931 405.227 372.729 405.221C375.527 405.215 378.275 404.479 380.701 403.084L488.11 341.404L488.108 341.406ZM498.664 104.547C498.666 107.388 499.422 110.179 500.854 112.633C502.286 115.087 504.344 117.118 506.816 118.517C509.289 119.917 512.089 120.636 514.931 120.6C517.772 120.565 520.553 119.776 522.99 118.315L571.191 89.3956C573.571 87.9699 575.54 85.9525 576.909 83.5397C578.277 81.1269 578.997 78.4009 579 75.6271V16.6919C578.995 13.8517 578.237 11.0635 576.804 8.6115C575.37 6.15947 573.313 4.13124 570.84 2.73346C568.368 1.33568 565.569 0.618316 562.729 0.654464C559.889 0.690612 557.109 1.47898 554.673 2.93924L506.474 31.8589C504.094 33.2846 502.124 35.3022 500.755 37.7155C499.387 40.1287 498.666 42.8553 498.664 45.6297V104.563V104.547Z" fill="#272626"/>
</svg>
