<svg width="1540" height="500" viewBox="0 0 1540 500" fill="none" xmlns="http://www.w3.org/2000/svg">
<path d="M123.973 500L110.562 495.553C110.562 495.553 112.348 427.696 87.7941 422.928C71.7227 404.214 90.1691 -376.017 148.919 420.268C137.772 425.922 129.243 435.667 125.116 447.464C122.903 464.888 122.52 482.496 123.973 500Z" fill="#A3A2A2"/>
<path d="M131.222 434.446C166.929 407.567 194.274 371.106 210.08 329.301C225.885 287.497 229.501 242.064 220.508 198.286C194.258 82.4822 132.098 44.4108 125.401 29.8751C119.624 20.8239 114.692 11.2597 110.669 1.30371L115.615 323.964C115.615 323.964 105.365 422.571 131.222 434.446Z" fill="#7A7979"/>
<path d="M103.741 438.732C103.741 438.732 -5.56232 364.285 0.759108 232.589C1.3488 192.886 10.452 153.773 27.4539 117.89C44.4559 82.0065 68.9605 50.1901 99.3126 24.5893C102.86 21.5758 105.678 17.7978 107.555 13.5389C109.432 9.2801 110.32 4.65121 110.152 0C116.955 14.6428 115.848 218.625 116.563 242.482C119.33 335.285 111.402 421.214 103.741 438.732Z" fill="#505050"/>
<path d="M378.092 351.5L301.334 184.361V317.076C301.334 329.283 302.652 336.9 305.289 339.928C308.902 344.029 314.615 346.08 322.428 346.08H329.459V351.5H260.318V346.08H267.349C275.748 346.08 281.705 343.541 285.221 338.463C287.369 335.338 288.443 328.209 288.443 317.076V187.291C288.443 178.502 287.467 172.154 285.513 168.248C284.146 165.416 281.607 163.072 277.896 161.217C274.283 159.264 268.424 158.287 260.318 158.287V152.867H316.568L388.638 308.287L459.537 152.867H515.787V158.287H508.902C500.406 158.287 494.4 160.826 490.885 165.904C488.736 169.029 487.662 176.158 487.662 187.291V317.076C487.662 329.283 489.029 336.9 491.763 339.928C495.377 344.029 501.09 346.08 508.902 346.08H515.787V351.5H431.412V346.08H438.443C446.939 346.08 452.896 343.541 456.314 338.463C458.463 335.338 459.537 328.209 459.537 317.076V184.361L382.926 351.5H378.092ZM597.232 213.365C617.545 213.365 633.853 221.08 646.158 236.51C656.607 249.693 661.832 264.83 661.832 281.92C661.832 293.932 658.951 306.09 653.189 318.395C647.428 330.699 639.469 339.977 629.312 346.227C619.254 352.477 608.023 355.602 595.621 355.602C575.406 355.602 559.342 347.545 547.428 331.432C537.369 317.857 532.34 302.623 532.34 285.729C532.34 273.424 535.367 261.217 541.422 249.107C547.574 236.9 555.631 227.916 565.592 222.154C575.553 216.295 586.099 213.365 597.232 213.365ZM592.691 222.887C587.515 222.887 582.291 224.449 577.017 227.574C571.842 230.602 567.642 235.973 564.42 243.688C561.197 251.402 559.586 261.314 559.586 273.424C559.586 292.955 563.443 309.801 571.158 323.961C578.971 338.121 589.224 345.201 601.92 345.201C611.392 345.201 619.205 341.295 625.357 333.482C631.51 325.67 634.586 312.242 634.586 293.199C634.586 269.371 629.459 250.621 619.205 236.949C612.271 227.574 603.433 222.887 592.691 222.887ZM720.719 241.783C736.441 222.838 751.431 213.365 765.689 213.365C773.013 213.365 779.312 215.221 784.586 218.932C789.859 222.545 794.058 228.551 797.183 236.949C799.332 242.809 800.406 251.793 800.406 263.902V321.178C800.406 329.674 801.09 335.436 802.457 338.463C803.531 340.904 805.24 342.809 807.584 344.176C810.025 345.543 814.469 346.227 820.914 346.227V351.5H754.556V346.227H757.34C763.59 346.227 767.935 345.299 770.377 343.443C772.916 341.49 774.674 338.658 775.65 334.947C776.041 333.482 776.236 328.893 776.236 321.178V266.246C776.236 254.039 774.625 245.201 771.402 239.732C768.277 234.166 762.955 231.383 755.435 231.383C743.814 231.383 732.242 237.73 720.719 250.426V321.178C720.719 330.26 721.256 335.875 722.33 338.023C723.697 340.855 725.553 342.955 727.896 344.322C730.338 345.592 735.221 346.227 742.545 346.227V351.5H676.187V346.227H679.117C685.953 346.227 690.543 344.518 692.887 341.1C695.328 337.584 696.549 330.943 696.549 321.178V271.373C696.549 255.26 696.158 245.445 695.377 241.93C694.693 238.414 693.57 236.021 692.008 234.752C690.543 233.482 688.541 232.848 686.002 232.848C683.267 232.848 679.996 233.58 676.187 235.045L673.99 229.771L714.42 213.365H720.719V241.783ZM867.496 302.574C859.293 298.57 852.994 293.004 848.599 285.875C844.205 278.648 842.008 270.689 842.008 261.998C842.008 248.717 846.988 237.291 856.949 227.721C867.008 218.15 879.849 213.365 895.474 213.365C908.267 213.365 919.351 216.49 928.726 222.74H957.144C961.344 222.74 963.785 222.887 964.469 223.18C965.152 223.375 965.64 223.766 965.933 224.352C966.519 225.23 966.812 226.793 966.812 229.039C966.812 231.578 966.568 233.336 966.08 234.312C965.787 234.801 965.25 235.191 964.469 235.484C963.785 235.777 961.344 235.924 957.144 235.924H939.713C945.181 242.955 947.916 251.939 947.916 262.877C947.916 275.377 943.131 286.07 933.56 294.957C923.99 303.844 911.148 308.287 895.035 308.287C888.394 308.287 881.607 307.311 874.674 305.357C870.377 309.068 867.447 312.34 865.885 315.172C864.42 317.906 863.687 320.25 863.687 322.203C863.687 323.863 864.469 325.475 866.031 327.037C867.691 328.6 870.865 329.723 875.553 330.406C878.287 330.797 885.123 331.139 896.06 331.432C916.178 331.92 929.215 332.604 935.172 333.482C944.254 334.752 951.48 338.121 956.851 343.59C962.32 349.059 965.055 355.797 965.055 363.805C965.055 374.84 959.879 385.191 949.527 394.859C934.293 409.117 914.42 416.246 889.908 416.246C871.06 416.246 855.142 411.998 842.154 403.502C834.83 398.619 831.168 393.541 831.168 388.268C831.168 385.924 831.705 383.58 832.779 381.236C834.439 377.623 837.857 372.594 843.033 366.148C843.717 365.27 848.697 359.996 857.974 350.328C852.896 347.301 849.283 344.615 847.135 342.271C845.084 339.83 844.058 337.096 844.058 334.068C844.058 330.65 845.426 326.646 848.16 322.057C850.992 317.467 857.437 310.973 867.496 302.574ZM892.984 220.396C885.758 220.396 879.703 223.277 874.82 229.039C869.937 234.801 867.496 243.639 867.496 255.553C867.496 270.982 870.816 282.945 877.457 291.441C882.535 297.887 888.98 301.109 896.793 301.109C904.215 301.109 910.318 298.326 915.103 292.76C919.888 287.193 922.281 278.453 922.281 266.539C922.281 251.012 918.912 238.854 912.174 230.064C907.193 223.619 900.797 220.396 892.984 220.396ZM866.031 351.5C861.441 356.48 857.974 361.119 855.631 365.416C853.287 369.713 852.115 373.668 852.115 377.281C852.115 381.969 854.947 386.07 860.611 389.586C870.377 395.641 884.488 398.668 902.945 398.668C920.523 398.668 933.463 395.543 941.763 389.293C950.162 383.141 954.361 376.549 954.361 369.518C954.361 364.439 951.871 360.826 946.89 358.678C941.812 356.529 931.754 355.26 916.715 354.869C894.742 354.283 877.847 353.16 866.031 351.5ZM1047.23 213.365C1067.54 213.365 1083.85 221.08 1096.16 236.51C1106.61 249.693 1111.83 264.83 1111.83 281.92C1111.83 293.932 1108.95 306.09 1103.19 318.395C1097.43 330.699 1089.47 339.977 1079.31 346.227C1069.25 352.477 1058.02 355.602 1045.62 355.602C1025.41 355.602 1009.34 347.545 997.428 331.432C987.369 317.857 982.34 302.623 982.34 285.729C982.34 273.424 985.367 261.217 991.422 249.107C997.574 236.9 1005.63 227.916 1015.59 222.154C1025.55 216.295 1036.1 213.365 1047.23 213.365ZM1042.69 222.887C1037.52 222.887 1032.29 224.449 1027.02 227.574C1021.84 230.602 1017.64 235.973 1014.42 243.688C1011.2 251.402 1009.59 261.314 1009.59 273.424C1009.59 292.955 1013.44 309.801 1021.16 323.961C1028.97 338.121 1039.22 345.201 1051.92 345.201C1061.39 345.201 1069.2 341.295 1075.36 333.482C1081.51 325.67 1084.59 312.242 1084.59 293.199C1084.59 269.371 1079.46 250.621 1069.2 236.949C1062.27 227.574 1053.43 222.887 1042.69 222.887ZM1127.36 351.5V346.08H1134.83C1143.23 346.08 1149.19 343.395 1152.7 338.023C1154.85 334.801 1155.92 327.574 1155.92 316.344V188.023C1155.92 175.621 1154.56 167.857 1151.82 164.732C1148.01 160.436 1142.35 158.287 1134.83 158.287H1127.36V152.867H1208.22C1237.91 152.867 1260.46 156.236 1275.89 162.975C1291.42 169.713 1303.87 180.943 1313.25 196.666C1322.72 212.389 1327.46 230.553 1327.46 251.158C1327.46 278.795 1319.06 301.891 1302.26 320.445C1283.41 341.148 1254.7 351.5 1216.13 351.5H1127.36ZM1184.05 337.145C1196.45 339.879 1206.85 341.246 1215.25 341.246C1237.91 341.246 1256.7 333.287 1271.65 317.369C1286.59 301.451 1294.06 279.869 1294.06 252.623C1294.06 225.182 1286.59 203.551 1271.65 187.73C1256.7 171.91 1237.52 164 1214.08 164C1205.29 164 1195.28 165.416 1184.05 168.248V337.145ZM1477.6 250.133C1491.37 253.062 1501.68 257.75 1508.51 264.195C1517.98 273.18 1522.72 284.166 1522.72 297.154C1522.72 307.018 1519.6 316.49 1513.35 325.572C1507.1 334.557 1498.5 341.148 1487.56 345.348C1476.72 349.449 1460.12 351.5 1437.76 351.5H1344.01V346.08H1351.48C1359.78 346.08 1365.74 343.443 1369.35 338.17C1371.6 334.752 1372.72 327.477 1372.72 316.344V188.023C1372.72 175.719 1371.3 167.955 1368.47 164.732C1364.66 160.436 1359 158.287 1351.48 158.287H1344.01V152.867H1429.85C1445.87 152.867 1458.71 154.039 1468.37 156.383C1483.02 159.898 1494.2 166.148 1501.92 175.133C1509.63 184.02 1513.49 194.273 1513.49 205.895C1513.49 215.855 1510.46 224.791 1504.41 232.701C1498.36 240.514 1489.42 246.324 1477.6 250.133ZM1400.85 242.223C1404.46 242.906 1408.56 243.443 1413.15 243.834C1417.84 244.127 1422.96 244.273 1428.53 244.273C1442.79 244.273 1453.48 242.76 1460.61 239.732C1467.84 236.607 1473.36 231.871 1477.16 225.523C1480.97 219.176 1482.88 212.242 1482.88 204.723C1482.88 193.102 1478.14 183.189 1468.67 174.986C1459.2 166.783 1445.38 162.682 1427.21 162.682C1417.45 162.682 1408.66 163.756 1400.85 165.904V242.223ZM1400.85 337.145C1412.17 339.781 1423.36 341.1 1434.39 341.1C1452.07 341.1 1465.54 337.145 1474.82 329.234C1484.1 321.227 1488.74 311.363 1488.74 299.645C1488.74 291.93 1486.64 284.508 1482.44 277.379C1478.24 270.25 1471.4 264.635 1461.93 260.533C1452.46 256.432 1440.74 254.381 1426.77 254.381C1420.72 254.381 1415.54 254.479 1411.25 254.674C1406.95 254.869 1403.48 255.211 1400.85 255.699V337.145Z" fill="#272626"/>
</svg>
