<svg width="735" height="500" viewBox="0 0 735 500" fill="none" xmlns="http://www.w3.org/2000/svg">
<path d="M219.153 330.279L241.468 402.685C246.482 419.124 248.573 430.6 247.735 437.142C259.94 404.455 268.467 368.833 273.319 330.279H300.152C288.614 393.046 273.396 438.658 254.507 467.111C239.79 489.038 223.667 500 206.111 500C201.43 500 195.659 498.586 188.81 495.778V480.648C192.156 481.138 196.082 481.401 200.596 481.401C208.787 481.401 215.388 479.13 220.41 474.6C226.424 469.08 229.434 462.876 229.434 455.999C229.434 451.304 227.086 441.668 222.412 427.091L191.32 330.279H219.153ZM48.3648 285.776L89.2379 410.484H89.4903L130.614 285.776H164.213C171.571 347.622 175.916 404.209 177.25 455.502H148.923C147.926 407.554 145.165 362.467 140.65 320.233H140.404L97.2677 455.502H75.6953L32.8201 320.233H32.5677C29.3868 360.794 27.3847 405.88 26.5501 455.502H0.718262C2.3876 395.153 6.56526 338.583 13.2512 285.776H48.3648Z" fill="#272626"/>
<path d="M506.251 283.257C550.218 283.257 572.202 311.346 572.202 367.497C572.202 398.01 565.59 421.058 552.38 436.629C550 439.474 547.368 441.932 544.597 444.21L575.711 459.594L575.681 459.592L564.634 478.669L524.115 455.028C517.399 457.017 510.008 458.011 501.956 458.011C480.368 458.011 464.242 451.719 453.581 439.152C441.878 425.249 436.03 403.362 436.03 373.529C436.03 343.189 442.63 320.228 455.844 304.638C467.879 290.376 484.684 283.257 506.251 283.257ZM371.614 283.504C387.328 283.504 401.616 287.709 414.486 296.089L407.949 310.655C396.936 305.974 386.078 303.624 375.371 303.624C366.683 303.624 359.988 305.715 355.322 309.922C350.629 314.093 347.727 319.459 347.727 326.002C347.727 336.055 354.889 344.773 368.113 352.139C372.445 354.507 376.763 356.903 381.065 359.326L382.051 359.881L382.546 360.159L383.534 360.714L384.028 360.992L385.014 361.549C395.025 367.192 404.444 372.579 404.444 372.579C417.667 381.965 424.258 391.973 424.258 408.455C424.258 422.85 418.983 434.666 408.468 443.911C397.946 453.116 383.81 457.731 366.107 457.731C349.549 457.731 333.503 452.419 317.959 441.884L325.231 427.304C338.607 434.009 350.711 437.357 361.58 437.357C371.774 437.357 379.754 435.081 385.526 430.587C391.287 426.059 394.739 419.745 394.739 411.738C394.739 401.66 387.729 393.045 374.869 385.819C370.844 383.595 366.831 381.349 362.83 379.082L361.844 378.525C360.034 377.502 358.212 376.467 356.426 375.453L355.458 374.902C346.774 369.963 339.267 365.647 339.267 365.647C326.411 356.244 319.964 346.155 319.964 329.53C319.964 315.781 324.772 304.668 334.372 296.213C343.995 287.74 356.41 283.504 371.614 283.504ZM623.872 285.776V434.623H677.277V455.501H596.787V285.776H623.872ZM706.952 434.687V438.215H701.081V455.482H696.592V438.215H690.493V434.687H706.954H706.952ZM717.794 434.687L723.432 448.862L728.611 434.687H734.974V455.482H730.743V439.656L724.849 455.482H721.799L715.894 439.656H715.668V455.482H711.665V434.687H717.796H717.794ZM503.486 304.13C477.577 304.13 464.615 325.513 464.615 368.25C464.615 392.731 468.05 410.483 474.906 421.547C481.257 431.787 491.203 436.897 504.745 436.897C530.654 436.897 543.615 415.348 543.615 372.269C543.615 348.131 540.18 330.531 533.332 319.461C526.974 309.244 517.033 304.13 503.487 304.13H503.486Z" fill="#A3A2A2"/>
<path d="M435.576 10.5167C444.171 -10.6025 474.224 5.39104 485.886 12.7683C488.744 14.614 492.023 18.5135 495.3 19.9548C500.413 20.1556 505.521 20.5557 510.642 20.7694C520.248 23.0267 529.246 24.871 536.815 29.1821C571.992 49.8983 594.891 71.0089 615.966 105.879C620.469 113.264 622.719 121.257 626.398 129.249C631.503 141.163 637.24 153.669 643.166 164.934C645.819 170.275 647.871 176.213 651.556 180.724C652.994 182.786 657.08 183.394 659.522 184.626C666.274 188.121 674.455 190.774 680.805 194.876C692.664 202.27 704.13 211.082 714.553 220.102C718.438 223.585 721.086 228.514 724.787 232.197V234.055C721.502 235.063 718.227 236.096 714.95 236.923C707.793 238.762 701.452 238.346 694.508 240.186C690.217 241.431 684.889 243.073 680.389 243.49L680.805 243.909C683.452 251.474 697.777 257.627 704.328 262.152C712.284 267.894 719.657 274.858 725.592 282.856C727.641 284.897 729.691 286.754 731.73 288.789C733.155 290.852 733.557 293.519 735 295.358V295.98C733.402 295.416 732.253 294.341 731.165 293.216L730.515 292.538C729.866 291.864 729.21 291.202 728.463 290.655C723.948 287.572 719.465 283.883 714.95 281.016C707.189 276.091 698.187 273.233 690.217 268.29C685.711 265.42 681.416 262.152 677.121 258.867C673.227 255.989 668.939 250.462 666.492 246.36C665.051 244.094 664.853 241.431 663.207 239.792C663.501 237.054 666.009 236.241 668.54 235.573L669.122 235.419C669.996 235.192 670.851 234.966 671.596 234.666C682.229 230.151 694.905 228.514 711.275 228.924C710.658 224.814 700.43 219.692 697.164 217.231C690.61 212.507 683.67 207.578 676.718 203.278C673.033 201.027 666.684 199.383 662.603 197.543C657.08 195.286 644.805 193.03 641.745 188.731C636.546 181.953 632.811 173.868 629.186 165.702L628.199 163.474C627.87 162.731 627.54 161.989 627.21 161.247C622.924 151.413 617.601 141.16 613.306 131.091C611.06 126.179 610.029 121.868 607.569 117.157C592.644 88.2473 570.554 64.0432 543.771 47.0214C534.97 41.4827 525.156 36.3571 514.322 32.8735C508.183 31.0192 500.814 32.0446 494.273 30.6219H489.968C486.294 29.5865 483.226 25.6913 480.359 23.6377C474.027 19.3381 467.685 16.4512 460.113 13.3835C457.46 12.153 449.883 9.28761 447.239 11.5435C445.601 11.9551 444.771 12.5732 444.368 14.2168C442.739 16.6691 444.171 20.3635 445.185 22.6251C448.257 29.1792 452.548 33.0743 456.443 38.613C459.908 43.5249 464.212 49.0636 466.669 54.4043C471.969 65.8847 474.437 78.6041 479.349 90.083C481.171 94.3997 484.052 99.3117 486.704 103.205C488.951 106.296 493.037 108.53 494.273 112.443C496.737 116.544 490.584 130.078 489.16 134.376C483.832 151.195 484.865 174.573 491 189.151L491.327 189.919L491.654 190.698C493.894 196.037 496.292 201.787 502.248 203.28C502.659 202.873 502.248 203.086 503.061 202.873C504.503 191.589 504.909 180.722 508.798 171.894C511.045 166.374 515.533 162.471 518.609 157.965C520.66 159.193 520.66 162.894 521.882 165.344C524.544 171.697 527.402 178.663 530.683 185.035C537.418 198.157 544.996 210.879 553.582 222.358C556.458 226.459 560.538 230.972 564.218 234.665C565.857 236.095 567.693 236.921 568.925 238.761H569.326V239.38C563.191 237.119 559.301 230.771 554.408 227.065C545.195 220.1 534.162 209.639 527.812 199.601C525.156 193.839 522.285 188.316 519.422 182.582V182.168C518.199 183.806 518.609 185.432 517.997 187.91C515.341 198.157 517.386 209.847 508.183 213.533C497.751 217.849 489.969 206.567 486.704 201.44C476.269 184.422 473.411 155.714 480.769 132.539C482.404 127.409 482.626 121.257 485.48 117.161C484.864 113.458 482.01 112.446 480.359 110.177C477.496 106.299 475.045 101.781 472.804 97.4745C468.499 89.0619 465.435 79.0099 462.167 69.9877C460.73 66.3034 460.318 62.6048 458.886 59.1169C456.442 53.7934 451.937 48.4526 448.462 43.7429C443.757 36.9738 430.052 23.8542 435.576 10.5167ZM502.654 50.6942C503.201 51.242 503.86 51.7211 504.543 52.1929L505.366 52.7579C506.463 53.518 507.526 54.3183 508.177 55.4082C509.21 56.851 509.402 58.2751 510.638 59.7207C510.638 64.6499 509.21 67.9269 506.326 69.9691C506.326 69.9691 506.129 70.1842 505.927 70.385C504.292 67.0994 502.859 63.831 501.213 60.5482C499.185 57.6828 496.318 55.4097 494.666 52.1355H494.269V51.7239C496.737 51.1144 499.185 50.6942 502.654 50.6942Z" fill="#272626"/>
</svg>
