<svg width="1489" height="500" viewBox="0 0 1489 500" fill="none" xmlns="http://www.w3.org/2000/svg">
<path d="M1249.35 100.125V147.964H1146.53V399.646H1095.12V147.967H990.159V100.125H1249.35ZM1260.91 371.114C1264.53 371.114 1267.7 372.416 1270.38 375.026C1273.1 377.633 1274.46 380.757 1274.49 384.396C1274.49 386.784 1273.82 389.123 1272.58 391.159C1271.35 393.168 1269.64 394.833 1267.59 395.998C1265.57 397.205 1263.26 397.834 1260.91 397.818C1257.14 397.818 1253.94 396.513 1251.26 393.906C1248.58 391.296 1247.25 388.136 1247.28 384.396C1247.25 380.757 1248.58 377.633 1251.26 375.026C1253.94 372.416 1257.14 371.114 1260.91 371.114ZM241.929 399.646L52.3585 164.021V399.524H0.945068V100H65.2075L304.709 397.405L304.712 147.967L304.691 100.125H563.88V147.964H356.122V224.924H523.203V272.766H356.122V351.807H563.883V399.646H241.929ZM728.653 272.309L762.347 314.199L693.306 400H625.835L728.653 272.309ZM693.306 100.25L780.294 208.279L867.008 100.582L934.29 100.48L813.978 250.114L934.484 399.771H867.008L626.027 100.25H693.306ZM1348.65 271.638H1371.44V359.41C1371.4 367.475 1369.66 374.372 1366.25 380.176C1362.8 385.974 1358.02 390.403 1351.9 393.528C1345.8 396.614 1338.66 398.195 1330.54 398.195C1323.12 398.195 1316.47 396.858 1310.55 394.249C1304.62 391.639 1299.92 387.727 1296.47 382.577C1292.99 377.429 1291.28 371.009 1291.28 363.322H1314.1C1314.14 366.685 1314.9 369.6 1316.36 372.041C1317.8 374.45 1319.91 376.392 1322.43 377.633C1325.03 378.941 1328.03 379.592 1331.41 379.592C1335.07 379.592 1338.2 378.836 1340.75 377.29C1343.29 375.779 1345.24 373.515 1346.6 370.495C1347.92 367.507 1348.62 363.802 1348.65 359.407V271.638ZM1465.17 305.962C1464.62 300.643 1462.18 296.487 1457.93 293.537C1453.64 290.55 1448.1 289.076 1441.31 289.076C1436.54 289.076 1432.43 289.797 1429.02 291.204C1425.6 292.645 1422.96 294.566 1421.14 297.005C1419.33 299.44 1418.43 302.222 1418.36 305.346C1418.36 307.953 1418.98 310.22 1420.2 312.106C1421.46 314.084 1423.17 315.741 1425.18 316.948C1427.37 318.323 1429.71 319.44 1432.15 320.276C1434.73 321.168 1437.31 321.924 1439.88 322.543L1451.76 325.461C1456.54 326.559 1461.17 328.033 1465.59 329.922C1470.01 331.776 1474.02 334.145 1477.54 336.993C1481.06 339.842 1483.84 343.274 1485.9 347.291C1487.95 351.307 1489 356.01 1489 361.433C1489 368.742 1487.12 375.163 1483.32 380.722C1479.53 386.25 1474.06 390.575 1466.88 393.699C1459.74 396.789 1451.1 398.367 1440.93 398.367C1431.11 398.367 1422.54 396.856 1415.32 393.836C1408.08 390.851 1402.44 386.454 1398.36 380.688C1394.28 374.921 1392.09 367.885 1391.78 359.613H1414.35C1414.66 363.938 1416.06 367.542 1418.43 370.46C1420.83 373.343 1423.96 375.471 1427.8 376.912C1431.66 378.322 1435.98 379.043 1440.75 379.043C1445.74 379.043 1450.12 378.287 1453.92 376.81C1457.68 375.334 1460.64 373.276 1462.77 370.597C1464.93 367.952 1466.01 364.83 1466.05 361.261C1466.01 358 1465.03 355.289 1463.15 353.158C1461.24 351.031 1458.59 349.247 1455.21 347.805C1451.8 346.363 1447.83 345.058 1443.3 343.928L1428.88 340.289C1418.46 337.644 1410.21 333.631 1404.18 328.239C1398.12 322.851 1395.12 315.713 1395.12 306.753C1395.12 299.408 1397.14 292.953 1401.22 287.425C1405.26 281.903 1410.8 277.611 1417.8 274.556C1424.83 271.467 1432.78 269.955 1441.62 269.955C1450.61 269.955 1458.48 271.467 1465.28 274.556C1472.07 277.611 1477.4 281.866 1481.26 287.289C1485.13 292.715 1487.15 298.926 1487.26 305.962H1465.17Z" fill="#272626"/>
</svg>
