<svg width="818" height="500" viewBox="0 0 818 500" fill="none" xmlns="http://www.w3.org/2000/svg">
<path d="M404.316 500C401.548 500 398.964 499.262 396.564 497.97L372.017 483.39C368.325 481.358 370.171 480.621 371.279 480.252C376.262 478.591 377.185 478.22 382.353 475.269C382.907 474.899 383.646 475.084 384.199 475.453L403.026 486.711C403.763 487.08 404.686 487.08 405.239 486.711L478.883 444.076C479.621 443.707 479.991 442.967 479.991 442.046V356.96C479.991 356.035 479.621 355.299 478.883 354.928L405.239 312.478C404.501 312.107 403.578 312.107 403.026 312.478L329.382 354.928C328.644 355.297 328.273 356.22 328.273 356.958V442.044C328.273 442.784 328.644 443.705 329.382 444.076L349.5 455.703C360.39 461.24 367.218 454.78 367.218 448.32V364.341C367.218 363.234 368.141 362.126 369.433 362.126H378.846C379.954 362.126 381.061 363.049 381.061 364.341V448.32C381.061 462.901 373.124 471.392 359.282 471.392C355.037 471.392 351.715 471.392 342.301 466.777L322.922 455.703C318.123 452.936 315.17 447.766 315.17 442.23V357.143C315.17 351.607 318.123 346.437 322.922 343.67L396.564 301.034C401.179 298.45 407.455 298.45 412.069 301.034L485.712 343.67C490.51 346.437 493.465 351.607 493.465 357.143V442.23C493.465 447.766 490.51 452.936 485.712 455.703L412.069 498.339C409.669 499.447 406.9 500 404.316 500ZM427.018 441.492C394.72 441.492 388.075 426.726 388.075 414.176C388.075 413.067 388.998 411.961 390.29 411.961H399.887C400.994 411.961 401.917 412.699 401.917 413.807C403.394 423.588 407.639 428.387 427.204 428.387C442.707 428.387 449.353 424.88 449.353 416.574C449.353 411.776 447.506 408.27 423.328 405.87C403.209 403.839 390.659 399.41 390.659 383.353C390.659 368.402 403.211 359.542 424.251 359.542C447.875 359.542 459.504 367.664 460.981 385.381C460.981 385.937 460.796 386.489 460.427 387.043C460.056 387.412 459.504 387.781 458.95 387.781H449.352C448.429 387.781 447.506 387.043 447.322 386.12C445.107 375.97 439.385 372.647 424.251 372.647C407.27 372.647 405.239 378.554 405.239 382.982C405.239 388.335 407.639 389.996 430.525 392.949C453.228 395.903 463.934 400.148 463.934 416.02C463.748 432.263 450.46 441.492 427.018 441.492Z" fill="#272626" fill-opacity="0.5"/>
<path d="M175.82 167.222C175.82 163.9 173.974 160.76 171.021 159.099L92.7632 114.065C91.4697 113.326 89.9941 112.957 88.5185 112.772H87.7791C86.3035 112.772 84.8263 113.326 83.5344 114.065L5.27678 159.099C2.3224 160.76 0.477905 163.898 0.477905 167.222L0.663153 288.299C0.663153 289.959 1.5862 291.62 3.06179 292.36C4.53898 293.283 6.38348 293.283 7.67702 292.36L54.1886 265.781C57.1414 264.121 58.9874 260.983 58.9874 257.661V200.997C58.9874 197.676 60.8319 194.538 63.7863 192.877L83.5344 181.433C85.0116 180.51 86.6724 180.139 88.3332 180.139C89.9941 180.139 91.6549 180.51 92.9485 181.433L112.697 192.877C115.651 194.538 117.495 197.674 117.495 200.997V257.661C117.495 260.983 119.341 264.121 122.294 265.781L168.806 292.36C169.524 292.812 170.356 293.052 171.205 293.052C172.054 293.052 172.886 292.812 173.605 292.36C175.082 291.62 176.005 289.959 176.005 288.299L175.82 167.222ZM551.973 0.554545C550.498 -0.184849 548.652 -0.184849 547.358 0.554545C545.882 1.47759 544.959 2.95318 544.959 4.61403V124.586C544.959 125.693 544.407 126.799 543.299 127.539C542.192 128.091 541.083 128.091 539.977 127.539L520.412 116.28C518.978 115.463 517.356 115.034 515.705 115.034C514.055 115.034 512.433 115.463 510.998 116.28L432.741 161.5C429.788 163.161 427.942 166.299 427.942 169.62V259.874C427.942 263.196 429.788 266.336 432.741 267.996L510.998 313.216C512.433 314.033 514.055 314.462 515.705 314.462C517.356 314.462 518.978 314.033 520.412 313.216L598.67 267.996C601.623 266.336 603.469 263.198 603.469 259.874V34.8845C603.469 31.3775 601.623 28.2411 598.67 26.5787L551.973 0.554545ZM544.776 230.16C544.776 231.083 544.407 231.82 543.667 232.189L516.906 247.693C516.532 247.875 516.121 247.97 515.705 247.97C515.289 247.97 514.879 247.875 514.505 247.693L487.743 232.189C487.004 231.82 486.635 230.897 486.635 230.16V199.151C486.635 198.228 487.004 197.49 487.743 197.122L514.505 181.617C514.879 181.434 515.289 181.34 515.705 181.34C516.121 181.34 516.532 181.434 516.906 181.617L543.667 197.122C544.407 197.489 544.776 198.414 544.776 199.151V230.16ZM812.401 198.414C815.356 196.753 817.016 193.615 817.016 190.291V168.328C817.016 165.007 815.17 161.869 812.401 160.208L734.698 115.173C733.263 114.357 731.641 113.927 729.991 113.927C728.34 113.927 726.718 114.357 725.284 115.173L647.026 160.391C644.072 162.052 642.227 165.19 642.227 168.512V258.768C642.227 262.089 644.073 265.227 647.026 266.888L724.729 311.185C727.684 312.845 731.191 312.845 733.96 311.185L781.024 284.978C782.501 284.239 783.424 282.578 783.424 280.917C783.424 279.257 782.501 277.596 781.024 276.856L702.398 231.637C700.92 230.714 699.997 229.238 699.997 227.577V199.338C699.997 197.677 700.92 196.016 702.398 195.277L726.944 181.249C727.663 180.797 728.495 180.557 729.344 180.557C730.193 180.557 731.025 180.797 731.743 181.249L756.292 195.277C757.769 196.2 758.691 197.676 758.691 199.338V221.486C758.691 223.147 759.614 224.808 761.091 225.546C761.809 225.998 762.641 226.238 763.49 226.238C764.339 226.238 765.171 225.998 765.89 225.546L812.401 198.414Z" fill="#272626"/>
<path d="M728.791 194.167C729.065 193.986 729.386 193.89 729.714 193.89C730.042 193.89 730.363 193.986 730.637 194.167L745.588 202.841C746.14 203.212 746.509 203.764 746.509 204.502V221.853C746.509 222.591 746.142 223.145 745.588 223.514L730.637 232.189C730.363 232.369 730.042 232.466 729.714 232.466C729.386 232.466 729.065 232.369 728.791 232.189L713.842 223.514C713.287 223.145 712.918 222.591 712.918 221.853V204.504C712.918 203.764 713.286 203.21 713.842 202.843L728.791 194.167Z" fill="#272626" fill-opacity="0.5"/>
<path d="M306.679 115.543C305.245 114.726 303.623 114.297 301.973 114.297C300.322 114.297 298.7 114.726 297.266 115.543L219.563 160.39C216.608 162.051 214.948 165.189 214.948 168.511V258.397C214.948 261.719 216.794 264.857 219.563 266.518L297.266 311.369C298.7 312.185 300.322 312.614 301.973 312.614C303.623 312.614 305.245 312.185 306.679 311.369L384.384 266.518C387.337 264.857 388.999 261.719 388.999 258.397V168.512C388.999 165.191 387.151 162.053 384.384 160.392L306.679 115.543Z" fill="#272626" fill-opacity="0.5"/>
</svg>
