<svg width="2310" height="477" viewBox="0 0 2310 477" fill="none" xmlns="http://www.w3.org/2000/svg">
<path fill-rule="evenodd" clip-rule="evenodd" d="M202.912 431.163C210.26 437.24 218.876 439.832 228.176 440.312C232.022 440.513 235.979 440.324 239.764 439.635C245.767 438.544 251.754 437.175 257.593 435.416C269.484 431.828 279.76 425.628 287.433 415.614C291.804 409.906 295.392 403.735 297.696 396.911C299.599 391.281 301.387 385.594 302.81 379.833C303.933 375.293 304.491 370.606 305.172 365.969C305.627 362.902 305.901 359.802 306.184 356.706C306.644 351.682 307.123 346.667 307.456 341.632C307.689 338.13 307.681 334.612 307.816 331.106C307.861 330.036 308.034 328.974 308.136 327.912C308.222 326.923 308.723 326.583 309.731 326.599C313.274 326.653 316.825 326.743 320.364 326.583C324.329 326.407 328.323 326.234 332.227 325.582C337.782 324.652 343.293 323.476 348.744 322.056C355.174 320.371 361.074 317.357 366.758 313.929C373.368 309.931 379.404 305.244 384.287 299.204C388.548 293.947 390.565 287.853 389.536 281.206C388.044 271.55 379.929 265.222 370.493 264.792C367.073 264.636 363.604 264.997 360.201 265.427C356.08 265.952 352.02 266.879 347.911 267.49C345.074 267.916 342.199 268.105 339.37 268.4L339.292 268.031C344.582 258.038 350.093 248.16 355.096 238.032C358.938 230.257 362.218 222.208 365.609 214.212C371.227 200.975 375.709 187.333 379.424 173.46C382.979 160.183 386.022 146.762 386.986 132.984C387.371 127.485 387.638 121.962 387.601 116.455C387.576 112.059 387.1 107.659 386.662 103.279C386.161 98.2604 384.644 93.5038 382.545 88.9276C379.781 82.8916 375.488 77.9422 370.973 73.243C367.36 69.4787 363.383 66.0506 359.442 62.6226C353.82 57.7347 347.497 53.8269 340.936 50.3619C333.499 46.4117 325.621 43.356 317.465 41.2587C312.495 40.0057 307.494 38.8831 302.465 37.8922C300.677 37.5313 298.873 36.6128 297.073 36.6128H263.17C261.944 36.6128 260.73 37.4165 259.496 37.5518C251.381 38.4375 243.37 40.092 235.569 42.493C232.657 43.391 230 42.8661 227.232 42.6078C225.108 42.411 223.021 41.8656 220.897 41.759C212.815 41.3571 204.725 40.7748 196.638 40.861C188.896 40.943 181.232 42.2223 173.741 44.3464C167.471 46.1343 161.333 48.3035 155.707 51.6044C153.304 53.015 151.393 52.7484 148.904 52.035C140.545 49.5861 132.113 47.3926 123.62 45.4577C118.326 44.2726 112.876 43.6739 107.468 43.1163C102.277 42.5771 97.0662 42.2529 91.8487 42.1444C86.7559 42.0337 81.6302 42.0378 76.5578 42.4889C68.4838 43.2065 60.5657 44.8467 52.8648 47.4956C44.3761 50.3979 36.4441 54.7258 29.4097 60.2935C22.2337 65.9727 16.4766 72.8985 11.8552 80.8167C6.97969 89.1695 3.62954 98.1128 1.55467 107.499C0.427017 112.588 0.841173 117.82 0.0661691 122.987C-0.171663 124.586 0.308102 126.193 0.308102 127.801V150.292C0.308102 151.785 -0.130657 153.282 0.0579686 154.782C0.521331 158.387 0.361407 162.02 0.972389 165.6C1.93192 171.267 2.79713 176.913 3.96169 182.539C5.58961 190.4 7.14372 198.252 8.94796 206.076C10.2601 211.772 11.683 217.435 13.2453 223.065C15.6237 231.668 17.9446 240.283 20.6386 248.783C23.1441 256.685 25.998 264.472 28.8479 272.263C32.7529 283.036 37.5394 293.469 43.1588 303.456C48.059 312.112 53.648 320.219 61.152 326.882C66.1014 331.278 71.6002 334.653 78.0012 336.342C83.0014 337.67 88.2421 337.816 93.3085 336.769C99.1815 335.575 104.668 332.948 109.28 329.121C109.821 328.682 110.408 328.342 111.052 329.154C113.487 332.238 116.743 334.296 120.151 336.072C129.344 340.869 139.362 342.309 149.535 342.891C152.004 343.03 154.489 342.678 156.97 342.612C161.812 342.477 166.512 341.534 171.133 340.197C173.56 339.496 175.926 338.602 178.395 337.773C178.522 340.402 178.686 342.928 178.768 345.458L179.108 359.248C179.174 361.347 179.256 363.447 179.449 365.538C179.949 370.926 180.437 376.314 181.081 381.686C181.524 385.389 181.991 389.116 182.86 392.733C184.608 400.021 186.998 407.141 190.004 414.007C192.88 420.671 197.306 426.553 202.912 431.163ZM188.187 362.405C187.896 355.931 187.679 349.453 187.535 342.973C187.363 335.01 187.305 327.042 187.195 319.079L187.174 318.776C183.127 321.207 179.137 323.864 174.918 326.058C169.968 328.629 164.597 330.118 159.032 330.54C154.673 330.868 150.249 331.167 145.91 330.823C138.792 330.245 131.673 329.134 125.301 325.623C122.718 324.201 120.019 322.466 118.236 320.198C113.967 314.749 116.013 307.864 122.451 304.551C126.9 302.254 131.755 301.299 136.577 300.184C140.775 299.232 144.929 298.096 149.027 296.78C153.07 295.456 155.62 292.175 158.142 288.956L162.136 283.822L157.334 283.322C152.57 282.879 148.022 281.563 143.676 279.636C139.96 277.992 139.903 277.811 137.172 280.772C132.62 285.713 128.192 290.777 123.726 295.804C120.442 299.503 117.182 303.222 113.906 306.933C110.674 310.603 107.64 314.478 104.15 317.89C98.9755 322.958 92.7344 326.005 85.2878 325.66C80.5107 325.439 76.1395 323.766 72.203 321.031C64.088 315.38 58.622 307.466 53.6398 299.163C47.2635 288.518 42.3633 277.18 38.1767 265.534C35.2776 257.481 32.3621 249.423 29.8361 241.255C27.0847 232.377 24.6695 223.397 22.2952 214.408C20.4992 207.63 18.9082 200.795 17.391 193.947C15.6444 186.163 14.0285 178.35 12.5441 170.512C11.5559 165.218 10.9859 159.847 10.1863 154.52C9.10788 147.332 8.91105 140.086 9.3047 132.873C9.65325 126.374 10.5841 119.895 11.5108 113.441C12.7943 104.51 15.7385 96.083 19.9702 88.1239C22.5807 83.2737 25.7801 78.7646 29.4958 74.6987C35.6056 67.9369 42.9989 63.0531 51.2246 59.3831C56.9695 56.8203 63.0424 55.2826 69.2301 54.0729C78.4153 52.2851 87.6826 52.3589 96.9498 52.5475C101.001 52.6336 105.04 53.3676 109.087 53.7736C117.805 54.6388 126.347 56.4758 134.781 58.7352C140.932 60.3837 146.956 62.5242 153.049 64.3776C153.656 64.5621 154.554 64.5457 155.059 64.2218C163.321 58.8255 172.347 55.2662 181.954 53.2282C185.6 52.4573 189.364 52.117 193.091 51.8791C197.618 51.5962 202.19 51.3256 206.709 51.5921C212.142 51.9037 217.559 52.7033 222.96 53.4414C225.584 53.8023 228.143 54.7085 230.767 54.9545C232.03 55.0735 233.363 54.159 234.691 53.8474C241.474 52.2769 248.227 50.5342 255.071 49.2999C260.164 48.3814 265.372 47.9467 270.546 47.6515C276.328 47.3193 282.143 47.0774 287.916 47.3562C295.215 47.7089 302.461 48.7463 309.612 50.4111C318.478 52.4737 326.974 55.4671 335.056 59.6251C341.096 62.7374 346.833 66.3377 352.004 70.7663C355.391 73.6735 358.86 76.5398 361.915 79.7793C365.687 83.7732 369.534 87.763 371.904 92.8764C373.688 96.735 374.959 100.729 375.311 104.948C375.746 110.201 376.275 115.47 376.23 120.731C376.185 125.759 375.496 130.782 375.012 135.801C373.901 147.233 371.42 158.42 368.398 169.458C365.876 178.576 363.019 187.598 359.832 196.505C356.925 204.719 353.566 212.781 350.175 220.813C347.675 226.761 344.962 232.616 342.04 238.368C336.487 249.243 330.714 260.007 324.034 270.258C322.882 272.025 321.787 273.838 320.663 275.646C323.579 277.61 326.88 278.303 330.201 278.664C333.363 279.004 336.586 279.213 339.743 278.976C344.799 278.598 349.839 277.877 354.866 277.176C359.844 276.478 364.72 275.064 369.837 275.437C374.938 275.81 378.596 279.689 378.247 284.47C378.026 287.497 376.636 290.092 374.627 292.311C365.134 302.783 353.218 309.131 339.587 312.26C334.408 313.449 329.07 314.06 323.768 314.556C319.24 314.956 314.691 315.063 310.15 314.876C306.82 314.753 303.519 313.99 300.116 313.498C299.771 316.61 299.447 319.854 299.054 323.085L297.467 335.481C296.987 339.41 296.614 343.354 296.118 347.283C295.634 351.096 295.031 354.889 294.522 358.698C294.051 362.245 293.702 365.813 293.169 369.356C292.361 374.785 291.586 380.226 290.524 385.614C289.253 392.052 287.31 398.285 284.123 404.096C280.244 411.185 274.745 416.586 267.742 420.584C260.525 424.705 252.631 426.85 244.639 428.646C238.972 429.921 233.145 430.126 227.409 429.605C217.465 428.707 208.977 424.455 202.559 416.742C196.437 409.381 192.292 400.951 190.811 391.4C190.114 386.856 189.573 382.29 189.188 377.709C188.744 372.615 188.41 367.513 188.187 362.405ZM199.365 296.985C199.427 300.389 199.074 303.792 199.09 307.196C199.16 323.036 199.275 338.881 199.41 354.725C199.435 357.312 199.562 359.908 199.746 362.491C200.136 367.904 200.521 373.321 201.046 378.717C201.424 382.551 201.936 386.373 202.539 390.178C203.4 395.562 205.852 400.36 208.632 404.949C211.027 408.893 214.148 412.239 218.252 414.552C225.231 418.476 232.739 418.804 240.309 417.361C245.422 416.389 250.45 414.819 255.411 413.199C260.295 411.633 264.753 408.966 268.443 405.404C271.924 402.033 274.393 397.92 276.058 393.381C279.285 384.581 280.298 375.31 281.63 366.116C282.131 362.672 282.565 359.219 283.02 355.771C283.541 351.846 284.066 347.926 284.566 344.002C284.944 341.074 285.28 338.151 285.637 335.227C286.149 331.028 286.686 326.833 287.174 322.634C287.547 319.387 287.859 316.127 288.195 312.871C288.622 308.709 289.077 304.559 289.45 300.389C289.729 297.231 289.614 294.012 290.176 290.908C291.205 285.221 293.895 280.382 298.939 277.249C301.046 275.945 303.433 275.084 305.77 273.977L305.368 273.366C303.207 270.561 300.993 267.802 298.873 264.964C295.543 260.511 293.149 255.545 290.742 250.555C288.462 245.823 285.673 241.345 283.275 236.666C279.088 228.506 274.823 220.367 270.965 212.055C266.114 201.598 262.292 190.781 261.091 179.201C260.578 174.305 260.447 169.409 261.443 164.558C263.03 156.808 267.073 150.747 273.88 146.589C280.195 142.735 287.228 141.488 294.432 141.099C298.902 140.857 303.4 141.054 308.038 141.054L307.886 140.271C304.999 134.235 302.305 128.096 299.144 122.208C294.691 113.892 288.983 106.396 282.635 99.4373C277.951 94.2631 272.804 89.5278 267.258 85.2904C261.771 81.1365 255.99 77.4255 249.818 74.3952C242.487 70.7485 234.744 67.9951 226.757 66.1941C219.027 64.4801 211.257 63.4304 203.326 63.3443C196.569 63.2705 189.852 63.5821 183.266 65.1034C173.327 67.4038 164.236 71.4962 156.334 78.1226C151.957 81.7912 148.048 85.9833 144.692 90.6047C140.727 96.0379 137.537 101.918 134.806 108.073C131.058 116.524 128.487 125.312 126.724 134.349C125.846 138.86 125.157 143.399 124.456 147.939C124.21 149.534 124.194 151.153 124.046 152.978L127.048 151.416L129.976 150.104C139.887 145.573 150.15 142.657 161.181 142.989C165.872 143.129 170.35 144.059 174.524 146.114C182.52 150.059 187.195 156.763 189.229 165.243C190.631 171.098 191.595 177.069 192.529 183.027C193.259 187.677 194.01 192.376 194.092 197.067C194.211 203.923 193.866 210.796 193.493 217.648C193.174 223.475 191.968 229.218 189.917 234.682C186.211 244.588 182.077 254.335 178.219 264.185C176.943 267.441 175.963 270.807 174.762 274.387L179.633 274.391C180.224 274.404 180.827 274.42 181.396 274.555C185.829 275.601 189.68 277.61 192.833 281.022C197.048 285.549 199.254 290.847 199.365 296.985ZM114.701 250.013C112.189 244.101 110.673 237.813 110.215 231.405C109.789 225.361 110.506 219.35 111.13 213.33C111.728 207.503 112.237 201.648 112.409 195.8C112.7 186.176 112.052 176.577 111.593 166.961C111.318 161.237 111.982 155.443 112.491 149.706C112.95 144.539 113.524 139.36 114.504 134.267C116.14 125.722 118.318 117.299 121.414 109.135C124.346 101.393 127.724 93.8605 132.481 87.0741C135.749 82.4159 139.448 78.0734 143.003 73.5218L141.945 73.1446C130.369 69.4705 118.601 66.5919 106.492 65.3412C100.772 64.7466 95.0267 64.4022 89.29 64.0578C87.5268 63.9552 85.7389 64.1931 83.9716 64.3612C79.5963 64.7836 75.1636 64.9476 70.858 65.7677C63.5303 67.1619 56.4979 69.5074 49.9903 73.325C44.2313 76.7138 39.1823 81.1849 35.1218 86.4918C30.5824 92.3597 27.5193 98.9944 25.3255 106.064C22.734 114.408 21.4956 122.999 21.1635 131.663C20.8724 139.262 20.7288 146.901 22.041 154.471C23.0128 160.101 23.6648 165.796 24.7392 171.41C26.1834 179.064 27.8049 186.684 29.6024 194.262C32.1981 205.104 34.7978 215.954 37.8773 226.665C40.8215 236.92 44.1389 247.086 47.7473 257.132C50.6915 265.329 54.0991 273.374 57.6871 281.309C60.0244 286.48 62.8538 291.458 65.8225 296.296C68.9759 301.438 72.5679 306.318 77.4312 310.05C83.5779 314.757 88.3305 315.491 94.5797 310.32C97.2533 308.11 99.5127 305.371 101.842 302.767C105.536 298.634 109.104 294.377 112.786 290.223C117.473 284.938 122.217 279.706 126.929 274.436C127.925 273.325 128.889 272.177 129.857 271.053L128.245 269.647C122.436 264.097 117.826 257.415 114.701 250.013ZM292.423 92.5402C296.277 97.017 299.932 101.66 303.38 106.457C309.987 115.722 315.305 125.842 319.187 136.539C320.909 141.275 322.287 146.056 321.672 151.235C321.246 154.864 321.274 158.543 320.959 162.192C320.692 165.226 320.208 168.244 319.819 171.271C319.228 175.83 318.375 180.382 318.121 184.962C317.875 189.325 318.133 193.729 318.408 198.096C318.683 202.537 319.281 206.958 319.687 211.386C320.147 216.418 320.77 221.437 320.909 226.476C321.024 230.61 320.655 234.764 320.298 238.897C319.84 243.849 318.637 248.704 316.731 253.298C315.406 256.554 313.828 259.703 312.339 262.959L312.938 263.59L313.848 264.296L314.771 262.655C322.514 250.472 329.394 237.76 335.36 224.615C339.185 216.129 342.813 207.557 346.243 198.904C351.589 185.454 355.909 171.617 359.163 157.513C360.64 151.182 361.771 144.752 362.772 138.323C363.555 133.296 364.203 128.211 364.351 123.138C364.502 117.759 364.207 112.338 363.711 106.974C363.338 102.923 362.337 98.8468 359.803 95.5459C355.719 90.2439 351.315 85.1756 345.898 81.1611C341.334 77.7864 336.783 74.3132 331.891 71.4756C324.128 66.9691 315.726 63.9757 306.947 61.9337C298.373 59.9367 289.696 59.0756 280.962 58.8911C275.812 58.7803 270.637 59.3339 265.499 59.8219C260.84 60.2565 256.211 61.0028 251.524 61.6179C256.555 64.4473 261.521 66.965 266.196 69.9297C276.037 76.1626 284.862 83.6625 292.423 92.5402ZM164.568 267.072C167.746 256.902 172.08 247.184 176.275 237.417C179.682 229.49 181.54 221.146 182.159 212.567C182.467 208.34 182.385 204.059 182.176 199.819C181.972 195.101 181.539 190.397 180.88 185.721C179.998 179.759 178.998 173.793 177.587 167.941C176.058 161.61 172.203 157.198 165.593 155.57C161.57 154.581 157.568 154.622 153.496 155.266C143.561 156.829 134.466 160.49 125.994 165.854C124.288 166.932 123.345 167.806 123.644 170.246C124.268 175.429 124.403 180.694 124.378 185.922C124.346 193.323 124.03 200.725 123.751 208.122C123.661 210.529 123.312 212.932 123.05 215.331C122.656 219.005 121.889 222.675 121.914 226.345C121.939 230.126 122.324 233.993 123.243 237.654C126.158 249.267 132.325 258.764 142.441 265.468C148.662 269.594 155.543 271.668 163.1 272.066C163.6 270.332 164.063 268.696 164.568 267.072ZM152.693 167.474C151.36 164.681 152.123 162.364 155.206 161.29C155.961 161.032 156.732 160.745 157.511 160.671C158.589 160.564 159.676 160.642 160.763 160.642C164.679 160.667 168.443 161.212 171.67 163.697C173.745 165.296 174.303 167.408 172.958 169.589C171.051 172.677 168.152 174.227 164.584 174.522C158.971 174.986 155.03 172.37 152.693 167.474ZM308.411 166.453L309.686 155.279C309.871 153.786 309.088 153.376 307.833 153.339C303.884 153.232 299.939 153.089 295.99 153.023C291.545 152.941 287.211 153.655 283.094 155.344C278.526 157.226 275.049 160.236 273.626 165.21C272.585 168.875 272.256 172.706 272.658 176.495C273.213 182.357 274.541 188.121 276.607 193.635C279.371 200.987 282.258 208.336 285.714 215.38C290.393 224.914 295.683 234.148 300.653 243.539C301.977 246.044 303.101 248.664 304.483 251.588C307.273 245.772 308.797 239.429 308.952 232.98C309.088 227.645 308.665 222.298 308.354 216.963C308.161 213.699 307.697 210.451 307.382 207.196C306.943 202.66 306.27 198.121 306.164 193.574C306.061 188.948 306.389 184.298 306.783 179.677C307.152 175.256 307.882 170.865 308.411 166.453ZM299.517 162.869C298.049 166.916 294.916 169.204 290.848 169.872C287.059 170.5 283.738 169.101 281.269 166.075C279.51 163.922 280.183 161.376 282.819 159.916C285.846 158.243 289.171 157.821 293.095 157.567C294.166 157.759 295.765 157.927 297.29 158.358C299.5 158.981 300.321 160.654 299.517 162.869ZM182.249 287.538C180.084 285.766 177.214 285.664 175.155 287.607C172.597 290.027 170.346 292.79 168.094 295.513C165.499 298.662 163.055 301.935 159.709 304.374C154.833 307.921 149.137 309.389 143.421 310.779C138.878 311.887 134.31 312.916 129.754 313.974L129.697 314.564C131.05 315.188 132.358 315.971 133.773 316.418C140.723 318.616 147.797 319.715 155.145 319.091C160.443 318.636 165.495 317.48 170.28 315.212C176.869 312.092 181.942 307.142 186.252 301.393C186.973 300.434 187.301 299.015 187.383 297.777C187.674 293.405 185.456 290.154 182.249 287.538ZM309.141 285.643C305.733 286.787 302.961 288.53 302.137 292.216C301.575 294.709 301.37 297.289 301.153 299.843C301.112 300.294 301.674 301.123 302.1 301.237C304.725 301.93 307.365 302.747 310.047 302.988C313.348 303.288 316.702 303.193 320.024 303.029C323.608 302.849 327.216 302.615 330.751 302.025C339.071 300.622 347.128 298.351 354.28 293.627C356.863 291.925 359.414 290.187 361.98 288.456L361.767 288.091C359.032 288.497 356.305 288.993 353.558 289.284C347.965 289.883 342.368 290.515 336.754 290.839C334.043 290.994 331.296 290.474 328.565 290.252C323.981 289.879 319.503 288.862 315.628 286.41C313.393 284.999 311.523 284.844 309.141 285.643Z" fill="#272626"/>
<path d="M519.264 124.146C551.507 124.146 575.034 130.47 589.845 143.116C604.77 155.649 612.233 173.65 612.233 197.12C612.233 207.716 610.467 217.799 606.935 227.369C603.517 236.826 597.934 245.2 590.187 252.491C582.439 259.669 572.242 265.366 559.596 269.581C547.063 273.683 531.683 275.733 513.453 275.733H483.033V374H453.981V124.146H519.264ZM516.53 148.927H483.033V250.782H510.206C526.157 250.782 539.43 249.073 550.026 245.655C560.735 242.237 568.767 236.712 574.122 229.078C579.477 221.331 582.155 211.077 582.155 198.316C582.155 181.682 576.857 169.321 566.261 161.231C555.665 153.028 539.088 148.927 516.53 148.927ZM821.754 280.006C821.754 295.387 819.76 309.116 815.773 321.192C811.785 333.269 806.031 343.466 798.512 351.783C790.992 360.1 781.878 366.48 771.168 370.924C760.573 375.253 748.553 377.418 735.109 377.418C722.576 377.418 711.069 375.253 700.587 370.924C690.219 366.48 681.219 360.1 673.585 351.783C666.066 343.466 660.198 333.269 655.983 321.192C651.881 309.116 649.83 295.387 649.83 280.006C649.83 259.498 653.305 242.066 660.255 227.711C667.205 213.242 677.117 202.247 689.991 194.728C702.98 187.094 718.418 183.277 736.305 183.277C753.395 183.277 768.32 187.094 781.08 194.728C793.955 202.361 803.924 213.412 810.988 227.882C818.165 242.237 821.754 259.612 821.754 280.006ZM679.225 280.006C679.225 295.045 681.219 308.09 685.206 319.142C689.194 330.193 695.346 338.738 703.663 344.776C711.98 350.815 722.69 353.834 735.792 353.834C748.781 353.834 759.433 350.815 767.75 344.776C776.181 338.738 782.391 330.193 786.378 319.142C790.366 308.09 792.36 295.045 792.36 280.006C792.36 265.081 790.366 252.206 786.378 241.383C782.391 230.445 776.238 222.014 767.921 216.09C759.604 210.165 748.837 207.203 735.621 207.203C716.139 207.203 701.84 213.64 692.726 226.515C683.725 239.389 679.225 257.219 679.225 280.006ZM991.969 322.73C991.969 334.693 988.95 344.776 982.911 352.979C976.987 361.069 968.442 367.164 957.277 371.266C946.225 375.367 933.009 377.418 917.628 377.418C904.526 377.418 893.19 376.393 883.619 374.342C874.049 372.291 865.675 369.386 858.497 365.626V339.479C866.131 343.238 875.245 346.656 885.841 349.732C896.437 352.809 907.26 354.347 918.312 354.347C934.49 354.347 946.225 351.726 953.517 346.485C960.809 341.244 964.454 334.124 964.454 325.123C964.454 319.996 962.973 315.496 960.011 311.622C957.163 307.634 952.321 303.818 945.485 300.172C938.649 296.412 929.192 292.311 917.115 287.867C905.153 283.31 894.785 278.81 886.012 274.366C877.353 269.809 870.631 264.283 865.846 257.789C861.175 251.295 858.839 242.864 858.839 232.496C858.839 216.66 865.219 204.526 877.98 196.095C890.854 187.55 907.716 183.277 928.566 183.277C939.845 183.277 950.384 184.417 960.182 186.695C970.094 188.86 979.323 191.822 987.867 195.582L978.297 218.312C970.55 215.007 962.29 212.216 953.517 209.938C944.744 207.659 935.8 206.52 926.686 206.52C913.584 206.52 903.501 208.684 896.437 213.014C889.487 217.343 886.012 223.268 886.012 230.787C886.012 236.598 887.607 241.383 890.797 245.143C894.101 248.902 899.342 252.434 906.52 255.738C913.698 259.042 923.154 262.916 934.889 267.359C946.624 271.689 956.764 276.189 965.309 280.86C973.854 285.418 980.405 291 984.962 297.608C989.633 304.103 991.969 312.477 991.969 322.73ZM1098.1 354.176C1102.77 354.176 1107.55 353.777 1112.45 352.979C1117.35 352.182 1121.34 351.214 1124.42 350.074V372.12C1121.11 373.601 1116.5 374.854 1110.57 375.88C1104.76 376.905 1099.07 377.418 1093.48 377.418C1083.57 377.418 1074.57 375.709 1066.48 372.291C1058.39 368.759 1051.9 362.835 1047 354.518C1042.21 346.201 1039.82 334.693 1039.82 319.996V208.912H1013.16V195.069L1039.99 183.961L1051.27 143.287H1068.36V186.695H1123.22V208.912H1068.36V319.142C1068.36 330.877 1071.04 339.649 1076.39 345.46C1081.86 351.271 1089.1 354.176 1098.1 354.176ZM1214.65 458.082C1190.04 458.082 1171.07 453.468 1157.74 444.239C1144.41 435.125 1137.75 422.307 1137.75 405.787C1137.75 394.052 1141.45 384.026 1148.85 375.709C1156.37 367.392 1166.74 361.866 1179.96 359.132C1175.06 356.853 1170.84 353.435 1167.31 348.878C1163.89 344.321 1162.18 339.08 1162.18 333.155C1162.18 326.319 1164.06 320.338 1167.82 315.211C1171.7 309.97 1177.56 304.957 1185.43 300.172C1175.63 296.184 1167.65 289.462 1161.5 280.006C1155.46 270.436 1152.44 259.327 1152.44 246.681C1152.44 233.237 1155.23 221.786 1160.82 212.33C1166.4 202.76 1174.49 195.468 1185.08 190.455C1195.68 185.442 1208.5 182.936 1223.54 182.936C1226.84 182.936 1230.14 183.106 1233.45 183.448C1236.87 183.676 1240.11 184.075 1243.19 184.645C1246.27 185.1 1248.94 185.67 1251.22 186.354H1315.48V204.64L1280.96 208.912C1284.38 213.355 1287.22 218.71 1289.5 224.977C1291.78 231.243 1292.92 238.193 1292.92 245.826C1292.92 264.511 1286.6 279.379 1273.95 290.431C1261.3 301.368 1243.93 306.837 1221.83 306.837C1216.59 306.837 1211.23 306.381 1205.76 305.47C1200.18 308.546 1195.91 311.964 1192.95 315.724C1190.1 319.483 1188.67 323.813 1188.67 328.712C1188.67 332.358 1189.76 335.263 1191.92 337.428C1194.2 339.592 1197.45 341.188 1201.66 342.213C1205.88 343.124 1210.95 343.58 1216.87 343.58H1249.85C1270.25 343.58 1285.86 347.853 1296.68 356.397C1307.62 364.942 1313.09 377.418 1313.09 393.824C1313.09 414.56 1304.66 430.453 1287.79 441.505C1270.93 452.556 1246.55 458.082 1214.65 458.082ZM1215.5 435.865C1231 435.865 1243.82 434.27 1253.96 431.08C1264.21 428.004 1271.84 423.504 1276.86 417.579C1281.98 411.769 1284.55 404.819 1284.55 396.729C1284.55 389.21 1282.84 383.513 1279.42 379.64C1276 375.88 1270.99 373.373 1264.38 372.12C1257.77 370.753 1249.68 370.069 1240.11 370.069H1207.64C1199.21 370.069 1191.86 371.38 1185.6 374C1179.33 376.62 1174.49 380.494 1171.07 385.621C1167.77 390.748 1166.11 397.128 1166.11 404.762C1166.11 414.902 1170.39 422.592 1178.93 427.833C1187.48 433.188 1199.67 435.865 1215.5 435.865ZM1222.85 286.158C1236.41 286.158 1246.61 282.74 1253.44 275.904C1260.28 269.068 1263.7 259.099 1263.7 245.997C1263.7 231.983 1260.22 221.502 1253.27 214.552C1246.32 207.488 1236.07 203.956 1222.51 203.956C1209.52 203.956 1199.5 207.602 1192.43 214.894C1185.48 222.071 1182.01 232.61 1182.01 246.51C1182.01 259.27 1185.54 269.068 1192.6 275.904C1199.67 282.74 1209.75 286.158 1222.85 286.158ZM1437.5 183.277C1441.26 183.277 1445.19 183.505 1449.29 183.961C1453.39 184.303 1457.04 184.815 1460.23 185.499L1456.64 211.817C1453.57 211.02 1450.15 210.393 1446.39 209.938C1442.63 209.482 1439.1 209.254 1435.79 209.254C1428.27 209.254 1421.15 210.792 1414.43 213.868C1407.82 216.83 1402.01 221.16 1397 226.856C1391.99 232.439 1388.05 239.218 1385.21 247.193C1382.36 255.055 1380.93 263.827 1380.93 273.512V374H1352.39V186.695H1375.98L1379.05 221.217H1380.25C1384.12 214.267 1388.8 207.944 1394.26 202.247C1399.73 196.437 1406.06 191.822 1413.23 188.404C1420.53 184.986 1428.61 183.277 1437.5 183.277ZM1567.73 183.277C1583.68 183.277 1597.35 186.809 1608.74 193.873C1620.13 200.937 1628.85 210.849 1634.89 223.609C1640.93 236.256 1643.95 251.067 1643.95 268.043V285.646H1514.58C1514.92 307.634 1520.39 324.382 1530.98 335.89C1541.58 347.397 1556.5 353.15 1575.76 353.15C1587.61 353.15 1598.09 352.068 1607.2 349.903C1616.32 347.739 1625.77 344.549 1635.57 340.333V365.284C1626.12 369.5 1616.72 372.576 1607.37 374.513C1598.15 376.45 1587.21 377.418 1574.56 377.418C1556.56 377.418 1540.84 373.772 1527.39 366.48C1514.06 359.075 1503.7 348.251 1496.29 334.01C1488.88 319.768 1485.18 302.337 1485.18 281.715C1485.18 261.549 1488.54 244.117 1495.26 229.42C1502.1 214.609 1511.67 203.215 1523.98 195.24C1536.39 187.265 1550.98 183.277 1567.73 183.277ZM1567.38 206.52C1552.23 206.52 1540.15 211.476 1531.15 221.388C1522.15 231.3 1516.8 245.143 1515.09 262.916H1614.21C1614.1 251.751 1612.33 241.952 1608.91 233.521C1605.61 224.977 1600.54 218.368 1593.7 213.697C1586.87 208.912 1578.09 206.52 1567.38 206.52Z" fill="#272626"/>
<path d="M1837.4 307.521C1837.4 322.332 1833.7 334.978 1826.3 345.46C1819 355.828 1808.75 363.746 1795.53 369.215C1782.32 374.684 1766.77 377.418 1748.88 377.418C1739.42 377.418 1730.48 376.962 1722.05 376.051C1713.62 375.139 1705.87 373.829 1698.8 372.12C1691.74 370.411 1685.53 368.303 1680.18 365.797V337.94C1688.72 341.472 1699.15 344.776 1711.45 347.853C1723.76 350.815 1736.63 352.296 1750.07 352.296C1762.61 352.296 1773.2 350.644 1781.86 347.34C1790.52 343.922 1797.07 339.08 1801.51 332.813C1806.07 326.433 1808.35 318.8 1808.35 309.913C1808.35 301.368 1806.47 294.247 1802.71 288.551C1798.95 282.74 1792.69 277.499 1783.91 272.828C1775.25 268.043 1763.4 262.973 1748.37 257.618C1737.77 253.858 1728.43 249.757 1720.34 245.313C1712.25 240.756 1705.47 235.629 1700 229.933C1694.53 224.236 1690.37 217.628 1687.53 210.108C1684.79 202.589 1683.42 193.987 1683.42 184.303C1683.42 170.973 1686.79 159.579 1693.51 150.123C1700.34 140.553 1709.74 133.261 1721.71 128.248C1733.78 123.121 1747.62 120.558 1763.23 120.558C1776.56 120.558 1788.87 121.811 1800.15 124.317C1811.54 126.824 1821.97 130.185 1831.42 134.4L1822.36 159.352C1813.36 155.592 1803.79 152.459 1793.65 149.952C1783.63 147.446 1773.26 146.192 1762.55 146.192C1751.84 146.192 1742.78 147.787 1735.38 150.978C1728.09 154.054 1722.5 158.44 1718.63 164.137C1714.76 169.833 1712.82 176.612 1712.82 184.474C1712.82 193.246 1714.64 200.538 1718.29 206.349C1722.05 212.159 1727.97 217.343 1736.06 221.9C1744.26 226.344 1755.09 231.015 1768.53 235.914C1783.23 241.269 1795.7 246.965 1805.96 253.004C1816.21 258.928 1824.02 266.22 1829.37 274.879C1834.73 283.424 1837.4 294.304 1837.4 307.521ZM2105.2 248.731C2105.2 269.239 2102.41 287.81 2096.83 304.444C2091.24 321.078 2082.93 335.149 2071.88 346.656C2060.94 358.163 2047.27 366.537 2030.86 371.778L2089.65 433.473H2048.12L1999.76 377.076C1998.28 377.076 1996.74 377.133 1995.14 377.247C1993.66 377.361 1992.18 377.418 1990.7 377.418C1971.33 377.418 1954.41 374.342 1939.94 368.189C1925.59 362.037 1913.62 353.264 1904.05 341.871C1894.6 330.478 1887.48 316.863 1882.69 301.026C1878.02 285.19 1875.68 267.644 1875.68 248.39C1875.68 222.869 1879.9 200.481 1888.33 181.227C1896.76 161.972 1909.52 146.99 1926.61 136.28C1943.82 125.571 1965.35 120.216 1991.21 120.216C2015.94 120.216 2036.73 125.514 2053.59 136.109C2070.57 146.705 2083.38 161.63 2092.04 180.885C2100.82 200.025 2105.2 222.641 2105.2 248.731ZM1906.28 248.731C1906.28 269.923 1909.29 288.266 1915.33 303.761C1921.37 319.256 1930.6 331.218 1943.02 339.649C1955.55 348.08 1971.44 352.296 1990.7 352.296C2010.07 352.296 2025.9 348.08 2038.21 339.649C2050.63 331.218 2059.8 319.256 2065.72 303.761C2071.65 288.266 2074.61 269.923 2074.61 248.731C2074.61 216.489 2067.83 191.31 2054.27 173.194C2040.83 154.965 2019.81 145.851 1991.21 145.851C1971.84 145.851 1955.89 150.009 1943.36 158.326C1930.83 166.643 1921.49 178.492 1915.33 193.873C1909.29 209.14 1906.28 227.426 1906.28 248.731ZM2160.91 374V124.146H2189.97V348.023H2300.88V374H2160.91Z" fill="#7A7979"/>
</svg>
