<svg width="1774" height="500" viewBox="0 0 1774 500" fill="none" xmlns="http://www.w3.org/2000/svg">
<path d="M462.329 162.06C456.348 160.008 450.316 158.107 444.24 156.359C445.261 152.188 446.2 148.068 447.034 144.02C460.728 77.546 451.776 23.9935 421.199 6.36139C391.882 -10.5419 343.936 7.08362 295.513 49.2254C290.741 53.3861 286.075 57.6667 281.519 62.0631C278.469 59.1396 275.365 56.2729 272.209 53.4644C221.459 8.40515 170.592 -10.5858 140.047 7.09679C110.756 24.0527 102.083 74.3959 114.411 137.395C115.638 143.634 117.023 149.841 118.565 156.01C111.364 158.056 104.416 160.234 97.7671 162.552C38.2677 183.297 0.270508 215.806 0.270508 249.527C0.270508 284.354 41.0622 319.287 103.033 340.468C108.058 342.179 113.124 343.763 118.227 345.221C116.569 351.865 115.098 358.555 113.814 365.281C102.061 427.186 111.239 476.34 140.451 493.188C170.622 510.588 221.262 492.705 270.569 449.602C274.567 446.098 278.477 442.494 282.296 438.795C287.23 443.555 292.295 448.177 297.487 452.656C345.25 493.755 392.422 510.35 421.605 493.456C451.748 476.006 461.545 423.202 448.826 358.959C447.824 353.926 446.7 348.918 445.456 343.939C449.012 342.885 452.503 341.801 455.905 340.673C520.331 319.328 562.249 284.819 562.249 249.527C562.249 215.683 523.024 182.954 462.329 162.06ZM448.356 317.886C445.283 318.902 442.13 319.884 438.916 320.839C431.804 298.322 422.206 274.381 410.46 249.643C421.669 225.496 430.897 201.86 437.81 179.49C443.559 181.154 449.137 182.908 454.516 184.759C506.521 202.663 538.242 229.131 538.242 249.527C538.242 271.251 503.983 299.453 448.356 317.886ZM425.275 363.621C430.9 392.028 431.701 417.712 427.975 437.792C424.63 455.834 417.899 467.862 409.575 472.68C391.866 482.932 353.992 469.607 313.145 434.457C308.317 430.294 303.605 425.997 299.015 421.571C314.851 404.253 330.676 384.121 346.122 361.76C373.29 359.35 398.957 355.407 422.233 350.026C423.354 354.534 424.368 359.066 425.275 363.621ZM191.861 470.909C174.558 477.018 160.777 477.194 152.446 472.391C134.719 462.167 127.35 422.699 137.402 369.759C138.597 363.504 139.965 357.282 141.505 351.102C164.524 356.195 190.004 359.857 217.236 362.065C232.787 383.945 249.069 404.055 265.478 421.665C261.991 425.04 258.421 428.328 254.772 431.526C232.967 450.585 211.118 464.108 191.861 470.909ZM110.8 317.752C83.3972 308.385 60.7666 296.213 45.2551 282.929C31.3154 270.994 24.2797 259.142 24.2797 249.527C24.2797 229.063 54.7868 202.962 105.67 185.222C111.845 183.071 118.308 181.04 125.014 179.135C132.048 202.009 141.272 225.926 152.404 250.111C141.127 274.653 131.771 298.952 124.67 322.097C120.012 320.762 115.387 319.314 110.8 317.752ZM137.973 132.782C127.411 78.8083 134.425 38.0934 152.077 27.8746C170.877 16.9907 212.45 32.5087 256.269 71.4169C259.126 73.9599 261.938 76.5543 264.701 79.199C248.373 96.7323 232.24 116.694 216.827 138.444C190.397 140.894 165.097 144.828 141.836 150.098C140.403 144.36 139.115 138.587 137.973 132.785V132.782ZM380.385 192.642C374.891 183.152 369.193 173.781 363.295 164.536C381.226 166.804 398.406 169.814 414.538 173.493C409.696 189.017 403.659 205.247 396.553 221.887C391.359 212.032 385.969 202.281 380.385 192.642ZM281.53 96.3569C292.602 108.354 303.693 121.747 314.601 136.279C292.473 135.234 270.308 135.23 248.18 136.266C259.099 121.868 270.283 108.492 281.53 96.3569ZM182.04 192.806C176.526 202.369 171.236 212.058 166.175 221.867C159.185 205.286 153.203 188.982 148.319 173.238C164.353 169.651 181.451 166.718 199.268 164.492C193.304 173.794 187.56 183.233 182.04 192.804V192.806ZM199.779 336.269C181.372 334.214 164.017 331.433 147.987 327.942C152.949 311.917 159.062 295.266 166.203 278.33C171.285 288.146 176.597 297.842 182.134 307.408C187.829 317.243 193.725 326.876 199.779 336.269ZM282.193 404.387C270.813 392.111 259.463 378.529 248.38 363.922C259.141 364.344 270.11 364.559 281.26 364.559C292.714 364.559 304.037 364.302 315.182 363.806C304.239 378.676 293.191 392.278 282.193 404.387ZM396.779 277.465C404.291 294.588 410.622 311.151 415.649 326.902C399.356 330.621 381.764 333.615 363.227 335.839C369.167 326.422 374.919 316.889 380.479 307.244C386.133 297.44 391.568 287.511 396.779 277.465ZM359.684 295.249C351.171 310.037 342.18 324.544 332.725 338.747C315.596 339.96 298.431 340.563 281.26 340.554C263.77 340.554 246.759 340.01 230.379 338.947C220.676 324.777 211.513 310.244 202.91 295.381H202.912C194.349 280.596 186.35 265.491 178.933 250.1C186.331 234.704 194.306 219.593 202.84 204.797L202.837 204.799C211.368 189.999 220.458 175.529 230.087 161.419C246.799 160.155 263.937 159.496 281.257 159.496H281.26C298.659 159.496 315.819 160.161 332.527 161.434C342.059 175.523 351.09 189.944 359.605 204.669C368.167 219.433 376.247 234.471 383.832 249.759C376.325 265.204 368.271 280.377 359.684 295.249ZM409.208 27.159C428.026 38.0122 435.345 81.7784 423.521 139.173C422.766 142.834 421.919 146.564 420.997 150.346C397.679 144.964 372.362 140.962 345.854 138.475C330.413 116.485 314.412 96.493 298.349 79.1859C302.559 75.128 306.869 71.1754 311.275 67.3316C352.765 31.2267 391.541 16.9709 409.208 27.159ZM281.26 199.344C308.974 199.344 331.443 221.812 331.443 249.527C331.443 277.241 308.974 299.71 281.26 299.71C253.545 299.71 231.077 277.241 231.077 249.527C231.077 221.812 253.545 199.344 281.26 199.344Z" fill="#272626"/>
<path d="M617.005 139.719H687.61C703.626 139.719 717.151 142.16 728.186 147.043C739.319 151.926 747.766 159.152 753.528 168.723C759.387 178.195 762.317 189.865 762.317 203.732C762.317 213.498 760.315 222.434 756.311 230.539C752.405 238.547 746.741 245.383 739.319 251.047C731.995 256.613 723.206 260.764 712.952 263.498L705.042 266.574H638.684L638.391 243.576H688.489C698.645 243.576 707.092 241.818 713.831 238.303C720.569 234.689 725.647 229.855 729.065 223.801C732.483 217.746 734.192 211.057 734.192 203.732C734.192 195.529 732.581 188.352 729.358 182.199C726.135 176.047 721.057 171.311 714.124 167.99C707.288 164.572 698.45 162.863 687.61 162.863H645.276V353H617.005V139.719ZM741.663 353L689.807 256.32L719.251 256.174L771.839 351.242V353H741.663ZM863.538 355.93C852.503 355.93 842.493 354.074 833.508 350.363C824.622 346.555 816.956 341.232 810.51 334.396C804.163 327.561 799.28 319.455 795.862 310.08C792.444 300.705 790.735 290.451 790.735 279.318V273.166C790.735 260.275 792.639 248.801 796.448 238.742C800.257 228.586 805.432 219.992 811.975 212.961C818.518 205.93 825.94 200.607 834.241 196.994C842.542 193.381 851.135 191.574 860.022 191.574C871.35 191.574 881.116 193.527 889.319 197.434C897.62 201.34 904.407 206.809 909.68 213.84C914.954 220.773 918.86 228.977 921.399 238.449C923.938 247.824 925.208 258.078 925.208 269.211V281.369H806.848V259.25H898.108V257.199C897.717 250.168 896.253 243.332 893.714 236.691C891.272 230.051 887.366 224.582 881.995 220.285C876.624 215.988 869.299 213.84 860.022 213.84C853.87 213.84 848.206 215.158 843.03 217.795C837.854 220.334 833.411 224.143 829.7 229.221C825.989 234.299 823.108 240.5 821.057 247.824C819.007 255.148 817.981 263.596 817.981 273.166V279.318C817.981 286.838 819.007 293.918 821.057 300.559C823.206 307.102 826.282 312.863 830.286 317.844C834.387 322.824 839.319 326.73 845.081 329.562C850.94 332.395 857.581 333.811 865.003 333.811C874.573 333.811 882.678 331.857 889.319 327.951C895.96 324.045 901.77 318.82 906.751 312.277L923.157 325.314C919.739 330.49 915.393 335.422 910.12 340.109C904.846 344.797 898.352 348.605 890.637 351.535C883.02 354.465 873.987 355.93 863.538 355.93ZM1050.31 325.9V244.309C1050.31 238.059 1049.04 232.639 1046.5 228.049C1044.06 223.361 1040.34 219.748 1035.36 217.209C1030.38 214.67 1024.23 213.4 1016.91 213.4C1010.07 213.4 1004.07 214.572 998.889 216.916C993.811 219.26 989.807 222.336 986.878 226.145C984.046 229.953 982.63 234.055 982.63 238.449H955.53C955.53 232.785 956.995 227.17 959.924 221.604C962.854 216.037 967.053 211.008 972.522 206.516C978.089 201.926 984.729 198.312 992.444 195.676C1000.26 192.941 1008.95 191.574 1018.52 191.574C1030.04 191.574 1040.2 193.527 1048.99 197.434C1057.87 201.34 1064.81 207.248 1069.79 215.158C1074.87 222.971 1077.4 232.785 1077.4 244.602V318.43C1077.4 323.703 1077.84 329.318 1078.72 335.275C1079.7 341.232 1081.12 346.359 1082.97 350.656V353H1054.7C1053.33 349.875 1052.26 345.725 1051.48 340.549C1050.7 335.275 1050.31 330.393 1050.31 325.9ZM1054.99 256.906L1055.29 275.949H1027.89C1020.18 275.949 1013.29 276.584 1007.24 277.854C1001.18 279.025 996.106 280.832 992.005 283.273C987.903 285.715 984.778 288.791 982.63 292.502C980.481 296.115 979.407 300.363 979.407 305.246C979.407 310.227 980.53 314.768 982.776 318.869C985.022 322.971 988.391 326.242 992.883 328.684C997.473 331.027 1003.09 332.199 1009.73 332.199C1018.03 332.199 1025.35 330.441 1031.7 326.926C1038.05 323.41 1043.08 319.113 1046.79 314.035C1050.6 308.957 1052.65 304.025 1052.94 299.24L1064.51 312.277C1063.83 316.379 1061.98 320.92 1058.95 325.9C1055.92 330.881 1051.87 335.666 1046.79 340.256C1041.81 344.748 1035.85 348.508 1028.92 351.535C1022.08 354.465 1014.37 355.93 1005.77 355.93C995.032 355.93 985.608 353.83 977.503 349.631C969.495 345.432 963.245 339.816 958.753 332.785C954.358 325.656 952.161 317.697 952.161 308.908C952.161 300.412 953.821 292.941 957.141 286.496C960.462 279.953 965.247 274.533 971.497 270.236C977.747 265.842 985.266 262.521 994.055 260.275C1002.84 258.029 1012.66 256.906 1023.5 256.906H1054.99ZM1183.46 333.664C1189.9 333.664 1195.86 332.346 1201.33 329.709C1206.8 327.072 1211.29 323.459 1214.81 318.869C1218.32 314.182 1220.32 308.859 1220.81 302.902H1246.59C1246.11 312.277 1242.93 321.018 1237.07 329.123C1231.31 337.131 1223.74 343.625 1214.37 348.605C1204.99 353.488 1194.69 355.93 1183.46 355.93C1171.55 355.93 1161.15 353.83 1152.26 349.631C1143.47 345.432 1136.15 339.67 1130.29 332.346C1124.52 325.021 1120.18 316.623 1117.25 307.15C1114.42 297.58 1113 287.473 1113 276.828V270.676C1113 260.031 1114.42 249.973 1117.25 240.5C1120.18 230.93 1124.52 222.482 1130.29 215.158C1136.15 207.834 1143.47 202.072 1152.26 197.873C1161.15 193.674 1171.55 191.574 1183.46 191.574C1195.86 191.574 1206.7 194.113 1215.98 199.191C1225.26 204.172 1232.53 211.008 1237.81 219.699C1243.18 228.293 1246.11 238.059 1246.59 248.996H1220.81C1220.32 242.453 1218.47 236.545 1215.25 231.271C1212.12 225.998 1207.82 221.799 1202.36 218.674C1196.99 215.451 1190.69 213.84 1183.46 213.84C1175.16 213.84 1168.18 215.5 1162.51 218.82C1156.95 222.043 1152.5 226.438 1149.18 232.004C1145.96 237.473 1143.62 243.576 1142.15 250.314C1140.78 256.955 1140.1 263.742 1140.1 270.676V276.828C1140.1 283.762 1140.78 290.598 1142.15 297.336C1143.52 304.074 1145.81 310.178 1149.04 315.646C1152.36 321.115 1156.8 325.51 1162.37 328.83C1168.03 332.053 1175.06 333.664 1183.46 333.664ZM1343.42 194.504V215.305H1257.73V194.504H1343.42ZM1286.73 155.979H1313.83V313.742C1313.83 319.113 1314.66 323.166 1316.32 325.9C1317.98 328.635 1320.13 330.441 1322.77 331.32C1325.4 332.199 1328.24 332.639 1331.26 332.639C1333.51 332.639 1335.85 332.443 1338.29 332.053C1340.83 331.564 1342.74 331.174 1344.01 330.881L1344.15 353C1342 353.684 1339.17 354.318 1335.66 354.904C1332.24 355.588 1328.09 355.93 1323.21 355.93C1316.57 355.93 1310.46 354.611 1304.9 351.975C1299.33 349.338 1294.89 344.943 1291.57 338.791C1288.34 332.541 1286.73 324.143 1286.73 313.596V155.979ZM1543.23 290.744V139.719H1571.35V290.744C1571.35 304.807 1568.47 316.672 1562.71 326.34C1556.95 336.008 1548.99 343.381 1538.83 348.459C1528.77 353.439 1517.2 355.93 1504.11 355.93C1491.03 355.93 1479.41 353.684 1469.25 349.191C1459.09 344.699 1451.14 337.863 1445.37 328.684C1439.61 319.504 1436.73 307.932 1436.73 293.967H1465C1465 302.951 1466.66 310.324 1469.98 316.086C1473.3 321.848 1477.89 326.096 1483.75 328.83C1489.71 331.564 1496.5 332.932 1504.11 332.932C1511.54 332.932 1518.18 331.369 1524.04 328.244C1529.99 325.021 1534.68 320.285 1538.1 314.035C1541.52 307.688 1543.23 299.924 1543.23 290.744ZM1732.92 299.094C1732.92 294.113 1732.14 289.719 1730.58 285.91C1729.11 282.004 1726.48 278.488 1722.67 275.363C1718.96 272.238 1713.78 269.26 1707.14 266.428C1700.6 263.596 1692.3 260.715 1682.24 257.785C1671.69 254.66 1662.17 251.193 1653.67 247.385C1645.18 243.479 1637.9 239.035 1631.85 234.055C1625.79 229.074 1621.15 223.361 1617.93 216.916C1614.71 210.471 1613.1 203.098 1613.1 194.797C1613.1 186.496 1614.81 178.83 1618.23 171.799C1621.64 164.768 1626.53 158.664 1632.87 153.488C1639.32 148.215 1646.99 144.113 1655.87 141.184C1664.76 138.254 1674.67 136.789 1685.61 136.789C1701.62 136.789 1715.2 139.865 1726.33 146.018C1737.56 152.072 1746.11 160.031 1751.97 169.895C1757.82 179.66 1760.75 190.109 1760.75 201.242H1732.63C1732.63 193.234 1730.92 186.154 1727.5 180.002C1724.08 173.752 1718.91 168.869 1711.98 165.354C1705.04 161.74 1696.25 159.934 1685.61 159.934C1675.55 159.934 1667.25 161.447 1660.71 164.475C1654.16 167.502 1649.28 171.604 1646.06 176.779C1642.93 181.955 1641.37 187.863 1641.37 194.504C1641.37 198.996 1642.3 203.098 1644.15 206.809C1646.11 210.422 1649.08 213.791 1653.09 216.916C1657.19 220.041 1662.37 222.922 1668.62 225.559C1674.96 228.195 1682.53 230.734 1691.32 233.176C1703.43 236.594 1713.88 240.402 1722.67 244.602C1731.46 248.801 1738.68 253.537 1744.35 258.811C1750.11 263.986 1754.36 269.895 1757.09 276.535C1759.92 283.078 1761.34 290.5 1761.34 298.801C1761.34 307.492 1759.58 315.354 1756.07 322.385C1752.55 329.416 1747.52 335.422 1740.98 340.402C1734.44 345.383 1726.57 349.24 1717.4 351.975C1708.31 354.611 1698.16 355.93 1686.93 355.93C1677.06 355.93 1667.35 354.562 1657.78 351.828C1648.3 349.094 1639.66 344.992 1631.85 339.523C1624.13 334.055 1617.93 327.316 1613.24 319.309C1608.65 311.203 1606.36 301.828 1606.36 291.184H1634.49C1634.49 298.508 1635.9 304.807 1638.73 310.08C1641.57 315.256 1645.42 319.553 1650.31 322.971C1655.29 326.389 1660.9 328.928 1667.15 330.588C1673.5 332.15 1680.09 332.932 1686.93 332.932C1696.79 332.932 1705.14 331.564 1711.98 328.83C1718.81 326.096 1723.99 322.189 1727.5 317.111C1731.12 312.033 1732.92 306.027 1732.92 299.094Z" fill="#272626"/>
</svg>
