<svg width="942" height="500" viewBox="0 0 942 500" fill="none" xmlns="http://www.w3.org/2000/svg">
<path d="M594.364 108.682C580.855 104.311 573.875 105.785 559.709 104.193C537.805 101.739 529.079 92.9315 525.379 70.268C523.308 57.6132 525.747 39.0918 520.463 27.6237C510.351 5.75609 486.678 -4.05373 462.901 1.54767C442.825 6.27938 426.124 26.9161 425.195 48.1056C424.141 72.2874 437.54 92.9315 460.543 100.051C471.473 103.442 483.088 105.151 494.505 106.014C515.436 107.584 517.05 119.553 522.711 129.407C526.278 135.62 529.742 141.737 529.742 160.259C529.742 178.78 526.256 184.905 522.711 191.118C517.05 200.943 510.063 207.384 489.124 208.976C477.715 209.846 466.078 211.556 455.17 214.946C432.16 222.088 418.761 242.703 419.822 266.892C420.743 288.074 437.452 308.711 457.528 313.442C481.305 319.066 504.971 309.241 515.09 287.366C520.397 275.898 523.308 262.904 525.379 250.257C529.101 227.594 537.827 218.786 559.709 216.324C573.882 214.732 588.542 216.324 601.823 208.571C615.849 198.024 628.386 182.193 628.386 160.259C628.386 138.325 614.876 115.33 594.364 108.682Z" fill="#A3A2A2"/>
<path d="M369.631 211.668C342.014 211.668 319.498 188.452 319.498 160.003C319.498 131.546 342.014 108.337 369.631 108.337C397.247 108.337 419.763 131.546 419.763 160.003C419.763 188.437 397.217 211.668 369.631 211.668ZM277.266 316.665C249.702 316.599 227.245 293.301 227.311 264.815C227.377 236.388 249.989 213.245 277.62 213.334C305.207 213.408 327.664 236.705 327.576 265.184C327.51 293.596 304.898 316.739 277.266 316.665ZM649.789 316.665C622.136 316.827 599.435 293.773 599.281 265.39C599.126 236.889 621.494 213.496 649.03 213.334C676.69 213.179 699.391 236.226 699.545 264.616C699.693 293.087 677.331 316.503 649.789 316.665ZM96.4003 498.025C92.8921 494.244 92.3909 489.645 90.8874 474.189C89.7081 462.183 83.3549 456.103 72.4838 453.965C85.367 452.322 94.8968 442.453 94.8968 427.329C94.8968 407.105 81.3502 394.443 54.0876 394.443H0.896484V498.025H28.8298V463.665H47.7271C57.2642 463.665 62.4529 466.296 63.2857 478.133C64.1259 488.819 65.46 495.232 67.6342 498.032H96.4077L96.4003 498.025ZM28.8298 442.129V416.805H49.0685C61.1115 416.805 67.133 421.242 67.133 429.629C67.133 439.166 61.1115 442.129 49.0685 442.129H28.8298ZM158.436 471.883C155.93 477.639 151.242 480.108 143.88 480.108C135.684 480.108 128.992 475.833 128.328 466.79H180.679V459.39C180.679 439.49 167.464 422.723 142.546 422.723C119.292 422.723 101.899 439.328 101.899 462.515C101.899 485.857 118.961 500 142.877 500C162.615 500 176.338 490.625 180.178 473.858L158.436 471.883ZM128.66 453.965C129.662 447.06 133.51 441.797 142.206 441.797C150.24 441.797 154.589 447.384 154.92 453.958L128.66 453.965ZM234.821 467.446C234.821 476.983 228.63 482.569 220.936 482.569C216.425 482.569 213.418 480.108 213.418 476.327C213.418 471.558 217.258 469.583 223.78 468.271L234.821 466.296V467.446ZM261.42 451.496C261.42 431.11 246.864 422.723 227.127 422.723C204.721 422.723 192.501 433.904 190.165 450.015L215.253 451.666C216.425 446.234 219.432 442.453 225.454 442.453C231.976 442.453 234.821 446.072 234.821 452.152V453.31L213.912 456.759C197.697 459.56 187.32 465.64 187.32 479.776C187.32 492.276 196.857 499.676 211.406 499.676C223.279 499.676 231.814 495.232 236.163 486.682C238.668 495.069 245.862 499.668 255.06 499.668C262.754 499.668 268.105 497.531 271.953 494.907V480.756C270.041 481.535 267.995 481.928 265.931 481.913C263.086 481.913 261.42 480.27 261.42 476.489V451.496ZM275.041 461.365C275.041 484.707 292.272 500 315.857 500C338.263 500 350.814 485.857 352.657 468.102L330.406 466.458C328.563 475.501 324.053 479.946 316.189 479.946C307.993 479.946 302.303 474.514 302.303 461.365C302.303 448.217 307.993 442.785 316.189 442.785C324.053 442.785 328.571 447.06 330.413 456.103L352.657 454.621C350.814 437.029 338.27 422.723 315.857 422.723C292.272 422.723 275.041 438.178 275.041 461.365ZM365.695 477.639C365.695 494.907 377.561 500 390.112 500C400.313 500 406.843 497.531 412.525 493.426V476.157C408.007 477.97 404.33 478.626 400.984 478.626C395.463 478.626 392.456 476.157 392.456 469.915V443.102H411.855V424.691H392.456V404.467H375.394L372.888 414.004C371.046 420.748 368.702 424.691 361.169 425.841L355.657 426.666V443.102H365.687V477.631L365.695 477.639ZM549.192 498.025C545.684 494.244 545.175 489.645 543.672 474.189C542.5 462.183 536.147 456.103 525.276 453.965C538.152 452.322 547.681 442.453 547.681 427.329C547.681 407.105 534.142 394.443 506.872 394.443H453.688V498.025H481.622V463.665H500.519C510.056 463.665 515.237 466.296 516.07 478.133C516.91 488.819 518.252 495.232 520.419 498.032L549.192 498.025ZM481.622 442.129V416.805H501.86C513.903 416.805 519.917 421.242 519.917 429.629C519.917 439.166 513.903 442.129 501.86 442.129H481.622ZM581.953 461.365C581.953 450.347 585.97 442.785 595.5 442.785C604.867 442.785 609.046 450.347 609.046 461.358C609.046 472.369 604.867 479.938 595.5 479.938C585.97 479.938 581.953 472.376 581.953 461.365ZM636.316 461.365C636.316 438.672 619.755 422.723 595.5 422.723C571.082 422.723 554.69 438.672 554.69 461.365C554.69 484.213 571.082 500 595.5 500C619.748 500 636.316 484.213 636.316 461.365ZM696.236 460.702C696.236 471.883 692.898 479.12 684.37 479.12C676.167 479.12 673.315 473.696 673.315 463.827V424.698H646.236V470.902C646.236 486.188 652.427 500 672.828 500C684.031 500 692.227 495.232 696.244 487.014V498.025H723.337V424.698H696.244L696.236 460.702ZM740.73 477.639C740.73 494.907 752.604 500 765.148 500C775.349 500 781.879 497.531 787.561 493.426V476.157C783.043 477.97 779.365 478.626 776.019 478.626C770.506 478.626 767.485 476.157 767.485 469.915V443.102H786.89V424.691H767.485V404.467H750.43L747.924 414.004C746.081 420.748 743.738 424.691 736.205 425.841L730.692 426.666V443.102H740.73V477.639ZM850.518 471.89C848.012 477.639 843.332 480.108 835.969 480.108C827.773 480.108 821.088 475.833 820.41 466.79H872.769V459.39C872.769 439.49 859.554 422.723 834.628 422.723C811.382 422.723 793.981 439.328 793.981 462.515C793.981 485.857 811.043 500 834.967 500C854.704 500 868.42 490.625 872.267 473.858L850.518 471.883V471.89ZM820.749 453.965C821.752 447.06 825.599 441.797 834.296 441.797C842.329 441.797 846.678 447.384 847.002 453.958L820.749 453.965ZM941.622 425.516C939.779 424.042 935.77 422.723 931.252 422.723C921.383 422.723 913.526 429.467 910.843 437.685V424.698H883.75V498.032H910.843V464.49C910.843 452.152 917.034 447.553 927.065 447.553C932.254 447.553 936.271 448.541 939.956 450.678L941.622 425.516Z" fill="#272626"/>
</svg>
