<svg width="668" height="500" viewBox="0 0 668 500" fill="none" xmlns="http://www.w3.org/2000/svg">
<path d="M574.532 287.431C551.273 287.552 531.057 293.153 514.131 301.435C507.918 289.134 501.708 278.176 500.614 270.137C499.394 260.762 497.934 255.037 499.394 243.834C500.857 232.63 507.433 216.676 507.31 215.459C507.19 214.242 505.847 208.517 492.452 208.397C479.058 208.274 467.488 210.954 466.149 214.484C464.809 218.015 462.252 226.054 460.547 234.333C458.233 246.513 433.757 289.986 419.754 312.759C415.246 303.871 411.35 296.076 410.496 289.865C409.279 280.49 407.816 274.765 409.279 263.561C410.741 252.358 417.317 236.406 417.194 235.187C417.072 233.97 415.732 228.245 402.337 228.125C388.939 228.002 377.37 230.682 376.033 234.212C374.693 237.746 373.231 246.025 370.431 254.063C367.629 262.102 335.115 334.683 326.59 353.434C323.146 361.024 319.532 368.536 315.752 375.964C315.752 375.964 315.63 376.33 315.264 376.938C314.076 379.268 312.859 381.582 311.613 383.88V384C309.785 387.291 307.837 390.333 306.862 390.333C306.131 390.333 304.791 381.566 307.105 369.631C311.976 344.424 323.545 305.211 323.425 303.871C323.425 303.14 325.616 296.321 315.875 292.788C306.374 289.257 302.966 295.102 302.112 295.102C301.261 295.102 300.649 297.173 300.649 297.173C300.649 297.173 311.247 253.089 280.436 253.089C261.196 253.089 234.647 274.157 221.495 293.153C206.544 301.29 191.605 309.449 176.68 317.632C169.498 321.651 162.068 325.67 155.126 329.444C154.638 328.958 154.152 328.347 153.664 327.861C116.399 288.04 47.474 259.908 50.3964 206.449C51.4932 186.964 58.1894 135.816 182.77 73.7093C285.306 23.1698 366.9 37.1731 381.026 68.2276C401.24 112.557 337.308 194.879 231.359 206.812C190.929 211.319 169.738 195.731 164.382 189.886C158.78 183.796 157.926 183.43 155.855 184.65C152.447 186.478 154.638 191.957 155.855 195.122C159.023 203.401 172.052 218.015 194.094 225.202C213.579 231.533 260.951 235.066 318.309 212.902C382.486 188.058 432.66 119.01 417.926 61.1658C403.188 2.4677 305.766 -16.8946 213.579 15.8625C158.78 35.3502 99.3506 66.0364 56.6067 105.981C5.82435 153.472 -2.21412 194.757 1.07387 212.05C12.8887 273.425 97.5251 313.37 131.379 342.962C129.674 343.936 128.089 344.79 126.751 345.521C109.823 353.923 45.2803 387.654 29.2059 423.336C10.9405 463.766 32.1309 492.752 46.1343 496.646C89.6094 508.704 134.302 487.027 158.292 451.223C182.282 415.42 179.359 368.9 168.278 347.589C168.156 347.347 168.035 347.101 167.79 346.858C172.175 344.301 176.68 341.622 181.065 339.065C189.124 334.301 197.285 329.712 205.543 325.302C201.401 336.629 198.356 350.146 196.896 369.631C195.068 392.527 204.444 422.239 216.744 433.929C222.226 439.047 228.679 439.167 232.821 439.167C247.19 439.167 253.646 427.233 260.831 413.106C269.598 395.815 277.513 375.721 277.513 375.721C277.513 375.721 267.649 430.035 294.442 430.035C304.183 430.035 314.047 417.368 318.432 410.915V411.035C318.432 411.035 318.675 410.67 319.163 409.818C320.137 408.236 320.746 407.259 320.746 407.259V407.019C324.642 400.197 333.412 384.731 346.441 359.036C363.247 325.913 379.444 284.509 379.444 284.509C379.444 284.509 380.906 294.616 385.897 311.422C388.822 321.285 394.907 332.124 399.78 342.596C395.884 348.078 393.447 351.12 393.447 351.12L393.57 351.243C390.402 355.382 386.994 359.887 383.217 364.275C369.943 380.104 354.114 398.252 351.92 403.485C349.361 409.696 349.972 414.203 354.845 417.857C358.376 420.536 364.707 420.899 371.162 420.536C383.097 419.682 391.499 416.76 395.638 414.935C402.094 412.621 409.644 409.087 416.706 403.851C429.738 394.23 437.651 380.469 436.922 362.327C436.557 352.34 433.269 342.353 429.249 332.975C430.469 331.272 431.563 329.567 432.783 327.861C453.362 297.781 469.316 264.779 469.316 264.779C469.316 264.779 470.779 274.885 475.77 291.694C478.206 300.218 483.2 309.473 487.582 318.483C468.22 334.195 456.285 352.46 452.022 364.395C444.352 386.56 450.317 396.544 461.644 398.858C466.757 399.954 474.064 397.518 479.423 395.204C486.242 393.013 494.281 389.239 501.953 383.635C514.985 374.016 527.526 360.619 526.795 342.476C526.429 334.195 524.238 326.033 521.193 318.118C537.633 311.301 558.823 307.525 585.856 310.69C643.826 317.509 655.272 353.677 653.078 368.903C650.887 384.123 638.709 392.404 634.693 394.961C630.671 397.52 629.334 398.372 629.699 400.197C630.185 402.877 632.133 402.757 635.544 402.268C640.295 401.417 665.99 389.968 667.084 361.958C668.912 326.156 634.813 287.066 574.532 287.431ZM127.36 438.193C108.118 459.138 81.328 467.054 69.7587 460.358C57.338 453.171 62.2086 422.239 85.833 400.077C100.202 386.56 118.713 374.013 131.014 366.343C133.813 364.638 137.955 362.204 142.949 359.159C143.8 358.67 144.288 358.428 144.288 358.428L147.211 356.599C155.855 388.262 147.576 416.152 127.36 438.193ZM267.406 342.962C260.708 359.281 246.704 401.051 238.18 398.737C230.873 396.789 226.365 365.126 236.718 333.829C241.954 318.118 253.035 299.364 259.491 292.059C269.963 280.367 281.533 276.468 284.332 281.221C287.866 287.431 271.546 332.732 267.406 342.962ZM382.975 398.249C380.172 399.712 377.496 400.686 376.276 399.954C375.424 399.466 377.495 397.518 377.495 397.518C377.495 397.518 391.987 381.932 397.709 374.867C401 370.728 404.894 365.858 409.036 360.376V361.958C409.036 380.592 391.01 393.136 382.972 398.249H382.975ZM472.116 377.913C470.045 376.45 470.411 371.579 477.352 356.357C480.032 350.389 486.362 340.405 497.203 330.784C498.42 334.68 499.274 338.457 499.151 341.988C499.029 365.492 482.225 374.259 472.116 377.913Z" fill="#272626"/>
</svg>
