<svg width="1627" height="520" viewBox="0 0 1627 520" fill="none" xmlns="http://www.w3.org/2000/svg">
<path d="M454.466 370.003C392.83 452.109 261.221 424.399 176.819 428.368C176.819 428.368 161.865 429.217 146.837 431.689C146.837 431.689 152.529 429.267 159.793 426.746C219.057 406.25 247.067 402.131 283.089 383.633C350.741 348.983 418.094 273.468 431.799 195.032C406.036 270.472 327.7 335.403 256.378 361.765C207.574 379.789 119.277 397.313 119.252 397.313C118.053 396.699 116.862 396.067 115.682 395.416C55.6443 366.208 53.8969 236.147 162.964 194.233C210.794 175.859 256.503 185.945 308.203 173.638C363.323 160.532 427.181 119.217 453.118 65.195C482.201 151.52 517.15 286.524 454.466 370.003ZM455.514 38.4837C448.542 55.2032 439.618 71.0401 428.928 85.6653C405.691 61.7162 377.881 42.678 347.147 29.6804C316.413 16.6827 283.382 9.99022 250.012 10C112.137 10 2.73176e-05 122.137 2.73176e-05 259.987C-0.0160719 294.373 7.0839 328.39 20.8533 359.899C34.6227 391.407 54.7636 419.726 80.009 443.072L85.501 447.915C81.498 443.905 79.2512 438.47 79.2547 432.804C79.2582 427.138 81.5117 421.706 85.5198 417.701C89.5278 413.696 94.9622 411.447 100.628 411.448C106.294 411.449 111.727 413.701 115.734 417.707C119.74 421.713 121.992 427.147 121.993 432.813C121.994 438.479 119.745 443.913 115.74 447.921C111.735 451.929 106.303 454.183 100.637 454.186C94.971 454.19 89.5357 451.943 85.526 447.94L89.2456 451.235C134.191 489.233 191.157 510.056 250.012 510C381.771 510 489.989 407.449 499.251 278.036C506.091 214.653 487.368 134.17 455.514 38.4837Z" fill="#272626"/>
<path d="M617.455 318.5C592.955 313.133 575.455 305.783 564.955 296.45C554.688 287.117 549.555 274.983 549.555 260.05C549.555 243.25 555.738 230.183 568.105 220.85C580.705 211.283 599.255 206.5 623.755 206.5C639.155 206.5 654.438 207.9 669.605 210.7C674.738 211.633 678.822 214.2 681.855 218.4C685.122 222.367 686.755 227.033 686.755 232.4C686.755 236.833 685.005 240.45 681.505 243.25C678.005 245.817 674.038 246.517 669.605 245.35C656.538 242.083 642.772 240.45 628.305 240.45C607.305 240.45 596.805 246.283 596.805 257.95C596.805 263.55 598.788 268.217 602.755 271.95C606.722 275.683 613.488 278.6 623.055 280.7C649.888 286.067 668.205 293.3 678.005 302.4C688.038 311.5 693.055 324.8 693.055 342.3C693.055 359.1 686.755 372.167 674.155 381.5C661.555 390.833 643.238 395.5 619.205 395.5C603.572 395.5 587.588 393.633 571.255 389.9C566.122 388.733 561.922 386.05 558.655 381.85C555.388 377.417 553.755 372.4 553.755 366.8C553.755 362.367 555.505 358.983 559.005 356.65C562.738 354.317 566.705 353.733 570.905 354.9C586.072 359.1 600.422 361.2 613.955 361.2C635.188 361.2 645.805 354.9 645.805 342.3C645.805 336.233 643.705 331.45 639.505 327.95C635.538 324.45 628.188 321.3 617.455 318.5ZM782.157 277.2V324.8C782.157 334.133 786.124 342.417 794.057 349.65C802.224 356.883 811.674 360.5 822.407 360.5C834.774 360.5 844.574 355.483 851.807 345.45C859.041 335.417 862.657 320.6 862.657 301C862.657 261.333 849.241 241.5 822.407 241.5C811.674 241.5 802.224 245.117 794.057 252.35C786.124 259.583 782.157 267.867 782.157 277.2ZM755.907 469C750.541 469 745.874 467.017 741.907 463.05C737.941 459.083 735.957 454.417 735.957 449.05V229.95C735.957 224.583 737.941 219.917 741.907 215.95C745.874 211.983 750.541 210 755.907 210H760.107C765.707 210 770.491 211.983 774.457 215.95C778.424 219.683 780.524 224.35 780.757 229.95V232.4C780.757 232.633 780.874 232.75 781.107 232.75C781.341 232.75 781.574 232.633 781.807 232.4C790.207 223.067 798.607 216.417 807.007 212.45C815.407 208.483 825.207 206.5 836.407 206.5C858.341 206.5 875.841 214.783 888.907 231.35C901.974 247.683 908.507 270.9 908.507 301C908.507 330.167 901.624 353.267 887.857 370.3C874.324 387.1 857.174 395.5 836.407 395.5C816.107 395.5 798.491 388.15 783.557 373.45C783.324 373.217 783.091 373.1 782.857 373.1C782.624 373.1 782.507 373.217 782.507 373.45V449.05C782.507 454.417 780.524 459.083 776.557 463.05C772.824 467.017 768.274 469 762.907 469H755.907ZM966.112 392C960.746 392 956.079 390.017 952.112 386.05C948.146 382.083 946.162 377.417 946.162 372.05V229.95C946.162 224.583 948.146 219.917 952.112 215.95C956.079 211.983 960.746 210 966.112 210H973.112C978.479 210 983.146 211.983 987.112 215.95C991.079 219.917 993.062 224.583 993.062 229.95V244.65C993.062 244.883 993.179 245 993.412 245C993.879 245 994.112 244.883 994.112 244.65C1000.88 235.317 1009.75 227.733 1020.71 221.9C1031.68 215.833 1043.7 212.1 1056.76 210.7C1061.66 210.233 1065.86 211.867 1069.36 215.6C1072.86 219.1 1074.61 223.3 1074.61 228.2C1074.61 233.1 1072.86 237.3 1069.36 240.8C1065.86 244.3 1061.66 246.283 1056.76 246.75C1015.46 250.017 994.812 271.017 994.812 309.75V372.05C994.812 377.417 992.829 382.083 988.862 386.05C984.896 390.017 980.229 392 974.862 392H966.112ZM1146.49 392C1141.12 392 1136.45 390.017 1132.49 386.05C1128.52 382.083 1126.54 377.417 1126.54 372.05V229.95C1126.54 224.583 1128.52 219.917 1132.49 215.95C1136.45 211.983 1141.12 210 1146.49 210H1155.59C1160.95 210 1165.62 211.983 1169.59 215.95C1173.55 219.917 1175.54 224.583 1175.54 229.95V372.05C1175.54 377.417 1173.55 382.083 1169.59 386.05C1165.62 390.017 1160.95 392 1155.59 392H1146.49ZM1146.49 171.5C1141.12 171.5 1136.45 169.517 1132.49 165.55C1128.52 161.583 1126.54 156.917 1126.54 151.55V149.45C1126.54 144.083 1128.52 139.417 1132.49 135.45C1136.45 131.483 1141.12 129.5 1146.49 129.5H1155.59C1160.95 129.5 1165.62 131.483 1169.59 135.45C1173.55 139.417 1175.54 144.083 1175.54 149.45V151.55C1175.54 156.917 1173.55 161.583 1169.59 165.55C1165.62 169.517 1160.95 171.5 1155.59 171.5H1146.49ZM1254.25 392C1248.88 392 1244.21 390.017 1240.25 386.05C1236.28 382.083 1234.3 377.417 1234.3 372.05V229.95C1234.3 224.583 1236.28 219.917 1240.25 215.95C1244.21 211.983 1248.88 210 1254.25 210H1258.8C1264.4 210 1269.06 211.983 1272.8 215.95C1276.76 219.683 1278.86 224.35 1279.1 229.95V232.4C1279.1 232.633 1279.21 232.75 1279.45 232.75C1279.68 232.75 1279.91 232.633 1280.15 232.4C1296.01 215.133 1314.56 206.5 1335.8 206.5C1357.03 206.5 1372.43 212.567 1382 224.7C1391.8 236.6 1396.7 256.55 1396.7 284.55V372.05C1396.7 377.417 1394.71 382.083 1390.75 386.05C1386.78 390.017 1382.11 392 1376.75 392H1370.8C1365.43 392 1360.76 390.017 1356.8 386.05C1353.06 382.083 1351.2 377.417 1351.2 372.05V288.05C1351.2 270.55 1348.86 258.65 1344.2 252.35C1339.76 245.817 1331.71 242.55 1320.05 242.55C1310.48 242.55 1301.61 246.633 1293.45 254.8C1285.28 262.967 1281.2 271.717 1281.2 281.05V372.05C1281.2 377.417 1279.21 382.083 1275.25 386.05C1271.28 390.017 1266.61 392 1261.25 392H1254.25ZM1517.34 241.5C1491.67 241.5 1478.84 260.167 1478.84 297.5C1478.84 316.867 1482.22 331.333 1488.99 340.9C1495.99 350.467 1505.44 355.25 1517.34 355.25C1527.84 355.25 1536.82 351.517 1544.29 344.05C1551.99 336.583 1555.84 327.833 1555.84 317.8V280C1555.84 269.267 1551.99 260.167 1544.29 252.7C1536.82 245.233 1527.84 241.5 1517.34 241.5ZM1502.64 390.25C1482.1 390.25 1465.3 382.083 1452.24 365.75C1439.17 349.183 1432.64 326.433 1432.64 297.5C1432.64 268.567 1438.82 246.167 1451.19 230.3C1463.79 214.433 1480.94 206.5 1502.64 206.5C1513.6 206.5 1523.29 208.483 1531.69 212.45C1540.09 216.417 1548.37 223.067 1556.54 232.4C1556.77 232.633 1557 232.75 1557.24 232.75C1557.47 232.75 1557.59 232.633 1557.59 232.4V229.95C1557.82 224.35 1559.92 219.683 1563.89 215.95C1567.85 211.983 1572.64 210 1578.24 210H1582.09C1587.45 210 1592 211.983 1595.74 215.95C1599.7 219.917 1601.69 224.583 1601.69 229.95V378C1601.69 441 1570.19 472.5 1507.19 472.5C1495.99 472.5 1484.2 471.567 1471.84 469.7C1466.24 468.767 1461.57 465.967 1457.84 461.3C1454.34 456.867 1452.59 451.733 1452.59 445.9C1452.59 441.233 1454.45 437.5 1458.19 434.7C1462.15 432.133 1466.47 431.433 1471.14 432.6C1482.34 435.4 1494 436.8 1506.14 436.8C1523.4 436.8 1536 432.25 1543.94 423.15C1551.87 414.283 1555.84 399.583 1555.84 379.05V368.2C1555.84 367.967 1555.72 367.85 1555.49 367.85C1555.25 367.85 1555.02 367.967 1554.79 368.2C1540.79 382.9 1523.4 390.25 1502.64 390.25Z" fill="#272626"/>
</svg>
