<svg width="501" height="500" viewBox="0 0 501 500" fill="none" xmlns="http://www.w3.org/2000/svg">
<path d="M287.504 492.856C288.254 491.16 290.147 489.981 291.522 488.553C312.504 466.553 333.664 444.751 354.36 422.483C360.836 416.502 365.84 409.103 368.982 400.866C372.123 392.629 373.315 383.777 372.466 375.002C371.817 371.245 370.964 367.525 369.913 363.86C364.27 369.217 359.02 374.092 353.735 379.002C345.521 386.645 337.342 394.323 329.057 401.877C324.171 406.858 317.889 410.24 311.041 411.576C304.193 412.912 297.1 412.139 290.701 409.359C284.223 406.979 278.586 402.748 274.491 397.193C270.396 391.638 268.022 385.002 267.666 378.109C267.474 377.223 267.217 376.352 266.898 375.502C260.595 380.859 254.559 385.788 248.577 390.859L124.241 496.213C123.384 496.945 122.456 497.856 121.652 498.57H287.415L287.165 498.41C286.272 497.785 286.737 494.499 287.504 492.856ZM114.063 492.856C115.537 490.936 117.317 489.271 119.331 487.928L291.397 341.95C303.135 331.986 314.819 321.968 326.45 311.897C327.887 310.895 329.013 309.509 329.7 307.897C332.482 295.774 332.876 283.225 330.86 270.952C329.075 272.202 328.11 272.737 327.289 273.612C313.2 286.219 299.183 298.933 285.022 311.469C280.332 316.19 274.264 319.302 267.693 320.357C261.122 321.413 254.386 320.358 248.452 317.343C242.399 314.486 237.332 309.891 233.898 304.145C230.464 298.399 228.817 291.761 229.167 285.076V279.291C226.578 281.184 224.685 282.451 222.917 283.88C154.05 339.021 85.1947 394.121 16.3514 449.179C13.2443 451.661 9.53016 457.197 5.45885 451.822C1.38754 446.447 7.58379 444.233 10.7087 441.733C84.0995 382.842 157.526 324.004 230.988 265.22C242.952 255.631 243.738 251.613 235.952 236.381L231.31 240.738C218.578 252.577 205.703 264.256 193.168 276.291C188.026 281.251 181.586 284.655 174.591 286.111C167.597 287.567 160.334 287.014 153.64 284.518C146.946 282.021 141.095 277.683 136.761 272.002C132.428 266.322 129.79 259.532 129.152 252.417C126.777 254.202 124.723 255.506 122.777 257.024L13.8515 341.45C11.9728 343.292 9.83034 344.845 7.4945 346.057C5.73158 346.59 3.83849 346.495 2.13751 345.789V498.66H113.849C113.433 497.742 113.237 496.74 113.274 495.733C113.311 494.726 113.581 493.741 114.063 492.856Z" fill="#CCCCCC"/>
<path d="M415.84 7.56616C412.805 17.5123 409.858 27.4763 407.198 37.5296C404.74 44.634 405.026 52.4004 407.999 59.3049C410.972 66.2094 416.418 71.7537 423.269 74.85C444.222 85.864 467.833 90.8113 491.445 89.1353V9.26254C491.183 7.51135 491.28 5.72507 491.731 4.01269C492.231 3.04407 492.862 2.14881 493.606 1.35205H415.769C416.965 2.74487 416.554 5.19123 415.84 7.56616Z" fill="#505050"/>
<path d="M259.505 179.151C259.135 188.066 256.017 196.648 250.577 203.722C231.131 228.824 208.8 251.551 184.043 271.434C180.051 275.13 174.991 277.466 169.588 278.107C164.186 278.749 158.719 277.663 153.973 275.005C149.248 272.987 145.264 269.555 142.569 265.181C139.873 260.807 138.599 255.705 138.919 250.577C139.491 244.28 142.106 238.341 146.366 233.667C174.049 207.27 204.044 183.407 235.988 162.366C238.08 160.725 240.635 159.784 243.292 159.675C245.948 159.566 248.572 160.295 250.791 161.758C253.708 163.57 256.067 166.154 257.605 169.224C259.143 172.294 259.801 175.73 259.505 179.151ZM238.113 287.38C237.699 283.433 238.205 279.443 239.593 275.725C240.981 272.007 243.213 268.662 246.113 265.952C273.219 240.951 302.301 218.181 333.075 197.865C334.003 197.275 334.86 196.686 335.878 196.079C338.566 194.138 341.823 193.147 345.137 193.26C348.45 193.373 351.632 194.584 354.181 196.704C356.648 198.793 358.393 201.607 359.169 204.746C359.945 207.884 359.712 211.187 358.503 214.186C354.609 227.153 347.424 238.891 337.646 248.256C317.788 267.819 297.547 286.989 276.933 305.754C273.829 308.947 269.751 311.016 265.342 311.637C260.933 312.257 256.442 311.394 252.577 309.183C248.516 307.073 245.058 303.964 242.528 300.15C239.997 296.337 238.478 291.942 238.113 287.38ZM366.967 299.183C361.967 304.54 356.824 309.647 352.021 315.129C350.576 317.248 349.378 319.525 348.449 321.915C351.092 322.7 354.181 324.772 356.324 324.04C367.234 320.379 377.877 315.986 389.859 311.361C387.252 317.361 385.288 322.897 382.52 327.968C371.117 347.131 356.838 364.427 340.182 379.252C333.848 385.359 327.271 391.198 320.45 396.77C316.838 399.767 312.494 401.752 307.863 402.52C303.232 403.288 298.48 402.812 294.094 401.141C289.707 399.47 285.843 396.663 282.897 393.009C279.951 389.354 278.028 384.983 277.326 380.342C277.04 377.761 277.268 375.149 277.998 372.657C278.727 370.166 279.943 367.843 281.576 365.824C305.876 339.437 333.647 316.471 364.127 297.558C364.498 297.414 364.891 297.336 365.288 297.326L366.967 299.183Z" fill="#505050"/>
<path d="M407.93 228.06L438.482 92.3496L459.91 97.3673L448.857 130.956C438.536 162.205 428.09 193.454 418.019 224.739C416.054 230.524 413.483 231.596 407.93 228.06ZM373.431 307.879C376.663 295.54 379.877 284.13 382.591 272.595C385.236 261.408 390.268 250.925 397.341 241.863C401.68 236.167 406.555 238.435 411.537 239.667C416.144 240.792 417.304 244.167 417.501 248.595C418.227 260.842 414.498 272.937 407.001 282.648C398.076 293.712 386.54 302.383 373.431 307.879Z" fill="#505050"/>
<path d="M500.766 15.9764C501.033 11.9995 500.931 8.00641 500.463 4.04818C500.094 2.94253 499.365 1.99289 498.391 1.35182C497.599 0.70727 496.671 0.249528 495.677 0.0125734C495.106 -0.0945664 494.302 0.494701 493.534 1.33396C492.79 2.13072 492.159 3.02599 491.659 3.9946C491.209 5.70699 491.111 7.49326 491.374 9.24446V89.0993C467.761 90.7754 444.15 85.828 423.197 74.814C416.347 71.7178 410.901 66.1734 407.928 59.2689C404.954 52.3644 404.668 44.5981 407.126 37.4937C409.787 27.4404 412.733 17.4764 415.769 7.53022C416.483 5.15529 416.894 2.70893 415.769 1.31611C415.143 0.63807 414.279 0.228526 413.358 0.173284C412.178 0.186007 411.036 0.587729 410.108 1.31611C408.773 2.11484 407.709 3.29706 407.055 4.70887C403.483 15.4229 400.34 26.244 397.608 37.1722C396.577 41.4787 396.299 45.9313 396.787 50.3326C397.478 58.2962 400.44 65.8943 405.32 72.2247C410.201 78.5551 416.796 83.352 424.322 86.0459C427.697 87.4565 429.679 88.8494 428.733 93.2957C427.429 98.9384 426.161 104.581 424.876 110.242C416.126 148.598 407.424 186.972 398.769 225.363C398.525 227.075 397.772 228.674 396.608 229.953C390.904 234.487 386.111 240.061 382.484 246.381C377.861 254.72 374.663 263.773 373.02 273.166C372.705 276.162 371.622 279.026 369.876 281.481C368.131 283.937 365.782 285.901 363.056 287.183C355.61 290.951 348.771 295.826 340.503 300.897C341.054 290.955 340.947 280.987 340.181 271.059C339.552 268.004 339.686 264.842 340.57 261.852C341.455 258.862 343.063 256.136 345.253 253.916C356.144 243.127 363.907 229.588 367.716 214.739C368.854 211.297 369.166 207.635 368.627 204.05C368.088 200.465 366.713 197.057 364.613 194.102C362.513 191.146 359.747 188.727 356.539 187.038C353.331 185.35 349.77 184.44 346.146 184.382C340.277 184.317 334.514 185.954 329.557 189.097C312.518 200.732 295.775 212.795 279.344 225.274C269.576 232.631 260.38 240.774 250.916 248.488C250.508 248.05 250.155 247.564 249.863 247.041C249.682 245.727 249.327 244.442 248.809 243.22C240.899 231.006 246.381 222.131 254.97 213.007C263.918 203.627 268.862 191.131 268.755 178.168C269.032 171.563 266.964 165.074 262.916 159.847C260.759 157.194 258.102 154.992 255.095 153.365C250.823 151.028 245.939 150.052 241.097 150.569C236.255 151.086 231.688 153.071 228.006 156.258L223.024 159.829C211.649 167.972 200.132 175.9 189.186 184.615C173.206 197.373 157.57 210.556 142.294 224.149C135.152 230.452 129.937 239.059 122.527 244.916C83.8851 275.433 44.8327 305.397 5.92304 335.557C4.58512 336.355 3.35492 337.321 2.26243 338.432C2.14996 338.594 2.05423 338.768 1.97672 338.949C1.15531 340.86 0.458906 344.021 1.42316 345.181C1.65953 345.433 1.94521 345.634 2.26243 345.771C3.96341 346.477 5.8565 346.571 7.61942 346.039C9.95526 344.827 12.0977 343.274 13.9764 341.432L122.902 257.005C124.848 255.488 126.902 254.113 129.277 252.398C129.915 259.514 132.553 266.304 136.886 271.984C141.219 277.664 147.071 282.003 153.765 284.5C160.459 286.996 167.722 287.548 174.716 286.093C181.711 284.637 188.151 281.233 193.293 276.273C205.792 264.237 218.703 252.559 231.435 240.72L236.077 236.363C243.863 251.595 243.077 255.613 231.113 265.202C157.591 324.033 84.1232 382.877 10.7086 441.732C7.5837 444.232 1.40531 446.5 5.45877 451.821C9.51222 457.143 13.2443 451.661 16.3513 449.178C85.2303 394.168 154.062 339.086 222.845 283.933C224.631 282.505 226.506 281.237 229.095 279.344V285.13C228.745 291.814 230.392 298.452 233.826 304.198C237.261 309.944 242.327 314.539 248.38 317.396C254.314 320.411 261.051 321.466 267.622 320.411C274.193 319.355 280.26 316.243 284.951 311.522C299.111 299.022 313.129 286.272 327.218 273.666C328.11 272.862 329.146 272.255 330.789 271.005C332.804 283.279 332.41 295.827 329.628 307.95C328.942 309.562 327.815 310.948 326.378 311.95C314.736 322.009 303.052 332.027 291.326 342.003L119.331 487.999C117.317 489.342 115.537 491.007 114.063 492.927C113.592 493.803 113.328 494.775 113.291 495.768C113.254 496.762 113.445 497.751 113.849 498.659C114.655 499.264 115.588 499.679 116.577 499.874C117.567 500.068 118.587 500.038 119.563 499.784C120.333 499.561 121.041 499.164 121.634 498.624C122.527 497.909 123.42 496.999 124.223 496.266L248.559 390.912C254.541 385.841 260.577 380.841 266.88 375.556C267.199 376.405 267.456 377.276 267.648 378.163C268.005 385.055 270.378 391.691 274.473 397.246C278.568 402.802 284.205 407.032 290.683 409.412C297.082 412.192 304.175 412.965 311.023 411.629C317.871 410.293 324.153 406.911 329.039 401.93C337.324 394.376 345.503 386.698 353.717 379.055C359.074 374.145 364.252 369.216 369.895 363.913C370.946 367.578 371.799 371.298 372.448 375.056C373.269 383.801 372.063 392.619 368.922 400.822C365.782 409.026 360.793 416.396 354.342 422.358C333.646 444.643 312.486 466.446 291.504 488.427C290.129 489.856 288.237 491.034 287.487 492.731C286.737 494.427 286.254 497.749 287.147 498.463L287.397 498.624C289.27 499.534 291.375 499.852 293.433 499.534C294.009 499.416 294.523 499.092 294.879 498.624C295.379 498.106 295.861 497.463 296.343 496.981C313.343 479.41 330.432 461.928 347.306 444.232C354.118 437.331 360.521 430.039 366.484 422.394C374.26 413.785 379.416 403.136 381.346 391.697C383.275 380.258 381.898 368.507 377.377 357.824C376.891 355.442 377.366 352.965 378.698 350.931C379.859 348.931 381.145 346.985 382.466 345.056C386.694 339.567 390.216 333.568 392.948 327.2C398.228 311.571 406.332 297.045 416.858 284.344C421.697 278.209 425.026 271.022 426.577 263.364C428.128 255.706 427.857 247.79 425.786 240.256C425.055 237.391 425.055 234.389 425.786 231.524C434.822 203.543 444.125 175.65 453.339 147.741L465.66 110.349L469.464 98.7955C477.57 98.7955 485.213 98.6348 492.82 98.7955C499.141 98.9741 501.07 96.0099 500.998 89.8672C500.623 65.225 500.766 40.6007 500.766 15.9764ZM184.043 271.434C180.051 275.129 174.99 277.465 169.588 278.107C164.186 278.748 158.719 277.662 153.972 275.005C149.248 272.986 145.264 269.554 142.569 265.18C139.873 260.806 138.598 255.705 138.919 250.577C139.491 244.279 142.106 238.341 146.366 233.667C174.049 207.269 204.043 183.407 235.988 162.365C237.731 161.133 239.715 160.281 241.809 159.865C243.214 159.606 244.654 159.606 246.059 159.865C247.741 160.193 249.347 160.835 250.791 161.758C253.711 163.571 256.071 166.158 257.61 169.231C259.148 172.305 259.804 175.744 259.505 179.168C259.135 188.083 256.016 196.666 250.577 203.739C231.13 228.835 208.799 251.556 184.043 271.434ZM276.898 305.879C273.793 309.071 269.715 311.141 265.306 311.761C260.897 312.382 256.406 311.519 252.541 309.307C248.473 307.192 245.01 304.076 242.479 300.252C239.949 296.428 238.434 292.022 238.077 287.451C237.663 283.504 238.169 279.514 239.558 275.796C240.946 272.078 243.177 268.733 246.077 266.023C273.183 241.022 302.265 218.252 333.039 197.936C333.967 197.346 334.824 196.757 335.842 196.15C338.53 194.209 341.787 193.218 345.101 193.331C348.414 193.444 351.596 194.655 354.145 196.775C356.612 198.864 358.357 201.678 359.133 204.817C359.909 207.955 359.676 211.258 358.467 214.257C354.573 227.224 347.388 238.962 337.61 248.327C317.914 268.005 297.433 286.951 276.933 305.808L276.898 305.879ZM382.448 328.039C371.062 347.171 356.807 364.443 340.181 379.252C333.848 385.359 327.271 391.198 320.45 396.769C316.838 399.767 312.494 401.751 307.863 402.519C303.232 403.287 298.48 402.812 294.094 401.141C289.707 399.469 285.843 396.663 282.897 393.009C279.951 389.354 278.028 384.982 277.326 380.341C277.04 377.761 277.268 375.149 277.997 372.657C278.727 370.165 279.943 367.843 281.576 365.824C305.876 339.436 333.647 316.471 364.127 297.558C364.498 297.414 364.891 297.335 365.288 297.326L367.074 299.111C362.074 304.468 356.931 309.575 352.128 315.057C350.683 317.176 349.485 319.453 348.556 321.843C351.199 322.628 354.288 324.7 356.431 323.968C365.056 321.075 373.538 317.718 382.627 314.147L389.966 311.289C387.216 317.361 385.252 322.896 382.484 327.968L382.448 328.039ZM406.965 282.772C400.305 291.252 391.956 298.257 382.448 303.343C379.508 304.986 376.49 306.522 373.395 307.95C376.573 295.79 379.752 284.522 382.448 273.13L382.555 272.666C385.201 261.479 390.232 250.996 397.305 241.934C401.644 236.238 406.519 238.506 411.501 239.738C416.108 240.863 417.269 244.238 417.465 248.666C418.197 260.902 414.481 272.99 407.001 282.701L406.965 282.772ZM448.75 130.991C438.429 162.24 427.983 193.489 417.911 224.774C416.019 230.649 413.447 231.72 407.894 228.185L434.375 110.456L438.447 92.385L459.875 97.4027L455.571 110.456L448.75 130.991Z" fill="#272626"/>
</svg>
