<svg width="2824" height="500" viewBox="0 0 2824 500" fill="none" xmlns="http://www.w3.org/2000/svg">
<path d="M291.673 75.0002C213.893 75.0002 165.276 113.89 145.834 191.671C175.003 152.775 209.032 138.193 247.922 147.92C270.107 153.465 285.968 169.564 303.524 187.384C332.119 216.404 365.216 250.003 437.507 250.003C515.287 250.003 563.898 211.113 583.341 133.333C554.177 172.228 520.148 186.81 481.258 177.083C459.068 171.539 443.212 155.44 425.656 137.619C397.055 108.599 363.964 75.0002 291.673 75.0002ZM145.834 250.003C68.0591 250.003 19.4423 288.893 0 366.673C29.169 327.778 63.193 313.196 102.083 322.923C124.273 328.467 140.135 344.566 157.685 362.381C186.285 391.412 219.382 425 291.673 425C369.448 425 418.059 386.116 437.507 308.335C408.338 347.231 374.308 361.813 335.424 352.086C313.234 346.541 297.372 330.442 279.817 312.622C251.222 283.602 218.124 250.003 145.834 250.003Z" fill="url(#paint0_linear_1390_337)"/>
<path d="M874.97 222.472H824.069V320.997C824.069 347.269 841.31 346.861 874.97 345.217V385.034C806.828 393.243 779.733 374.364 779.733 320.997V222.478H741.969V179.786H779.733V124.648L824.069 111.517V179.786H874.97V222.478V222.472ZM1069.01 179.786H1113.34V385.034H1069.01V355.479C1053.41 377.238 1029.19 390.374 997.174 390.374C941.341 390.374 894.953 343.164 894.953 282.41C894.953 221.247 941.341 174.451 997.168 174.451C1029.19 174.451 1053.41 187.582 1069.01 208.933V179.786ZM1004.15 348.091C1041.09 348.091 1069.01 320.588 1069.01 282.41C1069.01 244.232 1041.09 216.729 1004.15 216.729C967.205 216.729 939.288 244.232 939.288 282.41C939.288 320.588 967.205 348.091 1004.15 348.091ZM1187.23 148.995C1171.63 148.995 1158.91 135.864 1158.91 120.676C1158.92 113.168 1161.91 105.972 1167.22 100.663C1172.53 95.3544 1179.72 92.3656 1187.23 92.351C1194.74 92.3656 1201.94 95.3544 1207.25 100.663C1212.55 105.972 1215.54 113.168 1215.56 120.676C1215.56 135.864 1202.83 148.995 1187.23 148.995ZM1165.07 385.034V179.786H1209.39V385.034H1165.07ZM1260.71 385.034V85.3718H1305.05V385.034H1260.71ZM1592.81 179.786H1639.6L1575.15 385.034H1531.64L1488.95 246.698L1445.85 385.034H1402.33L1337.88 179.786H1384.68L1424.5 321.41L1467.6 179.786H1509.88L1552.58 321.41L1592.81 179.786ZM1694.61 149.001C1679.01 149.001 1666.28 135.864 1666.28 120.676C1666.3 113.168 1669.29 105.972 1674.6 100.663C1679.9 95.3544 1687.1 92.3656 1694.61 92.351C1702.12 92.3656 1709.31 95.3544 1714.62 100.663C1719.93 105.972 1722.92 113.168 1722.93 120.676C1722.93 135.864 1710.21 148.995 1694.61 148.995V149.001ZM1672.44 385.034V179.786H1716.78V385.034H1672.44ZM1876.05 174.446C1922.02 174.446 1954.87 205.645 1954.87 259.012V385.034H1910.53V263.525C1910.53 232.331 1892.47 215.912 1864.56 215.912C1835.41 215.912 1812.42 233.148 1812.42 275.023V385.034H1768.09V179.786H1812.42V206.059C1825.97 184.707 1848.13 174.446 1876.05 174.446ZM2165.04 97.686H2209.38V385.034H2165.04V355.479C2149.44 377.238 2125.22 390.374 2093.21 390.374C2037.38 390.374 1990.99 343.164 1990.99 282.41C1990.99 221.247 2037.38 174.451 2093.2 174.451C2125.22 174.451 2149.44 187.582 2165.04 208.933V97.686ZM2100.18 348.091C2137.12 348.091 2165.04 320.588 2165.04 282.41C2165.04 244.232 2137.12 216.729 2100.18 216.729C2063.24 216.729 2035.32 244.232 2035.32 282.41C2035.32 320.588 2063.24 348.091 2100.18 348.091ZM2357.97 390.374C2295.99 390.374 2249.6 343.164 2249.6 282.41C2249.6 221.247 2295.99 174.451 2357.97 174.451C2398.21 174.451 2433.1 195.383 2449.52 227.404L2411.34 249.572C2402.31 230.279 2382.19 217.959 2357.57 217.959C2321.44 217.959 2293.94 245.467 2293.94 282.41C2293.94 319.353 2321.44 346.861 2357.57 346.861C2382.19 346.861 2402.31 334.133 2412.16 315.248L2450.34 337.007C2433.1 369.437 2398.21 390.374 2357.97 390.374ZM2523.41 236.436C2523.41 273.787 2633.83 251.211 2633.83 327.154C2633.83 368.201 2598.12 390.374 2553.78 390.374C2512.74 390.374 2483.18 371.897 2470.04 342.342L2508.22 320.175C2514.79 338.651 2531.21 349.73 2553.78 349.73C2573.49 349.73 2588.68 343.164 2588.68 326.745C2588.68 290.211 2478.25 310.735 2478.25 237.258C2478.25 198.666 2511.51 174.451 2553.37 174.451C2587.03 174.451 2614.95 190.048 2629.32 217.143L2591.97 238.074C2584.57 222.069 2570.21 214.682 2553.37 214.682C2537.36 214.682 2523.41 221.656 2523.41 236.436ZM2712.65 236.436C2712.65 273.787 2823.07 251.211 2823.07 327.154C2823.07 368.201 2787.36 390.374 2743.03 390.374C2701.98 390.374 2672.42 371.897 2659.28 342.342L2697.46 320.175C2704.02 338.651 2720.45 349.73 2743.03 349.73C2762.73 349.73 2777.92 343.164 2777.92 326.745C2777.92 290.211 2667.5 310.735 2667.5 237.258C2667.5 198.666 2700.74 174.451 2742.62 174.451C2776.27 174.451 2804.19 190.048 2818.56 217.143L2781.2 238.074C2773.81 222.069 2759.44 214.682 2742.62 214.682C2726.61 214.682 2712.65 221.656 2712.65 236.436Z" fill="#272626"/>
<defs>
<linearGradient id="paint0_linear_1390_337" x1="-1620.52" y1="11275" x2="48760.2" y2="40324" gradientUnits="userSpaceOnUse">
<stop stop-color="#505050"/>
<stop offset="1" stop-color="#CCCCCC"/>
</linearGradient>
</defs>
</svg>
