<svg width="1326" height="500" viewBox="0 0 1326 500" fill="none" xmlns="http://www.w3.org/2000/svg">
<path d="M299.158 69.4348C302.341 69.4349 305.398 70.6785 307.677 72.9003C309.956 75.1222 311.277 78.1465 311.358 81.3283L311.362 81.6385V221.329C311.362 224.512 310.119 227.57 307.897 229.849C305.675 232.129 302.651 233.45 299.468 233.531L299.158 233.535H185.251C182.068 233.536 179.01 232.292 176.731 230.07C174.451 227.847 173.13 224.822 173.05 221.639L173.048 221.329V81.6385C173.048 78.4556 174.292 75.3988 176.514 73.1196C178.735 70.8404 181.759 69.519 184.941 69.437L185.251 69.4348H299.158ZM299.158 74.8635H185.251C183.496 74.8639 181.809 75.5446 180.545 76.7625C179.281 77.9805 178.538 79.6409 178.472 81.3951L178.466 81.6385V221.329C178.468 223.086 179.151 224.774 180.371 226.038C181.591 227.302 183.252 228.045 185.008 228.111L185.251 228.115H299.158C300.915 228.112 302.602 227.429 303.865 226.209C305.129 224.989 305.872 223.328 305.938 221.573L305.942 221.329V81.6385C305.939 79.8407 305.223 78.1174 303.951 76.8472C302.678 75.5769 300.954 74.8635 299.156 74.8635H299.158ZM201.52 199.632V207.762H193.382V199.632H201.52ZM292.385 199.632V207.762H205.594V199.632H292.381H292.385ZM201.52 164.374V172.504H193.382V164.374H201.52ZM292.385 164.374V172.504H205.594V164.374H292.381H292.385ZM201.52 130.47V138.598H193.382V130.47H201.52ZM292.385 130.47V138.598H205.594V130.47H292.381H292.385ZM292.385 99.2773V107.416H193.379V99.2751H292.381L292.385 99.2773ZM299.158 261.997V262.083C302.327 262.082 305.372 263.315 307.649 265.519C309.926 267.723 311.256 270.727 311.358 273.894L311.362 274.203V413.893C311.362 417.077 310.119 420.134 307.897 422.413C305.675 424.693 302.651 426.014 299.468 426.095L299.158 426.099H185.251C182.079 426.099 179.031 424.864 176.753 422.655C174.476 420.446 173.148 417.437 173.052 414.266L173.048 413.893V274.203C173.048 271.02 174.292 267.963 176.514 265.684C178.735 263.404 181.759 262.083 184.941 262.001L185.251 261.999H299.158V261.997ZM299.158 267.428H185.251C183.496 267.428 181.809 268.109 180.545 269.327C179.281 270.545 178.538 272.205 178.472 273.959L178.466 274.203V413.893C178.468 415.65 179.151 417.338 180.371 418.602C181.591 419.866 183.252 420.609 185.008 420.675L185.251 420.679H299.158C300.908 420.676 302.589 419.999 303.852 418.788C305.115 417.577 305.862 415.926 305.938 414.178L305.942 413.936V274.246C305.939 272.49 305.256 270.804 304.037 269.542C302.817 268.279 301.156 267.538 299.402 267.475L299.158 267.471V267.428ZM201.52 392.226V400.367H193.382V392.226H201.52ZM292.385 392.291V400.304H205.594V392.291H292.381H292.385ZM201.52 356.968V365.107H193.382V356.968H201.52ZM292.385 357.03V365.044H205.594V357.03H292.381H292.385ZM201.52 323.073V331.203H193.382V323.073H201.52ZM292.385 323.138V331.141H205.594V323.134H292.381L292.385 323.138ZM292.385 291.88V300.019H193.379V291.88H292.381H292.385ZM332.008 151.485V158.258H372.686V342.511H332.008V349.295H379.47V151.485H372.686H332.008Z" fill="#7A7979"/>
<path d="M42.1638 31.8718C50.184 18.716 63.398 11.0426 76.7456 6.58766L78.5659 5.99956L80.3841 5.45023C81.2931 5.18526 82.2001 4.93322 83.1049 4.69625L84.9079 4.2374C85.2095 4.16416 85.509 4.09092 85.8062 4.02198L87.5943 3.61268L88.4796 3.42095L90.2418 3.0612L91.9846 2.73376L93.7036 2.43216L95.399 2.16073L97.0642 1.913L98.6993 1.69326L100.3 1.49723L101.864 1.32274L103.389 1.16979L105.595 0.975907L107.695 0.825111L109.682 0.713092L111.84 0.62046L113.815 0.56445L115.022 0.545062L116.133 0.536445H117.148L118.477 0.553679L119.227 0.568759L120.595 0.616152L121.198 0.646311V33.2053C92.4003 30.4651 79.5504 39.1639 73.8848 48.4335L73.3742 49.3038C72.67 50.558 72.0615 51.8636 71.5539 53.2094L71.248 54.0625C71.1984 54.2025 71.151 54.3425 71.1058 54.4847L70.8452 55.3249L70.6125 56.1499L70.41 56.9599C70.3777 57.0935 70.3454 57.227 70.3174 57.3584L70.1515 58.1447L70.0782 58.5325L69.949 59.2865L69.837 60.0189L69.7486 60.7277L69.6474 61.7401L69.5806 62.6858L69.5483 63.4269L69.5332 64.1141V64.7388L69.544 65.2989L69.5655 65.7944L69.6022 66.3976L69.6711 67.1085V79.0709L69.6 103.493L69.5138 121.093L69.4147 135.897L69.307 148.407L69.1993 158.258L69.0744 167.849L68.9451 176.024L68.7814 184.686L68.6802 189.199L68.5703 193.465L68.4281 198.215L68.3786 199.701L68.3743 202.45L68.3592 204.132L68.3398 205.27L68.2967 206.989L68.2278 208.652L68.1718 209.664L68.1071 210.681L68.0253 211.702L67.8788 213.236L67.7625 214.261L67.6267 215.289L67.4738 216.317L67.3898 216.829L67.2067 217.855L67.1076 218.367L66.8922 219.391L66.6552 220.412L66.3945 221.431C66.3019 221.769 66.2071 222.107 66.1059 222.443L65.7913 223.456L65.451 224.457L65.0804 225.455C60.9099 236.232 51.4657 245.829 30.0851 250.274C50.8863 254.593 60.3885 263.781 64.7293 274.186L65.1257 275.181C65.5091 276.18 65.8474 277.189 66.1446 278.203L66.4311 279.22C66.6121 279.899 66.7758 280.581 66.9266 281.266L67.1377 282.292L67.2347 282.807L67.4156 283.834L67.5772 284.864L67.7172 285.894L67.8422 286.923L67.9499 287.951L68.0404 288.976L68.1179 290L68.2105 291.527L68.2579 292.54L68.3161 294.237L68.3419 295.357L68.3613 296.471L68.3743 298.119L68.3786 300.855L68.5251 305.624L68.6543 310.661L68.7749 316.059L68.8827 321.777L69.0011 328.786L69.1605 340.365L69.2683 350.178L69.3243 355.697L69.4384 369.799L69.5634 390.72L69.6496 413.364L69.6819 413.344V433.428L69.6496 433.712L69.6108 434.139L69.5871 434.522L69.5548 435.235L69.544 435.798V436.422L69.5591 437.11L69.5914 437.851L69.656 438.786L69.7185 439.443L69.8434 440.481L69.9511 441.205L70.0782 441.948L70.229 442.713L70.3109 443.1L70.4962 443.893L70.5996 444.294L70.8236 445.108L71.0778 445.933C71.1209 446.073 71.1683 446.213 71.2157 446.351L71.5151 447.191C71.6185 447.474 71.7305 447.758 71.8447 448.042L72.2109 448.895C76.7348 459.037 88.6628 469.992 119.518 467.48L121.209 467.329V499.89L120.345 499.933L118.742 499.978L117.424 500H115.858L114.684 499.989L113.413 499.963L112.051 499.925L110.28 499.854L109.031 499.791L107.734 499.714L106.386 499.621L104.994 499.513L103.559 499.384L102.084 499.24L100.569 499.074L99.0203 498.886L97.4391 498.677C97.1718 498.64 96.9047 498.602 96.6377 498.563L95.0134 498.318L94.1905 498.188L92.5274 497.904C92.2472 497.855 91.9672 497.804 91.6873 497.753L89.9919 497.426C89.7066 497.369 89.4215 497.312 89.1367 497.253L87.4133 496.887L85.6792 496.486C85.0975 496.349 84.5159 496.206 83.9321 496.056L82.1742 495.592C66.0391 491.194 49.0853 482.499 40.3672 465.461C42.2586 444.518 50.8712 426.664 66.3407 415.55C67.0688 415.037 67.8055 414.538 68.5531 414.057L69.3975 413.521C68.3506 414.167 67.3208 414.852 66.3105 415.572C50.8712 426.664 42.2586 444.518 40.3672 465.377C36.4853 457.54 34.4513 448.917 34.4215 440.171L34.2276 431.194L33.9756 420.311L33.6611 407.575L33.2302 391.341L32.8382 377.261L32.2953 358.827L31.6835 339.082L30.6581 308.009L30.4103 300.803C29.805 284.491 23.2583 276.547 16.4445 272.712L15.641 272.279C15.508 272.21 15.3744 272.143 15.2403 272.077L14.4368 271.697C14.1722 271.578 13.9057 271.463 13.6375 271.353L12.8426 271.043C12.5819 270.943 12.319 270.85 12.0542 270.762L11.2744 270.508C11.0159 270.431 10.7617 270.357 10.5075 270.286L9.89781 270.125L9.29893 269.98L8.70868 269.851L8.13134 269.737L7.28904 269.591L6.74402 269.511L6.21624 269.442L5.4558 269.358L4.78368 269.354L3.41144 269.339C2.69484 269.328 1.97812 269.328 1.26152 269.339L0.518311 269.358V231.2C2.30416 231.265 3.90044 231.232 5.4558 231.148L6.21624 231.062L6.74402 230.995L7.28904 230.914L8.13134 230.767L8.70868 230.653L9.29893 230.524L9.89781 230.379L10.5075 230.22L11.2744 229.996L12.0542 229.744L12.8426 229.464C20.7616 226.502 29.6973 218.891 30.4103 199.701L31.3367 172.105L32.054 149.564L32.4418 136.772L33.0363 116.251L33.4241 101.977L33.7063 91.1044L34.0618 76.5483L34.2686 67.5005L34.4215 60.3248C34.6585 49.0173 37.446 39.8381 41.8687 32.3888L42.166 31.8955L42.1638 31.8718ZM431.31 32.6689V0.112063L432.184 0.0689783L433.399 0.0323564L434.188 0.0172768L435.579 0.00219727H436.641L437.805 0.0151226L439.597 0.0517444L441.887 0.133605L443.113 0.191769L444.388 0.265013L446.393 0.400729L447.787 0.512749L449.222 0.642002L450.698 0.792798L452.208 0.960828L453.754 1.1504L455.331 1.36151L456.938 1.59848L458.573 1.85699L459.398 1.99701L461.068 2.29645L462.757 2.62389L464.463 2.97718L466.186 3.36494L467.918 3.77855C468.789 3.99398 469.663 4.22448 470.538 4.4636L472.292 4.96338C488.685 9.77807 505.538 19.164 513.454 37.3349C516.467 44.4379 518.045 52.0667 518.097 59.782L518.291 68.7586L518.543 79.6418L518.719 86.923L518.999 97.8234L519.385 112.177L519.68 122.698L520.223 141.134L520.835 160.88L521.86 191.952L522.108 199.158C522.724 215.741 529.48 223.673 536.414 227.432L537.216 227.848L537.616 228.042L538.413 228.408L539.21 228.736C539.342 228.79 539.475 228.839 539.607 228.889L540.393 229.173L540.783 229.302L541.556 229.541L541.938 229.651L543.071 229.942L543.81 230.108L544.529 230.248L545.229 230.369L545.774 230.45L546.302 230.519L547.062 230.603C548.396 230.674 549.783 230.709 551.257 230.677L552 230.655V268.824C550.354 268.767 548.707 268.785 547.062 268.878L546.561 268.929L546.039 268.994L545.229 269.11L544.387 269.257L543.81 269.371L543.219 269.5L542.62 269.644L542.011 269.804L541.63 269.912L540.854 270.149L540.464 270.278L539.676 270.56C539.543 270.609 539.411 270.659 539.279 270.711L538.482 271.04C530.884 274.313 522.784 282.092 522.11 300.323L521.18 327.903L520.464 350.447L520.077 363.241L519.482 383.765L519.094 398.038L518.812 408.911L518.457 423.467L518.25 432.515L518.097 439.688C518.037 446.398 516.845 453.049 514.573 459.363L514.301 460.102L514.314 460.171C506.197 481.142 486.555 491.002 468.42 495.59L466.641 496.026L465.758 496.23L463.998 496.618L463.125 496.797L461.393 497.137L460.534 497.296L458.832 497.594L457.992 497.732L456.329 497.99L454.696 498.221L453.095 498.427L451.527 498.611L449.997 498.774L448.509 498.916L446.355 499.093L444.976 499.19L443.005 499.306L441.152 499.388L438.89 499.457L437.602 499.479L436.417 499.487H435.344L434.386 499.477L433.55 499.461L432.531 499.431L431.648 499.395L431.34 499.377V466.819C461.488 469.688 474.157 460.02 479.405 450.285L479.857 449.412C479.999 449.124 480.137 448.831 480.266 448.542L480.643 447.676C480.762 447.39 480.876 447.101 480.984 446.814L481.292 445.963L481.568 445.119L481.695 444.701L481.927 443.876L482.13 443.064L482.309 442.269L482.462 441.493L482.591 440.739L482.701 440.007L482.791 439.296L482.892 438.284L482.94 437.646L482.992 436.597L483.007 435.912V435.287L482.996 434.723L482.974 434.229L482.953 433.809L482.901 433.2L482.869 432.915V415.059L482.918 398.435L483 381.281L483.097 366.824L483.224 352.065L483.371 338.819L483.474 331.117L483.571 324.915L483.7 317.802L483.791 313.3L483.892 309.017L483.998 304.978L484.14 300.312L484.144 297.576L484.159 295.909L484.176 294.784L484.204 293.651L484.265 291.936L484.321 290.786L484.383 289.761L484.459 288.733L484.545 287.701L484.652 286.667L484.771 285.633L484.909 284.595L484.986 284.078L485.152 283.042L485.34 282.008L485.549 280.973L485.781 279.939C486.066 278.74 486.4 277.544 486.789 276.359L487.141 275.347C487.627 274.002 488.192 272.675 488.849 271.37L489.357 270.396C494.282 261.353 503.847 253.593 522.433 249.729C498.991 244.862 489.9 233.815 486.372 221.808L486.087 220.791C485.906 220.112 485.742 219.429 485.592 218.744L485.381 217.719L485.284 217.206L485.103 216.177L484.941 215.147L484.801 214.117L484.676 213.09L484.568 212.062L484.478 211.037L484.4 210.013L484.308 208.486L484.26 207.473L484.202 205.776L484.176 204.656L484.157 203.544L484.144 201.894L484.14 199.158L484.038 195.976L483.929 191.931L483.804 186.724L483.69 181.179L483.582 175.341L483.457 167.183L483.308 155.451L483.196 144.488L483.093 131.789L482.957 109.206L482.869 84.7343C484.721 83.7132 486.516 82.5909 488.246 81.3737C496.871 75.1954 503.368 66.8672 507.748 57.0698L508.049 56.3847C503.664 66.4794 497.063 75.0554 488.216 81.3867C486.772 82.3992 485.286 83.347 483.756 84.2281L482.836 84.7451V66.5764L482.869 66.292L482.908 65.8633L482.931 65.4799L482.964 64.769L482.974 64.2067V63.582L482.959 62.8927L482.927 62.1516L482.888 61.5376L482.802 60.5596L482.675 59.5213L482.567 58.7996L482.44 58.0543L482.289 57.2895C482.263 57.1601 482.236 57.0308 482.207 56.9018L482.022 56.1112C481.989 55.9766 481.954 55.8424 481.919 55.7083L481.695 54.894L481.441 54.0689C481.397 53.9311 481.35 53.7911 481.303 53.651L481.003 52.8109C480.9 52.5308 480.788 52.2465 480.674 51.9621L480.307 51.1069C475.784 40.9669 463.856 30.0127 433.001 32.5224L431.31 32.6732V32.6689Z" fill="#272626"/>
<path d="M67.6656 77.7503C67.9888 77.9873 68.3248 78.2091 68.6609 78.4267L69.6712 79.073V67.1106L69.6389 66.8262L69.6023 66.3975L69.5764 66.0141L69.5441 65.301L69.5333 64.7409V64.1141L69.5484 63.4269L69.5807 62.6858L69.6217 62.0611L69.6755 61.4083L69.7488 60.7276L69.8371 60.0189L69.9469 59.2864L70.0762 58.5325L70.2313 57.7548L70.3175 57.3584L70.507 56.557L70.7246 55.7384L70.8453 55.3227L71.1038 54.4847L71.2481 54.0624L71.554 53.2094C72.0409 51.9233 72.6397 50.6114 73.3743 49.3038L73.8849 48.4334C79.5505 39.1638 92.4004 30.4672 121.2 33.2052V0.646268L120.597 0.616108L119.561 0.579487L118.867 0.560099L117.148 0.538556H116.136L115.022 0.545019L113.178 0.579487L111.493 0.633342L109.682 0.713049L107.695 0.827223L105.595 0.978018L104.135 1.10081L101.864 1.32269L100.3 1.49503L98.6994 1.69322L97.0643 1.91295L95.3991 2.16069L93.7037 2.43212L91.9847 2.73371L90.2419 3.06115L88.4798 3.42091C88.1837 3.4844 87.8878 3.54903 87.5922 3.61479L85.8064 4.02194C85.5091 4.09087 85.2096 4.16412 84.908 4.23736L83.105 4.69621C82.2002 4.93318 81.2954 5.18522 80.3842 5.45019L78.566 5.99952L76.7457 6.58762C63.3981 11.0426 50.1841 18.7159 42.1639 31.8718C44.7576 51.081 53.2237 67.4574 67.6656 77.7503ZM121.209 499.892V467.331C89.712 470.328 77.2929 459.641 72.4846 449.49L72.0904 448.622C71.9049 448.195 71.7297 447.764 71.5648 447.329L71.2589 446.474C71.2104 446.334 71.163 446.193 71.1167 446.052L70.856 445.212L70.6234 444.389L70.4187 443.577L70.2421 442.782L70.0891 442.006L69.9577 441.252L69.85 440.52L69.7595 439.809L69.6583 438.796L69.5915 437.851L69.5592 437.11L69.5441 436.422V435.798L69.5549 435.238L69.5764 434.742L69.598 434.322L69.6497 433.712L69.682 433.411V413.344C68.5467 414.044 67.433 414.781 66.3429 415.55C50.8713 426.664 42.2587 444.518 40.3673 465.464C49.0876 482.499 66.037 491.194 82.1743 495.592L83.9322 496.056C84.5138 496.206 85.0976 496.349 85.6793 496.486L87.4156 496.885L89.1368 497.253L90.8408 497.592C91.1251 497.648 91.4052 497.699 91.6874 497.751L93.3612 498.048L94.1906 498.186L95.8278 498.445L96.6378 498.563L98.2341 498.785L99.0204 498.886L100.571 499.074L102.084 499.24L103.559 499.384L104.994 499.513L106.386 499.621L107.734 499.714L109.031 499.791L110.884 499.882L112.051 499.925L113.415 499.963L114.686 499.989L115.858 500L117.424 499.998L118.742 499.978L119.798 499.95L121.209 499.89V499.892ZM513.455 37.3327C505.032 18.005 486.503 8.6169 469.17 4.09518L467.44 3.66003L465.721 3.25503L464.868 3.06331L463.171 2.70355L462.326 2.53552L460.654 2.21885L459.004 1.92803L457.376 1.66306L455.773 1.42179L454.198 1.20637L452.654 1.01249L451.144 0.837994L449.668 0.685044L448.231 0.549327L446.152 0.381298L444.173 0.24989L442.303 0.148642L440.549 0.0775521L439.45 0.0452387L438.126 0.0172338L436.9 0H435.784L434.778 0.00646268L433.89 0.019388L432.787 0.047393L431.977 0.0775521L431.31 0.109865V32.671C462.807 29.6723 475.226 40.3594 480.034 50.5101L480.428 51.3804C480.616 51.8113 480.79 52.2443 480.954 52.673L481.26 53.526C481.309 53.6682 481.357 53.8082 481.402 53.9504L481.663 54.7884L481.895 55.6135L482.1 56.4235L482.276 57.2205L482.429 57.9961L482.561 58.75L482.669 59.4825L482.759 60.1934L482.86 61.2059L482.927 62.1494L482.959 62.8926L482.974 63.5777V64.2024L482.964 64.7646L482.942 65.2601L482.908 65.8633L482.837 66.5785V84.7451C484.688 83.7217 486.484 82.5999 488.216 81.3845C502.216 71.363 510.598 55.7255 513.455 37.3327ZM489.601 419.184C487.453 417.657 485.204 416.278 482.869 415.057V432.913L482.901 433.197L482.938 433.624L482.964 434.007L482.996 434.721L483.007 435.283V435.908L482.992 436.595L482.94 437.644L482.893 438.281L482.791 439.294L482.701 440.005L482.593 440.737L482.462 441.491L482.309 442.267L482.13 443.064L481.927 443.874L481.695 444.699L481.568 445.117L481.292 445.961L480.984 446.814C480.876 447.099 480.762 447.387 480.644 447.676L480.269 448.54C480.137 448.831 479.999 449.122 479.855 449.41L479.405 450.283C474.157 460.02 461.488 469.686 431.34 466.816V499.375L431.822 499.401L433.21 499.451L434.914 499.481L435.948 499.487L437.714 499.477L439.024 499.453L440.435 499.412L442.184 499.343L444.05 499.246L445.355 499.162L447.4 499.011L448.815 498.886L450.271 498.744L451.764 498.583L453.293 498.399L454.853 498.197L456.445 497.969L458.061 497.719C458.334 497.676 458.606 497.63 458.879 497.583L460.534 497.294L462.208 496.978L463.052 496.81L464.754 496.452L465.609 496.262L467.333 495.857C485.764 491.39 506.033 481.56 514.316 460.168C511.038 443.079 502.783 428.626 489.601 419.184Z" fill="#444444"/>
<path d="M641.766 194.359V301H616.058V194.359H641.766ZM673.846 194.359V214.208H584.71V194.359H673.846ZM712.767 194.359L732.396 240.648L752.098 194.359H779.783L745.506 262.694V301H719.358V262.694L685.008 194.359H712.767ZM837.674 264.818H811.16V244.97H837.674C841.287 244.97 844.217 244.359 846.463 243.139C848.709 241.918 850.345 240.233 851.37 238.085C852.444 235.888 852.981 233.422 852.981 230.688C852.981 227.758 852.444 225.048 851.37 222.558C850.345 220.067 848.709 218.065 846.463 216.552C844.217 214.989 841.287 214.208 837.674 214.208H820.828V301H795.12V194.359H837.674C846.219 194.359 853.567 195.922 859.72 199.047C865.921 202.172 870.682 206.469 874.002 211.938C877.322 217.357 878.982 223.559 878.982 230.541C878.982 237.426 877.322 243.432 874.002 248.559C870.682 253.686 865.921 257.689 859.72 260.57C853.567 263.402 846.219 264.818 837.674 264.818ZM973.714 281.225V301H916.878V281.225H973.714ZM926.033 194.359V301H900.325V194.359H926.033ZM966.39 236.693V255.81H916.878V236.693H966.39ZM973.934 194.359V214.208H916.878V194.359H973.934Z" fill="#272626"/>
<path d="M1075.92 241.967V253.393C1075.92 260.863 1074.94 267.626 1072.99 273.681C1071.08 279.687 1068.3 284.838 1064.64 289.135C1061.02 293.432 1056.68 296.728 1051.6 299.022C1046.52 301.317 1040.81 302.465 1034.46 302.465C1028.26 302.465 1022.6 301.317 1017.47 299.022C1012.39 296.728 1008.02 293.432 1004.36 289.135C1000.7 284.838 997.864 279.687 995.862 273.681C993.86 267.626 992.859 260.863 992.859 253.393V241.967C992.859 234.496 993.836 227.758 995.789 221.752C997.791 215.697 1000.62 210.521 1004.29 206.225C1007.95 201.928 1012.32 198.632 1017.4 196.337C1022.47 194.042 1028.11 192.895 1034.31 192.895C1040.66 192.895 1046.38 194.042 1051.45 196.337C1056.53 198.632 1060.9 201.928 1064.56 206.225C1068.23 210.521 1071.03 215.697 1072.99 221.752C1074.94 227.758 1075.92 234.496 1075.92 241.967ZM1066.98 253.393V241.82C1066.98 235.521 1066.25 229.857 1064.78 224.828C1063.37 219.799 1061.24 215.502 1058.41 211.938C1055.63 208.373 1052.21 205.639 1048.16 203.734C1044.1 201.83 1039.49 200.878 1034.31 200.878C1029.29 200.878 1024.77 201.83 1020.76 203.734C1016.76 205.639 1013.34 208.373 1010.51 211.938C1007.73 215.502 1005.58 219.799 1004.07 224.828C1002.6 229.857 1001.87 235.521 1001.87 241.82V253.393C1001.87 259.74 1002.6 265.453 1004.07 270.531C1005.58 275.561 1007.75 279.882 1010.58 283.495C1013.42 287.06 1016.83 289.794 1020.84 291.698C1024.89 293.603 1029.43 294.555 1034.46 294.555C1039.69 294.555 1044.3 293.603 1048.3 291.698C1052.31 289.794 1055.7 287.06 1058.48 283.495C1061.27 279.882 1063.37 275.561 1064.78 270.531C1066.25 265.453 1066.98 259.74 1066.98 253.393ZM1105.97 194.359H1140.62C1147.99 194.359 1154.39 195.556 1159.81 197.948C1165.23 200.341 1169.4 203.881 1172.33 208.568C1175.31 213.207 1176.8 218.92 1176.8 225.707C1176.8 230.736 1175.73 235.302 1173.58 239.403C1171.48 243.505 1168.57 246.947 1164.86 249.73C1161.15 252.465 1156.85 254.345 1151.97 255.37L1148.82 256.542H1111.83L1111.69 248.852H1142.67C1148.24 248.852 1152.87 247.777 1156.58 245.629C1160.3 243.48 1163.08 240.648 1164.93 237.133C1166.84 233.568 1167.79 229.76 1167.79 225.707C1167.79 220.873 1166.74 216.698 1164.64 213.183C1162.59 209.618 1159.54 206.884 1155.49 204.979C1151.43 203.075 1146.48 202.123 1140.62 202.123H1114.98V301H1105.97V194.359ZM1171.82 301L1144.21 253.319L1153.88 253.246L1181.41 300.048V301H1171.82ZM1211.84 194.359H1220.92L1260.33 288.256L1299.8 194.359H1308.81L1263.77 301H1256.88L1211.84 194.359ZM1209.06 194.359H1217.04L1217.99 254.418V301H1209.06V194.359ZM1303.76 194.359H1311.74V301H1302.73V254.418L1303.76 194.359Z" fill="#7A7979"/>
</svg>
