<svg width="501" height="500" viewBox="0 0 501 500" fill="none" xmlns="http://www.w3.org/2000/svg">
<g clip-path="url(#clip0_1380_353)">
<rect x="-0.0258789" y="81" width="500" height="419" fill="#CCCCCC"/>
<path d="M0.019043 250V500H500.019V0H0.019043V250ZM402.925 230.062C414.912 232.885 425.805 239.166 434.253 248.125C438.816 253 445.644 261.953 446.222 264.156C446.378 264.812 424.66 279.375 411.472 287.516C410.988 287.844 409.035 285.812 406.91 282.625C400.488 273.266 393.722 269.203 383.394 268.469C368.253 267.484 358.488 275.391 358.566 288.656C358.486 291.902 359.211 295.118 360.675 298.016C364.019 304.938 370.285 309.078 389.644 317.469C425.457 332.844 440.753 343.016 450.269 357.422C460.925 373.531 463.285 399.25 456.128 418.453C448.16 439.203 428.457 453.359 400.785 458C392.238 459.547 371.894 459.297 362.691 457.594C342.597 454.016 323.55 444.078 311.832 431.062C307.191 426.016 298.238 412.75 298.816 411.859C299.066 411.531 301.097 410.234 303.378 408.922L321.941 398.172L336.347 389.797L339.363 394.266C343.597 400.688 352.785 409.484 358.332 412.406C374.285 420.875 396.175 419.656 407.003 409.969C411.394 406.312 413.847 400.688 413.519 395C413.519 389.219 412.785 386.625 409.769 382.297C405.863 376.766 397.972 372.047 375.425 362.281C349.628 351.125 338.472 344.297 328.394 333.312C322.05 326.082 317.357 317.556 314.644 308.328C312.769 301.25 312.285 283.5 313.753 276.422C319.05 251.438 337.925 234.109 365.019 228.984C373.816 227.281 394.316 227.922 402.941 230.047L402.925 230.062ZM285.582 250.984L285.738 271.406H220.628V456.391H174.566V271.406H109.55V251.391C109.55 240.234 109.8 230.969 110.113 230.719C110.363 230.391 149.91 230.234 197.925 230.312L285.332 230.562L285.582 250.984Z" fill="#272626"/>
</g>
<defs>
<clipPath id="clip0_1380_353">
<rect width="500" height="500" fill="white" transform="translate(0.019043)"/>
</clipPath>
</defs>
</svg>
