<svg width="501" height="500" viewBox="0 0 501 500" fill="none" xmlns="http://www.w3.org/2000/svg">
<path d="M498.508 74.0161L263.935 493.469C262.834 495.441 261.228 497.086 259.281 498.234C257.335 499.381 255.119 499.991 252.859 500C250.6 500.009 248.379 499.417 246.423 498.285C244.468 497.153 242.848 495.522 241.731 493.558L2.51822 74.0517C1.31555 71.9469 0.738183 69.5426 0.853881 67.1211C0.969578 64.6996 1.77354 62.3614 3.17142 60.3807C4.56929 58.4001 6.50309 56.8592 8.74589 55.939C10.9887 55.0188 13.4474 54.7573 15.8336 55.1853L250.656 97.1663C252.149 97.4351 253.678 97.4351 255.171 97.1663L485.085 55.2567C487.462 54.8224 489.913 55.0727 492.153 55.9786C494.394 56.8844 496.33 58.4084 497.737 60.3729C499.144 62.3373 499.963 64.6612 500.1 67.0737C500.236 69.4861 499.684 71.9055 498.508 74.0161Z" fill="url(#paint0_linear_1514_355)"/>
<path d="M362.497 0.138798L188.933 34.1412C187.543 34.4125 186.284 35.1388 185.353 36.2053C184.422 37.2719 183.873 38.6181 183.792 40.0314L173.118 220.378C173.059 221.368 173.232 222.357 173.623 223.268C174.013 224.179 174.611 224.986 175.368 225.626C176.125 226.265 177.021 226.719 177.985 226.951C178.948 227.184 179.953 227.188 180.918 226.964L229.236 215.809C230.277 215.568 231.361 215.593 232.39 215.882C233.419 216.17 234.358 216.712 235.123 217.459C235.887 218.205 236.451 219.132 236.764 220.154C237.076 221.175 237.127 222.259 236.911 223.305L222.56 293.613C222.339 294.695 222.403 295.817 222.745 296.867C223.088 297.917 223.698 298.86 224.515 299.604C225.332 300.347 226.329 300.865 227.407 301.107C228.485 301.349 229.607 301.307 230.664 300.984L260.507 291.917C261.566 291.593 262.69 291.551 263.77 291.793C264.85 292.036 265.848 292.556 266.665 293.302C267.483 294.048 268.093 294.994 268.434 296.047C268.775 297.099 268.836 298.223 268.611 299.307L245.782 409.739C244.354 416.646 253.546 420.412 257.384 414.504L259.936 410.542L401.39 128.259C401.921 127.196 402.144 126.005 402.033 124.821C401.923 123.637 401.483 122.508 400.765 121.561C400.046 120.614 399.077 119.887 397.967 119.462C396.856 119.037 395.649 118.931 394.482 119.156L344.737 128.741C343.666 128.946 342.561 128.873 341.526 128.529C340.492 128.184 339.563 127.58 338.829 126.774C338.095 125.968 337.579 124.988 337.333 123.926C337.086 122.864 337.115 121.756 337.419 120.709L369.868 8.15302C370.174 7.10249 370.204 5.99091 369.956 4.92535C369.707 3.85979 369.189 2.87615 368.45 2.06916C367.711 1.26216 366.777 0.659014 365.737 0.317795C364.698 -0.0234248 363.588 -0.0912152 362.515 0.12095L362.497 0.138798Z" fill="url(#paint1_linear_1514_355)"/>
<defs>
<linearGradient id="paint0_linear_1514_355" x1="-3.32699" y1="40.1896" x2="288.597" y2="436.646" gradientUnits="userSpaceOnUse">
<stop stop-color="#A3A2A2"/>
<stop offset="1" stop-color="#272626"/>
</linearGradient>
<linearGradient id="paint1_linear_1514_355" x1="237.16" y1="9.36286" x2="289.968" y2="371.618" gradientUnits="userSpaceOnUse">
<stop stop-color="#CCCCCC"/>
<stop offset="0.083" stop-color="#A3A2A2"/>
<stop offset="1" stop-color="#7A7979"/>
</linearGradient>
</defs>
</svg>
