<svg width="504" height="500" viewBox="0 0 504 500" fill="none" xmlns="http://www.w3.org/2000/svg">
<path d="M485.893 52.9561L382.343 3.09894C376.495 0.283361 369.917 -0.644913 363.518 0.44257C357.119 1.53005 351.216 4.57952 346.627 9.16899L7.64182 318.243C-1.47509 326.558 -1.46326 340.911 7.66547 349.212L35.3552 374.383C38.9725 377.672 43.6267 379.592 48.511 379.809C53.3952 380.027 58.2016 378.528 62.0969 375.574L470.312 65.8905C484.007 55.5024 503.677 65.2697 503.677 82.459V81.2568C503.677 75.3438 502.008 69.551 498.862 64.5445C495.716 59.538 491.221 55.5212 485.893 52.9561Z" fill="#383636"/>
<path d="M485.893 447.003L382.343 496.86C376.495 499.675 369.917 500.603 363.518 499.515C357.119 498.428 351.217 495.379 346.627 490.79L7.64182 181.716C-1.47509 173.403 -1.46326 159.048 7.66547 150.749L35.3552 125.576C38.9727 122.287 43.6271 120.368 48.5113 120.151C53.3956 119.933 58.2018 121.432 62.0969 124.387L470.312 434.068C484.007 444.456 503.677 434.689 503.677 417.498V418.702C503.677 424.615 502.008 430.408 498.862 435.414C495.716 440.421 491.22 444.437 485.893 447.003Z" fill="#272626"/>
<path d="M382.018 496.9C376.168 499.713 369.589 500.64 363.19 499.552C356.791 498.463 350.888 495.413 346.297 490.824C357.888 502.412 377.708 494.204 377.708 477.811V22.2117C377.708 5.81866 357.888 -2.38971 346.297 9.20055C350.887 4.61071 356.79 1.56047 363.19 0.471627C369.589 -0.617214 376.168 0.309149 382.018 3.12261L485.55 52.9108C490.881 55.4745 495.379 59.4914 498.528 64.4992C501.676 69.507 503.346 75.3021 503.346 81.2174V418.809C503.346 430.88 496.429 441.885 485.55 447.115L382.018 496.9Z" fill="#484747"/>
</svg>
