<svg width="1132" height="500" viewBox="0 0 1132 500" fill="none" xmlns="http://www.w3.org/2000/svg">
<path d="M250.479 6.2548e-07C201.033 -0.00349627 152.697 14.6558 111.582 42.124C70.4675 69.5922 38.4216 108.636 19.497 154.317C0.572355 199.998 -4.381 250.265 5.26331 298.762C14.9076 347.258 38.7164 391.805 73.6788 426.77C108.641 461.735 153.187 485.547 201.683 495.195C250.178 504.843 300.446 499.893 346.128 480.972C391.811 462.05 430.857 430.007 458.328 388.894C485.799 347.782 500.462 299.446 500.462 250C500.462 183.7 474.126 120.116 427.248 73.2327C380.369 26.3493 316.788 0.00703381 250.488 6.2548e-07H250.479ZM268.867 85.6436C271.961 85.9973 274.926 87.0788 277.521 88.7995C280.12 90.5675 283.524 92.6892 293.248 112.871C296.982 111.653 301.006 111.653 304.74 112.871C306.73 113.473 308.576 114.472 310.169 115.807C311.761 117.143 313.066 118.788 314.005 120.642C323.906 139.719 325.294 173.789 320.944 195.73C317.096 215.128 309.072 233.457 297.43 249.443C307.884 260.132 315.905 272.954 320.944 287.031C325.757 300.459 327.714 314.742 326.69 328.969C331.024 326.945 335.229 324.654 339.279 322.109C354.886 310.896 373.267 304.173 392.426 302.67C399.09 302.328 405.64 304.497 410.782 308.749C415.925 313.001 419.286 319.027 420.202 325.636C421.096 331.947 419.608 338.365 416.027 343.637C412.446 348.91 407.029 352.66 400.833 354.155C387.087 357.286 374.155 363.28 362.882 371.747C343.288 384.054 322.193 393.793 300.117 400.725C295.863 404.215 290.848 406.655 285.478 407.85C261.549 411.426 237.434 413.625 213.253 414.436H212.343C206.874 414.917 201.365 414.251 196.168 412.481C190.971 410.71 186.201 407.875 182.163 404.155C175.074 407.078 167.412 408.348 159.759 407.867C152.107 407.386 144.664 405.167 137.997 401.379C134.931 399.846 132.258 397.631 130.183 394.903C128.108 392.175 126.686 389.007 126.028 385.644C125.541 382.88 125.541 380.053 126.028 377.29C124.854 376.04 123.803 374.682 122.889 373.232C115.521 361.063 112.276 346.842 113.634 332.682C115.783 319.104 122.286 306.592 132.163 297.03C131.471 280.977 134.145 264.957 140.013 250C146.593 236.091 156.065 223.746 167.797 213.791C163.247 207.086 160.267 199.442 159.079 191.426C157.892 183.411 158.527 175.231 160.937 167.495C165.658 154.897 169.565 147.958 178.087 145.005C181.783 143.931 185.214 142.101 188.165 139.63C200.563 126.094 217.709 117.87 236.026 116.673C236.768 114.728 237.705 112.783 238.634 110.75C242.289 100.32 249.856 91.7203 259.735 86.7662C262.648 85.677 265.777 85.2923 268.867 85.6436ZM268.39 100.522C257.463 98.6121 246.404 132.134 246.404 132.134C237.635 131.318 228.797 132.568 220.598 135.782C212.399 138.997 205.067 144.087 199.189 150.645C194.803 154.912 189.472 158.083 183.63 159.901C181.968 160.458 179.917 160.361 174.923 173.886C167.232 194.528 187.979 217.504 187.979 217.504C173.777 227.726 162.174 241.139 154.104 256.665C147.988 271.576 145.571 287.745 147.058 303.792C147.058 303.792 129.466 319.059 128.529 334.804C127.484 345.824 129.993 356.889 135.69 366.381C136.126 367.338 136.752 368.196 137.529 368.904C138.307 369.612 139.219 370.155 140.213 370.501C141.206 370.846 142.259 370.986 143.308 370.913C144.357 370.84 145.38 370.556 146.316 370.076C146.316 370.076 134.647 383.69 145.573 389.524C156.5 395.359 172.332 397.755 181.226 388.773C187.705 382.293 188.916 367.963 191.303 362.031C191.869 360.644 193.805 364.33 195.662 366.186C197.369 367.701 199.203 369.067 201.142 370.27C199.059 371.1 197.163 372.338 195.564 373.91C193.965 375.483 192.697 377.358 191.832 379.427C190.968 381.496 190.525 383.717 190.53 385.959C190.535 388.202 190.987 390.421 191.86 392.486C193.991 397.578 201.584 400.919 214.084 400.831C237.176 399.955 260.206 397.878 283.082 394.607C287.19 393.949 290.928 391.849 293.628 388.685C315.611 382.13 336.606 372.628 356.04 360.44C368.646 351.035 383.087 344.382 398.428 340.912C401.547 340.141 404.231 338.162 405.89 335.412C407.55 332.662 408.049 329.365 407.277 326.246C406.506 323.128 404.528 320.444 401.777 318.784C399.027 317.125 395.73 316.626 392.612 317.397H392.594C376.063 318.853 360.245 324.805 346.855 334.609C322.597 349.611 310.566 348.594 310.566 348.594V347.94C308.886 345.262 318.257 321.004 307.781 292.397C296.395 260.82 278.344 253.235 280.006 250.822C293.33 233.766 302.806 214.028 307.781 192.963C311.494 174.443 310.486 143.423 302.247 127.307C300.674 124.346 286.963 132.311 286.963 132.311C282.434 121.536 276.952 111.188 270.582 101.388C269.916 100.956 269.171 100.661 268.39 100.522ZM852.309 135.281C849.787 135.13 847.26 135.497 844.884 136.36C842.509 137.222 840.335 138.562 838.496 140.296C836.658 142.03 835.194 144.122 834.194 146.443C833.195 148.764 832.681 151.265 832.684 153.792C832.883 159.141 834.564 164.328 837.539 168.777C840.515 173.225 844.667 176.76 849.533 178.987C849.49 201.762 847.315 224.483 843.036 246.853C842.727 248.047 842.599 249.281 842.656 250.513C839.031 267.733 831.906 291.186 816.754 291.186V291.292C807.498 291.292 803.405 282.019 803.405 272.763V207.956C803.267 205.384 802.593 202.869 801.428 200.572C800.262 198.274 798.63 196.246 796.636 194.615C794.641 192.984 792.329 191.788 789.846 191.101C787.363 190.415 784.764 190.254 782.216 190.629C776.752 190.629 772.023 193.414 772.023 197.295C772.862 201.452 773.388 205.665 773.596 209.901V270.456C769.247 281.471 762.219 290.912 751.567 290.912C737.776 290.912 729.175 279.155 729.175 258.699C729.175 202.122 764.164 176.574 793.973 176.574C797.863 176.574 801.841 177.307 805.368 177.307C808.886 177.307 810.46 174.991 810.46 168.052C810.51 165.694 810.049 163.353 809.106 161.192C808.164 159.03 806.763 157.098 805.001 155.531C803.24 153.963 801.159 152.797 798.902 152.112C796.645 151.427 794.267 151.24 791.931 151.565C743.964 151.565 698.42 191.664 698.42 257.293C698.42 259.777 698.534 262.208 698.711 264.604C691.866 281.767 682.017 297.572 669.627 311.28V173.347C669.472 170.8 668.793 168.313 667.631 166.041C666.47 163.769 664.851 161.762 662.877 160.145C660.904 158.528 658.617 157.337 656.161 156.645C653.705 155.953 651.133 155.777 648.605 156.126C643.142 156.126 638.421 158.902 638.421 162.792C639.047 166.959 639.36 171.166 639.358 175.38V238.623C634.638 266.398 622.863 291.664 607.118 291.664C595.732 291.664 588.607 280.278 588.607 259.07C588.649 232.218 592.488 205.506 600.011 179.729C601.584 173.807 612.971 158.151 593.708 158.151C572.88 158.151 575.179 166.018 572.863 172.684C565.053 201.55 560.644 231.231 559.726 261.121C559.726 295.288 574.074 317.68 600.373 317.68C617.223 317.68 629.44 306.303 638.89 290.559V340.461C612.962 363.225 590.181 383.336 590.181 422.949C590.181 448.144 605.934 468.14 627.875 468.14C647.88 468.14 668.708 453.607 668.708 412.597V344.325C684.847 331.297 698.475 315.434 708.922 297.516C716.763 309.362 728.918 316.646 745.175 316.646C751.648 316.631 758.037 315.178 763.88 312.393C769.723 309.607 774.875 305.558 778.962 300.539C782.184 305.617 786.669 309.77 791.978 312.594C797.287 315.417 803.238 316.813 809.249 316.646C840.897 316.646 856.712 285.635 864.067 260.396C864.456 259.645 864.792 258.805 865.083 257.859C871.331 234.112 874.778 209.715 875.356 185.166H909.514C897.928 212.739 891.285 242.136 889.889 272.012C889.889 306.542 911.927 316.832 930.35 316.832V317.203C945.379 317.203 956.765 310.184 965.401 300.124C965.296 302.516 965.714 304.903 966.625 307.118C967.536 309.333 968.919 311.323 970.678 312.949C972.437 314.574 974.529 315.797 976.808 316.532C979.088 317.267 981.5 317.496 983.877 317.203C995.264 317.203 994.892 307.938 994.892 300.345V242.937C997.668 211.925 1022.03 178.129 1033.41 178.129C1040.91 178.129 1041.65 188.313 1041.65 200.539V280.357C1041.65 300.362 1053.87 317.397 1074.71 317.397C1108.51 317.397 1125.15 282.028 1131.91 256.1C1132.03 255.176 1132.03 254.239 1131.91 253.315C1131.72 249.484 1130.26 245.824 1127.77 242.909C1125.28 239.994 1121.89 237.989 1118.13 237.208C1114.24 237.208 1110.26 240.727 1108.86 248.966C1105.34 266.275 1097.29 291.372 1081.54 291.372C1071.38 291.372 1071.38 276.839 1071.38 272.861V191.832C1071.38 173.32 1065.07 152.122 1038.77 152.122C1019.51 152.122 1005.36 168.962 994.804 191.01V173.329C994.666 170.754 993.991 168.237 992.824 165.937C991.657 163.638 990.022 161.608 988.025 159.977C986.028 158.346 983.712 157.15 981.226 156.465C978.74 155.781 976.138 155.623 973.588 156.002C968.124 156.002 963.421 158.787 963.421 162.677C964.257 166.831 964.781 171.042 964.986 175.274V243.476C964.287 245.18 963.788 246.96 963.501 248.78C959.982 266.089 953.317 291.177 935.168 291.177C924.516 291.177 919.433 281.002 919.433 269.979C919.433 230.728 937.113 184.326 937.113 179.615C938.695 170.359 922.942 157.576 918.593 157.576H898.137C891.166 157.551 884.206 157.028 877.309 156.011C876.314 150.135 873.243 144.81 868.656 141.005C864.069 137.199 858.269 135.174 852.309 135.281ZM639.35 370.35V412.394C639.35 419.89 640.932 443.423 628.344 443.423L628.697 443.228C622.403 443.228 618.513 433.973 618.513 421.658C618.231 412.127 619.939 402.641 623.528 393.807C627.117 384.973 632.5 376.984 639.35 370.35Z" fill="#272626"/>
</svg>
