<svg width="101" height="183" viewBox="0 0 101 183" fill="none" xmlns="http://www.w3.org/2000/svg">
<path d="M23.6797 182.039H23.2891L1.02344 169.148C0.632812 168.888 0.404948 168.497 0.339844 167.977L0.046875 45.125C0.111979 44.6693 0.339844 44.3112 0.730469 44.0508C51.1862 14.8841 76.5117 0.300781 76.707 0.300781C76.9674 0.300781 80.8411 2.48177 88.3281 6.84375L99.5586 13.3867L99.6562 13.4844H99.7539L99.8516 13.6797C99.8516 13.7448 99.8841 13.7773 99.9492 13.7773V13.9727C100.014 13.9727 100.047 14.0703 100.047 14.2656V14.3633C100.112 14.3633 100.145 19.2135 100.145 28.9141C100.145 29.4349 99.9167 29.8255 99.4609 30.0859L37.3516 65.9258L37.5469 131.258L63.1328 116.512V105.281L61.5703 106.16H60.8867L38.6211 93.1719C38.1654 92.9115 37.9375 92.5208 37.9375 92L37.8398 77.5469C37.9049 77.5469 37.9375 77.5143 37.9375 77.4492C37.9375 76.9935 38.1328 76.668 38.5234 76.4727C63.849 61.8242 76.6419 54.5 76.9023 54.5C77.1628 54.5 81.0039 56.681 88.4258 61.043C95.9128 65.3398 99.6888 67.5208 99.7539 67.5859L99.8516 67.6836C99.9167 67.6836 99.9492 67.7161 99.9492 67.7812L100.047 67.9766H100.145V68.0742L100.242 68.4648L100.438 137.215C100.438 137.736 100.21 138.126 99.7539 138.387C49.3633 167.488 24.0052 182.039 23.6797 182.039ZM59.9102 102.547V91.1211L40.5742 79.8906V91.3164L59.9102 102.547ZM61.2773 88.875L96.2383 68.6602L76.9023 57.332L41.8438 77.5469L61.2773 88.875ZM37.5469 156.746L83.8359 129.988L64.5 118.758L37.5469 134.383V156.746ZM85.2031 127.742L85.1055 92.5859L65.7695 103.719V116.512L85.2031 127.742ZM22.4102 178.426L22.0195 58.7969L2.68359 47.4688L2.97656 167.195L22.4102 178.426ZM23.3867 56.4531L96.1406 14.4609L76.707 3.23047L3.95312 45.2227L23.3867 56.4531ZM25.0469 178.426L97.8008 136.434L97.6055 70.9062L62.5469 91.1211C62.5469 95.6784 62.5794 99.487 62.6445 102.547C78.2695 93.4974 86.1797 88.9727 86.375 88.9727C87.2865 88.9727 87.7422 89.4284 87.7422 90.3398L87.8398 130.184C87.7747 130.639 87.5469 130.965 87.1562 131.16L36.5703 160.359C35.4635 160.359 34.9102 159.936 34.9102 159.09L34.6172 65.1445C34.6823 64.6888 34.9102 64.3307 35.3008 64.0703L97.5078 28.1328L97.4102 16.8047L24.6562 58.7969C24.8516 98.6406 24.9818 138.517 25.0469 178.426Z" fill="#272626"/>
</svg>
