<svg width="101" height="183" viewBox="0 0 101 183" fill="none" xmlns="http://www.w3.org/2000/svg">
<path d="M23.7773 182.039C23.4518 182.039 23.2891 182.007 23.2891 181.941H23.0938L1.02344 169.051C0.632812 168.79 0.404948 168.432 0.339844 167.977L0.046875 45.125C0.111979 44.6693 0.339844 44.3112 0.730469 44.0508C51.1862 14.8841 76.5443 0.300781 76.8047 0.300781C77 0.300781 80.8737 2.48177 88.4258 6.84375L99.6562 13.3867V13.4844H99.7539V13.582H99.8516L99.9492 13.7773L100.145 14.3633L100.438 137.215C100.438 137.736 100.242 138.126 99.8516 138.387C91.3229 143.27 86.9935 145.743 86.8633 145.809C86.7982 145.809 86.7005 145.809 86.5703 145.809L86.082 145.711L68.9922 135.75L69.0898 155.379C69.0247 155.835 68.7969 156.193 68.4062 156.453C59.8776 161.401 55.5482 163.908 55.418 163.973C55.3529 163.973 55.2552 163.973 55.125 163.973C54.9948 163.973 54.8646 163.973 54.7344 163.973C54.6693 163.908 54.6042 163.842 54.5391 163.777L37.5469 153.914L37.6445 173.445C37.6445 173.966 37.4167 174.357 36.9609 174.617C28.4323 179.565 24.0378 182.039 23.7773 182.039ZM22.4102 178.426L22.0195 58.7969L2.68359 47.4688L3.07422 167.195L22.4102 178.426ZM23.3867 56.4531L96.1406 14.4609L76.8047 3.23047L4.05078 45.2227L23.3867 56.4531ZM53.8555 160.262L53.5625 56.5508L37.3516 65.9258L37.5469 150.887L53.8555 160.262ZM85.2031 142.195L84.9102 38.4844L68.6992 47.7617L68.9922 132.723L85.2031 142.195Z" fill="#C5283D"/>
</svg>
