<svg width="96" height="176" viewBox="0 0 96 176" fill="none" xmlns="http://www.w3.org/2000/svg">
<path d="M20.4102 175.426L1.07422 164.195L0.683594 44.4688L20.0195 55.7969L20.4102 175.426ZM21.3867 53.4531L2.05078 42.2227L74.8047 0.230469L94.1406 11.4609L21.3867 53.4531ZM51.8555 157.262L35.5469 147.887L35.3516 62.9258L51.5625 53.5508L51.8555 157.262ZM83.2031 139.195L66.9922 129.723L66.6992 44.7617L82.9102 35.4844L83.2031 139.195ZM23.0469 175.426L22.7539 55.7969L95.5078 13.707L95.8008 133.434L85.9375 139.195L85.5469 33.1406C85.5469 32.2292 85.1237 31.7734 84.2773 31.7734C84.0169 31.7734 77.5065 35.4844 64.7461 42.9062C64.2904 43.1667 64.0625 43.5573 64.0625 44.0781L64.3555 130.504V151.598L54.4922 157.262L54.1992 51.3047C54.1992 50.3932 53.7435 49.9375 52.832 49.9375C52.5716 49.9375 46.0612 53.6159 33.3008 60.9727C32.9102 61.2982 32.7148 61.6888 32.7148 62.1445L33.0078 169.762L23.0469 175.426Z" fill="#C5283D"/>
</svg>
