<svg width="500" height="288" viewBox="0 0 500 288" fill="none" xmlns="http://www.w3.org/2000/svg">
<path d="M11.0058 11.0058C18.0549 3.95878 27.6143 0 37.5817 0C47.5492 0 57.1086 3.95878 64.1577 11.0058L250.227 197.075L436.296 11.0058C443.386 4.1585 452.881 0.369647 462.737 0.455292C472.593 0.540938 482.021 4.49422 488.99 11.4637C495.96 18.4331 499.913 27.8611 499.999 37.717C500.084 47.5729 496.295 57.0682 489.448 64.1577L276.803 276.803C269.754 283.85 260.194 287.809 250.227 287.809C240.259 287.809 230.7 283.85 223.651 276.803L11.0058 64.1577C3.95878 57.1086 0 47.5492 0 37.5817C0 27.6143 3.95878 18.0549 11.0058 11.0058Z" fill="black"/>
</svg>
