<svg width="412" height="500" viewBox="0 0 412 500" fill="none" xmlns="http://www.w3.org/2000/svg">
<path d="M340.882 176.471H294.118V29.4118C294.118 13.2353 280.882 0 264.706 0H147.059C130.882 0 117.647 13.2353 117.647 29.4118V176.471H70.8823C44.7059 176.471 31.4706 208.235 50 226.765L185 361.765C196.471 373.235 215 373.235 226.471 361.765L361.471 226.765C380 208.235 367.059 176.471 340.882 176.471ZM0 470.588C0 486.765 13.2353 500 29.4118 500H382.353C398.529 500 411.765 486.765 411.765 470.588C411.765 454.412 398.529 441.176 382.353 441.176H29.4118C13.2353 441.176 0 454.412 0 470.588Z" fill="black"/>
</svg>
