<svg width="501" height="500" viewBox="0 0 501 500" fill="none" xmlns="http://www.w3.org/2000/svg">
<path d="M250.215 0C112.083 0 0.20219 114.708 0.20219 256.33C0.172087 310.137 16.668 362.588 47.3498 406.243C78.0316 449.897 121.342 482.538 171.136 499.535C183.636 501.765 188.337 494.076 188.337 487.334C188.337 481.259 188.012 461.086 188.012 439.605C125.208 451.474 108.958 423.918 103.957 409.487C101.132 402.104 88.9566 379.368 78.3311 373.267C69.5807 368.474 57.08 356.606 78.0061 356.298C97.7071 355.965 111.758 374.882 116.458 382.572C138.959 421.329 174.886 410.435 189.262 403.719C191.462 387.058 198.012 375.856 205.212 369.448C149.585 363.04 91.4567 340.919 91.4567 242.872C91.4567 214.984 101.132 191.94 117.083 173.971C114.583 167.563 105.832 141.289 119.583 106.044C119.583 106.044 140.509 99.3278 188.337 132.343C208.689 126.552 229.718 123.637 250.84 123.679C272.091 123.679 293.342 126.55 313.343 132.317C361.17 98.9945 382.096 106.069 382.096 106.069C395.847 141.315 387.096 167.588 384.596 173.997C400.522 191.94 410.223 214.676 410.223 242.872C410.223 341.252 351.795 363.04 296.142 369.448C305.217 377.446 313.043 392.825 313.043 416.869C313.043 451.14 312.718 478.696 312.718 487.36C312.718 494.076 317.418 502.073 329.919 499.51C379.542 482.326 422.661 449.622 453.208 405.999C483.754 362.376 500.19 310.031 500.202 256.33C500.202 114.708 388.322 0 250.19 0H250.215Z" fill="black"/>
</svg>
