<svg width="501" height="500" viewBox="0 0 501 500" fill="none" xmlns="http://www.w3.org/2000/svg">
<path d="M250.202 0C183.898 0 120.31 26.3392 73.4255 73.2233C26.5414 120.107 0.202148 183.696 0.202148 250C0.202148 316.304 26.5414 379.893 73.4255 426.777C120.31 473.661 183.898 500 250.202 500C316.506 500 380.095 473.661 426.979 426.777C473.863 379.893 500.202 316.304 500.202 250C500.202 183.696 473.863 120.107 426.979 73.2233C380.095 26.3392 316.506 0 250.202 0ZM31.0355 268.889H100.758C101.869 294.167 105.397 319.278 111.313 343.889H51.3133C40.1245 320.302 33.2565 294.9 31.0355 268.889ZM269.091 118.889V33.0556C295.86 43.2285 317.856 63.0451 330.758 88.6111C336.452 98.25 341.48 108.278 345.758 118.611L269.091 118.889ZM358.535 156.389C364.98 180.917 368.813 206.056 369.924 231.389H269.091V156.389H358.535ZM231.313 33.0556V118.889H154.647C158.932 108.547 163.944 98.522 169.647 88.8889C182.493 63.2181 204.496 43.2961 231.313 33.0556ZM231.313 156.389V231.389H130.758C131.869 206.056 135.702 180.917 142.147 156.389H231.313ZM100.758 231.111H31.0355C33.2565 205.1 40.1245 179.698 51.3133 156.111H111.313C105.385 180.712 101.85 205.829 100.758 231.111ZM130.758 268.889H231.313V343.889H142.147C135.703 319.363 131.885 294.222 130.758 268.889ZM231.591 380V465.833C204.822 455.66 182.826 435.844 169.924 410.278C164.222 400.645 159.209 390.62 154.924 380.278L231.591 380ZM269.091 465.833V381.389H345.758C341.473 391.731 336.46 401.756 330.758 411.389C317.856 436.955 295.86 456.772 269.091 466.944V465.833ZM269.091 342.5V267.5H369.647C368.519 292.833 364.701 317.974 358.258 342.5H269.091ZM399.924 267.5H469.647C467.426 293.511 460.558 318.913 449.369 342.5H389.091C394.924 318.333 398.452 293.694 399.647 268.889L399.924 267.5ZM399.924 230C398.652 205.175 395.025 180.528 389.091 156.389H449.091C460.285 180 467.147 205.389 469.369 231.389L399.924 230ZM427.702 118.889H377.98C368.983 93.6195 355.943 69.9785 339.369 48.8889C373.935 64.405 403.96 88.5014 426.591 118.889H427.702ZM161.035 48.8889C144.461 69.9785 131.421 93.6195 122.424 118.889H73.8133C96.4444 88.5014 126.469 64.405 161.035 48.8889ZM73.5355 382.222H122.424C131.421 407.492 144.461 431.133 161.035 452.222C126.374 436.473 96.3396 412.082 73.8133 381.389L73.5355 382.222ZM339.091 452.222C355.665 431.133 368.706 407.492 377.702 382.222H426.591C403.822 412.203 373.809 435.907 339.369 451.111L339.091 452.222Z" fill="black"/>
</svg>
