<svg width="500" height="500" viewBox="0 0 500 500" fill="none" xmlns="http://www.w3.org/2000/svg">
<g clip-path="url(#clip0_1511_338)">
<rect width="500" height="500" fill="#C5283D"/>
<path d="M269.32 261.094L230.648 238.633V215.781L269.32 238.242V261.094ZM272.055 233.75L233.188 211.094L303.305 170.664L341.977 193.32L272.055 233.75ZM224.594 369.492V324.766L278.5 293.516L317.172 315.977L224.594 369.492ZM319.906 311.484L281.039 289.023V263.438L319.711 241.172L319.906 311.484ZM194.32 412.852L155.453 390.391L154.867 150.938L193.539 173.594L194.32 412.852ZM196.273 168.906L157.406 146.445L302.914 62.4609L341.781 84.9219L196.273 168.906ZM199.594 412.852C199.464 333.034 199.203 253.281 198.812 173.594L344.32 89.6094L344.516 112.266L220.102 184.141C219.32 184.661 218.865 185.378 218.734 186.289L219.32 374.18C219.32 375.872 220.427 376.719 222.641 376.719L323.812 318.32C324.594 317.93 325.049 317.279 325.18 316.367L324.984 236.68C324.984 234.857 324.073 233.945 322.25 233.945C321.859 233.945 306.039 242.995 274.789 261.094C274.659 254.974 274.594 247.357 274.594 238.242L344.711 197.812L345.102 328.867L199.594 412.852Z" fill="white"/>
</g>
<defs>
<clipPath id="clip0_1511_338">
<path d="M0 100C0 44.7715 44.7715 0 100 0H400C455.228 0 500 44.7715 500 100V500H100C44.7715 500 0 455.228 0 400V100Z" fill="white"/>
</clipPath>
</defs>
</svg>
