<svg width="500" height="500" viewBox="0 0 500 500" fill="none" xmlns="http://www.w3.org/2000/svg">
<rect width="500" height="500" fill="#232F3E"/>
<path d="M162.728 221.307C162.728 226.23 163.261 230.221 164.192 233.148C165.373 236.441 166.796 239.643 168.448 242.726C169.114 243.79 169.379 244.854 169.379 245.787C169.379 247.116 168.582 248.447 166.852 249.778L158.471 255.365C157.274 256.164 156.076 256.562 155.011 256.562C153.682 256.562 152.351 255.897 151.02 254.699C149.228 252.773 147.624 250.679 146.232 248.447C144.901 246.187 143.57 243.657 142.107 240.598C131.73 252.837 118.692 258.957 102.994 258.957C91.8201 258.957 82.9059 255.763 76.3866 249.379C69.8688 242.992 66.5432 234.478 66.5432 223.835C66.5432 212.528 70.5342 203.348 78.6496 196.43C86.7635 189.512 97.5406 186.053 111.243 186.053C115.766 186.053 120.423 186.452 125.344 187.117C130.268 187.783 135.323 188.847 140.644 190.044V180.333C140.644 170.221 138.515 163.171 134.39 159.047C130.134 154.923 122.949 152.926 112.706 152.926C108.049 152.926 103.261 153.46 98.3379 154.657C93.4162 155.853 88.6264 157.318 83.9699 159.18C81.8418 160.111 80.2457 160.643 79.3135 160.91C78.3828 161.177 77.7174 161.309 77.1854 161.309C75.3225 161.309 74.3918 159.978 74.3918 157.184V150.665C74.3918 148.537 74.6586 146.941 75.3225 146.01C75.9879 145.078 77.1854 144.147 79.0483 143.216C83.7047 140.821 89.2918 138.825 95.8096 137.229C102.33 135.5 109.248 134.702 116.565 134.702C132.397 134.702 143.972 138.293 151.422 145.478C158.738 152.661 162.464 163.57 162.464 178.205V221.307H162.731H162.728ZM108.715 241.529C113.106 241.529 117.629 240.732 122.417 239.134C127.207 237.538 131.465 234.611 135.056 230.62C137.185 228.093 138.782 225.3 139.579 222.106C140.378 218.914 140.91 215.055 140.91 210.531V204.944C136.875 203.962 132.789 203.207 128.67 202.683C124.522 202.156 120.346 201.889 116.165 201.884C107.251 201.884 100.733 203.614 96.3432 207.206C91.952 210.798 89.8238 215.853 89.8238 222.505C89.8238 228.757 91.4199 233.413 94.7455 236.607C97.9393 239.933 102.596 241.529 108.715 241.529ZM215.543 255.897C213.148 255.897 211.552 255.498 210.488 254.566C209.424 253.769 208.492 251.906 207.694 249.379L176.432 146.542C175.631 143.88 175.233 142.151 175.233 141.22C175.233 139.092 176.297 137.893 178.426 137.893H191.464C193.99 137.893 195.721 138.293 196.652 139.224C197.716 140.023 198.515 141.886 199.312 144.412L221.662 232.483L242.416 144.412C243.081 141.752 243.88 140.023 244.943 139.224C246.008 138.427 247.871 137.895 250.266 137.895H260.908C263.435 137.895 265.166 138.293 266.229 139.224C267.294 140.023 268.225 141.886 268.757 144.412L289.778 233.547L312.791 144.412C313.589 141.752 314.521 140.023 315.452 139.224C316.516 138.427 318.245 137.895 320.64 137.895H333.012C335.141 137.895 336.339 138.959 336.339 141.22C336.339 141.886 336.205 142.551 336.072 143.348C335.939 144.147 335.673 145.211 335.141 146.675L303.078 249.511C302.281 252.173 301.35 253.902 300.285 254.699C299.221 255.498 297.491 256.03 295.231 256.03H283.79C281.262 256.03 279.533 255.632 278.467 254.699C277.403 253.769 276.472 252.039 275.94 249.379L255.318 163.57L234.831 249.244C234.167 251.906 233.368 253.635 232.304 254.566C231.24 255.498 229.377 255.897 226.984 255.897H215.541H215.543ZM386.494 259.489C379.576 259.489 372.658 258.69 366.007 257.094C359.354 255.498 354.167 253.767 350.708 251.774C348.579 250.575 347.114 249.246 346.584 248.048C346.066 246.874 345.794 245.606 345.785 244.322V237.538C345.785 234.744 346.849 233.413 348.845 233.413C349.66 233.417 350.469 233.552 351.24 233.814C352.038 234.08 353.235 234.611 354.566 235.143C359.265 237.21 364.17 238.771 369.199 239.799C374.41 240.857 379.714 241.392 385.031 241.396C393.412 241.396 399.931 239.933 404.454 237.006C408.977 234.079 411.372 229.823 411.372 224.367C411.372 220.643 410.175 217.583 407.78 215.055C405.385 212.528 400.862 210.266 394.344 208.137L375.053 202.151C365.342 199.091 358.158 194.567 353.767 188.58C349.377 182.726 347.116 176.209 347.116 169.291C347.116 163.703 348.313 158.78 350.708 154.522C353.102 150.266 356.295 146.542 360.286 143.615C364.277 140.555 368.801 138.293 374.122 136.697C379.443 135.101 385.03 134.436 390.884 134.436C393.811 134.436 396.871 134.569 399.798 134.968C402.858 135.366 405.652 135.898 408.445 136.43C411.106 137.096 413.634 137.761 416.029 138.56C418.424 139.357 420.285 140.156 421.616 140.953C423.479 142.019 424.808 143.083 425.607 144.28C426.406 145.345 426.804 146.807 426.804 148.67V154.923C426.804 157.716 425.74 159.18 423.744 159.18C422.68 159.18 420.95 158.647 418.69 157.583C411.106 154.124 402.591 152.394 393.147 152.394C385.563 152.394 379.576 153.592 375.452 156.12C371.329 158.647 369.199 162.506 369.199 167.96C369.199 171.685 370.53 174.878 373.19 177.406C375.852 179.933 380.774 182.461 387.825 184.723L406.716 190.71C416.294 193.77 423.212 198.026 427.336 203.48C431.461 208.935 433.457 215.188 433.457 222.106C433.457 227.826 432.258 233.015 429.996 237.538C427.603 242.061 424.409 246.052 420.285 249.246C416.161 252.571 411.239 254.966 405.518 256.696C399.531 258.559 393.279 259.489 386.494 259.489Z" fill="white"/>
<path d="M411.633 316.075C367.866 348.404 304.273 365.565 249.597 365.565C172.967 365.565 103.922 337.228 51.7724 290.133C47.648 286.409 51.3722 281.354 56.2939 284.279C112.702 317.008 182.28 336.829 254.253 336.829C302.81 336.829 356.158 326.719 405.249 305.965C412.566 302.638 418.818 310.755 411.633 316.075ZM429.86 295.321C424.273 288.138 392.876 291.862 378.641 293.592C374.383 294.126 373.718 290.4 377.577 287.606C402.587 270.044 443.696 275.101 448.485 280.953C453.274 286.941 447.154 328.048 423.74 347.738C420.149 350.798 416.69 349.202 418.286 345.211C423.606 332.039 435.448 302.373 429.86 295.321Z" fill="#EC912D"/>
</svg>
