<svg width="500" height="500" viewBox="0 0 500 500" fill="none" xmlns="http://www.w3.org/2000/svg">
<rect width="500" height="500" fill="#702CF9"/>
<path d="M133.081 90.6777C110.258 90.6777 93.3688 110.654 94.125 132.318C94.8516 153.131 93.9078 180.089 87.1219 202.071C80.3156 224.118 68.8031 238.084 50 239.878V260.121C68.8031 261.915 80.3156 275.881 87.1219 297.929C93.9078 319.912 94.8516 346.867 94.125 367.681C93.3688 389.342 110.258 409.322 133.084 409.322H366.948C389.773 409.322 406.658 389.345 405.902 367.681C405.177 346.868 406.119 319.912 412.905 297.929C419.716 275.882 431.197 261.914 450 260.121V239.878C431.197 238.084 419.716 224.118 412.906 202.071C406.119 180.092 405.177 153.132 405.902 132.318C406.658 110.657 389.773 90.6777 366.948 90.6777H133.078H133.081ZM321.188 286.823C321.188 316.654 298.938 334.745 262.013 334.745H199.153C197.355 334.745 195.631 334.03 194.36 332.759C193.089 331.487 192.375 329.763 192.375 327.965V172.034C192.375 171.144 192.55 170.262 192.891 169.439C193.231 168.616 193.731 167.869 194.36 167.239C194.99 166.609 195.737 166.11 196.56 165.769C197.383 165.428 198.264 165.253 199.155 165.253H261.653C292.442 165.253 312.648 181.932 312.648 207.539C312.648 225.512 299.055 241.603 281.737 244.42V245.359C305.314 247.945 321.188 264.271 321.188 286.823ZM255.156 186.745H219.317V237.37H249.505C272.839 237.37 285.708 227.973 285.708 211.176C285.708 195.437 274.642 186.745 255.158 186.745H255.156ZM219.317 257.457V313.246H256.477C280.77 313.246 293.642 303.498 293.642 285.176C293.642 266.851 280.413 257.454 254.914 257.454H219.317V257.457Z" fill="white"/>
</svg>
