<svg width="500" height="500" viewBox="0 0 500 500" fill="none" xmlns="http://www.w3.org/2000/svg">
<rect width="500" height="500" fill="url(#paint0_linear_1391_494)"/>
<path d="M250 75C153.05 75 75 153.05 75 250C75 346.95 153.05 425 250 425C346.95 425 425 346.95 425 250C425 153.05 346.95 75 250 75ZM290.833 138.19C292.729 138.131 294.45 140.173 293.327 142.244L248.935 223.619C248.711 224.034 248.598 224.5 248.607 224.971C248.617 225.443 248.748 225.904 248.989 226.31C249.23 226.715 249.572 227.051 249.982 227.285C250.392 227.519 250.855 227.643 251.327 227.644H328.035C330.515 227.644 331.71 230.662 329.902 232.354L195.444 357.844C193.037 360.09 189.465 356.925 191.39 354.256L255.031 266.45C255.323 266.043 255.497 265.564 255.535 265.065C255.572 264.567 255.472 264.067 255.245 263.621C255.017 263.175 254.672 262.801 254.246 262.538C253.82 262.276 253.33 262.136 252.829 262.133H171.644C171.104 262.132 170.576 261.97 170.128 261.669C169.68 261.367 169.331 260.939 169.127 260.439C168.922 259.94 168.87 259.39 168.978 258.861C169.086 258.332 169.349 257.846 169.733 257.467L289.025 139.006C289.503 138.507 290.143 138.214 290.833 138.19Z" fill="white"/>
<defs>
<linearGradient id="paint0_linear_1391_494" x1="250" y1="0" x2="250" y2="500" gradientUnits="userSpaceOnUse">
<stop stop-color="#74CBD2"/>
<stop offset="0.489583" stop-color="#4EC8C4"/>
<stop offset="1" stop-color="#2FC6BA"/>
</linearGradient>
</defs>
</svg>
