<svg width="500" height="500" viewBox="0 0 500 500" fill="none" xmlns="http://www.w3.org/2000/svg">
<rect width="500" height="500" fill="#F1662A"/>
<path d="M123.775 390.013L95.7 75H404.3L376.187 389.962L249.812 425L123.775 390.013Z" fill="#1572B6"/>
<path d="M250 398.224L352.125 369.912L376.15 100.762H250V398.224Z" fill="#33A9DC"/>
<path d="M250 214.888H301.125L304.65 175.325H250V136.688H346.875L345.95 147.05L336.462 253.525H250V214.888Z" fill="white"/>
<path d="M250.237 315.225L250.062 315.275L207.037 303.65L204.287 272.838H165.5L170.912 333.5L250.05 355.475L250.237 355.425V315.225Z" fill="#EBEBEB"/>
<path d="M297.838 251.888L293.188 303.625L250.101 315.25V355.45L329.301 333.5L329.888 326.975L336.601 251.888H297.838Z" fill="white"/>
<path d="M250.138 136.688V175.325H156.813L156.038 166.638L154.276 147.05L153.351 136.688H250.138ZM250.001 214.888V253.525H207.513L206.738 244.838L204.988 225.25L204.063 214.888H250.001Z" fill="#EBEBEB"/>
</svg>
