<svg width="500" height="500" viewBox="0 0 500 500" fill="none" xmlns="http://www.w3.org/2000/svg">
<rect width="500" height="500" fill="#1D63ED"/>
<path d="M361.804 162.698L370.435 168.948C385.449 181.056 394.081 194.728 395.957 210.352C412.095 207.227 432.735 209.572 441.743 215.821L450 220.9L448.499 224.026C445.871 229.883 445.121 231.447 444.746 232.228C430.109 261.523 401.211 261.914 387.7 261.523C353.548 347.067 280.74 394.331 182.408 394.331C136.998 394.331 102.47 379.878 79.2001 351.363C48.4273 313.868 48.4273 265.038 51.053 249.415L51.8048 246.288H323.147C337.407 246.288 348.294 242.385 353.548 239.258C347.917 230.664 346.041 220.9 345.666 215.431C344.539 199.807 348.294 183.4 355.801 171.682L361.804 162.698ZM122.361 199.412V238.475H81.0785V199.417H122.361V199.412ZM171.15 199.412V238.475H129.868V199.417H171.15V199.412ZM219.94 199.412V238.475H178.655V199.417H219.942L219.94 199.412ZM268.729 199.412V238.475H227.445V199.417H268.732L268.729 199.412ZM317.519 199.412V238.475H276.234V199.417H317.519V199.412ZM268.729 152.541V191.601H227.445V152.543H268.732L268.729 152.541ZM219.94 152.541V191.601H178.655V152.543H219.942L219.94 152.541ZM171.15 152.541V191.601H129.868V152.543L171.15 152.541ZM268.729 105.67V144.73H227.445V105.67H268.729Z" fill="white"/>
</svg>
