<svg width="500" height="500" viewBox="0 0 500 500" fill="none" xmlns="http://www.w3.org/2000/svg">
<rect width="500" height="500" fill="#3A1AB6"/>
<path d="M347.739 133.907C323.497 142.166 311.822 156.979 303.873 180.054C301.819 186.215 296.689 193.034 290.916 197.624L310.797 219.385L247.69 174.287L73.5079 50C73.5079 50 86.0781 133.383 90.4391 164.063C93.5182 185.691 98.7779 195.394 115.45 205.227L122.121 208.898L150.85 224.368L133.792 215.322L212.546 259.241L212.033 260.419L127.254 220.307C131.744 236.042 140.466 266.324 144.185 279.696C148.163 294.119 152.65 299.361 166.373 304.477L191.643 313.915L207.289 307.621L187.411 321.125L88.0022 450C154.059 387.332 209.982 365.044 250.899 346.822C303.104 323.75 334.526 308.935 355.049 255.705C369.673 218.342 381.085 170.489 395.582 152.002L426.492 111.622C426.492 111.622 362.489 128.924 347.739 133.907Z" fill="white"/>
</svg>
