<svg width="500" height="500" viewBox="0 0 500 500" fill="none" xmlns="http://www.w3.org/2000/svg">
<rect width="500" height="500" fill="#272626"/>
<path d="M191.667 425.001C223.867 425.001 250 398.867 250 366.667V308.334H191.667C159.467 308.334 133.333 334.467 133.333 366.667C133.333 398.867 159.467 425.001 191.667 425.001Z" fill="#0ACF83"/>
<path d="M133.333 249.999C133.333 217.799 159.467 191.666 191.667 191.666H250V308.333H191.667C159.467 308.333 133.333 282.199 133.333 249.999Z" fill="#A259FF"/>
<path d="M133.333 133.333C133.333 101.133 159.467 75 191.667 75H250V191.667H191.667C159.467 191.667 133.333 165.533 133.333 133.333Z" fill="#F24E1E"/>
<path d="M250 75H308.333C340.533 75 366.667 101.133 366.667 133.333C366.667 165.533 340.533 191.667 308.333 191.667H250V75Z" fill="#FF7262"/>
<path d="M366.667 249.999C366.667 282.199 340.533 308.333 308.333 308.333C276.133 308.333 250 282.199 250 249.999C250 217.799 276.133 191.666 308.333 191.666C340.533 191.666 366.667 217.799 366.667 249.999Z" fill="#1ABCFE"/>
</svg>
