<svg width="500" height="500" viewBox="0 0 500 500" fill="none" xmlns="http://www.w3.org/2000/svg">
<rect width="500" height="500" fill="#4C4C4C"/>
<path d="M122.494 357.506L124.619 354.543L224.874 164.36L225.086 162.347L180.897 79.3434C180.088 77.8255 178.822 76.6004 177.279 75.8415C175.735 75.0825 173.992 74.8281 172.296 75.1143C170.6 75.4004 169.037 76.2126 167.828 77.4359C166.619 78.6592 165.825 80.2317 165.559 81.931L122.494 357.506Z" fill="#FFC24A"/>
<path d="M123.744 355.256L125.344 352.131L224.561 163.923L180.484 80.5937C179.757 79.1445 178.581 77.9699 177.13 77.2458C175.679 76.5217 174.033 76.287 172.438 76.577C170.843 76.8671 169.385 77.6661 168.282 78.8545C167.179 80.0428 166.491 81.5565 166.321 83.1688L123.744 355.256Z" fill="#FFA712"/>
<path d="M257.3 225.125L290.202 191.374L257.288 128.608C256.563 127.258 255.486 126.129 254.171 125.341C252.856 124.554 251.351 124.139 249.819 124.139C248.286 124.139 246.782 124.554 245.466 125.341C244.151 126.129 243.074 127.258 242.35 128.608L224.761 162.135V164.998L257.3 225.125Z" fill="#F4BD62"/>
<path d="M256.713 223.75L288.702 190.998L256.713 129.996C256.189 128.675 255.295 127.534 254.138 126.711C252.98 125.887 251.609 125.416 250.19 125.354C248.771 125.292 247.364 125.641 246.14 126.361C244.915 127.08 243.924 128.138 243.287 129.408L225.611 163.522L225.086 165.26L256.713 223.75Z" fill="#FFA50E"/>
<path d="M122.519 357.519L123.482 356.544L126.969 355.131L255.225 227.35L256.85 222.925L224.861 161.947L122.519 357.519Z" fill="#F6820C"/>
<path d="M261.401 421.959L377.506 357.218L344.329 153.071C344.091 151.632 343.462 150.287 342.509 149.182C341.557 148.077 340.318 147.256 338.93 146.809C337.541 146.363 336.056 146.307 334.638 146.649C333.22 146.99 331.924 147.716 330.891 148.746L122.494 357.506L237.912 421.946C241.5 423.949 245.541 425 249.65 425C253.759 425 257.8 423.949 261.388 421.946" fill="#FDE068"/>
<path d="M376.443 356.681L343.542 154.072C343.484 152.695 343.019 151.367 342.205 150.255C341.392 149.143 340.267 148.297 338.973 147.825C337.679 147.352 336.273 147.274 334.935 147.601C333.596 147.927 332.385 148.644 331.454 149.659L123.744 357.118L237.887 420.871C241.447 422.857 245.455 423.9 249.531 423.9C253.607 423.9 257.616 422.857 261.175 420.871L376.443 356.681Z" fill="#FCCA3F"/>
<path d="M261.401 420.009C257.812 422.012 253.772 423.063 249.662 423.063C245.553 423.063 241.513 422.012 237.924 420.009L123.444 356.531L122.494 357.506L237.912 421.947C241.5 423.949 245.541 425 249.65 425C253.759 425 257.8 423.949 261.388 421.947L377.506 357.219L377.218 355.469L261.401 420.009Z" fill="#EEAB37"/>
</svg>
