<svg width="500" height="500" viewBox="0 0 500 500" fill="none" xmlns="http://www.w3.org/2000/svg">
<rect width="500" height="500" fill="#272626"/>
<path d="M418.384 234.403L265.558 81.6033C263.466 79.5099 260.981 77.8492 258.247 76.7162C255.513 75.5832 252.582 75 249.622 75C246.662 75 243.731 75.5832 240.996 76.7162C238.262 77.8492 235.778 79.5099 233.685 81.6033L201.965 113.323L242.217 153.573C246.964 151.953 252.071 151.699 256.955 152.842C261.84 153.984 266.305 156.477 269.84 160.035C273.376 163.593 275.84 168.074 276.951 172.966C278.062 177.857 277.776 182.962 276.124 187.699L314.91 226.506C320.649 224.485 326.904 224.479 332.646 226.488C338.389 228.498 343.276 232.402 346.502 237.559C349.729 242.717 351.104 248.819 350.399 254.862C349.695 260.904 346.954 266.527 342.627 270.803C338.247 275.21 332.473 277.959 326.291 278.582C320.11 279.204 313.903 277.661 308.733 274.216C303.562 270.771 299.749 265.637 297.943 259.693C296.137 253.748 296.451 247.361 298.832 241.622L262.671 205.44V300.663C268.167 303.384 272.565 307.906 275.132 313.476C277.698 319.047 278.278 325.328 276.774 331.274C275.271 337.219 271.775 342.47 266.869 346.151C261.964 349.832 255.945 351.72 249.815 351.501C243.686 351.282 237.817 348.969 233.187 344.948C228.556 340.927 225.444 335.44 224.368 329.402C223.293 323.364 224.319 317.14 227.277 311.767C230.234 306.395 234.943 302.198 240.62 299.876V203.777C237.345 202.435 234.368 200.458 231.86 197.961C229.353 195.463 227.365 192.493 226.01 189.223C224.656 185.953 223.962 182.448 223.969 178.908C223.976 175.369 224.683 171.866 226.05 168.602L186.389 128.92L81.6035 233.703C79.51 235.795 77.8493 238.28 76.7162 241.014C75.5832 243.748 75 246.679 75 249.639C75 252.599 75.5832 255.53 76.7162 258.264C77.8493 260.999 79.51 263.483 81.6035 265.575L234.429 418.397C236.521 420.49 239.006 422.151 241.74 423.284C244.475 424.417 247.406 425 250.365 425C253.325 425 256.256 424.417 258.991 423.284C261.725 422.151 264.21 420.49 266.302 418.397L418.406 266.297C422.628 262.068 425 256.337 425 250.361C425 244.385 422.628 238.653 418.406 234.425" fill="#E44C30"/>
</svg>
