<svg width="500" height="500" viewBox="0 0 500 500" fill="none" xmlns="http://www.w3.org/2000/svg">
<rect width="500" height="500" fill="#010409"/>
<path fill-rule="evenodd" clip-rule="evenodd" d="M250 54.9336C139.5 54.9336 50 144.434 50 254.934C50 343.434 107.25 418.184 186.75 444.684C196.75 446.434 200.5 440.434 200.5 435.184C200.5 430.434 200.25 414.684 200.25 397.934C150 407.184 137 385.684 133 374.434C130.75 368.684 121 350.934 112.5 346.184C105.5 342.434 95.5 333.184 112.25 332.934C128 332.684 139.25 347.434 143 353.434C161 383.684 189.75 375.184 201.25 369.934C203 356.934 208.25 348.184 214 343.184C169.5 338.184 123 320.934 123 244.434C123 222.684 130.75 204.684 143.5 190.684C141.5 185.684 134.5 165.184 145.5 137.684C145.5 137.684 162.25 132.434 200.5 158.184C216.5 153.684 233.5 151.434 250.5 151.434C267.5 151.434 284.5 153.684 300.5 158.184C338.75 132.184 355.5 137.684 355.5 137.684C366.5 165.184 359.5 185.684 357.5 190.684C370.25 204.684 378 222.434 378 244.434C378 321.184 331.25 338.184 286.75 343.184C294 349.434 300.25 361.434 300.25 380.184C300.25 406.934 300 428.434 300 435.184C300 440.434 303.75 446.684 313.75 444.684C353.453 431.279 387.953 405.762 412.394 371.723C436.836 337.684 449.988 296.838 450 254.934C450 144.434 360.5 54.9336 250 54.9336Z" fill="#E6EDF3"/>
</svg>
