<svg width="500" height="500" viewBox="0 0 500 500" fill="none" xmlns="http://www.w3.org/2000/svg">
<rect width="500" height="500" fill="#33A9DC"/>
<path d="M123.775 390.013L95.6875 75H404.312L376.188 389.962L249.813 425L123.775 390.013Z" fill="#E44F26"/>
<path d="M250 398.224L352.125 369.912L376.15 100.762H250V398.224Z" fill="#F1662A"/>
<path d="M250 217.588H198.875L195.35 178.025H250V139.388H153.125L154.05 149.763L163.538 256.225H250V217.588ZM250 317.925L249.825 317.975L206.8 306.363L204.05 275.55H165.262L170.675 336.2L249.825 358.175L250 358.125V317.925Z" fill="#EBEBEB"/>
<path d="M249.863 217.588V256.225H297.438L292.963 306.338L249.863 317.963V358.163L329.075 336.2L329.65 329.675L338.725 227.963L339.675 217.588H249.863ZM249.863 139.388V178.025H343.188L343.963 169.35L345.725 149.763L346.65 139.388H249.863Z" fill="white"/>
</svg>
