<svg width="500" height="500" viewBox="0 0 500 500" fill="none" xmlns="http://www.w3.org/2000/svg">
<rect width="500" height="500" fill="#272626"/>
<g clip-path="url(#clip0_1391_427)">
<path d="M197.461 359.218C197.461 359.218 182.203 368.09 208.32 371.093C239.961 374.702 256.131 374.185 290.999 367.585C290.999 367.585 300.166 373.333 312.968 378.312C234.805 411.812 136.067 376.371 197.461 359.218ZM187.91 315.502C187.91 315.502 170.796 328.17 196.933 330.873C230.732 334.36 257.423 334.645 303.61 325.752C303.61 325.752 309.999 332.228 320.044 335.77C225.539 363.405 120.277 337.949 187.91 315.502Z" fill="white"/>
<path d="M268.43 241.347C287.69 263.52 263.37 283.474 263.37 283.474C263.37 283.474 312.273 258.229 289.814 226.615C268.838 197.135 252.751 182.485 339.835 131.981C339.835 131.981 203.143 166.12 268.43 241.346" fill="#F12A2A"/>
<path d="M371.808 391.551C371.808 391.551 383.099 400.854 359.372 408.052C314.255 421.72 171.59 425.847 131.957 408.597C117.711 402.4 144.428 393.799 152.831 391.993C161.595 390.092 166.605 390.447 166.605 390.447C150.761 379.286 64.1964 412.363 122.635 421.835C282.002 447.68 413.146 410.198 371.808 391.551ZM204.798 270.208C204.798 270.208 132.23 287.445 179.1 293.703C198.89 296.353 238.341 295.754 275.089 292.674C305.121 290.142 335.277 284.755 335.277 284.755C335.277 284.755 324.688 289.29 317.027 294.521C243.334 313.903 100.973 304.887 141.957 285.061C176.617 268.307 204.799 270.208 204.799 270.208M334.978 342.973C409.891 304.046 375.254 266.638 351.079 271.679C345.153 272.911 342.511 273.979 342.511 273.979C342.511 273.979 344.711 270.534 348.912 269.043C396.739 252.228 433.521 318.635 333.473 344.935C333.473 344.936 334.632 343.901 334.978 342.973Z" fill="white"/>
<path d="M289.814 50.4289C289.814 50.4289 331.302 91.9318 250.465 155.748C185.643 206.941 235.683 236.129 250.438 269.479C212.6 235.34 184.831 205.287 203.461 177.317C230.803 136.257 306.553 116.35 289.814 50.4277" fill="#F12A2A"/>
<path d="M212.159 448.457C284.066 453.06 394.485 445.903 397.1 411.879C397.1 411.879 392.074 424.778 337.674 435.021C276.3 446.57 200.606 445.222 155.71 437.82C155.711 437.82 164.9 445.427 212.161 448.457" fill="white"/>
</g>
<defs>
<clipPath id="clip0_1391_427">
<rect width="295.954" height="400" fill="white" transform="translate(102.023 50)"/>
</clipPath>
</defs>
</svg>
