<svg width="500" height="500" viewBox="0 0 500 500" fill="none" xmlns="http://www.w3.org/2000/svg">
<rect width="500" height="500" fill="#F7DF1E"/>
<path d="M120.402 407.037L158.664 383.881C166.047 396.969 172.762 408.043 188.869 408.043C204.309 408.043 214.045 402.004 214.045 378.512V218.75H261.031V379.176C261.031 427.842 232.504 449.994 190.883 449.994C153.295 449.994 131.477 430.527 120.4 407.033M286.553 402.002L324.811 379.852C334.883 396.299 347.973 408.381 371.129 408.381C390.6 408.381 403.014 398.646 403.014 385.221C403.014 369.111 390.26 363.404 368.779 354.01L357.035 348.971C323.135 334.543 300.648 316.418 300.648 278.156C300.648 242.914 327.498 216.062 369.453 216.062C399.324 216.062 420.805 226.469 436.242 253.654L399.656 277.15C391.6 262.719 382.877 257.014 369.451 257.014C355.689 257.014 346.963 265.74 346.963 277.15C346.963 291.246 355.689 296.955 375.826 305.682L387.572 310.715C427.514 327.834 450 345.285 450 384.551C450 426.844 416.773 450 372.135 450C328.504 450 300.311 429.191 286.551 402.004" fill="#272626"/>
</svg>
