<svg width="500" height="500" viewBox="0 0 500 500" fill="none" xmlns="http://www.w3.org/2000/svg">
<rect width="500" height="500" fill="#9A405B"/>
<path d="M262.216 203.319L218.733 75H403.471L359.837 203.693C357.96 204.142 356.114 204.714 354.312 205.405L311.208 117.474L267.979 204.885C266.096 204.233 264.17 203.71 262.216 203.319ZM120.147 413.374C178.253 454.188 242.704 375.213 330.496 365.264C380.911 362.277 415.178 331.414 395.653 283.637C359.351 305.996 325.423 276.696 325.66 247.295H298.075C297.17 273.544 277.425 294.196 246.82 291.126C222.864 326.963 195.1 347.098 163.596 357.333C142.302 347.506 122.264 323.57 131.349 291.6C127.396 291.159 123.52 290.186 119.827 288.708C90.5406 343.394 86.9216 386.614 120.147 413.374ZM163.405 247.299C163.405 226.528 140.766 213.476 122.752 223.861C104.739 234.246 104.737 260.352 122.752 270.736C140.766 281.122 163.405 268.07 163.405 247.299ZM280.579 247.041C280.579 226.271 257.938 213.218 239.925 223.604C221.912 233.99 221.911 260.094 239.925 270.478C257.939 280.864 280.578 267.812 280.578 247.041H280.579ZM397.312 247.041C397.312 226.271 374.671 213.218 356.658 223.604C338.645 233.99 338.644 260.094 356.658 270.478C374.672 280.864 397.311 267.812 397.311 247.041H397.312Z" fill="white"/>
</svg>
