<svg width="500" height="500" viewBox="0 0 500 500" fill="none" xmlns="http://www.w3.org/2000/svg">
<rect width="500" height="500" fill="#003545"/>
<path d="M448.134 121.148C447.047 120.253 445.666 119.792 444.259 119.854C440.397 119.854 435.406 122.473 432.719 123.876L431.656 124.423C427.15 126.603 422.245 127.837 417.243 128.048C412.132 128.209 407.028 128.563 401.944 129.11C367.85 132.614 352.64 158.748 337.994 184.017C330.019 197.764 321.781 212.045 310.487 222.954C308.153 225.217 305.672 227.329 303.056 229.267C291.369 237.954 276.697 244.157 265.281 248.548C254.287 252.751 242.284 256.526 230.7 260.179C220.075 263.523 210.047 266.685 200.825 270.11C197.25 271.429 193.641 272.682 190.016 273.876C181.616 276.601 175.559 278.688 166.709 284.782C163.537 286.937 160.448 289.213 157.45 291.604C150.425 297.21 144.207 303.758 138.972 311.063C134.47 317.803 129.268 324.047 123.453 329.692C121.584 331.517 118.269 332.417 113.303 332.417C107.491 332.417 100.444 331.217 92.9875 329.948C85.2937 328.588 77.3437 327.292 70.525 327.292C64.9906 327.292 60.7437 328.198 57.5844 330.02C57.5844 330.02 52.2469 333.129 50 337.151L52.2094 338.151C55.6353 340.007 58.8073 342.298 61.6469 344.967C64.6082 347.702 67.9068 350.048 71.4625 351.948C72.6031 352.367 73.6344 353.023 74.4937 353.873C73.5687 355.235 72.2 356.995 70.7656 358.873C62.9 369.173 58.3062 375.676 60.9375 379.22C62.2 379.876 63.6094 380.195 65.0312 380.148C82.1875 380.148 91.4062 375.692 103.062 370.045C106.444 368.413 109.881 366.732 113.972 364.998C120.791 362.042 128.131 357.323 135.916 352.329C146.103 345.692 156.753 338.873 167.091 335.585C175.585 332.994 184.433 331.751 193.312 331.901C204.225 331.901 215.709 333.357 226.781 334.776C235.034 335.845 243.584 336.932 251.969 337.438C255.034 337.624 258.104 337.72 261.175 337.726C265.097 337.738 269.016 337.533 272.915 337.113L273.853 336.785C279.737 333.167 282.494 325.41 285.159 317.91C286.881 313.079 288.328 308.745 290.619 305.992C290.753 305.857 290.9 305.735 291.056 305.626C291.163 305.567 291.287 305.545 291.407 305.564C291.528 305.584 291.639 305.643 291.722 305.732V305.951C290.362 335.285 278.55 353.913 266.603 370.47L258.628 379.02C258.628 379.02 269.794 379.02 276.15 376.563C299.337 369.635 316.831 354.363 329.565 330.004C332.707 323.751 335.516 317.335 337.981 310.785C338.2 310.248 340.206 309.235 340.012 312.057C339.947 312.892 339.887 313.817 339.822 314.788C339.822 315.357 339.822 315.945 339.712 316.532C339.387 320.626 338.419 329.27 338.419 329.27L345.575 325.435C362.84 314.529 376.15 292.52 386.247 258.276C390.447 244.007 393.528 229.839 396.237 217.36C399.484 202.357 402.284 189.501 405.487 184.51C410.518 176.679 418.197 171.385 425.628 166.248C426.637 165.554 427.659 164.882 428.659 164.145C437.997 157.589 447.284 150.02 449.334 135.904V135.592C450.815 125.06 449.562 122.376 448.134 121.148Z" fill="white"/>
</svg>
