<svg width="500" height="500" viewBox="0 0 500 500" fill="none" xmlns="http://www.w3.org/2000/svg">
<rect width="500" height="500" fill="#11161A"/>
<path fill-rule="evenodd" clip-rule="evenodd" d="M375.554 307.873C377.101 306.984 378.387 305.704 379.284 304.162C380.18 302.619 380.655 300.868 380.661 299.084L380.845 240.215C380.85 238.43 381.325 236.679 382.222 235.137C383.117 233.594 384.403 232.314 385.95 231.426L417.862 213.096C420.199 211.755 422.972 211.395 425.574 212.096C428.175 212.797 430.392 214.501 431.739 216.834C432.631 218.379 433.1 220.132 433.101 221.916V328.939C433.101 330.729 432.629 332.487 431.732 334.036C430.835 335.584 429.545 336.869 427.993 337.76L307.562 406.933C306.023 407.816 304.281 408.281 302.507 408.282C300.734 408.284 298.99 407.823 297.45 406.943L202.937 352.887C201.38 351.996 200.087 350.711 199.186 349.16C198.286 347.61 197.811 345.849 197.81 344.056V290.092C197.81 290.031 197.882 289.99 197.942 290.019C197.955 290.027 197.969 290.032 197.983 290.032C197.998 290.033 198.012 290.029 198.025 290.022C198.037 290.014 198.048 290.004 198.055 289.991C198.061 289.978 198.064 289.964 198.063 289.949V289.889C198.063 289.847 198.085 289.806 198.126 289.787L275.966 245.068C276.036 245.027 276.005 244.916 275.925 244.916C275.903 244.915 275.883 244.907 275.867 244.891C275.852 244.876 275.843 244.855 275.843 244.834L275.995 191.926C276.004 190.136 275.54 188.377 274.65 186.824C273.76 185.272 272.475 183.982 270.927 183.086C269.379 182.188 267.622 181.714 265.833 181.713C264.044 181.711 262.287 182.181 260.737 183.076L202.886 216.412C201.341 217.3 199.591 217.768 197.81 217.768C196.028 217.768 194.278 217.3 192.733 216.412L134.698 182.994C133.152 182.103 131.399 181.634 129.615 181.635C127.831 181.636 126.078 182.107 124.533 182.999C122.988 183.892 121.705 185.175 120.813 186.72C119.921 188.266 119.451 190.018 119.45 191.803V287.426C119.452 289.208 118.985 290.96 118.097 292.505C117.209 294.05 115.93 295.335 114.389 296.23C112.848 297.125 111.098 297.6 109.316 297.606C107.534 297.612 105.781 297.15 104.233 296.265L72.0264 277.853C70.4663 276.963 69.1701 275.674 68.2695 274.12C67.369 272.565 66.8962 270.8 66.8994 269.004L67.1846 101.869C67.1884 100.087 67.6601 98.3376 68.5526 96.7955C69.4451 95.2533 70.727 93.9726 72.2701 93.0816C73.8131 92.1907 75.5631 91.7206 77.3449 91.7186C79.1267 91.7166 80.8778 92.1827 82.4229 93.0702L192.743 156.435C194.285 157.321 196.032 157.787 197.81 157.787C199.587 157.787 201.334 157.321 202.876 156.435L313.167 93.0702C315.505 91.7266 318.28 91.3665 320.883 92.069C323.486 92.7715 325.704 94.4791 327.048 96.8162C327.939 98.3612 328.405 100.115 328.405 101.9V269.074C328.406 270.863 327.935 272.62 327.04 274.168C326.145 275.717 324.858 277.002 323.308 277.894L265.548 311.158C263.997 312.054 262.71 313.342 261.816 314.894C260.922 316.445 260.453 318.205 260.456 319.996C260.46 321.787 260.936 323.545 261.837 325.092C262.739 326.64 264.033 327.922 265.589 328.808L297.45 346.945C298.99 347.823 300.732 348.283 302.504 348.279C304.276 348.276 306.016 347.809 307.552 346.926L375.554 307.873ZM382.237 157.91C382.24 159.709 382.719 161.475 383.626 163.028C384.532 164.581 385.835 165.867 387.399 166.754C388.965 167.64 390.738 168.096 392.537 168.073C394.336 168.051 396.097 167.552 397.64 166.627L428.157 148.316C429.663 147.413 430.91 146.136 431.776 144.608C432.642 143.081 433.098 141.355 433.101 139.599V102.285C433.097 100.94 432.827 99.6095 432.306 98.3697C431.785 97.1298 431.024 96.0054 430.066 95.0613C429.108 94.1173 427.973 93.3722 426.726 92.8692C425.479 92.3662 424.145 92.1152 422.8 92.1307C421.001 92.1539 419.241 92.6532 417.698 93.578L387.181 111.889C385.674 112.791 384.426 114.068 383.56 115.596C382.694 117.124 382.238 118.851 382.237 120.607V157.92V157.91Z" fill="#007FFF"/>
</svg>
