<svg width="500" height="500" viewBox="0 0 500 500" fill="none" xmlns="http://www.w3.org/2000/svg">
<rect width="500" height="500" fill="#00546B"/>
<g clip-path="url(#clip0_1391_445)">
<path d="M418.2 356.581C396.453 356.039 379.598 358.214 365.462 364.194C361.384 365.823 354.859 365.825 354.316 370.991C356.491 373.166 356.763 376.7 358.666 379.689C361.931 385.125 367.636 392.466 372.802 396.273C378.509 400.622 384.22 404.97 390.198 408.776C400.802 415.301 412.764 419.106 423.094 425.631C429.077 429.434 435.053 434.331 441.034 438.408C444.025 440.58 445.927 444.117 449.734 445.475V444.661C447.83 442.212 447.286 438.68 445.384 435.961C442.669 433.242 439.947 430.795 437.228 428.076C429.345 417.476 419.559 408.233 408.958 400.622C400.259 394.641 381.228 386.486 377.695 376.426C377.695 376.426 377.422 376.156 377.152 375.884C383.131 375.34 390.198 373.165 395.909 371.534C405.152 369.086 413.578 369.631 423.094 367.184C427.442 366.097 431.792 364.737 436.141 363.378V360.933C431.25 356.039 427.716 349.516 422.55 344.894C408.686 332.93 393.461 321.242 377.695 311.456C369.267 306.019 358.392 302.484 349.422 297.864C346.163 296.231 340.723 295.417 338.822 292.698C333.927 286.719 331.208 278.836 327.675 271.767C319.794 256.814 312.18 240.233 305.383 224.467C300.492 213.864 297.502 203.261 291.52 193.476C263.52 147.262 233.073 119.262 186.317 91.8046C176.258 86.0967 164.297 83.6499 151.52 80.6608C144.727 80.3874 137.928 79.8452 131.133 79.5718C126.783 77.6686 122.433 72.5046 118.627 70.0577C103.134 60.2702 63.1703 39.0686 51.7531 67.0686C44.4125 84.7374 62.6281 102.134 68.8781 111.108C73.5031 117.359 79.4813 124.426 82.7438 131.495C84.6469 136.114 85.1891 141.011 87.0922 145.903C91.4438 157.861 95.5188 171.184 101.23 182.331C104.22 188.039 107.481 194.019 111.288 199.184C113.463 202.173 117.267 203.534 118.084 208.426C114.28 213.864 114.006 222.02 111.83 228.816C102.044 259.534 105.852 297.592 119.714 320.155C124.063 326.948 134.394 341.905 148.258 336.194C160.492 331.301 157.773 315.806 161.305 302.214C162.123 298.948 161.58 296.776 163.209 294.601V295.147C167.016 302.756 170.82 310.098 174.355 317.709C182.783 331.028 197.461 344.894 209.694 354.137C216.22 359.028 221.384 367.456 229.541 370.447V369.63H228.995C227.364 367.183 224.917 366.097 222.744 364.192C217.852 359.301 212.413 353.32 208.608 347.883C197.192 332.658 187.131 315.805 178.161 298.406C173.813 289.981 170.005 280.737 166.472 272.311C164.839 269.045 164.839 264.155 162.122 262.525C158.044 268.505 152.064 273.67 149.073 281.009C143.911 292.698 143.366 307.106 141.463 322.056C140.375 322.331 140.917 322.056 140.373 322.603C131.677 320.425 128.686 311.456 125.422 303.844C117.266 284.544 115.906 253.553 122.977 231.262C124.88 225.553 133.036 207.612 129.773 202.175C128.142 197.009 122.703 194.019 119.714 189.942C116.181 184.776 112.373 178.255 109.928 172.544C103.403 157.32 100.141 140.465 93.0734 125.242C89.811 118.173 84.1047 110.836 79.4813 104.311C74.3172 96.9717 68.6078 91.8046 64.5297 83.1061C63.1719 80.1171 61.2672 75.2233 63.4422 71.9608C63.986 69.7858 65.0719 68.9718 67.2485 68.428C70.7828 65.4358 80.8422 69.2421 84.3735 70.8733C94.4328 74.9483 102.859 78.7577 111.288 84.4655C115.092 87.1842 119.17 92.3499 124.063 93.7093H129.772C138.472 95.6108 148.256 94.253 156.413 96.6983C170.822 101.319 183.869 108.115 195.559 115.456C231.172 138.019 260.528 170.097 280.375 208.426C283.638 214.676 284.995 220.389 287.986 226.911C293.697 240.233 300.764 253.825 306.47 266.873C312.18 279.648 317.616 292.698 325.772 303.301C329.85 309.008 346.159 312 353.5 314.991C358.938 317.436 367.366 319.612 372.258 322.601C381.5 328.308 390.742 334.836 399.442 341.086C403.792 344.348 417.383 351.145 418.2 356.581Z" fill="white"/>
<path d="M140.916 120.347C136.295 120.347 133.034 120.894 129.772 121.708V122.251H130.316C132.492 126.601 136.295 129.592 139.013 133.397C141.189 137.745 143.091 142.097 145.267 146.447C145.538 146.173 145.809 145.903 145.809 145.903C149.617 143.183 151.519 138.834 151.519 132.309C149.888 130.408 149.616 128.504 148.256 126.601C146.627 123.881 143.091 122.523 140.916 120.347Z" fill="white"/>
</g>
<defs>
<clipPath id="clip0_1391_445">
<rect width="400" height="393.75" fill="white" transform="translate(50 53.125)"/>
</clipPath>
</defs>
</svg>
