<svg width="500" height="500" viewBox="0 0 500 500" fill="none" xmlns="http://www.w3.org/2000/svg">
<rect width="500" height="500" fill="#233056"/>
<path d="M250 425C245.278 425.002 240.639 423.76 236.55 421.4L193.749 396.062C187.362 392.487 190.474 391.225 192.587 390.487C199.38 388.388 205.885 385.449 211.95 381.737C212.457 381.502 213.016 381.401 213.574 381.442C214.132 381.484 214.67 381.667 215.137 381.974L248.025 401.512C248.637 401.836 249.32 402.006 250.013 402.006C250.705 402.006 251.388 401.836 252 401.512L380.252 327.486C380.852 327.127 381.348 326.617 381.693 326.008C382.037 325.399 382.216 324.711 382.214 324.011V175.934C382.215 175.223 382.032 174.524 381.684 173.905C381.336 173.285 380.834 172.766 380.227 172.396L251.975 98.433C251.37 98.0924 250.688 97.9134 249.994 97.9134C249.3 97.9134 248.617 98.0924 248.013 98.433L119.836 172.421C119.224 172.783 118.717 173.296 118.362 173.912C118.007 174.527 117.817 175.224 117.811 175.934V323.949C117.812 324.647 118 325.332 118.353 325.933C118.707 326.535 119.214 327.032 119.823 327.374L154.999 347.674C174.061 357.199 185.737 345.974 185.737 334.699V188.559C185.737 187.565 186.132 186.611 186.835 185.908C187.538 185.204 188.492 184.809 189.487 184.809H205.737C206.731 184.809 207.685 185.204 208.389 185.908C209.092 186.611 209.487 187.565 209.487 188.559V334.711C209.487 360.149 195.637 374.712 171.511 374.712C161.104 374.893 150.859 372.11 141.974 366.687L108.261 347.349C104.168 344.966 100.772 341.55 98.4118 337.444C96.0516 333.338 94.8098 328.685 94.8104 323.949V175.934C94.7982 171.191 96.0348 166.527 98.3957 162.413C100.757 158.299 104.159 154.879 108.261 152.496L236.525 78.4452C240.657 76.1847 245.29 75 250 75C254.71 75 259.344 76.1847 263.475 78.4452L391.727 152.496C395.819 154.875 399.216 158.285 401.578 162.387C403.941 166.489 405.186 171.138 405.19 175.872V323.949C405.183 328.685 403.936 333.336 401.575 337.442C399.213 341.547 395.818 344.962 391.727 347.349L263.475 421.4C259.378 423.764 254.73 425.006 250 425Z" fill="#83CD29"/>
<path d="M225.675 274.413C225.675 273.418 226.07 272.464 226.773 271.761C227.476 271.058 228.43 270.663 229.425 270.663H246.012C246.899 270.666 247.755 270.982 248.43 271.557C249.105 272.131 249.555 272.926 249.7 273.8C252.2 290.688 259.7 299.201 293.613 299.201C320.626 299.201 332.139 293.088 332.139 278.75C332.139 270.488 328.876 264.35 286.888 260.238C251.787 256.763 230.087 248.987 230.087 220.937C230.087 195.062 251.9 179.624 288.463 179.624C329.551 179.624 349.889 193.887 352.464 224.487C352.503 224.998 352.437 225.512 352.271 225.996C352.104 226.48 351.839 226.926 351.494 227.304C351.148 227.682 350.729 227.986 350.261 228.196C349.794 228.406 349.289 228.518 348.776 228.525H332.076C331.238 228.513 330.429 228.221 329.776 227.695C329.124 227.17 328.666 226.441 328.476 225.625C324.488 207.862 314.726 202.187 288.475 202.187C258.975 202.187 255.55 212.462 255.55 220.162C255.55 229.487 259.6 232.212 299.426 237.475C338.839 242.687 357.564 250.062 357.564 277.763C357.564 305.713 334.264 321.713 293.626 321.713C237.437 321.788 225.675 296.026 225.675 274.413Z" fill="#83CD29"/>
</svg>
