<svg width="500" height="500" viewBox="0 0 500 500" fill="none" xmlns="http://www.w3.org/2000/svg">
<rect width="500" height="500" fill="#336791"/>
<g clip-path="url(#clip0_1391_438)">
<path d="M418.382 284.584C416.347 278.42 411.016 274.128 404.122 273.098C400.871 272.612 397.148 272.819 392.743 273.727C385.064 275.312 379.367 275.915 375.21 276.031C390.903 249.536 403.663 219.322 411.009 190.881C422.888 144.891 416.54 123.941 409.123 114.464C389.492 89.3807 360.852 75.9057 326.3 75.4934C307.868 75.268 291.687 78.9072 283.246 81.5243C275.387 80.1375 266.937 79.3633 258.07 79.2201C241.449 78.9549 226.763 82.5782 214.215 90.025C207.268 87.6758 196.119 84.364 183.243 82.2508C152.96 77.2792 128.553 81.153 110.7 93.765C89.0822 109.035 79.0608 135.566 80.9142 172.621C81.5028 184.386 88.0839 220.181 98.446 254.129C104.401 273.641 110.752 289.844 117.321 302.293C126.637 319.946 136.605 330.341 147.796 334.074C154.068 336.164 165.464 337.627 177.451 327.645C178.97 329.485 180.997 331.313 183.687 333.011C187.103 335.166 191.281 336.926 195.453 337.97C210.488 341.728 224.572 340.788 236.587 335.52C236.662 337.657 236.719 339.698 236.766 341.462C236.846 344.321 236.925 347.125 237.03 349.748C237.742 367.478 238.948 381.265 242.523 390.911C242.719 391.441 242.983 392.25 243.261 393.108C245.044 398.567 248.026 407.707 255.612 414.865C263.467 422.28 272.969 424.553 281.671 424.553C286.035 424.553 290.2 423.981 293.852 423.198C306.871 420.408 321.657 416.157 332.353 400.927C342.466 386.529 347.382 364.844 348.272 330.675C348.387 329.709 348.493 328.786 348.595 327.907L348.807 326.101L351.19 326.311L351.804 326.352C365.064 326.956 381.278 324.145 391.236 319.519C399.104 315.868 424.319 302.556 418.382 284.584Z" fill="white"/>
<path d="M395.709 288.079C356.281 296.212 353.57 282.863 353.57 282.863C395.198 221.092 412.602 142.683 397.585 123.493C356.613 71.145 285.692 95.9022 284.508 96.5439L284.128 96.6128C276.338 94.9954 267.621 94.0329 257.822 93.8725C239.983 93.5808 226.449 98.5498 216.18 106.337C216.18 106.337 89.6629 54.2164 95.5479 171.888C96.7995 196.921 131.428 361.303 172.731 311.652C187.827 293.496 202.415 278.145 202.415 278.145C209.659 282.957 218.332 285.413 227.424 284.531L228.13 283.932C227.91 286.186 228.011 288.39 228.413 291.001C217.772 302.889 220.9 304.976 199.629 309.355C178.106 313.79 190.749 321.687 199.005 323.752C209.013 326.254 232.166 329.799 247.81 307.899L247.187 310.398C251.355 313.737 254.282 332.118 253.792 348.781C253.301 365.443 252.974 376.883 256.258 385.819C259.544 394.754 262.817 414.86 290.78 408.868C314.144 403.861 326.252 390.886 327.937 369.242C329.132 353.855 331.838 356.13 332.007 342.372L334.178 335.86C336.679 315.002 334.575 308.273 348.969 311.403L352.469 311.71C363.062 312.192 376.929 310.005 385.068 306.223C402.592 298.091 412.986 284.511 395.706 288.079H395.709Z" fill="#336791"/>
<path d="M223.586 183.083C220.033 182.588 216.815 183.046 215.187 184.279C214.272 184.972 213.988 185.775 213.912 186.328C213.707 187.793 214.734 189.413 215.365 190.248C217.149 192.614 219.756 194.239 222.335 194.597C222.709 194.65 223.082 194.674 223.452 194.674C227.754 194.674 231.666 191.324 232.011 188.851C232.442 185.754 227.946 183.689 223.586 183.083ZM341.292 183.181C340.952 180.753 336.633 180.061 332.534 180.631C328.44 181.201 324.47 183.05 324.802 185.482C325.067 187.374 328.484 190.604 332.527 190.604C332.869 190.604 333.214 190.581 333.561 190.532C336.26 190.158 338.241 188.444 339.182 187.456C340.614 185.95 341.444 184.272 341.292 183.181Z" fill="white"/>
<path d="M408.828 287.154C407.325 282.608 402.486 281.146 394.447 282.805C370.576 287.732 362.028 284.319 359.221 282.253C377.775 253.987 393.039 219.82 401.273 187.942C405.173 172.842 407.328 158.818 407.504 147.387C407.699 134.842 405.562 125.622 401.155 119.99C383.387 97.2869 357.309 85.1085 325.743 84.7744C304.042 84.5305 285.707 90.0841 282.152 91.6458C274.667 89.7844 266.507 88.6416 257.623 88.4958C241.332 88.232 227.25 92.1323 215.591 100.083C210.527 98.1977 197.439 93.7047 181.433 91.1261C153.762 86.6716 131.773 90.0469 116.081 101.163C97.3576 114.429 88.7136 138.141 90.3881 171.641C90.9515 182.911 97.3735 217.582 107.508 250.786C120.847 294.488 135.348 319.228 150.605 324.318C152.391 324.913 154.45 325.329 156.721 325.329C162.287 325.329 169.11 322.821 176.21 314.286C184.869 303.898 193.826 293.762 203.071 283.891C209.069 287.11 215.658 288.908 222.396 289.088C222.41 289.265 222.427 289.441 222.443 289.616C221.283 290.999 220.147 292.402 219.036 293.825C214.366 299.753 213.395 300.987 198.364 304.081C194.089 304.964 182.734 307.304 182.567 315.264C182.386 323.961 195.99 327.613 197.54 328.001C202.941 329.353 208.144 330.02 213.107 330.02C225.175 330.02 235.796 326.053 244.283 318.378C244.022 349.382 245.315 379.933 249.037 389.241C252.087 396.862 259.535 415.485 283.062 415.483C286.514 415.483 290.314 415.082 294.494 414.185C319.048 408.922 329.711 398.069 333.836 374.144C336.043 361.357 339.831 330.823 341.612 314.445C345.372 315.618 350.213 316.155 355.445 316.154C366.359 316.154 378.952 313.835 386.85 310.169C395.722 306.049 411.732 295.938 408.828 287.154ZM350.355 176.48C350.274 181.315 349.608 185.704 348.903 190.286C348.143 195.214 347.358 200.309 347.161 206.494C346.966 212.512 347.718 218.77 348.444 224.822C349.913 237.046 351.42 249.63 345.586 262.047C344.617 260.329 343.753 258.554 343.001 256.732C342.275 254.974 340.7 252.15 338.519 248.242C330.036 233.027 310.169 197.399 320.339 182.861C323.369 178.533 331.057 174.084 350.355 176.48ZM326.963 94.5651C355.247 95.1895 377.62 105.77 393.46 126.012C405.609 141.538 392.231 212.184 353.502 273.13C353.112 272.635 352.721 272.141 352.327 271.649L351.837 271.037C361.845 254.508 359.888 238.155 358.146 223.657C357.43 217.707 356.754 212.087 356.926 206.808C357.104 201.213 357.844 196.414 358.56 191.774C359.439 186.056 360.333 180.139 360.087 173.164C360.271 172.432 360.345 171.568 360.249 170.542C359.619 163.853 351.983 143.836 336.418 125.718C327.904 115.808 315.488 104.718 298.536 97.2378C305.828 95.7265 315.799 94.3172 326.963 94.5651ZM168.697 308.039C160.875 317.444 155.473 315.64 153.697 315.049C142.123 311.189 128.693 286.726 116.853 247.934C106.607 214.369 100.62 180.616 100.146 171.151C98.6502 141.219 105.906 120.358 121.713 109.147C147.438 90.9047 189.732 101.824 206.727 107.361C206.483 107.603 206.229 107.828 205.987 108.073C178.099 136.238 178.76 184.357 178.829 187.299C178.827 188.434 178.922 190.041 179.052 192.251C179.532 200.345 180.426 215.408 178.039 232.466C175.823 248.319 180.709 263.834 191.444 275.035C192.546 276.183 193.704 277.275 194.913 278.307C190.135 283.425 179.751 294.741 168.697 308.039ZM198.498 268.275C189.846 259.247 185.917 246.689 187.716 233.819C190.235 215.799 189.305 200.105 188.806 191.673C188.735 190.493 188.673 189.459 188.637 188.644C192.711 185.031 211.591 174.915 225.056 178C231.199 179.407 234.943 183.591 236.5 190.787C244.555 228.045 237.566 243.574 231.95 256.053C230.792 258.624 229.699 261.054 228.765 263.567L228.041 265.511C226.209 270.424 224.504 274.993 223.448 279.331C214.25 279.304 205.302 275.375 198.498 268.274V268.275ZM199.91 318.521C197.224 317.851 194.809 316.685 193.391 315.719C194.575 315.162 196.682 314.404 200.336 313.651C218.017 310.011 220.748 307.442 226.712 299.871C228.079 298.134 229.628 296.166 231.775 293.769L231.777 293.767C234.974 290.187 236.436 290.794 239.088 291.895C241.237 292.783 243.33 295.477 244.179 298.441C244.58 299.841 245.031 302.498 243.555 304.566C231.099 322.008 212.946 321.784 199.91 318.521ZM292.447 404.632C270.816 409.267 263.157 398.23 258.11 385.613C254.852 377.467 253.251 340.736 254.387 300.172C254.402 299.632 254.325 299.111 254.176 298.62C254.043 297.652 253.841 296.694 253.572 295.754C251.883 289.852 247.766 284.915 242.828 282.868C240.866 282.055 237.265 280.564 232.937 281.671C233.86 277.868 235.46 273.574 237.196 268.925L237.924 266.969C238.743 264.765 239.772 262.48 240.859 260.062C246.736 247.006 254.785 229.123 246.049 188.723C242.777 173.591 231.85 166.201 215.286 167.918C205.356 168.945 196.271 172.952 191.74 175.249C190.765 175.743 189.874 176.22 189.042 176.684C190.306 161.438 195.084 132.944 212.958 114.917C224.213 103.568 239.2 97.963 257.461 98.2653C293.442 98.8539 316.516 117.319 329.537 132.707C340.759 145.966 346.835 159.323 349.259 166.527C331.024 164.673 318.621 168.272 312.334 177.261C298.657 196.813 319.817 234.761 329.987 253C331.852 256.342 333.462 259.231 333.968 260.458C337.28 268.485 341.567 273.843 344.698 277.754C345.657 278.953 346.588 280.115 347.296 281.131C341.773 282.723 331.852 286.402 332.756 304.792C332.027 314.019 326.842 357.22 324.208 372.484C320.73 392.648 313.31 400.159 292.447 404.633V404.632ZM382.736 301.308C377.088 303.929 367.637 305.895 358.659 306.318C348.742 306.782 343.694 305.207 342.506 304.238C341.949 292.778 346.214 291.581 350.728 290.313C351.438 290.114 352.13 289.919 352.798 289.686C353.213 290.024 353.668 290.36 354.166 290.688C362.137 295.949 376.353 296.516 396.423 292.373L396.643 292.33C393.936 294.861 389.304 298.257 382.736 301.308Z" fill="white"/>
</g>
<defs>
<clipPath id="clip0_1391_438">
<rect width="339.394" height="350" fill="white" transform="translate(80.303 75)"/>
</clipPath>
</defs>
</svg>
