<svg width="500" height="500" viewBox="0 0 500 500" fill="none" xmlns="http://www.w3.org/2000/svg">
<rect width="500" height="500" fill="#232730"/>
<path d="M378.88 187.407C374.623 185.947 370.33 184.594 366.005 183.35C366.731 180.381 367.4 177.448 367.994 174.567C377.741 127.253 371.369 89.1355 349.605 76.5855C328.737 64.5542 294.611 77.0995 260.145 107.095C256.749 110.056 253.427 113.103 250.184 116.232C248.013 114.152 245.804 112.111 243.558 110.112C207.436 78.0402 171.23 64.523 149.489 77.1089C128.641 89.1777 122.467 125.01 131.242 169.851C132.115 174.292 133.101 178.71 134.198 183.101C129.073 184.557 124.128 186.107 119.395 187.757C77.0453 202.523 50 225.662 50 249.664C50 274.453 79.0344 299.317 123.144 314.393C126.72 315.611 130.326 316.738 133.958 317.776C132.778 322.505 131.731 327.267 130.817 332.054C122.452 376.117 128.984 411.103 149.777 423.095C171.252 435.479 207.295 422.751 242.391 392.071C245.236 389.577 248.02 387.012 250.738 384.379C254.249 387.768 257.855 391.057 261.55 394.245C295.547 423.498 329.122 435.31 349.894 423.285C371.348 410.865 378.322 373.281 369.269 327.554C368.556 323.972 367.756 320.407 366.87 316.864C369.402 316.114 371.886 315.342 374.308 314.539C420.164 299.346 450 274.784 450 249.664C450 225.575 422.081 202.279 378.88 187.407ZM368.934 298.32C366.747 299.043 364.503 299.742 362.216 300.421C357.153 284.395 350.322 267.354 341.961 249.746C349.939 232.559 356.508 215.735 361.428 199.814C365.52 200.998 369.491 202.246 373.319 203.564C410.334 216.307 432.913 235.146 432.913 249.664C432.913 265.126 408.528 285.2 368.934 298.32ZM352.506 330.873C356.509 351.092 357.08 369.373 354.428 383.665C352.047 396.507 347.256 405.068 341.331 408.498C328.727 415.795 301.769 406.31 272.695 381.292C269.258 378.328 265.904 375.27 262.637 372.12C273.909 359.793 285.173 345.464 296.167 329.548C315.505 327.832 333.773 325.026 350.341 321.196C351.139 324.404 351.861 327.631 352.506 330.873ZM186.369 407.237C174.053 411.585 164.244 411.71 158.314 408.292C145.697 401.015 140.452 372.923 147.606 335.242C148.457 330.789 149.431 326.361 150.527 321.962C166.911 325.587 185.047 328.193 204.43 329.765C215.498 345.339 227.087 359.653 238.767 372.187C236.285 374.589 233.744 376.929 231.147 379.206C215.627 392.771 200.075 402.396 186.369 407.237ZM128.672 298.225C109.167 291.557 93.0594 282.893 82.0187 273.439C72.0969 264.943 67.0891 256.507 67.0891 249.664C67.0891 235.098 88.8031 216.52 125.02 203.893C129.416 202.362 134.016 200.917 138.789 199.56C143.795 215.842 150.361 232.865 158.284 250.079C150.258 267.548 143.598 284.843 138.544 301.317C135.228 300.367 131.937 299.336 128.672 298.225ZM148.013 166.568C140.495 128.151 145.488 99.1714 158.052 91.898C171.433 84.1511 201.023 95.1964 232.212 122.89C234.246 124.7 236.247 126.547 238.214 128.429C226.592 140.909 215.109 155.117 204.139 170.598C185.327 172.342 167.319 175.142 150.762 178.893C149.742 174.809 148.825 170.7 148.013 166.57V166.568ZM320.555 209.175C316.644 202.42 312.589 195.75 308.391 189.17C321.153 190.784 333.381 192.926 344.864 195.545C341.417 206.595 337.12 218.146 332.062 229.99C328.366 222.976 324.529 216.036 320.555 209.175ZM250.192 140.642C258.073 149.181 265.967 158.714 273.731 169.057C257.981 168.314 242.205 168.31 226.455 169.048C234.227 158.8 242.188 149.279 250.192 140.642ZM179.378 209.292C175.454 216.098 171.689 222.994 168.086 229.976C163.111 218.175 158.853 206.57 155.377 195.364C166.789 192.81 178.959 190.723 191.641 189.139C187.396 195.759 183.307 202.478 179.378 209.29V209.292ZM192.005 311.404C178.903 309.942 166.55 307.962 155.141 305.478C158.672 294.071 163.023 282.22 168.106 270.165C171.723 277.152 175.504 284.053 179.445 290.862C183.498 297.862 187.695 304.718 192.005 311.404ZM250.664 359.889C242.564 351.151 234.486 341.484 226.597 331.087C234.256 331.387 242.064 331.54 250 331.54C258.153 331.54 266.213 331.357 274.145 331.004C266.356 341.589 258.492 351.27 250.664 359.889ZM332.223 269.55C337.57 281.737 342.077 293.526 345.655 304.737C334.058 307.384 321.536 309.515 308.342 311.098C312.57 304.396 316.664 297.61 320.622 290.745C324.646 283.767 328.514 276.7 332.223 269.55ZM305.82 282.207C299.761 292.733 293.361 303.059 286.631 313.168C274.44 314.032 262.222 314.461 250 314.454C237.552 314.454 225.444 314.067 213.784 313.31C206.878 303.224 200.357 292.88 194.233 282.301H194.234C188.139 271.778 182.446 261.027 177.167 250.071C182.433 239.113 188.109 228.357 194.183 217.826L194.181 217.828C200.253 207.294 206.723 196.994 213.577 186.951C225.472 186.051 237.67 185.582 249.998 185.582H250C262.384 185.582 274.598 186.056 286.491 186.962C293.275 196.99 299.704 207.254 305.764 217.735C311.858 228.244 317.609 238.947 323.008 249.829C317.665 260.823 311.932 271.622 305.82 282.207ZM341.07 91.3886C354.464 99.1136 359.673 130.265 351.258 171.117C350.72 173.723 350.117 176.378 349.461 179.07C332.864 175.239 314.844 172.39 295.977 170.62C284.986 154.968 273.597 140.739 262.164 128.42C265.16 125.532 268.228 122.718 271.364 119.982C300.895 94.2839 328.495 84.137 341.07 91.3886ZM250 213.945C269.727 213.945 285.719 229.937 285.719 249.664C285.719 269.39 269.727 285.382 250 285.382C230.273 285.382 214.281 269.39 214.281 249.664C214.281 229.937 230.273 213.945 250 213.945Z" fill="#00D8FF"/>
</svg>
