<svg width="500" height="500" viewBox="0 0 500 500" fill="none" xmlns="http://www.w3.org/2000/svg">
<rect width="500" height="500" fill="#121212"/>
<path d="M360.913 209.049C349.467 205.445 343.559 206.66 331.558 205.345C313.005 203.32 305.612 196.056 302.476 177.364C300.721 166.93 302.793 151.651 298.313 142.192C289.746 124.154 269.699 116.064 249.56 120.682C232.555 124.587 218.406 141.608 217.621 159.081C216.727 179.031 228.075 196.056 247.56 201.932C256.821 204.726 266.657 206.133 276.326 206.845C294.059 208.142 295.422 218.015 300.215 226.142C303.242 231.266 306.171 236.314 306.171 251.592C306.171 266.871 303.223 271.916 300.219 277.039C295.422 285.148 289.504 290.46 271.771 291.772C262.102 292.488 252.244 293.894 243.009 296.691C223.52 302.584 212.172 319.586 213.066 339.539C213.851 357.012 228 374.033 245.005 377.939C265.144 382.572 285.191 374.467 293.758 356.428C298.257 346.97 300.721 336.252 302.476 325.82C305.631 307.126 313.024 299.862 331.558 297.834C343.559 296.522 355.981 297.834 367.229 291.436C379.112 282.74 389.732 269.681 389.732 251.592C389.732 233.498 378.289 214.53 360.913 209.049Z" fill="#F44250"/>
<path d="M170.548 293.99C147.16 293.99 128.08 274.846 128.08 251.374C128.08 227.905 147.157 208.762 170.545 208.762C193.932 208.762 213.013 227.905 213.013 251.374C213.013 274.824 193.917 293.99 170.545 293.99H170.548ZM92.3175 380.593C68.9613 380.536 49.9436 361.318 50.0001 337.826C50.0566 314.376 69.2093 295.289 92.6157 295.365C115.984 295.421 135.005 314.64 134.933 338.128C134.877 361.559 115.721 380.649 92.3175 380.593ZM407.852 380.593C384.426 380.721 365.201 361.71 365.066 338.297C364.938 314.79 383.883 295.497 407.214 295.365C430.639 295.233 449.868 314.244 449.999 337.657C450.128 361.145 431.183 380.461 407.852 380.593Z" fill="white"/>
</svg>
