<svg width="500" height="500" viewBox="0 0 500 500" fill="none" xmlns="http://www.w3.org/2000/svg">
<rect width="500" height="500" fill="#33A9DC"/>
<path d="M394.431 272.457C380.477 272.53 368.348 275.89 358.194 280.859C354.466 273.479 350.74 266.905 350.084 262.082C349.352 256.457 348.476 253.023 349.352 246.301C350.23 239.579 354.175 230.007 354.101 229.277C354.029 228.547 353.224 225.113 345.188 225.041C337.151 224.967 330.21 226.575 329.406 228.693C328.603 230.811 327.069 235.634 326.046 240.601C324.657 247.908 309.973 273.99 301.572 287.653C298.867 282.321 296.53 277.644 296.017 273.918C295.287 268.293 294.41 264.858 295.287 258.137C296.165 251.415 300.11 241.845 300.036 241.113C299.963 240.383 299.159 236.948 291.123 236.876C283.085 236.803 276.144 238.41 275.342 240.529C274.538 242.649 273.66 247.615 271.981 252.438C270.299 257.261 250.792 300.806 245.678 312.056C243.612 316.609 241.444 321.116 239.176 325.573C239.176 325.573 239.102 325.792 238.883 326.157C238.171 327.555 237.44 328.943 236.693 330.322V330.394C235.596 332.368 234.427 334.194 233.843 334.194C233.404 334.194 232.6 328.934 233.988 321.773C236.91 306.65 243.851 283.124 243.779 282.321C243.779 281.882 245.094 277.791 239.25 275.671C233.55 273.553 231.505 277.059 230.993 277.059C230.482 277.059 230.115 278.302 230.115 278.302C230.115 278.302 236.473 251.854 217.988 251.854C206.445 251.854 190.517 264.493 182.626 275.89C173.656 280.772 164.694 285.667 155.739 290.576C151.431 292.988 146.973 295.399 142.808 297.663C142.515 297.372 142.224 297.005 141.931 296.714C119.574 272.823 78.2222 255.945 79.9755 223.872C80.6336 212.182 84.6509 181.495 159.393 144.235C220.91 113.913 269.862 122.315 278.337 140.946C290.465 167.541 252.109 216.931 188.544 224.09C164.288 226.794 151.575 217.441 148.361 213.935C145 210.281 144.488 210.062 143.246 210.793C141.201 211.89 142.515 215.177 143.246 217.076C145.146 222.043 152.963 230.811 166.187 235.123C177.877 238.921 206.298 241.041 240.71 227.743C279.213 212.838 309.315 171.413 300.475 136.709C291.633 101.493 233.184 89.8767 177.877 109.529C145 121.221 109.346 139.631 83.7014 163.596C53.2345 192.089 48.4118 216.857 50.3844 227.233C57.4728 264.055 108.25 288.019 128.561 305.773C127.538 306.357 126.587 306.87 125.785 307.308C115.629 312.349 76.9061 332.586 67.2623 353.994C56.3039 378.25 69.0171 395.64 77.4184 397.976C103.501 405.21 130.315 392.205 144.707 370.724C159.1 349.244 157.347 321.335 150.699 308.549C150.625 308.404 150.553 308.256 150.406 308.111C153.037 306.577 155.739 304.969 158.37 303.435C163.205 300.577 168.102 297.824 173.056 295.178C170.571 301.973 168.744 310.083 167.868 321.773C166.771 335.51 172.396 353.335 179.776 360.349C183.065 363.42 186.936 363.492 189.421 363.492C198.042 363.492 201.915 356.331 206.226 347.856C211.486 337.482 216.235 325.427 216.235 325.427C216.235 325.427 210.317 358.012 226.391 358.012C232.235 358.012 238.153 350.413 240.784 346.542V346.614C240.784 346.614 240.929 346.394 241.222 345.884C241.807 344.934 242.172 344.348 242.172 344.348V344.204C244.51 340.111 249.771 330.833 257.588 315.417C267.67 295.545 277.388 270.704 277.388 270.704C277.388 270.704 278.265 276.768 281.259 286.85C283.014 292.768 286.665 299.271 289.589 305.554C287.251 308.842 285.789 310.668 285.789 310.668L285.863 310.741C283.962 313.225 281.917 315.927 279.652 318.56C271.688 328.056 262.191 338.944 260.875 342.084C259.34 345.81 259.706 348.514 262.63 350.706C264.748 352.314 268.546 352.532 272.419 352.314C279.58 351.802 284.62 350.048 287.104 348.953C290.977 347.565 295.507 345.445 299.743 342.303C307.562 336.531 312.309 328.276 311.872 317.391C311.653 311.399 309.68 305.408 307.269 299.781C308 298.76 308.657 297.737 309.389 296.714C321.735 278.667 331.307 258.867 331.307 258.867C331.307 258.867 332.184 264.93 335.179 275.015C336.64 280.129 339.636 285.681 342.265 291.087C330.649 300.513 323.489 311.471 320.931 318.632C316.33 331.929 319.908 337.919 326.704 339.308C329.771 339.966 334.155 338.504 337.371 337.116C341.462 335.801 346.284 333.537 350.888 330.175C358.706 324.404 366.23 316.366 365.791 305.481C365.572 300.513 364.257 295.617 362.43 290.868C372.294 286.778 385.007 284.513 401.225 286.412C436.004 290.503 442.871 312.202 441.555 321.336C440.241 330.468 432.934 335.436 430.525 336.97C428.112 338.505 427.31 339.016 427.529 340.111C427.82 341.719 428.989 341.647 431.035 341.354C433.886 340.843 449.302 333.974 449.958 317.17C451.055 295.69 430.597 272.238 394.431 272.457ZM126.15 362.907C114.606 375.473 98.533 380.222 91.592 376.205C84.1401 371.893 87.0623 353.335 101.236 340.039C109.856 331.929 120.962 324.402 128.342 319.801C130.022 318.778 132.507 317.317 135.502 315.49C136.013 315.197 136.306 315.052 136.306 315.052L138.059 313.955C143.246 332.951 138.279 349.683 126.15 362.907ZM210.171 305.773C206.152 315.564 197.751 340.624 192.637 339.236C188.253 338.067 185.548 319.071 191.759 300.294C194.901 290.868 201.549 279.616 205.422 275.234C211.705 268.219 218.646 265.88 220.326 268.732C222.445 272.457 212.654 299.636 210.171 305.773ZM279.506 338.943C277.825 339.82 276.219 340.404 275.487 339.966C274.976 339.673 276.219 338.504 276.219 338.504C276.219 338.504 284.913 329.153 288.346 324.915C290.32 322.431 292.657 319.509 295.141 316.22V317.17C295.141 328.349 284.327 335.875 279.505 338.943H279.506ZM332.987 326.742C331.744 325.864 331.964 322.942 336.128 313.809C337.736 310.229 341.534 304.239 348.038 298.467C348.768 300.804 349.28 303.07 349.206 305.188C349.133 319.29 339.052 324.55 332.987 326.742Z" fill="#CD6799"/>
</svg>
