<svg width="500" height="500" viewBox="0 0 500 500" fill="none" xmlns="http://www.w3.org/2000/svg">
<rect width="500" height="500" fill="#6AAD3D"/>
<g clip-path="url(#clip0_1391_422)">
<path d="M110.85 106.061C189.881 29.5001 316.247 31.5579 392.808 111C401.451 99.4751 408.861 86.7157 414.212 73.5439C439.322 150.105 454.551 214.317 448.787 264.122C445.906 306.106 429.442 346.445 402.275 378.552C331.478 462.522 205.522 473.224 121.551 402.427L119.945 400.997L119.859 400.941C119.595 400.756 119.336 400.565 119.081 400.367C118.316 399.772 117.62 399.124 116.994 398.43L116.769 398.174L114.144 395.841C111.581 393.645 109.02 391.45 106.748 388.966L105.911 388.019C29.3484 308.988 31.8202 182.622 110.85 106.061ZM140.484 374.025C133.075 368.263 122.373 369.085 116.609 376.494C111.544 383.01 111.569 392.07 116.686 398.08L116.769 398.174L119.945 400.997L120.256 401.21C127.45 405.941 137.131 404.963 142.651 398.275L142.955 397.899C148.717 390.489 147.483 379.788 140.486 374.024L140.484 374.025ZM412.156 94.1236C391.573 137.344 340.531 170.274 296.489 180.564C254.916 190.442 218.692 182.211 180.412 197.028C93.1499 230.37 94.7968 334.097 142.544 357.56L145.425 359.206C145.425 359.206 179.916 352.349 214.022 343.292L216.944 342.511C230.566 338.839 243.967 334.839 254.916 330.805C311.719 309.813 374.286 257.949 394.866 197.852C384.164 260.417 330.242 320.925 276.319 348.505C247.506 363.322 225.28 366.614 177.944 383.08C172.181 385.138 167.653 387.197 167.653 387.197L169.384 386.963L170.534 386.814L171.68 386.67C182.133 385.374 191.527 384.727 191.527 384.727C258.62 381.433 363.995 403.661 412.978 338.214C463.195 271.531 435.206 163.688 412.156 94.1236Z" fill="white"/>
<path d="M140.486 374.025C147.484 379.787 148.719 390.489 142.955 397.898C137.194 405.307 126.491 406.131 119.081 400.367C111.673 394.604 110.85 383.903 116.613 376.493C122.375 369.084 133.077 368.262 140.487 374.025H140.486ZM412.156 94.123C435.206 163.687 463.197 271.531 412.98 338.214C363.995 403.661 258.622 381.432 191.528 384.726C191.528 384.726 182.134 385.375 171.681 386.67L170.536 386.814C169.58 386.936 168.617 387.064 167.655 387.196C167.655 387.196 172.183 385.137 177.945 383.079C225.281 366.615 247.508 363.321 276.32 348.504C330.244 320.926 384.166 260.417 394.867 197.851C374.288 257.948 311.72 309.812 254.917 330.804C215.814 345.211 145.427 359.206 145.427 359.206L142.545 357.559C94.7984 334.096 93.1516 230.37 180.414 197.028C218.695 182.211 254.917 190.442 296.492 180.564C340.534 170.273 391.575 137.345 412.156 94.123Z" fill="#6AAD3D"/>
</g>
<defs>
<clipPath id="clip0_1391_422">
<rect width="400" height="400" fill="white" transform="translate(50 50)"/>
</clipPath>
</defs>
</svg>
