<svg width="500" height="500" viewBox="0 0 500 500" fill="none" xmlns="http://www.w3.org/2000/svg">
<rect width="500" height="500" fill="#F7DF1E"/>
<path d="M279.219 444.268C279.819 442.911 281.333 441.968 282.433 440.825C299.216 423.227 316.143 405.787 332.698 387.975C337.879 383.19 341.882 377.272 344.395 370.683C346.907 364.094 347.861 357.012 347.182 349.993C346.662 346.988 345.98 344.012 345.139 341.08C340.626 345.365 336.426 349.265 332.198 353.193C325.628 359.306 319.085 365.449 312.458 371.491C308.549 375.475 303.524 378.181 298.046 379.249C292.568 380.318 286.895 379.7 281.776 377.476C276.593 375.572 272.085 372.188 268.809 367.744C265.533 363.3 263.635 357.992 263.349 352.479C263.196 351.769 262.99 351.072 262.735 350.393C257.693 354.678 252.865 358.621 248.08 362.678L148.62 446.953C147.934 447.539 147.192 448.267 146.549 448.839H279.147L278.947 448.71C278.233 448.21 278.604 445.582 279.219 444.268ZM140.478 444.268C141.657 442.732 143.081 441.4 144.692 440.325L282.333 323.554C291.722 315.583 301.069 307.57 310.372 299.514C311.522 298.712 312.423 297.603 312.972 296.314C315.197 286.616 315.513 276.578 313.9 266.76C312.472 267.76 311.701 268.189 311.044 268.889C299.773 278.973 288.56 289.143 277.233 299.171C273.481 302.947 268.628 305.437 263.371 306.281C258.115 307.126 252.726 306.282 247.98 303.87C243.137 301.584 239.085 297.909 236.337 293.313C233.59 288.716 232.273 283.406 232.553 278.059V273.431C230.482 274.945 228.968 275.959 227.553 277.102C172.465 321.211 117.386 365.287 62.3159 409.329C59.8305 411.315 56.8594 415.743 53.6026 411.443C50.3459 407.144 55.3024 405.372 57.8021 403.373C116.509 356.264 175.245 309.198 234.01 262.175C243.58 254.505 244.209 251.291 237.981 239.106L234.267 242.592C224.082 252.062 213.784 261.404 203.756 271.031C199.643 274.999 194.491 277.722 188.896 278.886C183.301 280.051 177.491 279.609 172.137 277.612C166.782 275.615 162.101 272.145 158.635 267.601C155.169 263.057 153.059 257.626 152.548 251.933C150.648 253.362 149.006 254.405 147.449 255.619L60.3161 323.154C58.8133 324.628 57.0995 325.87 55.231 326.839C53.8208 327.265 52.3065 327.189 50.9458 326.625V448.91H140.307C139.974 448.176 139.817 447.374 139.847 446.569C139.876 445.763 140.093 444.976 140.478 444.268Z" fill="#FFCEBF"/>
<path d="M381.878 56.0704C379.45 64.0266 377.093 71.9971 374.964 80.039C372.999 85.7221 373.227 91.9346 375.606 97.4577C377.984 102.981 382.34 107.416 387.82 109.893C404.581 118.703 423.468 122.661 442.356 121.32V57.4274C442.147 56.0266 442.224 54.5977 442.585 53.2279C442.985 52.4531 443.49 51.737 444.085 51.0996H381.821C382.778 52.2138 382.449 54.1707 381.878 56.0704Z" fill="#FF6196"/>
<path d="M256.821 193.326C256.525 200.458 254.031 207.323 249.679 212.981C234.124 233.061 216.261 251.241 196.457 267.146C193.264 270.102 189.216 271.971 184.894 272.484C180.573 272.997 176.2 272.129 172.403 270.003C168.623 268.388 165.437 265.643 163.281 262.144C161.124 258.645 160.105 254.564 160.361 250.462C160.819 245.425 162.911 240.674 166.318 236.935C188.463 215.82 212.456 196.731 238.009 179.899C239.683 178.587 241.727 177.834 243.852 177.747C245.977 177.66 248.075 178.243 249.851 179.414C252.184 180.863 254.071 182.93 255.301 185.385C256.532 187.841 257.058 190.59 256.821 193.326ZM239.709 279.902C239.378 276.744 239.783 273.553 240.893 270.579C242.004 267.605 243.789 264.929 246.108 262.761C267.791 242.762 291.055 224.548 315.672 208.296C316.414 207.825 317.1 207.353 317.914 206.868C320.064 205.315 322.67 204.522 325.32 204.612C327.971 204.703 330.516 205.672 332.555 207.367C334.528 209.039 335.925 211.29 336.545 213.8C337.166 216.311 336.979 218.953 336.012 221.352C332.898 231.724 327.15 241.114 319.328 248.605C303.443 264.254 287.252 279.589 270.763 294.6C268.279 297.154 265.017 298.809 261.49 299.305C257.963 299.802 254.371 299.111 251.279 297.343C248.03 295.654 245.264 293.168 243.24 290.117C241.216 287.066 240.001 283.551 239.709 279.902ZM342.783 289.343C338.783 293.629 334.669 297.714 330.827 302.099C329.671 303.794 328.713 305.615 327.97 307.527C330.084 308.156 332.555 309.812 334.269 309.227C342.997 306.299 351.51 302.785 361.095 299.085C359.009 303.885 357.438 308.313 355.224 312.369C346.103 327.698 334.68 341.534 321.357 353.393C316.29 358.278 311.029 362.949 305.573 367.406C302.683 369.804 299.208 371.391 295.504 372.005C291.8 372.62 287.999 372.239 284.49 370.902C280.981 369.566 277.89 367.321 275.533 364.397C273.176 361.474 271.638 357.977 271.077 354.264C270.848 352.2 271.03 350.111 271.614 348.118C272.197 346.124 273.17 344.266 274.476 342.651C293.914 321.543 316.129 303.173 340.511 288.044C340.808 287.929 341.122 287.866 341.44 287.858L342.783 289.343Z" fill="#FF87AF"/>
<path d="M375.55 232.45L399.99 123.892L417.131 127.905L408.289 154.774C400.033 179.771 391.677 204.768 383.621 229.793C382.049 234.421 379.992 235.278 375.55 232.45ZM347.953 296.3C350.539 286.429 353.11 277.302 355.281 268.075C357.397 259.126 361.422 250.74 367.08 243.492C370.551 238.935 374.45 240.749 378.435 241.735C382.121 242.635 383.049 245.334 383.206 248.877C383.787 258.673 380.804 268.348 374.807 276.116C367.668 284.967 358.44 291.903 347.953 296.3Z" fill="#FF6196"/>
<path d="M449.813 62.7985C450.026 59.6173 449.945 56.4231 449.57 53.2568C449.275 52.3724 448.692 51.6127 447.913 51.0999C447.279 50.5843 446.537 50.2182 445.742 50.0286C445.285 49.9429 444.642 50.4143 444.028 51.0856C443.433 51.723 442.928 52.4391 442.528 53.2139C442.167 54.5837 442.09 56.0126 442.299 57.4134V121.292C423.411 122.632 404.524 118.675 387.763 109.864C382.283 107.388 377.927 102.953 375.549 97.4294C373.17 91.9063 372.942 85.6938 374.907 80.0108C377.036 71.9689 379.393 63.9984 381.821 56.0422C382.392 54.1424 382.721 52.1855 381.821 51.0713C381.32 50.529 380.629 50.2014 379.892 50.1572C378.949 50.1673 378.035 50.4887 377.293 51.0713C376.225 51.7103 375.374 52.656 374.85 53.7853C371.993 62.3557 369.479 71.0118 367.294 79.7537C366.469 83.1985 366.247 86.7603 366.637 90.281C367.19 96.6513 369.559 102.729 373.463 107.793C377.367 112.857 382.643 116.694 388.663 118.849C391.363 119.977 392.948 121.092 392.191 124.648C391.148 129.162 390.134 133.676 389.106 138.204C382.107 168.886 375.145 199.582 368.222 230.293C368.027 231.662 367.425 232.941 366.494 233.964C361.931 237.591 358.097 242.05 355.195 247.105C351.498 253.776 348.939 261.018 347.625 268.531C347.373 270.928 346.507 273.219 345.11 275.183C343.714 277.147 341.835 278.718 339.654 279.744C333.698 282.758 328.227 286.658 321.614 290.714C322.055 282.761 321.969 274.788 321.357 266.846C320.853 264.403 320.96 261.873 321.668 259.481C322.375 257.09 323.662 254.909 325.413 253.133C334.125 244.503 340.335 233.672 343.383 221.794C344.293 219.04 344.542 216.111 344.111 213.244C343.68 210.376 342.58 207.65 340.9 205.286C339.22 202.922 337.008 200.986 334.442 199.636C331.875 198.285 329.027 197.557 326.127 197.511C321.433 197.459 316.823 198.769 312.858 201.282C299.228 210.59 285.835 220.239 272.691 230.222C264.878 236.107 257.521 242.62 249.951 248.791C249.624 248.44 249.342 248.052 249.108 247.634C248.963 246.582 248.68 245.554 248.265 244.577C241.937 234.807 246.323 227.708 253.193 220.408C260.351 212.905 264.306 202.91 264.221 192.54C264.442 187.257 262.788 182.065 259.55 177.885C257.825 175.763 255.699 174.001 253.293 172.7C249.876 170.83 245.969 170.049 242.096 170.463C238.223 170.876 234.569 172.464 231.624 175.014L227.639 177.871C218.54 184.384 209.327 190.726 200.571 197.697C187.788 207.902 175.28 218.448 163.061 229.322C157.347 234.364 153.177 241.249 147.249 245.934C116.338 270.345 85.0989 294.314 53.974 318.44C52.9038 319.078 51.9197 319.851 51.0458 320.739C50.9558 320.869 50.8792 321.008 50.8172 321.154C50.1602 322.682 49.6031 325.21 50.3744 326.139C50.5635 326.34 50.792 326.501 51.0458 326.61C52.4064 327.175 53.9208 327.251 55.331 326.824C57.1995 325.855 58.9133 324.613 60.4161 323.139L147.549 255.604C149.106 254.39 150.748 253.29 152.648 251.919C153.159 257.611 155.269 263.042 158.735 267.586C162.201 272.13 166.882 275.601 172.237 277.598C177.591 279.595 183.401 280.036 188.996 278.872C194.591 277.707 199.743 274.984 203.856 271.017C213.855 261.389 224.182 252.047 234.367 242.577L238.081 239.092C244.309 251.276 243.68 254.49 234.11 262.161C175.298 309.222 116.528 356.292 57.8021 403.372C55.3024 405.372 50.3602 407.186 53.6026 411.443C56.8451 415.699 59.8305 411.314 62.3159 409.329C117.414 365.325 172.474 321.263 227.496 277.145C228.925 276.002 230.425 274.988 232.496 273.474V278.102C232.216 283.449 233.533 288.759 236.28 293.355C239.027 297.952 243.08 301.627 247.922 303.913C252.669 306.324 258.058 307.168 263.314 306.324C268.57 305.479 273.424 302.99 277.176 299.213C288.503 289.215 299.716 279.016 310.986 268.931C311.701 268.288 312.529 267.803 313.843 266.803C315.456 276.621 315.14 286.659 312.915 296.357C312.365 297.646 311.465 298.755 310.315 299.556C301.002 307.603 291.655 315.616 282.275 323.596L144.692 440.382C143.081 441.457 141.657 442.789 140.478 444.325C140.102 445.025 139.891 445.803 139.861 446.597C139.831 447.392 139.984 448.183 140.307 448.91C140.952 449.393 141.698 449.725 142.489 449.881C143.281 450.037 144.097 450.013 144.878 449.81C145.493 449.631 146.06 449.313 146.534 448.881C147.249 448.31 147.963 447.581 148.606 446.996L248.065 362.72C252.85 358.663 257.678 354.664 262.721 350.436C262.976 351.115 263.181 351.812 263.335 352.521C263.62 358.035 265.519 363.343 268.794 367.787C272.07 372.231 276.579 375.615 281.761 377.518C286.88 379.742 292.554 380.361 298.032 379.292C303.51 378.223 308.535 375.518 312.443 371.533C319.071 365.491 325.613 359.349 332.184 353.235C336.469 349.307 340.611 345.365 345.125 341.123C345.966 344.055 346.648 347.03 347.168 350.036C347.824 357.032 346.859 364.085 344.347 370.647C341.835 377.21 337.844 383.105 332.684 387.874C316.129 405.701 299.202 423.141 282.418 440.725C281.318 441.868 279.804 442.811 279.204 444.168C278.605 445.525 278.219 448.181 278.933 448.753L279.133 448.881C280.631 449.61 282.315 449.864 283.961 449.61C284.422 449.515 284.833 449.256 285.118 448.881C285.518 448.467 285.904 447.953 286.289 447.567C299.888 433.512 313.558 419.528 327.056 405.372C332.504 399.852 337.627 394.019 342.397 387.903C348.617 381.017 352.741 372.498 354.285 363.348C355.829 354.198 354.727 344.797 351.11 336.252C350.721 334.346 351.101 332.365 352.167 330.738C353.096 329.138 354.124 327.581 355.181 326.039C358.563 321.647 361.38 316.848 363.566 311.755C367.789 299.253 374.272 287.633 382.692 277.473C386.563 272.565 389.226 266.817 390.467 260.691C391.707 254.565 391.491 248.233 389.834 242.206C389.249 239.914 389.249 237.512 389.834 235.221C397.062 212.838 404.504 190.526 411.874 168.2L421.73 138.29L424.773 129.048C431.258 129.048 437.371 128.919 443.456 129.048C448.513 129.191 450.056 126.82 449.998 121.906C449.699 102.194 449.813 82.4962 449.813 62.7985ZM196.457 267.146C193.264 270.102 189.216 271.971 184.894 272.484C180.573 272.997 176.2 272.128 172.403 270.003C168.623 268.388 165.437 265.642 163.281 262.143C161.124 258.645 160.105 254.564 160.361 250.462C160.819 245.424 162.911 240.674 166.318 236.935C188.463 215.819 212.456 196.731 238.009 179.899C239.404 178.913 240.991 178.232 242.666 177.899C243.79 177.692 244.942 177.692 246.066 177.899C247.411 178.161 248.695 178.675 249.851 179.413C252.187 180.863 254.075 182.933 255.305 185.391C256.536 187.85 257.061 190.601 256.821 193.34C256.525 200.472 254.031 207.337 249.679 212.995C234.123 233.07 216.26 251.245 196.457 267.146ZM270.734 294.7C268.251 297.253 264.989 298.909 261.462 299.405C257.934 299.902 254.342 299.211 251.251 297.442C247.996 295.75 245.226 293.257 243.202 290.198C241.178 287.139 239.966 283.615 239.681 279.958C239.349 276.801 239.754 273.61 240.865 270.636C241.975 267.661 243.76 264.985 246.08 262.818C267.763 242.819 291.026 224.604 315.643 208.353C316.386 207.881 317.071 207.41 317.886 206.924C320.036 205.372 322.641 204.579 325.292 204.669C327.942 204.76 330.487 205.729 332.527 207.424C334.5 209.096 335.896 211.347 336.517 213.857C337.137 216.368 336.951 219.01 335.983 221.408C332.869 231.781 327.121 241.171 319.3 248.662C303.544 264.403 287.161 279.559 270.763 294.642L270.734 294.7ZM355.167 312.426C346.058 327.73 334.656 341.547 321.357 353.393C316.291 358.278 311.029 362.949 305.573 367.405C302.683 369.803 299.208 371.391 295.504 372.005C291.8 372.619 287.999 372.239 284.49 370.902C280.981 369.565 277.89 367.32 275.533 364.397C273.176 361.474 271.639 357.977 271.077 354.264C270.848 352.2 271.03 350.11 271.614 348.117C272.197 346.124 273.17 344.266 274.476 342.651C293.914 321.543 316.129 303.172 340.511 288.043C340.808 287.928 341.122 287.865 341.44 287.858L342.868 289.286C338.869 293.571 334.755 297.656 330.913 302.042C329.757 303.736 328.799 305.558 328.056 307.47C330.17 308.098 332.641 309.755 334.355 309.169C341.254 306.855 348.039 304.17 355.31 301.313L361.18 299.028C358.981 303.884 357.409 308.312 355.195 312.369L355.167 312.426ZM374.779 276.216C369.451 282.999 362.772 288.602 355.167 292.671C352.815 293.985 350.401 295.214 347.925 296.357C350.467 286.629 353.01 277.616 355.167 268.503L355.253 268.131C357.369 259.183 361.393 250.797 367.051 243.549C370.522 238.992 374.422 240.806 378.407 241.792C382.092 242.691 383.021 245.391 383.178 248.934C383.764 258.721 380.791 268.391 374.807 276.159L374.779 276.216ZM408.203 154.802C399.947 179.799 391.591 204.796 383.535 229.822C382.021 234.521 379.964 235.378 375.522 232.55L396.705 138.375L399.962 123.92L417.102 127.934L413.66 138.375L408.203 154.802Z" fill="#272626"/>
</svg>
