<svg width="500" height="500" viewBox="0 0 500 500" fill="none" xmlns="http://www.w3.org/2000/svg">
<rect width="500" height="500" fill="#0B1120"/>
<path d="M250 145.006C203.332 145.006 174.176 168.33 162.5 214.998C179.995 191.671 200.418 182.923 223.745 188.756C237.064 192.075 246.582 201.733 257.123 212.436C274.279 229.845 294.136 250 337.5 250C384.165 250 413.324 226.673 425 179.995C407.503 203.336 387.082 212.083 363.753 206.25C350.436 202.928 340.929 193.273 330.374 182.571C313.23 165.161 293.378 145.006 250 145.006ZM162.5 250C115.835 250 86.6758 273.327 75 320.006C92.4945 296.665 112.915 287.918 136.245 293.75C149.564 297.073 159.082 306.728 169.623 317.43C186.779 334.84 206.636 354.995 250 354.995C296.665 354.995 325.824 331.671 337.5 285.003C320.003 308.33 299.582 317.077 276.253 311.245C262.936 307.925 253.429 298.268 242.874 287.565C225.73 270.155 205.878 250 162.5 250Z" fill="#38BDF8"/>
</svg>
