<svg width="500" height="500" viewBox="0 0 500 500" fill="none" xmlns="http://www.w3.org/2000/svg">
<rect width="500" height="500" fill="#202021"/>
<path d="M264.533 135.404C266.553 135.404 268.493 136.194 269.94 137.604C271.386 139.014 272.224 140.933 272.276 142.953L272.278 143.149V231.805C272.279 233.825 271.49 235.765 270.079 237.212C268.669 238.659 266.75 239.497 264.73 239.548L264.533 239.551H192.242C190.221 239.551 188.281 238.762 186.834 237.352C185.387 235.941 184.549 234.021 184.498 232.002L184.497 231.805V143.149C184.497 141.129 185.286 139.189 186.696 137.743C188.106 136.296 190.026 135.458 192.045 135.406L192.242 135.404H264.533ZM264.533 138.85H192.242C191.128 138.85 190.057 139.282 189.255 140.055C188.452 140.828 187.981 141.882 187.939 142.995L187.935 143.149V231.805C187.937 232.92 188.37 233.991 189.144 234.793C189.918 235.595 190.973 236.067 192.087 236.109L192.242 236.111H264.533C265.648 236.109 266.718 235.676 267.521 234.902C268.323 234.128 268.794 233.073 268.836 231.959L268.838 231.805V143.149C268.837 142.008 268.382 140.915 267.575 140.109C266.767 139.302 265.673 138.85 264.532 138.85H264.533ZM202.567 218.034V223.194H197.402V218.034H202.567ZM260.235 218.034V223.194H205.152V218.034H260.232H260.235ZM202.567 195.658V200.817H197.402V195.658H202.567ZM260.235 195.658V200.817H205.152V195.658H260.232H260.235ZM202.567 174.141V179.299H197.402V174.141H202.567ZM260.235 174.141V179.299H205.152V174.141H260.232H260.235ZM260.235 154.344V159.509H197.4V154.343H260.232L260.235 154.344ZM264.533 257.614V257.669C266.544 257.669 268.477 258.451 269.922 259.85C271.367 261.249 272.211 263.155 272.276 265.165L272.278 265.361V354.016C272.279 356.036 271.49 357.977 270.079 359.424C268.669 360.87 266.75 361.709 264.73 361.76L264.533 361.763H192.242C190.228 361.763 188.294 360.979 186.848 359.577C185.403 358.175 184.561 356.265 184.499 354.253L184.497 354.016V265.361C184.497 263.341 185.286 261.401 186.696 259.954C188.106 258.508 190.026 257.669 192.045 257.617L192.242 257.616H264.533V257.614ZM264.533 261.061H192.242C191.128 261.061 190.057 261.493 189.255 262.266C188.452 263.039 187.981 264.093 187.939 265.206L187.935 265.361V354.016C187.937 355.131 188.37 356.202 189.144 357.005C189.918 357.807 190.973 358.278 192.087 358.32L192.242 358.323H264.533C265.644 358.321 266.71 357.891 267.512 357.123C268.313 356.354 268.787 355.306 268.836 354.197L268.838 354.044V265.388C268.837 264.274 268.403 263.204 267.629 262.403C266.855 261.602 265.801 261.132 264.688 261.091L264.533 261.088V261.061ZM202.567 340.265V345.432H197.402V340.265H202.567ZM260.235 340.306V345.392H205.152V340.306H260.232H260.235ZM202.567 317.888V323.054H197.402V317.888H202.567ZM260.235 317.928V323.014H205.152V317.928H260.232H260.235ZM202.567 296.377V301.537H197.402V296.377H202.567ZM260.235 296.418V301.497H205.152V296.415H260.232L260.235 296.418ZM260.235 276.58V281.745H197.4V276.58H260.232H260.235ZM285.381 187.478V191.776H311.198V308.713H285.381V313.018H315.503V187.478H311.198H285.381Z" fill="white"/>
<path d="M101.43 111.564C106.521 103.215 114.907 98.3447 123.378 95.5174L124.533 95.1441L125.687 94.7955C126.264 94.6273 126.84 94.4674 127.414 94.317L128.558 94.0258C128.75 93.9793 128.94 93.9328 129.128 93.8891L130.263 93.6293L130.825 93.5076L131.943 93.2793L133.049 93.0715L134.14 92.8801L135.216 92.7078L136.273 92.5506L137.311 92.4111L138.327 92.2867L139.319 92.176L140.287 92.0789L141.687 91.9559L143.02 91.8602L144.281 91.7891L145.651 91.7303L146.904 91.6947L147.67 91.6824L148.376 91.677H149.02L149.863 91.6879L150.339 91.6975L151.207 91.7275L151.59 91.7467V112.41C133.313 110.671 125.158 116.192 121.562 122.075L121.238 122.627C120.791 123.423 120.405 124.252 120.083 125.106L119.889 125.647C119.857 125.736 119.827 125.825 119.799 125.915L119.633 126.449L119.486 126.972L119.357 127.486C119.337 127.571 119.316 127.656 119.298 127.739L119.193 128.238L119.146 128.484L119.064 128.963L118.993 129.428L118.937 129.878L118.873 130.52L118.831 131.12L118.81 131.591L118.801 132.027V132.423L118.807 132.779L118.821 133.093L118.844 133.476L118.888 133.927V141.519L118.843 157.019L118.788 168.189L118.725 177.584L118.657 185.523L118.589 191.776L118.509 197.862L118.427 203.051L118.323 208.548L118.259 211.413L118.189 214.12L118.099 217.134L118.068 218.078L118.065 219.822L118.055 220.89L118.043 221.612L118.016 222.703L117.972 223.758L117.937 224.401L117.896 225.046L117.844 225.694L117.751 226.668L117.677 227.318L117.591 227.971L117.494 228.623L117.44 228.948L117.324 229.599L117.261 229.924L117.124 230.574L116.974 231.222L116.809 231.868C116.75 232.083 116.69 232.298 116.625 232.511L116.426 233.154L116.21 233.789L115.975 234.422C113.328 241.262 107.334 247.353 93.7646 250.174C106.966 252.915 112.997 258.746 115.752 265.349L116.003 265.981C116.247 266.615 116.461 267.255 116.65 267.899L116.832 268.545C116.947 268.975 117.051 269.409 117.146 269.843L117.28 270.494L117.342 270.821L117.457 271.473L117.559 272.127L117.648 272.78L117.727 273.434L117.796 274.086L117.853 274.737L117.902 275.386L117.961 276.355L117.991 276.998L118.028 278.075L118.045 278.786L118.057 279.493L118.065 280.539L118.068 282.275L118.161 285.302L118.243 288.499L118.319 291.925L118.388 295.553L118.463 300.002L118.564 307.351L118.632 313.578L118.668 317.081L118.74 326.031L118.82 339.309L118.874 353.679L118.895 353.667V366.413L118.874 366.594L118.85 366.864L118.835 367.108L118.814 367.56L118.807 367.917V368.314L118.817 368.75L118.837 369.22L118.879 369.813L118.918 370.23L118.997 370.889L119.066 371.349L119.146 371.82L119.242 372.306L119.294 372.552L119.412 373.055L119.477 373.309L119.62 373.826L119.781 374.35C119.808 374.439 119.838 374.528 119.868 374.615L120.058 375.148C120.124 375.327 120.195 375.508 120.268 375.688L120.5 376.23C123.371 382.666 130.941 389.619 150.523 388.024L151.597 387.929V408.594L151.048 408.621L150.031 408.65L149.195 408.663H148.201L147.455 408.657L146.649 408.64L145.785 408.616L144.661 408.57L143.868 408.531L143.045 408.482L142.189 408.423L141.306 408.354L140.395 408.272L139.459 408.181L138.498 408.076L137.515 407.957L136.511 407.824C136.342 407.8 136.172 407.776 136.003 407.752L134.972 407.596L134.449 407.514L133.394 407.333C133.216 407.302 133.038 407.27 132.861 407.237L131.785 407.03C131.604 406.994 131.423 406.957 131.242 406.92L130.148 406.688L129.048 406.434C128.679 406.346 128.309 406.256 127.939 406.16L126.823 405.866C116.583 403.074 105.823 397.556 100.29 386.743C101.491 373.452 106.957 362.12 116.774 355.067C117.237 354.742 117.704 354.424 118.179 354.12L118.714 353.779C118.05 354.189 117.396 354.624 116.755 355.081C106.957 362.12 101.491 373.452 100.29 386.69C97.8266 381.716 96.5357 376.243 96.5168 370.693L96.3937 364.996L96.2338 358.088L96.0342 350.006L95.7607 339.703L95.5119 330.767L95.1674 319.068L94.7791 306.536L94.1283 286.816L93.9711 282.242C93.5869 271.89 89.432 266.848 85.1076 264.414L84.5977 264.139C84.5133 264.096 84.4285 264.053 84.3434 264.011L83.8334 263.77C83.6655 263.695 83.4964 263.622 83.3262 263.552L82.8217 263.355C82.6562 263.292 82.4894 263.233 82.3213 263.177L81.8264 263.016C81.6623 262.966 81.501 262.92 81.3396 262.875L80.9527 262.772L80.5727 262.681L80.198 262.599L79.8316 262.526L79.2971 262.433L78.9512 262.383L78.6162 262.339L78.1336 262.286L77.707 262.283L76.8361 262.273C76.3813 262.266 75.9265 262.266 75.4717 262.273L75 262.286V238.069C76.1334 238.11 77.1465 238.089 78.1336 238.036L78.6162 237.981L78.9512 237.939L79.2971 237.887L79.8316 237.794L80.198 237.721L80.5727 237.639L80.9527 237.548L81.3396 237.446L81.8264 237.304L82.3213 237.144L82.8217 236.967C87.8475 235.087 93.5186 230.256 93.9711 218.078L94.559 200.564L95.0143 186.258L95.2604 178.139L95.6377 165.115L95.8838 156.056L96.0629 149.156L96.2885 139.918L96.4197 134.176L96.5168 129.622C96.6672 122.446 98.4363 116.62 101.243 111.892L101.432 111.579L101.43 111.564ZM348.403 112.07V91.4076L348.958 91.3803L349.729 91.357L350.23 91.3475L351.113 91.3379H351.787L352.525 91.3461L353.663 91.3693L355.116 91.4213L355.894 91.4582L356.704 91.5047L357.976 91.5908L358.861 91.6619L359.771 91.7439L360.708 91.8396L361.666 91.9463L362.648 92.0666L363.649 92.2006L364.669 92.351L365.706 92.515L366.23 92.6039L367.29 92.7939L368.362 93.0018L369.444 93.226L370.538 93.4721L371.637 93.7346C372.19 93.8713 372.745 94.0176 373.3 94.1693L374.413 94.4865C384.817 97.5422 395.512 103.499 400.537 115.031C402.449 119.539 403.45 124.381 403.483 129.277L403.606 134.974L403.766 141.881L403.878 146.503L404.056 153.421L404.301 162.53L404.488 169.207L404.833 180.908L405.221 193.439L405.872 213.16L406.029 217.733C406.42 228.258 410.707 233.292 415.108 235.677L415.617 235.941L415.871 236.064L416.377 236.297L416.883 236.504C416.966 236.539 417.051 236.57 417.135 236.602L417.634 236.782L417.881 236.864L418.372 237.016L418.614 237.086L419.333 237.27L419.802 237.375L420.259 237.464L420.703 237.541L421.049 237.593L421.384 237.637L421.866 237.69C422.713 237.735 423.593 237.757 424.528 237.736L425 237.723V261.946C423.955 261.911 422.91 261.922 421.866 261.981L421.548 262.013L421.217 262.054L420.703 262.128L420.168 262.221L419.802 262.294L419.427 262.376L419.047 262.467L418.66 262.569L418.418 262.637L417.926 262.787L417.679 262.869L417.178 263.048C417.094 263.08 417.01 263.112 416.927 263.144L416.421 263.353C411.599 265.43 406.458 270.367 406.03 281.937L405.44 299.442L404.986 313.749L404.74 321.869L404.362 334.894L404.116 343.953L403.937 350.853L403.712 360.091L403.58 365.834L403.483 370.386C403.445 374.645 402.689 378.866 401.246 382.873L401.074 383.342L401.082 383.386C395.931 396.695 383.465 402.953 371.956 405.865L370.827 406.141L370.266 406.271L369.149 406.517L368.595 406.63L367.496 406.846L366.951 406.948L365.871 407.136L365.337 407.224L364.282 407.388L363.246 407.534L362.23 407.665L361.234 407.782L360.264 407.886L359.319 407.976L357.952 408.088L357.077 408.149L355.826 408.223L354.65 408.275L353.214 408.319L352.397 408.333L351.645 408.338H350.964L350.356 408.331L349.825 408.322L349.179 408.303L348.618 408.279L348.422 408.268V387.605C367.556 389.426 375.597 383.29 378.927 377.112L379.214 376.558C379.305 376.375 379.392 376.189 379.474 376.005L379.713 375.456C379.788 375.274 379.861 375.091 379.929 374.909L380.125 374.369L380.3 373.833L380.38 373.568L380.528 373.044L380.657 372.529L380.77 372.024L380.867 371.532L380.949 371.053L381.019 370.589L381.076 370.137L381.141 369.495L381.171 369.09L381.204 368.424L381.213 367.99V367.593L381.206 367.235L381.193 366.922L381.179 366.655L381.146 366.268L381.126 366.088V354.755L381.157 344.205L381.209 333.318L381.271 324.143L381.351 314.776L381.444 306.369L381.51 301.481L381.571 297.545L381.653 293.031L381.711 290.173L381.775 287.455L381.842 284.892L381.932 281.931L381.935 280.194L381.945 279.136L381.955 278.422L381.973 277.703L382.012 276.615L382.047 275.885L382.087 275.234L382.135 274.582L382.189 273.927L382.258 273.271L382.333 272.615L382.42 271.956L382.47 271.628L382.575 270.97L382.694 270.314L382.826 269.657L382.974 269.001C383.154 268.24 383.366 267.481 383.614 266.729L383.837 266.086C384.146 265.233 384.504 264.391 384.921 263.562L385.244 262.945C388.369 257.205 394.439 252.28 406.235 249.828C391.358 246.739 385.588 239.728 383.349 232.108L383.168 231.462C383.053 231.032 382.949 230.598 382.854 230.163L382.72 229.513L382.658 229.187L382.543 228.534L382.441 227.88L382.352 227.227L382.273 226.575L382.204 225.922L382.147 225.272L382.098 224.622L382.039 223.653L382.009 223.01L381.972 221.933L381.955 221.222L381.943 220.517L381.935 219.469L381.932 217.733L381.868 215.714L381.798 213.146L381.719 209.842L381.646 206.322L381.578 202.617L381.499 197.44L381.405 189.994L381.333 183.037L381.268 174.977L381.182 160.645L381.126 145.113C382.301 144.465 383.44 143.753 384.538 142.981C390.012 139.06 394.136 133.774 396.915 127.556L397.107 127.121C394.323 133.528 390.134 138.971 384.519 142.989C383.603 143.631 382.66 144.233 381.689 144.792L381.105 145.12V133.589L381.126 133.409L381.15 133.137L381.165 132.894L381.186 132.442L381.193 132.086V131.689L381.183 131.252L381.163 130.781L381.138 130.392L381.083 129.771L381.003 129.112L380.934 128.654L380.854 128.181L380.758 127.696C380.741 127.613 380.724 127.531 380.706 127.449L380.588 126.948C380.567 126.862 380.545 126.777 380.523 126.692L380.38 126.175L380.219 125.652C380.192 125.564 380.162 125.475 380.132 125.386L379.942 124.853C379.876 124.675 379.805 124.495 379.732 124.314L379.5 123.772C376.629 117.336 369.059 110.384 349.477 111.977L348.403 112.073V112.07Z" fill="#FE0902"/>
<path d="M117.615 140.681C117.82 140.832 118.034 140.973 118.247 141.111L118.888 141.521V133.929L118.868 133.748L118.844 133.476L118.828 133.233L118.807 132.78L118.801 132.425V132.027L118.81 131.591L118.831 131.121L118.857 130.724L118.891 130.31L118.937 129.878L118.993 129.428L119.063 128.963L119.145 128.485L119.244 127.991L119.298 127.74L119.419 127.231L119.557 126.712L119.633 126.448L119.797 125.916L119.889 125.648L120.083 125.106C120.392 124.29 120.772 123.458 121.238 122.628L121.562 122.075C125.158 116.192 133.313 110.673 151.591 112.411V91.7471L151.208 91.7279L150.551 91.7047L150.111 91.6924L149.02 91.6787H148.377L147.67 91.6828L146.5 91.7047L145.431 91.7389L144.281 91.7895L143.02 91.8619L141.687 91.9576L140.76 92.0355L139.319 92.1764L138.327 92.2857L137.311 92.4115L136.273 92.551L135.216 92.7082L134.14 92.8805L133.049 93.0719L131.943 93.2797L130.825 93.508C130.637 93.5483 130.449 93.5893 130.262 93.6311L129.128 93.8895C128.94 93.9332 128.75 93.9797 128.558 94.0262L127.414 94.3174C126.84 94.4678 126.265 94.6277 125.687 94.7959L124.533 95.1445L123.378 95.5178C114.907 98.3451 106.52 103.215 101.43 111.564C103.077 123.756 108.45 134.149 117.615 140.681ZM151.597 408.596V387.93C131.607 389.832 123.725 383.05 120.674 376.607L120.423 376.056C120.306 375.786 120.194 375.512 120.09 375.236L119.896 374.693C119.865 374.604 119.835 374.515 119.805 374.425L119.64 373.892L119.492 373.37L119.362 372.854L119.25 372.35L119.153 371.858L119.07 371.379L119.002 370.914L118.944 370.463L118.88 369.821L118.837 369.221L118.817 368.75L118.807 368.314V367.918L118.814 367.562L118.828 367.248L118.842 366.981L118.874 366.594L118.895 366.403V353.667C118.174 354.112 117.468 354.579 116.776 355.067C106.957 362.121 101.491 373.452 100.29 386.745C105.825 397.557 116.582 403.075 126.823 405.867L127.939 406.161C128.308 406.256 128.679 406.346 129.048 406.434L130.15 406.687L131.242 406.921L132.323 407.135C132.504 407.171 132.682 407.204 132.861 407.237L133.923 407.425L134.449 407.513L135.488 407.677L136.003 407.752L137.016 407.893L137.515 407.957L138.499 408.076L139.459 408.181L140.395 408.273L141.306 408.355L142.189 408.423L143.045 408.482L143.868 408.531L145.044 408.589L145.785 408.616L146.65 408.641L147.457 408.657L148.201 408.664L149.195 408.663L150.031 408.65L150.701 408.632L151.597 408.594V408.596ZM400.537 115.03C395.191 102.764 383.432 96.8057 372.432 93.9359L371.334 93.6598L370.243 93.4027L369.701 93.2811L368.624 93.0527L368.088 92.9461L367.027 92.7451L365.98 92.5605L364.946 92.3924L363.929 92.2393L362.93 92.1025L361.949 91.9795L360.991 91.8687L360.054 91.7717L359.143 91.6855L357.823 91.5789L356.567 91.4955L355.38 91.4312L354.267 91.3861L353.57 91.3656L352.729 91.3479L351.951 91.3369H351.243L350.604 91.341L350.041 91.3492L349.341 91.367L348.827 91.3861L348.403 91.4066V112.072C368.393 110.169 376.275 116.951 379.326 123.393L379.577 123.946C379.695 124.219 379.806 124.494 379.91 124.766L380.104 125.307C380.136 125.398 380.166 125.487 380.195 125.577L380.36 126.109L380.508 126.632L380.637 127.146L380.75 127.652L380.847 128.144L380.93 128.623L380.998 129.088L381.056 129.539L381.12 130.181L381.163 130.78L381.183 131.252L381.193 131.687V132.083L381.186 132.44L381.172 132.754L381.15 133.137L381.105 133.591V145.121C382.28 144.471 383.42 143.759 384.519 142.988C393.404 136.628 398.724 126.703 400.537 115.03ZM385.398 357.374C384.035 356.404 382.608 355.529 381.126 354.754V366.087L381.146 366.267L381.169 366.538L381.186 366.781L381.206 367.234L381.213 367.591V367.987L381.204 368.423L381.171 369.089L381.141 369.494L381.076 370.137L381.019 370.588L380.951 371.053L380.867 371.531L380.77 372.023L380.657 372.529L380.528 373.043L380.38 373.567L380.3 373.832L380.125 374.368L379.929 374.909C379.861 375.09 379.788 375.273 379.713 375.456L379.475 376.004C379.392 376.189 379.304 376.374 379.213 376.557L378.927 377.111C375.597 383.29 367.556 389.425 348.422 387.604V408.267L348.729 408.284L349.609 408.315L350.691 408.334L351.347 408.338L352.468 408.332L353.299 408.317L354.195 408.291L355.305 408.247L356.489 408.185L357.317 408.132L358.615 408.036L359.513 407.957L360.437 407.867L361.385 407.764L362.355 407.648L363.345 407.52L364.356 407.375L365.381 407.216C365.555 407.189 365.727 407.16 365.901 407.13L366.951 406.947L368.013 406.746L368.549 406.639L369.629 406.412L370.172 406.292L371.265 406.035C382.963 403.199 395.827 396.961 401.084 383.385C399.003 372.539 393.764 363.366 385.398 357.374Z" fill="#FFAB00"/>
</svg>
