<svg width="500" height="500" viewBox="0 0 500 500" fill="none" xmlns="http://www.w3.org/2000/svg">
<rect width="500" height="500" fill="#1E1E20"/>
<path d="M423.62 126.812L259.419 420.429C258.648 421.81 257.524 422.961 256.161 423.764C254.799 424.568 253.247 424.994 251.666 425.001C250.084 425.007 248.529 424.593 247.16 423.8C245.792 423.008 244.658 421.866 243.876 420.491L76.427 126.837C75.5851 125.363 75.1809 123.68 75.2619 121.985C75.3429 120.29 75.9057 118.654 76.8842 117.267C77.8627 115.881 79.2164 114.802 80.7863 114.158C82.3563 113.514 84.0774 113.331 85.7477 113.63L250.123 143.017C251.168 143.205 252.239 143.205 253.284 143.017L414.224 113.68C415.888 113.376 417.604 113.552 419.172 114.186C420.74 114.82 422.095 115.887 423.08 117.262C424.065 118.637 424.639 120.264 424.734 121.952C424.83 123.641 424.443 125.335 423.62 126.812Z" fill="url(#paint0_linear_1514_358)"/>
<path d="M328.412 75.0972L206.917 98.8989C205.944 99.0888 205.063 99.5971 204.411 100.344C203.76 101.09 203.375 102.033 203.319 103.022L195.847 229.265C195.806 229.957 195.927 230.65 196.2 231.288C196.473 231.925 196.892 232.49 197.422 232.938C197.952 233.386 198.579 233.703 199.254 233.866C199.928 234.029 200.631 234.032 201.307 233.875L235.129 226.066C235.858 225.898 236.617 225.915 237.337 226.117C238.057 226.319 238.715 226.699 239.25 227.221C239.785 227.744 240.18 228.392 240.399 229.108C240.618 229.823 240.653 230.581 240.502 231.314L230.456 280.529C230.301 281.287 230.346 282.072 230.586 282.807C230.826 283.542 231.253 284.202 231.825 284.723C232.397 285.243 233.094 285.606 233.849 285.775C234.603 285.945 235.389 285.915 236.129 285.689L257.019 279.342C257.76 279.115 258.547 279.085 259.303 279.255C260.059 279.425 260.758 279.789 261.33 280.311C261.902 280.833 262.329 281.496 262.568 282.233C262.807 282.97 262.849 283.756 262.692 284.515L246.711 361.817C245.712 366.652 252.147 369.289 254.833 365.153L256.619 362.379L355.637 164.781C356.009 164.037 356.165 163.203 356.087 162.375C356.01 161.546 355.703 160.756 355.2 160.093C354.697 159.43 354.018 158.921 353.241 158.623C352.464 158.326 351.619 158.252 350.802 158.409L315.98 165.119C315.231 165.262 314.457 165.211 313.733 164.97C313.009 164.729 312.358 164.306 311.844 163.742C311.33 163.178 310.97 162.491 310.797 161.748C310.624 161.005 310.645 160.229 310.857 159.496L333.572 80.7071C333.786 79.9717 333.807 79.1936 333.633 78.4477C333.459 77.7019 333.096 77.0133 332.579 76.4484C332.062 75.8835 331.408 75.4613 330.68 75.2225C329.953 74.9836 329.176 74.9361 328.424 75.0847L328.412 75.0972Z" fill="url(#paint1_linear_1514_358)"/>
<defs>
<linearGradient id="paint0_linear_1514_358" x1="72.3353" y1="103.133" x2="276.682" y2="380.653" gradientUnits="userSpaceOnUse">
<stop stop-color="#41D1FF"/>
<stop offset="1" stop-color="#BD34FE"/>
</linearGradient>
<linearGradient id="paint1_linear_1514_358" x1="240.676" y1="81.554" x2="277.642" y2="335.133" gradientUnits="userSpaceOnUse">
<stop stop-color="#FFEA83"/>
<stop offset="0.083" stop-color="#FFDD35"/>
<stop offset="1" stop-color="#FFA800"/>
</linearGradient>
</defs>
</svg>
