<svg width="500" height="500" viewBox="0 0 500 500" fill="none" xmlns="http://www.w3.org/2000/svg">
<rect width="500" height="500" fill="#2C2C32"/>
<path d="M412.626 112.887L340.557 78.19C336.488 76.2277 331.908 75.5801 327.453 76.337C322.999 77.094 318.89 79.218 315.697 82.4146L79.7805 297.496C76.9181 300.093 75.2047 303.721 75.0172 307.581C74.8297 311.442 76.1834 315.219 78.7805 318.081C79.093 318.419 79.4055 318.744 79.743 319.044L99.0038 336.542C101.521 338.833 104.76 340.17 108.16 340.32C111.56 340.471 114.905 339.426 117.615 337.367L401.777 121.886C403.923 120.257 406.482 119.26 409.164 119.007C411.847 118.753 414.547 119.253 416.96 120.451C419.374 121.649 421.405 123.496 422.825 125.786C424.246 128.075 424.999 130.716 425 133.41V132.573C425 128.459 423.838 124.43 421.649 120.947C419.46 117.465 416.333 114.671 412.626 112.887Z" fill="#0065A9"/>
<path d="M412.626 387.112L340.557 421.821C336.486 423.778 331.908 424.422 327.455 423.666C323.002 422.909 318.893 420.788 315.697 417.596L79.7805 202.503C76.9181 199.906 75.2047 196.278 75.0172 192.417C74.8297 188.557 76.1834 184.78 78.7805 181.917C79.093 181.58 79.4055 181.255 79.743 180.955L99.0038 163.456C101.523 161.156 104.77 159.813 108.178 159.663C111.587 159.512 114.939 160.563 117.652 162.631L401.777 378.112C403.923 379.741 406.482 380.738 409.164 380.992C411.847 381.246 414.547 380.745 416.96 379.548C419.374 378.35 421.405 376.502 422.825 374.213C424.246 371.923 424.999 369.283 425 366.588V367.488C424.987 371.591 423.819 375.607 421.631 379.077C419.443 382.547 416.322 385.331 412.626 387.112Z" fill="#007ACC"/>
<path d="M340.558 421.822C336.486 423.778 331.908 424.423 327.455 423.666C323.002 422.909 318.893 420.789 315.697 417.597C317.492 419.368 319.77 420.571 322.245 421.053C324.72 421.536 327.283 421.277 329.612 420.309C331.941 419.342 333.932 417.708 335.337 415.614C336.741 413.519 337.497 411.057 337.508 408.535V91.4631C337.51 88.9295 336.76 86.4522 335.353 84.3451C333.946 82.238 331.945 80.5959 329.604 79.6269C327.263 78.6578 324.687 78.4053 322.203 78.9015C319.718 79.3977 317.437 80.6201 315.647 82.4139C318.841 79.2185 322.949 77.0943 327.402 76.3353C331.856 75.5762 336.436 76.2197 340.508 78.1768L412.564 112.824C416.282 114.599 419.422 117.389 421.623 120.872C423.823 124.355 424.994 128.389 425 132.51V367.489C425.001 371.606 423.839 375.639 421.647 379.124C419.456 382.609 416.324 385.404 412.614 387.187L340.558 421.822Z" fill="#1F9CF0"/>
</svg>
