<svg width="500" height="500" viewBox="0 0 500 500" fill="none" xmlns="http://www.w3.org/2000/svg">
<rect width="500" height="500" fill="#2C8EBB"/>
<path d="M250.018 6.2548e-07C200.572 -0.00349627 152.235 14.6557 111.12 42.124C70.0058 69.5922 37.9599 108.636 19.0353 154.317C0.110685 199.998 -4.84267 250.265 4.80164 298.762C14.4459 347.258 38.2547 391.805 73.2171 426.77C108.18 461.735 152.725 485.547 201.221 495.195C249.717 504.843 299.984 499.893 345.667 480.972C391.349 462.05 430.395 430.007 457.866 388.894C485.337 347.782 500 299.446 500 250C500 183.7 473.664 120.116 426.786 73.2327C379.908 26.3493 316.326 0.00703381 250.027 6.2548e-07H250.018ZM268.405 85.6436C271.499 85.9973 274.465 87.0788 277.06 88.7995C277.096 88.8239 277.132 88.8484 277.168 88.873C279.754 90.6296 283.197 92.9679 292.786 112.871C296.52 111.653 300.545 111.653 304.279 112.871C306.268 113.473 308.115 114.472 309.707 115.807C311.299 117.143 312.604 118.788 313.543 120.642C323.444 139.719 324.832 173.789 320.483 195.73C316.634 215.128 308.61 233.457 296.968 249.443C307.422 260.132 315.444 272.954 320.483 287.031C325.295 300.459 327.252 314.742 326.229 328.969C330.563 326.945 334.767 324.654 338.817 322.109C354.424 310.896 372.805 304.173 391.964 302.67C398.628 302.328 405.178 304.497 410.321 308.749C415.463 313.001 418.824 319.027 419.74 325.636C420.634 331.947 419.146 338.365 415.565 343.637C411.984 348.91 406.567 352.66 400.371 354.155C386.625 357.286 373.693 363.28 362.421 371.747C342.826 384.054 321.732 393.793 299.655 400.725C295.401 404.215 290.387 406.655 285.016 407.85C261.087 411.426 236.973 413.625 212.792 414.436H211.881C206.412 414.917 200.903 414.251 195.706 412.481C190.509 410.71 185.739 407.875 181.701 404.155C174.612 407.078 166.95 408.348 159.298 407.867C151.645 407.386 144.202 405.167 137.535 401.379C134.47 399.846 131.797 397.631 129.722 394.903C127.646 392.175 126.225 389.007 125.566 385.644C125.079 382.88 125.079 380.053 125.566 377.29C124.393 376.04 123.342 374.682 122.428 373.232C115.06 361.063 111.814 346.842 113.172 332.682C115.321 319.104 121.824 306.592 131.701 297.03C131.009 280.977 133.683 264.957 139.551 250C146.131 236.091 155.604 223.746 167.336 213.791C162.785 207.086 159.805 199.442 158.618 191.426C157.43 183.411 158.065 175.231 160.476 167.495C165.196 154.897 169.104 147.958 177.626 145.005C181.321 143.931 184.753 142.101 187.703 139.63C200.101 126.094 217.248 117.87 235.564 116.673C236.307 114.728 237.244 112.783 238.172 110.75C241.828 100.32 249.394 91.7203 259.273 86.7662C262.186 85.677 265.315 85.2923 268.405 85.6436ZM267.928 100.522C257.002 98.6121 245.942 132.134 245.942 132.134C237.174 131.318 228.336 132.568 220.136 135.782C211.937 138.997 204.605 144.087 198.727 150.645C194.341 154.912 189.011 158.083 183.168 159.901C181.506 160.458 179.456 160.361 174.461 173.886C166.77 194.528 187.518 217.504 187.518 217.504C173.316 227.726 161.713 241.139 153.642 256.665C147.527 271.576 145.109 287.745 146.597 303.792C146.597 303.792 129.005 319.059 128.068 334.804C127.022 345.824 129.532 356.889 135.228 366.381C135.664 367.338 136.29 368.196 137.068 368.904C137.845 369.612 138.758 370.155 139.751 370.5C140.744 370.846 141.797 370.986 142.846 370.913C143.895 370.84 144.918 370.556 145.854 370.076C145.854 370.076 134.185 383.69 145.111 389.524C156.038 395.359 171.871 397.755 180.764 388.773C187.244 382.293 188.455 367.963 190.842 362.031C191.407 360.643 193.343 364.33 195.2 366.186C196.908 367.701 198.741 369.067 200.681 370.27C198.598 371.1 196.701 372.338 195.102 373.91C193.504 375.483 192.235 377.358 191.371 379.427C190.506 381.496 190.063 383.717 190.068 385.959C190.073 388.202 190.525 390.421 191.399 392.486C193.529 397.578 201.123 400.919 213.623 400.831C236.714 399.955 259.745 397.878 282.62 394.607C286.728 393.949 290.467 391.849 293.167 388.685C315.15 382.13 336.144 372.628 355.578 360.44C368.185 351.035 382.626 344.382 397.967 340.912C401.085 340.141 403.769 338.162 405.429 335.412C407.088 332.662 407.587 329.365 406.816 326.246C406.044 323.128 404.066 320.444 401.316 318.784C398.565 317.125 395.268 316.626 392.15 317.397H392.132C375.601 318.853 359.783 324.805 346.393 334.609C322.136 349.611 310.104 348.594 310.104 348.594V347.94C308.425 345.262 317.795 321.004 307.32 292.397C295.934 260.82 277.882 253.235 279.544 250.822C292.868 233.766 302.344 214.028 307.32 192.963C311.033 174.443 310.025 143.423 301.786 127.307C300.212 124.346 286.501 132.311 286.501 132.311C281.972 121.536 276.49 111.188 270.12 101.388C269.455 100.956 268.709 100.661 267.928 100.522Z" fill="#2C8EBB"/>
<path fill-rule="evenodd" clip-rule="evenodd" d="M268.405 85.6436C271.499 85.9973 274.465 87.0788 277.06 88.7995L277.168 88.873C279.754 90.6296 283.197 92.9679 292.786 112.871C296.52 111.653 300.545 111.653 304.279 112.871C306.268 113.473 308.115 114.472 309.707 115.807C311.299 117.143 312.604 118.788 313.543 120.642C323.444 139.719 324.832 173.789 320.483 195.73C316.634 215.128 308.61 233.457 296.968 249.443C307.422 260.132 315.444 272.954 320.483 287.031C325.295 300.459 327.252 314.742 326.229 328.969C330.563 326.945 334.767 324.654 338.817 322.109C354.424 310.896 372.805 304.173 391.964 302.67C398.628 302.328 405.178 304.497 410.321 308.749C415.463 313.001 418.824 319.027 419.74 325.636C420.634 331.947 419.146 338.365 415.565 343.637C411.984 348.91 406.567 352.66 400.371 354.155C386.625 357.286 373.693 363.28 362.421 371.747C342.826 384.054 321.732 393.793 299.655 400.725C295.401 404.215 290.387 406.655 285.016 407.85C261.087 411.426 236.973 413.625 212.792 414.436H211.881C206.412 414.917 200.903 414.251 195.706 412.481C190.509 410.71 185.739 407.875 181.701 404.155C174.612 407.078 166.95 408.348 159.298 407.867C151.645 407.386 144.202 405.167 137.535 401.379C134.47 399.846 131.797 397.631 129.722 394.903C127.646 392.175 126.225 389.007 125.566 385.644C125.079 382.88 125.079 380.053 125.566 377.29C124.393 376.04 123.342 374.682 122.428 373.232C115.06 361.063 111.814 346.842 113.172 332.682C115.321 319.104 121.824 306.592 131.701 297.03C131.009 280.977 133.683 264.957 139.551 250C146.131 236.091 155.604 223.746 167.336 213.791C162.785 207.086 159.805 199.442 158.618 191.426C157.43 183.411 158.065 175.231 160.476 167.495C165.196 154.897 169.104 147.958 177.626 145.005C181.321 143.931 184.753 142.101 187.703 139.63C200.101 126.094 217.248 117.87 235.564 116.673C236.307 114.728 237.244 112.783 238.172 110.75C241.828 100.32 249.394 91.7203 259.273 86.7662C262.186 85.677 265.315 85.2923 268.405 85.6436ZM245.942 132.134C245.942 132.134 257.002 98.6121 267.928 100.522C268.709 100.661 269.455 100.956 270.12 101.388C276.49 111.188 281.972 121.536 286.501 132.311C286.501 132.311 300.212 124.346 301.786 127.307C310.025 143.423 311.033 174.443 307.32 192.963C302.344 214.028 292.868 233.766 279.544 250.822C277.882 253.235 295.934 260.82 307.32 292.397C317.795 321.004 308.425 345.262 310.104 347.94V348.594C310.104 348.594 322.136 349.611 346.393 334.609C359.783 324.805 375.601 318.853 392.132 317.397H392.15C395.268 316.626 398.565 317.125 401.316 318.784C404.066 320.444 406.044 323.128 406.816 326.246C407.587 329.365 407.088 332.662 405.429 335.412C403.769 338.162 401.085 340.141 397.967 340.912C382.626 344.382 368.185 351.035 355.578 360.44C336.144 372.628 315.15 382.13 293.167 388.685C290.467 391.849 286.728 393.949 282.62 394.607C259.745 397.878 236.714 399.955 213.623 400.831C201.123 400.919 193.529 397.578 191.399 392.486C190.525 390.421 190.073 388.202 190.068 385.959C190.063 383.717 190.506 381.496 191.371 379.427C192.235 377.358 193.504 375.483 195.102 373.91C196.701 372.338 198.598 371.1 200.681 370.27C198.741 369.067 196.908 367.701 195.2 366.186C193.343 364.33 191.407 360.643 190.842 362.031C188.455 367.963 187.244 382.293 180.764 388.773C171.871 397.755 156.038 395.359 145.111 389.524C134.185 383.69 145.854 370.076 145.854 370.076C144.918 370.556 143.895 370.84 142.846 370.913C141.797 370.986 140.744 370.846 139.751 370.5C138.758 370.155 137.845 369.612 137.068 368.904C136.29 368.196 135.664 367.338 135.228 366.381C129.532 356.889 127.022 345.824 128.068 334.804C129.005 319.059 146.597 303.792 146.597 303.792C145.109 287.745 147.527 271.576 153.642 256.665C161.713 241.139 173.316 227.726 187.518 217.504C187.518 217.504 166.77 194.528 174.461 173.886C179.456 160.361 181.506 160.458 183.168 159.901C189.011 158.083 194.341 154.912 198.727 150.645C204.605 144.087 211.937 138.997 220.136 135.782C228.336 132.568 237.174 131.318 245.942 132.134Z" fill="white"/>
</svg>
