<svg width="500" height="500" viewBox="0 0 500 500" fill="none" xmlns="http://www.w3.org/2000/svg">
<rect width="500" height="500" fill="#DDB51B"/>
<path d="M370 340H340V208.75L250 265L160 208.75V340H130V160H148L250 223.75L352 160H370M370 130H130C113.35 130 100 143.35 100 160V340C100 347.956 103.161 355.587 108.787 361.213C114.413 366.839 122.044 370 130 370H370C377.956 370 385.587 366.839 391.213 361.213C396.839 355.587 400 347.956 400 340V160C400 152.044 396.839 144.413 391.213 138.787C385.587 133.161 377.956 130 370 130Z" fill="white"/>
</svg>
