<svg width="500" height="500" viewBox="0 0 500 500" fill="none" xmlns="http://www.w3.org/2000/svg">
<rect width="500" height="500" fill="#010409"/>
<path d="M250.008 104C167.128 104 100 171.128 100 254.007C99.982 285.496 109.879 316.191 128.289 341.739C146.698 367.286 172.684 386.388 202.56 396.335C210.061 397.64 212.881 393.139 212.881 389.194C212.881 385.639 212.686 373.833 212.686 361.263C175.004 368.208 165.253 352.082 162.253 343.637C160.558 339.317 153.253 326.011 146.877 322.441C141.627 319.636 134.127 312.69 146.682 312.51C158.503 312.315 166.933 323.386 169.754 327.886C183.254 350.567 204.81 344.192 213.436 340.262C214.756 330.511 218.686 323.956 223.006 320.206C189.63 316.456 154.753 303.51 154.753 246.132C154.753 229.811 160.558 216.326 170.129 205.81C168.628 202.06 163.378 186.684 171.629 166.058C171.629 166.058 184.184 162.128 212.881 181.449C225.092 178.06 237.709 176.354 250.383 176.379C263.133 176.379 275.884 178.059 287.884 181.434C316.581 161.933 329.136 166.073 329.136 166.073C337.387 186.699 332.137 202.075 330.637 205.825C340.192 216.326 346.012 229.631 346.012 246.132C346.012 303.705 310.956 316.456 277.564 320.206C283.009 324.886 287.704 333.886 287.704 347.957C287.704 368.013 287.509 384.139 287.509 389.209C287.509 393.139 290.33 397.82 297.83 396.32C327.604 386.263 353.475 367.124 371.803 341.596C390.131 316.067 399.993 285.434 400 254.007C400 171.128 332.872 104 249.993 104H250.008Z" fill="white"/>
</svg>
