<svg width="501" height="500" viewBox="0 0 501 500" fill="none" xmlns="http://www.w3.org/2000/svg">
<rect x="0.330078" width="500" height="500" fill="#0A66C2"/>
<path d="M162.959 139.495C162.955 147.844 159.634 155.849 153.728 161.75C147.821 167.651 139.813 170.963 131.464 170.959C123.115 170.955 115.11 167.634 109.209 161.728C103.308 155.821 99.9958 147.813 100 139.464C100.004 131.115 103.325 123.11 109.231 117.209C115.138 111.308 123.146 107.996 131.495 108C139.844 108.004 147.849 111.325 153.75 117.231C159.651 123.138 162.963 131.146 162.959 139.495ZM163.903 194.27H100.944V391.332H163.903V194.27ZM263.379 194.27H200.735V391.332H262.749V287.921C262.749 230.314 337.828 224.962 337.828 287.921V391.332H400V266.515C400 169.401 288.877 173.021 262.749 220.713L263.379 194.27Z" fill="white"/>
</svg>
