<svg width="500" height="500" viewBox="0 0 500 500" fill="none" xmlns="http://www.w3.org/2000/svg">
<rect width="500" height="500" fill="#0DC143"/>
<path d="M355.999 143.651C342.247 129.76 325.867 118.746 307.814 111.252C289.761 103.757 270.396 99.9328 250.85 100.001C168.95 100.001 102.2 166.751 102.2 248.65C102.2 274.9 109.1 300.4 122 322.9L101 400L179.75 379.3C201.5 391.15 225.95 397.45 250.85 397.45C332.749 397.45 399.499 330.7 399.499 248.8C399.499 209.051 384.049 171.701 355.999 143.651ZM250.85 372.25C228.65 372.25 206.9 366.25 187.85 355L183.35 352.3L136.55 364.6L149 319L146 314.35C133.666 294.655 127.117 271.889 127.1 248.65C127.1 180.551 182.6 125.051 250.7 125.051C283.699 125.051 314.749 137.951 337.999 161.351C349.512 172.81 358.635 186.441 364.84 201.452C371.046 216.463 374.21 232.557 374.149 248.8C374.449 316.9 318.949 372.25 250.85 372.25ZM318.649 279.85C314.899 278.05 296.599 269.05 293.299 267.7C289.849 266.5 287.449 265.9 284.899 269.5C282.349 273.25 275.299 281.65 273.199 284.05C271.099 286.6 268.85 286.9 265.1 284.95C261.35 283.15 249.35 279.1 235.25 266.5C224.15 256.6 216.8 244.45 214.55 240.7C212.45 236.95 214.25 235 216.2 233.05C217.85 231.401 219.95 228.701 221.75 226.601C223.55 224.501 224.3 222.851 225.5 220.451C226.7 217.901 226.1 215.801 225.2 214.001C224.3 212.201 216.8 193.901 213.8 186.401C210.8 179.201 207.65 180.101 205.4 179.951H198.2C195.65 179.951 191.75 180.851 188.3 184.601C185 188.351 175.4 197.351 175.4 215.651C175.4 233.951 188.75 251.65 190.55 254.05C192.35 256.6 216.8 294.1 254 310.15C262.85 314.05 269.75 316.3 275.149 317.95C283.999 320.8 292.099 320.35 298.549 319.45C305.749 318.4 320.599 310.45 323.599 301.75C326.749 293.05 326.749 285.7 325.699 284.05C324.649 282.4 322.399 281.65 318.649 279.85Z" fill="white"/>
</svg>
